<?xml version="1.0" encoding="utf-8"?>
<!-- Generator: Adobe Illustrator 21.0.0, SVG Export Plug-In . SVG Version: 6.00 Build 0)  -->
<svg version="1.1" id="レイヤー_1" xmlns="http://www.w3.org/2000/svg" xmlns:xlink="http://www.w3.org/1999/xlink" x="0px"
	 y="0px" viewBox="0 0 1015.4 609.6" style="enable-background:new 0 0 1015.4 609.6;" xml:space="preserve">
<style type="text/css">
	.st0{fill:#D8EFFC;}
	.st1{fill:#9FA0A0;}
	.st2{fill:#C9CACA;}
	.st3{enable-background:new    ;}
	.st4{fill:none;stroke:#9FA0A0;stroke-width:11.3386;stroke-miterlimit:10;}
	.st5{fill:#468CCB;}
	.st6{fill:#FFFFFF;}
	.st7{fill:none;stroke:#9FA0A0;stroke-width:8.5039;stroke-linecap:square;stroke-linejoin:round;}
	.st8{fill:none;stroke:#9FA0A0;stroke-width:8.5039;stroke-linecap:square;stroke-linejoin:round;stroke-dasharray:5.2897,15.8692;}
	.st9{fill:none;stroke:#468CCB;stroke-width:8.5039;stroke-linejoin:round;stroke-miterlimit:10;}
	.st10{fill:#F39800;}
	.st11{fill:#B5B5B6;}
	.st12{fill:#DCDDDD;}
	.st13{fill:#EFEFEF;}
	.st14{fill:#F39800;stroke:#F39800;stroke-width:2.8346;stroke-linejoin:round;stroke-miterlimit:10;}
</style>
<rect x="34.3" y="136.7" class="st0" width="731.5" height="472.9"/>
<rect x="902.8" y="44" class="st1" width="44.5" height="245.2"/>
<polygon class="st0" points="798.4,149.4 0,149.4 105.7,5.9 692.7,5.9 "/>
<polygon class="st2" points="163.9,23.3 279.6,23.3 270.7,50.8 146.7,50.8 "/>
<polygon class="st2" points="286.3,23.3 402,23.3 401.8,50.8 277.9,50.8 "/>
<polygon class="st2" points="408.8,23.3 524.5,23.3 532.9,50.8 409,50.8 "/>
<polygon class="st2" points="531.2,23.3 646.9,23.3 664,50.8 540.1,50.8 "/>
<polygon class="st2" points="145.4,53 269.9,53 259.5,85 125.4,85 "/>
<polygon class="st2" points="277.2,53 401.8,53 401.5,85 267.4,85 "/>
<polygon class="st2" points="409,53 533.6,53 543.4,85 409.3,85 "/>
<polygon class="st2" points="540.8,53 665.4,53 685.4,85 551.2,85 "/>
<polygon class="st2" points="123.8,87.6 258.7,87.6 246.4,125.3 100.2,125.3 "/>
<polygon class="st2" points="266.6,87.6 401.5,87.6 401.1,125.3 254.9,125.3 "/>
<polygon class="st2" points="409.3,87.6 544.2,87.6 555.8,125.3 409.6,125.3 "/>
<polygon class="st2" points="552.1,87.6 687,87.6 710.5,125.3 564.3,125.3 "/>
<g class="st3">
	<path d="M780.4,561.6h6.9V560h3.3v1.6h10.8V560h3.3v1.6h6.8v3h-6.8v1.7h-3.3v-1.7h-10.8v1.7h-3.3v-1.7h-6.9V561.6z M802.4,570.7
		c-2.2,2.3-4.8,4.4-5.3,4.8l8.1-0.3c-0.9-0.8-1.5-1.3-2.7-2.1l2.1-2.1c3,2,5.6,4.6,6.8,6l-2.6,2.2c-0.4-0.5-0.7-0.9-1.5-1.8
		c-17.3,0.8-18.1,0.9-26.1,0.9l-0.4-2.8c1.4,0,8.4,0,10,0c-3.4-1.7-4.5-2.1-5.7-2.4l2-2.7c0.6,0.2,0.9,0.3,2.1,0.9
		c0.4-0.5,0.5-0.6,1.5-1.7h-10.4v-2.7h13.8v-1.7h3.3v1.7h13.9v2.7h-10.8L802.4,570.7z M782.8,579.3h25.9v11.6h-3.3v-1H786v1h-3.2
		V579.3z M786,583.5h8.2v-1.8H786V583.5z M786,587.5h8.2v-2H786V587.5z M794.7,569.6c-1.3,1.3-2.3,2.3-3,3c1.7,1,1.9,1.1,2.8,1.5
		c1.6-1.4,3.1-2.9,4.5-4.5H794.7z M797.4,583.5h8.1v-1.8h-8.1V583.5z M797.4,587.5h8.1v-2h-8.1V587.5z"/>
	<path d="M815.6,561H842v2.7h-11.8v1.3h13.1v7.1h-3.5v-4.7h-9.6v6.5h-3.1v-6.5h-9.5v4.7h-3.4V565h12.9v-1.3h-11.5V561z M844.4,585.5
		c-0.2,3.2-0.7,5.1-2.9,5.1h-11.4c-1.7,0-3.2-0.1-3.2-2.2v-2.9h-8v2h-3.2v-12.9h25.8v10.1L844.4,585.5z M819,581v1.9h8V581H819z
		 M819.2,577v1.9h7.8V577H819.2z M819.2,568.7h6.5v1.7h-6.5V568.7z M819.2,571.7h6.5v1.7h-6.5V571.7z M830.3,577v1.9h8V577H830.3z
		 M830.3,581v1.9h8V581H830.3z M830.3,585.5v1.2c0,0.7,0,0.9,0.8,0.9h8.9c0.9,0,1.2-0.1,1.3-2.1H830.3z M831.8,568.7h6.6v1.7h-6.6
		V568.7z M831.8,571.7h6.6v1.7h-6.6V571.7z"/>
	<path d="M856.1,576.5c-4.3-2.1-4.4-2.2-9.2-3.8l1.7-3.3c1.6,0.4,5.7,1.5,9.2,3.6L856.1,576.5z M848.7,584.7
		c12.4-0.6,18.2-5.1,22.4-17.9l3.6,1.6c-4,11.3-9.6,19-25,20.2L848.7,584.7z M858.9,569.1c-4-2.2-8.5-3.5-9.5-3.8l1.7-3.3
		c1.1,0.3,5.3,1.3,9.5,3.7L858.9,569.1z"/>
	<path d="M876.9,586.2c7-2.6,15.3-9.7,19-19.7h-17.1v-3.6h22.1c-0.5,2-1.6,7.2-6.3,13.7c3.9,3.1,7.6,6.3,11.1,9.8l-3.1,3.1
		c-3.7-4.4-8.8-8.8-10.3-10.1c-3.8,4.4-8,7.8-13.2,9.9L876.9,586.2z"/>
	<path d="M936,571.1v3.5h-10.9c-0.5,7.9-3,13.4-13.6,15.4l-1.7-3.1c9.9-1.6,11.2-6.1,11.6-12.3h-12.8v-3.5H936z M933.3,562.6v3.4
		h-22.1v-3.4H933.3z"/>
	<path d="M960.2,573.1c3.6,4.6,6.5,10.7,8.3,15l-3.8,1.7c-0.4-1.2-0.7-1.8-1.3-3.2c-12.7,1.2-14.1,1.3-23.3,1.8l-0.4-4
		c0.8,0,2.4,0,3.3,0c3.8-9.8,5.1-15.4,6.9-22.9l4.2,0.5c-2.1,8.1-5.3,17.4-7.3,22.3c5.1-0.2,6.2-0.2,15.2-0.8
		c-3.1-6.3-4.1-7.7-5-8.9L960.2,573.1z"/>
</g>
<g class="st3">
	<path d="M862.6,2H889v2.7h-11.8v1.3h13.1v7.1h-3.5V8.5h-9.6V15H874V8.5h-9.5v4.7h-3.4V6.1H874V4.7h-11.5V2z M891.4,26.5
		c-0.2,3.2-0.7,5.1-2.9,5.1h-11.4c-1.7,0-3.2-0.1-3.2-2.2v-2.9h-8v2h-3.2V15.6h25.8v10.1L891.4,26.5z M866,22V24h8V22H866z
		 M866.1,18v1.9h7.8V18H866.1z M866.2,9.8h6.5v1.7h-6.5V9.8z M866.2,12.7h6.5v1.7h-6.5V12.7z M877.2,18v1.9h8V18H877.2z M877.2,22
		V24h8V22H877.2z M877.2,26.5v1.2c0,0.7,0,0.9,0.8,0.9h8.9c0.9,0,1.2-0.1,1.3-2.1H877.2z M878.7,9.8h6.6v1.7h-6.6V9.8z M878.7,12.7
		h6.6v1.7h-6.6V12.7z"/>
	<path d="M893.1,28.4c10-5.5,10.8-12.1,11.5-17.2h-10.7V7.7h11c0-0.4,0.2-2.7,0.2-4.3V1h3.8v2.5c0,1.9-0.1,3.2-0.2,4.2h14.8
		c-0.1,11.1-0.8,17.3-1.3,19.6c-0.3,1.2-1.1,4.6-4.8,4.6h-6.1l-0.6-3.7h5.5c1.9,0,2.1-1.2,2.5-3.6c0.5-2.7,0.9-9.6,0.9-13.4h-11.2
		c-0.8,6.4-2.2,14.5-13.1,20.6L893.1,28.4z"/>
	<path d="M932.9,11.3c-2.5,1.6-4,2.2-5.4,2.8l-1.9-3.2c5.3-1.8,11.5-5.9,14.3-10.1h3.8c2.4,3.8,7.7,7.5,14.2,10l-2.1,3.3
		c-1.4-0.7-3.3-1.6-5.3-2.9v1.9h-17.5V11.3z M952.5,32.2c-0.4-0.7-0.6-1.1-1.3-2.2c-4.5,0.5-11.9,1-23.4,1.2l-0.5-3.4
		c0.7,0,3.7,0,4.7,0c0.9-1.6,2.5-5.2,3.2-7.7h-8.5v-3.2h29.7V20h-17.1c-1.1,2.7-2.4,5.5-3.5,7.6c6.2-0.1,6.8-0.2,13.4-0.5
		c-1.6-2.1-2.4-3.3-3.9-4.7l2.8-1.7c1,1,4.8,4.7,7.6,9.5L952.5,32.2z M948.5,9.9c-3.6-2.5-6.1-5.4-6.8-6.3c-1.3,1.6-3.1,3.6-6.8,6.3
		H948.5z"/>
	<path d="M967.5,31.9h-3.4V19.2c-2,1.8-3,2.4-4,3.1l-1.4-3.4c4.2-2.5,7.4-6,9-9.6h-8.5V6.1h5V1h3.4v5.1h3.9v3.2
		c-0.6,1.3-1.3,2.9-3.3,5.6c1.7,1.9,2.5,2.5,4.6,4l-1.6,3.1c-1.5-1.2-2.4-2.1-3.6-3.5V31.9z M978.7,1h3.5v9.3h7v3.5h-7v13.5h7.8v3.5
		h-19.6v-3.5h8.3V13.8h-6.9v-3.5h6.9V1z"/>
</g>
<g class="st3">
	<path d="M286,83c11.4-3.9,17.7-13.9,19.3-22.6h-18.6v-5h18.9V44.8h5.2v10.6h19.3v5h-18.4c3.4,16.1,15.5,21.2,19.3,22.8l-3.2,5
		c-1.9-0.9-5-2.3-8.6-5.4c-2.7-2.3-8.4-7.8-10.6-16.7c-5.7,15.9-16.3,20.4-20,22L286,83z M305.4,76.7c2.8,1.3,7.2,5.2,9.2,7.5
		l-3.9,4.1c-0.6-0.7-4-5-8.5-7.8L305.4,76.7z"/>
	<path d="M346.5,80.9c3.2-1.3,7.8-3.2,10.4-7.2h-2.7c-2,1.9-3.3,2.5-4.5,3.1l-1.8-2.4c-0.8,4-2.2,5.2-6,5.2h-1.5l-0.5-4.7h1.2
		c1.8,0,2.7-0.2,2.7-3.1c0-2.1-0.4-6.2-4-9.7c1.8-3.9,2.8-7.4,3.5-11.4h-4.5v37.8h-4.4V46.6h13.2v4.1c-0.6,2.8-1.5,6.8-3.4,10.9
		c3.3,3.4,4.1,8.9,3.8,11.8c0.5-0.2,4.1-2,6.4-5.8h-6.3v-3.7h28.6v3.7h-18.2c-0.3,0.7-0.6,1.3-1.4,2.5h18.2c0,1.7-0.3,9.7-0.5,11.6
		c-0.7,6.8-2.5,6.8-5.8,6.8h-4.2l-0.8-4.5h3.3c0.3,0,1.9,0,2.4-0.6c0.4-0.4,0.8-0.9,1.1-9.7h-2.9c-1.1,3.7-5.2,11.1-13.6,15.2
		l-2.7-3.4c1.9-0.9,9-4.2,12.4-11.8h-2.5c-3.4,6.3-7.8,8.5-12.9,10.6L346.5,80.9z M373.9,46.6v15h-23.6v-15H373.9z M354.7,50v2.7
		h14.7V50H354.7z M354.7,55.6v2.8h14.7v-2.8H354.7z"/>
	<path d="M379.5,61h19.2V45h4.8v16h19.6v4.7h-14.2v16.2c0,0.6,0.1,1.3,1.3,1.3h5.5c0.9,0,1.4-0.4,1.7-0.8c0.6-0.8,0.6-2.4,1.1-7.7
		l4.9,1.3c-0.9,10.5-2.2,12.1-6.6,12.1h-7.8c-2.8,0-4.7,0-4.7-3.2v-19h-6.6c-0.6,16.5-10.4,21-15.8,22.9l-2.6-4.5
		c8.7-1.8,13.5-9.6,13.5-18.3h-13.1V61z M389.5,59.4c-0.9-2.2-4.4-7.2-6.7-9.7l4.3-2.8c1.7,1.7,5.6,6.8,6.9,9.7L389.5,59.4z
		 M408.9,56.9c2.8-4,4.2-6.1,6.6-10.3l4.8,2c-1.6,3.4-5.2,8.7-7.5,11.1L408.9,56.9z"/>
	<path d="M469.1,50.9c-1,1.2-2.6,3.3-6.2,6.5c2.9,1.6,5.1,2.6,7.1,3.4l-1.9,4.4c-1.8-0.8-3.7-1.7-6.7-3.4v3.1h-6v5.2h12.7v4.4h-12.7
		v7.5c0,1,0.5,1.1,1.3,1.1h6c1.9,0,2-1.2,2.3-5.6l4.7,0.6c-0.7,7-1.2,9.5-5.1,9.5h-9.7c-1.4,0-4.1,0-4.1-3.2v-9.9h-7.2
		c-1.5,8.2-8,12.2-15.1,13.9l-2.3-4.7c7.2-0.8,12.1-4.9,12.8-9.2h-11.3v-4.4h11.8v-5.2H434v-2.8c-2.9,1.8-4.6,2.6-6.2,3.3l-2.3-4.4
		c1.5-0.5,4-1.4,8-3.8c-0.2-0.2-2.6-2.4-5.5-4.6l2.6-2.4h-0.4v-4h20.1c0.7,1.1,1.5,2.4,3.1,4.1c3.6-3.3,4-3.7,5.4-5.4l3.7,2.2
		c-1.8,2.1-3.9,4.1-6,6.1c0.9,0.7,1.5,1.1,2.7,1.9c3.7-3.5,4.5-4.3,6.3-6.4L469.1,50.9z M431.8,50.2c2.4,1.6,5.3,4.2,5.5,4.4
		c2.6-1.9,3.8-3.2,5-4.4H431.8z M459.1,60.4c-5.4-3.2-9.5-7.7-11.5-10c-1.6,1.9-4.5,5.5-11.1,10H459.1z M443.8,64.8v5.2h6.9v-5.2
		H443.8z"/>
	<path d="M475.4,46.3h37.2v3.9H496V52h18.4v10h-4.9v-6.6H496v9.2h-4.4v-9.2h-13.4V62h-4.8V52h18.2v-1.9h-16.2V46.3z M516.1,80.9
		c-0.3,4.5-0.9,7.1-4,7.1H496c-2.4,0-4.5-0.1-4.5-3.2v-4h-11.3v2.8h-4.5V65.5h36.4v14.2L516.1,80.9z M480.3,74.5v2.7h11.3v-2.7
		H480.3z M480.5,68.9v2.6h11v-2.6H480.5z M480.6,57.3h9.1v2.4h-9.1V57.3z M480.6,61.4h9.1v2.5h-9.1V61.4z M496.1,68.9v2.6h11.3v-2.6
		H496.1z M496.1,74.5v2.7h11.3v-2.7H496.1z M496.1,80.8v1.7c0,1,0,1.3,1.2,1.3h12.5c1.3,0,1.6-0.1,1.8-3H496.1z M498.3,57.3h9.3v2.4
		h-9.3V57.3z M498.3,61.4h9.3v2.5h-9.3V61.4z"/>
</g>
<line class="st4" x1="831.8" y1="96.8" x2="1015.4" y2="96.8"/>
<line class="st4" x1="831.8" y1="168.8" x2="1015.4" y2="168.8"/>
<line class="st4" x1="850.7" y1="69.7" x2="850.7" y2="95.3"/>
<line class="st4" x1="872.7" y1="69.7" x2="872.7" y2="95.3"/>
<line class="st4" x1="850.7" y1="142.2" x2="850.7" y2="167.8"/>
<line class="st4" x1="872.7" y1="142.2" x2="872.7" y2="167.8"/>
<line class="st4" x1="994.1" y1="69.4" x2="994.1" y2="95"/>
<line class="st4" x1="972.1" y1="69.4" x2="972.1" y2="95"/>
<rect x="966.6" y="121" class="st1" width="37.7" height="47.7"/>
<rect x="554.9" y="156.1" class="st1" width="165.8" height="112.8"/>
<rect x="304.9" y="288.5" class="st5" width="190" height="130.2"/>
<rect x="304.9" y="479" class="st5" width="316.5" height="102.1"/>
<rect x="76.9" y="479" class="st5" width="188.3" height="102.1"/>
<rect x="75.5" y="288.5" class="st1" width="190" height="130.2"/>
<g class="st3">
	<path class="st6" d="M595.7,210.1c-1.5,1.4-2.5,2.1-3.4,2.8l-2.4-3c4.2-2.3,8.4-7.2,9.9-12l3.4,0.9c-1.2,3.1-2.9,6.8-7.2,10.9h20.3
		c0,3.3-0.1,11.9-1.3,16.2c-0.9,3-3.1,3.1-4.5,3.1h-5l-0.7-3.5h5c1.9,0,2.2-1.6,2.4-3.1c0.3-1.5,0.7-4.6,0.7-9.4h-7.6
		c-0.9,8.9-5.4,13.1-12.2,16l-2-3.2c7.1-3,9.9-6,10.7-12.8h-6V210.1z M620,212.6c-2.7-1.8-8.4-7.6-10.7-13.7l3.4-1
		c1.7,4.1,5.2,9.2,9.6,11.8L620,212.6z"/>
	<path class="st6" d="M625.9,199h26.4v2.7h-11.8v1.3h13.1v7.1h-3.5v-4.7h-9.6v6.5h-3.1v-6.5h-9.5v4.7h-3.4V203h12.9v-1.3h-11.5V199z
		 M654.8,223.5c-0.2,3.2-0.7,5.1-2.9,5.1h-11.4c-1.7,0-3.2-0.1-3.2-2.2v-2.9h-8v2h-3.2v-12.9h25.8v10.1L654.8,223.5z M629.3,219v1.9
		h8V219H629.3z M629.5,215v1.9h7.8V215H629.5z M629.6,206.8h6.5v1.7h-6.5V206.8z M629.6,209.7h6.5v1.7h-6.5V209.7z M640.6,215v1.9h8
		V215H640.6z M640.6,219v1.9h8V219H640.6z M640.6,223.5v1.2c0,0.7,0,0.9,0.8,0.9h8.9c0.9,0,1.2-0.1,1.3-2.1H640.6z M642.1,206.8h6.6
		v1.7h-6.6V206.8z M642.1,209.7h6.6v1.7h-6.6V209.7z"/>
	<path class="st6" d="M665,213.3h-2.2v-3.8l-1.6,0.1c-0.3,4.3-1,6.2-2.7,8.4l-2.3-2.6c1.5-2,1.9-3.3,2.1-5.6c-0.7,0-0.8,0.1-1.7,0.1
		v-2.7c1.3,0,1.5,0,1.8,0v-7.1h3.8c0.2-0.7,0.4-1.5,0.5-2.1h3.5c-0.4,1.2-0.5,1.4-0.8,2.1h4.4v6.2c0.3,0,0.4,0,1.1-0.1v2.6
		c-0.7,0.1-0.8,0.1-1.1,0.2v6c0,1.9-1.3,2.4-2.6,2.4h-3l-0.7-3h2.6c0.8,0,0.9-0.2,0.9-0.9v-4.2c-1.3,0.1-1.8,0.2-2.2,0.2V213.3z
		 M687.5,224.9v3h-30.9v-3h2.4v-6.4h25.9v6.4H687.5z M661.2,207c1.4-0.1,2.1-0.1,2.8-0.2c-0.2-0.4-1.2-1.8-2-2.7l2.1-1.4h-3V207z
		 M662.2,221.3v3.6h4.6v-3.6H662.2z M667.2,206.5v-3.9h-3c0.8,1,1.6,2.1,1.9,2.6l-2,1.5L667.2,206.5z M669.9,221.3v3.6h4.2v-3.6
		H669.9z M674.6,209.1H672v-2.5h13.9v2.5c-0.6,0.8-1.5,2.2-4.1,4.1c2.3,0.8,4.2,1.1,6.1,1.3l-1.4,3.1c-1.2-0.3-4.5-1.1-7.6-2.6
		c-3.5,1.7-5.7,2.2-7,2.5l-1.5-2.9c1.4-0.2,3.2-0.3,5.6-1.3c-1.5-1.2-2.3-2-3-2.8L674.6,209.1z M683.5,198.7v3.3
		c0,0.5,0.1,0.8,0.5,0.8c0.8,0,0.9,0,1.1-2.4l2.5,0.5c-0.2,1.8-0.4,4.3-2.4,4.3H682c-0.5,0-1.6,0-1.6-1.5v-2.4h-3.9
		c-0.5,2.5-1.4,3.3-3.9,4.5l-1.6-2.1c2.2-1.2,2.3-2,2.3-5H683.5z M675.5,209.1c1.3,1.4,2.4,2.2,3.3,2.7c1.8-1.1,2.6-1.9,3.4-2.7
		H675.5z M677.2,221.3v3.6h4.5v-3.6H677.2z"/>
</g>
<g class="st3">
	<path class="st6" d="M139.4,332.1h30.8v3.5h-30.8V332.1z"/>
	<path class="st6" d="M178.6,335.6c-1,0.1-1.3,0.2-1.7,0.2c-0.1,3.9-0.8,9.5-3,13.6l-2.1-2.6c2-4.2,2.2-7.8,2.2-10.8
		c-0.3,0-1.5,0.1-1.7,0.2l-0.3-3.2c0.9,0,1.3,0,2-0.1v-11.1h3.3c0.3-0.8,0.5-1.3,0.9-3.2l3.5,0.4c-0.2,0.5-0.8,1.9-1.1,2.8h4.7v9.9
		c0.4-0.1,0.7-0.1,1.1-0.2v2.8c-0.5,0.1-0.7,0.2-1.1,0.2v11.6c0,2.7-1.4,3.4-3.2,3.4h-2.9l-0.7-3.4h3.1c0.7,0,0.9-0.1,0.9-0.8v-10.4
		c-0.4,0-0.6,0.1-1.6,0.2v8.3h-2.4V335.6z M182.5,324.9h-5.7v7.9c3.9-0.4,4.4-0.4,5.7-0.6V324.9z M180.2,325.9
		c0.3,0.8,1.2,3.4,1.5,5.1l-2.7,0.8c-0.1-0.8-0.3-2.1-1.3-5.2L180.2,325.9z M191.4,335.9h-4.3v-3.1h14.1v3.1c-0.8,1.7-2,4.4-4.2,7.2
		c2.3,1.9,4.5,2.8,6.1,3.4l-1.6,3.2c-2-0.9-4.5-2.1-6.8-4.1c-2.9,2.5-5.4,3.6-6.9,4.1l-1.8-2.9c1.4-0.5,3.8-1.4,6.4-3.6
		c-2.1-2.6-3-4.8-3.6-6.2L191.4,335.9z M188.5,319.7h9.7v6.8c0,0.5,0.3,0.9,0.8,0.9h0.7c0.5,0,0.8-0.3,0.9-0.9
		c0.1-0.4,0.2-2.1,0.2-2.6l2.6,0.8c-0.1,3.9-0.7,5.7-3.3,5.7H198c-1.3,0-2.7-0.3-2.7-2.8v-4.9h-3.8c-0.6,6.1-1.9,7.7-3.5,9.2
		l-1.8-2.6c0.6-0.6,1.4-1.5,1.7-3c0.3-1.2,0.6-3.3,0.6-4.6V319.7z M191.9,335.9c1.1,2.6,2.3,4.2,2.8,4.9c1.5-1.9,2.3-3.7,2.8-4.9
		H191.9z"/>
</g>
<g class="st3">
	<path class="st6" d="M115.8,365.8v22.8H92v-3.6h19.9v-15.7H92.1v-3.6H115.8z"/>
	<path class="st6" d="M131.4,372.5c-2.5-1.8-6.5-3.8-9.9-4.8l1.8-3.2c2.9,0.8,5.8,1.8,10.2,4.5L131.4,372.5z M121.8,386.1
		c12.3-0.9,19.5-5.6,24-19.6l3.7,1.7c-4.8,14.1-11.9,20.3-26.5,22.1L121.8,386.1z"/>
	<path class="st6" d="M180.4,368.4c-1.2,7.6-3.8,11.1-9.7,14.3l-2.4-3c5.4-2.2,6.7-5.3,7.4-7.6l-12.6,1.1v10.2c0,3,0.3,3.4,4.2,3.4
		h6.8c1.9,0,4-0.2,5.8-0.7v3.9c-1.3,0.3-4.2,0.4-5.6,0.4h-7.7c-6.1,0-7.2-2.3-7.2-6.7v-10.2l-6.9,0.6l-0.3-3.6l7.2-0.5v-7.2h3.8v6.9
		L180.4,368.4z"/>
	<path class="st6" d="M194.2,372.5c-2.5-1.8-6.5-3.8-9.9-4.8l1.8-3.2c2.9,0.8,5.8,1.8,10.2,4.5L194.2,372.5z M184.6,386.1
		c12.3-0.9,19.5-5.6,24-19.6l3.7,1.7c-4.8,14.1-11.9,20.3-26.5,22.1L184.6,386.1z"/>
	<path class="st6" d="M220.9,362.3v8.4c8,2.3,14.3,5.9,16.5,7.1l-1.8,3.8c-3.7-2.2-10.2-5.9-14.7-7v16.7h-3.9v-29.1H220.9z"/>
</g>
<g class="st3">
	<path class="st6" d="M318.5,337.7c1.4,0,3.1,0,9.4-0.6c0.2-0.9,0.4-2.1,0.4-2.7v-1.5h-8.6v-3.3h8.6v-4.4h-9.1v-3.3h9.1v-3.8h3.5v16
		c0,1.3-0.1,2-0.2,2.6c0.9-0.1,1.4-0.2,3-0.6v3.1c-1.5,0.3-2.5,0.5-3.9,0.7c-1.3,3.1-3.4,5.8-9.5,9.2l-2.2-3.3
		c4.6-2,6.6-4.3,7.4-5.3c-1.3,0.2-3.4,0.4-7.4,0.7L318.5,337.7z M340,318.1v3.8h9.6v3.3H340v4.9h8.8v3.3H340v5.4h9.9v3.3H340v7.1
		h-3.5v-31H340z"/>
	<path class="st6" d="M359.6,318.2c0.8,1.2,1.9,3.6,2.3,4.3h3.8v-4.3h3.3v4.3h4.1c0.8-1.5,1.9-3.6,2.3-4.4l3.2,1.4
		c-0.5,1.2-1.3,2.7-1.5,3h5.2v8.2H379v-5.3H356v5.3h-3.4v-8.2h5.5c-0.4-0.8-1.1-2-1.6-3L359.6,318.2z M377,340.4h-8v8.7h-3.4v-8.7
		h-7.9v7.3h-3.4v-10.3h11.3v-2.1h-7.9v-8.4H377v8.4H369v2.1h11.5v7c0,1.6,0,3.2-2.4,3.2h-4.4l-0.8-3.2h2.9c1.2,0,1.2-0.5,1.2-1
		V340.4z M361.1,329.8v2.9h12.6v-2.9H361.1z"/>
	<path class="st6" d="M385.6,319.5h10.3v25h-7.1v2.5h-3.2V319.5z M388.8,322.8v7.4h4v-7.4H388.8z M388.8,333.3v8h4v-8H388.8z
		 M414.7,324.1h-6.8v3.8h7.8v3.2h-3.4v3.3h3.1v3.2h-3.1v8.1c0,1,0,3.4-3.1,3.4H404l-0.7-3.4h4.9c0.2,0,0.7,0,0.7-0.5v-7.5h-11.8
		v-3.2H409v-3.3h-12.1v-3.2h7.7v-3.8h-6.5V321h6.5v-2.8h3.3v2.8h6.8V324.1z M400.2,338.1c2.1,2,3.1,3.2,4.4,5.3l-2.9,2.2
		c-1.8-2.9-2.3-3.5-4.2-5.6L400.2,338.1z"/>
	<path class="st6" d="M417.3,345.1c3.1-1.4,6-3.4,8.3-5.9h-5.5v-2.6h7.8v-2.4h-10.1v-2.8h10.1v-2.2h-7.8v-2.6h7.8v-2h-10.1v-2.9h8.2
		c-0.6-1.3-0.9-1.8-1.5-2.9l3.7-0.6c0.7,1.2,1.2,2.3,1.6,3.6h6.9c0.4-0.5,0.9-1.3,1.6-3.5l3.7,0.6c-0.4,1.3-1,2.3-1.3,2.9h8.1v2.9
		h-10.3v2h7.3v4.8h3v2.8h-3v5h-5c2.9,3.2,5.7,4.7,8.4,5.9l-2,3.2c-4-2.3-5.9-3.9-8.6-7.3v8.1h-3.2v-9.9h-4.1v9.9h-3.2V341
		c-3,3.9-6.6,6-8.6,7.2L417.3,345.1z M431.1,324.5v2h4.1v-2H431.1z M431.1,329.2v2.2h4.1v-2.2H431.1z M431.1,334.2v2.4h4.1v-2.4
		H431.1z M438.5,329.2v2.2h4.1v-2.2H438.5z M438.5,334.2v2.4h4.1v-2.4H438.5z"/>
	<path class="st6" d="M476.3,339.1h-8v9.7H465v-9.7h-7.8c-0.4,3.2-1.1,6.3-3.9,9.8l-2.7-3c0.7-0.8,1.7-2,2.4-3.8
		c1.1-2.8,1.3-6,1.3-6.8v-15.7h25.5v26.7c0,1-0.3,2.8-2.8,2.8h-4.4l-0.4-3.4h3.4c0.3,0,0.8-0.1,0.8-0.8V339.1z M457.6,331.1v3.8
		c0,0.2,0,1,0,1.1h7.5v-4.8H457.6z M457.6,323v4.8h7.4V323H457.6z M468.3,323v4.8h8V323H468.3z M468.3,331.1v4.8h8v-4.8H468.3z"/>
</g>
<g class="st3">
	<path class="st6" d="M344.9,365.3V388h-23.8v-3.6H341v-15.7h-19.8v-3.6H344.9z"/>
	<path class="st6" d="M360.5,371.9c-2.5-1.8-6.5-3.8-9.9-4.8l1.8-3.2c2.9,0.8,5.8,1.8,10.2,4.5L360.5,371.9z M350.9,385.5
		c12.3-0.9,19.5-5.6,24-19.6l3.7,1.7c-4.8,14.1-11.9,20.3-26.5,22.1L350.9,385.5z"/>
	<path class="st6" d="M409.6,367.8c-1.2,7.6-3.8,11.1-9.7,14.3l-2.4-3c5.4-2.2,6.7-5.3,7.4-7.6l-12.6,1.1v10.2c0,3,0.3,3.4,4.2,3.4
		h6.8c1.9,0,4-0.2,5.8-0.7v3.9c-1.3,0.3-4.2,0.4-5.6,0.4h-7.7c-6.1,0-7.2-2.3-7.2-6.7v-10.2l-6.9,0.6l-0.3-3.6l7.2-0.5v-7.2h3.8v6.9
		L409.6,367.8z"/>
	<path class="st6" d="M423.4,371.9c-2.5-1.8-6.5-3.8-9.9-4.8l1.8-3.2c2.9,0.8,5.8,1.8,10.2,4.5L423.4,371.9z M413.7,385.5
		c12.3-0.9,19.5-5.6,24-19.6l3.7,1.7c-4.8,14.1-11.9,20.3-26.5,22.1L413.7,385.5z"/>
	<path class="st6" d="M450,361.8v8.4c8,2.3,14.3,5.9,16.5,7.1l-1.8,3.8c-3.7-2.2-10.2-5.9-14.7-7v16.7h-3.9v-29.1H450z"/>
</g>
<g class="st3">
	<path class="st6" d="M330.1,515.7h-3.3v-15.4h3.3V515.7z M344.4,510.5c0,11.3-6.7,12.6-15.1,13.5l-1-3.1c4.1-0.3,6.8-0.7,9.3-2
		c3.3-1.7,3.5-5.8,3.5-6.9v-12.3h3.3V510.5z"/>
	<path class="st6" d="M352.9,500.4v8.4c5.5-1.1,9.6-2.8,13.3-4.8l1.8,2.9c-6,3-11.1,4.2-15.1,5.1v6.1c0,1.3,0.5,1.6,2.3,1.6h9.5
		c3,0,4.6-0.3,5.6-0.5l0.1,3.4c-1.2,0.1-2.4,0.3-6,0.3h-9.7c-3.8,0-5.1-1.2-5.1-3.9v-18.6H352.9z M367.6,504c-0.8-2.1-1.1-2.8-2-4.6
		l2.1-0.8c0.9,1.5,1.5,2.9,2.1,4.5L367.6,504z M371.4,503.3c-0.9-2.4-1.4-3.3-2-4.5l2.1-0.8c0.7,1.3,1.5,2.8,2,4.3L371.4,503.3z"/>
	<path class="st6" d="M383.9,507.8c-2.1-1.6-5.6-3.3-8.6-4.2l1.5-2.8c2.5,0.7,5,1.5,8.8,3.9L383.9,507.8z M375.6,519.5
		c10.6-0.8,16.8-4.8,20.7-16.9l3.2,1.4c-4.2,12.1-10.3,17.5-22.9,19L375.6,519.5z"/>
	<path class="st6" d="M401.4,509.8c6.4-3.3,8.1-8.9,8.7-10.7l3.5,0.6c-0.3,1-0.8,2-1.6,3.6h12.2c-2.4,17.4-15.1,19.6-19.9,20.4
		l-1.4-2.9c9.2-1.3,14.7-4.9,17.4-14.5h-10.1c-2.4,3.2-4.4,4.7-6.7,6L401.4,509.8z M420.3,502.5c-0.7-2.3-0.8-2.8-1.4-4.2l2.2-0.5
		c0.3,0.6,0.8,1.6,1.5,4.2L420.3,502.5z M424.5,502.3c-0.6-2.2-1.2-3.3-1.5-4l2.3-0.5c0.5,1,1,2.1,1.6,4L424.5,502.3z"/>
	<path class="st6" d="M433.6,517.9c-1,3.1-2,5-3.7,6.8l-2.2-2.2c1.6-1.6,2.5-2.9,3.3-5.3L433.6,517.9z M428.8,499.2h8.8v16.9h-8.8
		V499.2z M431.3,501.7v4.6h3.8v-4.6H431.3z M431.3,508.7v4.8h3.8v-4.8H431.3z M438.6,518.1c0.3,1.7,0.5,4.6,0.4,6.1h-3
		c0.1-0.6,0.1-1.1,0.1-2.3c0-0.5-0.1-3.1-0.1-3.7H438.6z M439,499h14.7c-0.1,1.7-0.3,6.2-1,7.3c-0.6,0.8-1.4,1.3-2.4,1.3h-3.1
		l-0.5-2.7h3c0.9,0,1.1-0.3,1.2-3.2h-4.2c-1.5,3.7-3.9,5.5-6.8,6.9l-1.4-2.2c2.6-0.9,4-2,5.2-4.6H439V499z M450.4,517.1h-10.6v-8.3
		h13v8.3H450.4c1.7,1.9,3.5,4.7,4.1,6l-2.6,1.5c-1.2-2.6-3.7-5.8-4.1-6.4L450.4,517.1z M444.6,517.8c0.4,1,1,2.8,1.7,6.2l-2.9,0.2
		c-0.1-0.7-0.4-3.2-1.3-6.1L444.6,517.8z M442.5,511.2v3.5h7.7v-3.5H442.5z"/>
	<path class="st6" d="M466.5,499.3v19.1h-7.1v2.3h-2.8v-21.4H466.5z M459.4,502.1v5.2h4.3v-5.2H459.4z M459.4,510v5.6h4.3V510H459.4
		z M479,515.6h-7.4c-0.6,3.1-1.9,6.5-6.6,9.2l-2-2.5c3.8-1.8,6-4.2,6-11.7v-11.8h12.9v23.5c0,2.2-2,2.5-2.6,2.5h-3.8l-0.6-2.9h3.2
		c0.7,0,0.9-0.1,0.9-1V515.6z M471.9,501.5v4.3h7.1v-4.3H471.9z M471.9,508.4v4.4h7.1v-4.4H471.9z"/>
	<path class="st6" d="M491.2,511.4c0,1.6-1.3,2.9-2.9,2.9c-1.6,0-3-1.3-2.9-2.9c0-1.6,1.3-2.9,2.9-2.9
		C489.9,508.5,491.2,509.8,491.2,511.4z"/>
	<path class="st6" d="M500.1,514c-0.9,2.7-2.6,7-4.4,9.8l-2.5-2.7c1.7-2,3.5-6.2,4.3-9L500.1,514z M495.2,499.3
		c1.7,0.9,3.7,2.4,4.8,3.5l-2,2.4c-0.9-0.9-2.4-2.4-4.7-3.7L495.2,499.3z M519.5,509.4c-0.9-0.4-2.2-1.1-4.1-2.5v2.3H503v-2.2
		c-1.4,1-2.1,1.4-2.9,1.9l-1.8-2.7c3.4-1.8,7.4-5,9.1-8.1h3.2c1.9,2.6,5.1,6,10.4,8.1L519.5,509.4z M518.5,511.9v8.8
		c0,2.1-1.7,2.1-1.8,2.1H513l-0.5-2.8h2.5c0.5,0,0.5-0.5,0.5-0.7v-4.8h-6.5v10h-2.9v-10h-4.7v-2.7H518.5z M514.9,506.6
		c-0.8-0.6-3.9-3.1-5.7-6c-1.5,2.2-2.9,3.8-5.5,6H514.9z"/>
	<path class="st6" d="M542,503.8c0,0.5,0,1,0,1.2h2.8c-0.6-0.7-1.3-1.4-1.8-1.9l1.6-1.1h-2.4v1.3h-2.8v-1.3h-7.4v2H529v-2h-6.7v-2.6
		h6.7v-1.4h2.9v1.4h7.4v-1.4h2.8v1.4h6.8v2.6H545c0.8,0.6,1.5,1.3,2.3,2.2l-1,0.7h2.3v2.4H542c0.1,2,0.3,4.8,0.9,7.5
		c1.1-2.8,1.4-4.6,1.6-5.7l2.7,0.9c-0.7,2.9-1.7,5.8-3.2,8.4c0.5,1,1.4,2.9,2.1,2.9c0.3,0,0.4-0.2,0.5-1.1c0.1-1.1,0.1-1.9,0.1-2.4
		l2.6,1.1c-0.4,4.1-1,5.7-2.8,5.7c-2.3,0-3.8-2.7-4.3-3.6c-1.3,1.8-2.3,2.8-3.3,3.8l-2.1-1.8l0,0h-9.4v-14.3h10.7v2.1h-3.4v1.7h2.9
		v6.4h-2.9v1.8h2.9v1.4c0.5-0.5,1.8-1.7,3.3-4c-1.2-3.4-1.6-7.1-1.8-10.8h-12.8v7.5c0,1.8-0.3,3.8-0.6,5.6c-0.4,2.1-1.3,3.4-2,4.3
		l-2.2-2.5c1-1.4,1.9-2.7,1.9-7.8V505h15.6c0-0.4,0-0.9,0-1.2H542z M530.1,510.9v1.7h2.6v-1.7H530.1z M530.1,514.7v2.2h5.2v-2.2
		H530.1z M530.1,519v1.8h2.6V519H530.1z"/>
	<path class="st6" d="M552.5,500.2h10.2v-2h2.9v2h11.4v2.6h-21.8v10.3c0,0.7-0.1,3.1-0.7,6.4c-0.5,2.5-1.1,3.5-2,5l-2.4-2.2
		c0.7-1,2.4-3.8,2.4-9.2V500.2z M576.9,521.6h-9.4v3h-2.7v-3h-9.5v-2.4h9.5v-1.7h-7.5v-9.1h7.5v-1.5h-9v-2.4h9v-1.3h2.7v1.3h9.2v2.4
		h-9.2v1.5h7.7v9.1h-7.7v1.7h9.4V521.6z M560,510.3v1.8h4.8v-1.8H560z M560,513.9v1.8h4.8v-1.8H560z M567.5,510.3v1.8h5v-1.8H567.5z
		 M567.5,513.9v1.8h5v-1.8H567.5z"/>
</g>
<g class="st3">
	<path class="st6" d="M324.8,558c4.4-4.8,5.8-12.5,6.2-20.3l3.2,0.3c-0.9,12.9-3.5,18.1-6.8,22.3L324.8,558z M343.9,537.7
		c0.6,6.5,2.2,14.2,7,20.4l-2.9,2.2c-4.7-6-6.6-14.5-7.2-22.3L343.9,537.7z M351.7,537.7c0,1.6-1.3,2.9-2.9,2.9
		c-1.6,0-2.9-1.3-2.9-2.9c0-1.6,1.3-2.9,2.9-2.9C350.4,534.8,351.7,536.1,351.7,537.7z M347.4,537.7c0,0.8,0.6,1.4,1.4,1.4
		c0.7,0,1.4-0.6,1.4-1.4c0-0.8-0.6-1.4-1.4-1.4C348,536.4,347.4,537,347.4,537.7z"/>
	<path class="st6" d="M358,547.5c-0.4-0.8-2.3-4.7-4.8-7.7l2.8-1.6c2.3,2.5,3.4,4.1,5.2,7.5L358,547.5z M355.6,557.4
		c5.8-1.4,14.3-4.2,16.6-19.9l3.7,0.7c-2.5,11-6,18.6-18.5,22L355.6,557.4z"/>
	<path class="st6" d="M400.2,539v19.6h-20.5v-3.1h17.2V542h-17V539H400.2z"/>
	<path class="st6" d="M413.7,544.7c-2.1-1.6-5.6-3.3-8.6-4.2l1.5-2.8c2.5,0.7,5,1.5,8.8,3.9L413.7,544.7z M405.4,556.4
		c10.6-0.8,16.8-4.8,20.7-16.9l3.2,1.4c-4.2,12.1-10.3,17.5-22.9,19L405.4,556.4z"/>
	<path class="st6" d="M437.8,548.3c0,1.6-1.3,2.9-2.9,2.9c-1.6,0-3-1.3-2.9-2.9c0-1.6,1.3-2.9,2.9-2.9
		C436.4,545.4,437.8,546.7,437.8,548.3z"/>
	<path class="st6" d="M464.7,544.5v3h-9.4c-0.4,6.8-2.6,11.5-11.7,13.3l-1.5-2.7c8.5-1.4,9.6-5.2,10-10.6H441v-3H464.7z
		 M462.4,537.2v2.9h-19.1v-2.9H462.4z"/>
	<path class="st6" d="M472.6,556.6c10.7-1,14-8.6,15.6-13.7l3,1.3c-2,5.5-5.7,15.5-21.9,16v-23.6h3.3V556.6z"/>
	<path class="st6" d="M497.8,537.3v8.4c5.5-1.1,9.6-2.8,13.3-4.8l1.8,2.9c-6,3-11.1,4.2-15.1,5.1v6.1c0,1.3,0.5,1.6,2.3,1.6h9.5
		c3,0,4.6-0.3,5.6-0.5l0.1,3.4c-1.2,0.1-2.4,0.3-6,0.3h-9.7c-3.8,0-5.1-1.2-5.1-3.9v-18.6H497.8z M512.6,540.9
		c-0.8-2.1-1.1-2.8-2-4.6l2.1-0.8c0.9,1.5,1.5,2.9,2.1,4.5L512.6,540.9z M516.4,540.2c-0.9-2.4-1.4-3.3-2-4.5l2.1-0.8
		c0.7,1.3,1.5,2.8,2,4.3L516.4,540.2z"/>
	<path class="st6" d="M524.2,539.3c-1.2,1.6-2.4,2.7-3.2,3.3l-2-2c2.6-1.7,3.8-3.7,4.5-5.7l2.7,0.5c-0.1,0.5-0.3,0.9-0.5,1.5h6.5
		v2.5H528c0.6,1.1,0.8,1.5,0.9,1.8l-2.8,1.1c-0.2-0.7-0.7-2.2-1.1-2.9H524.2z M532.9,541.8l-1.7-1.3c1.7-1.4,2.8-2.8,4-5.6l2.6,0.4
		c-0.2,0.5-0.3,0.8-0.6,1.5h8.8v2.5h-5.6c0.6,1,0.7,1.2,1.1,1.9l-2.7,1.1c-0.5-1.3-1.2-2.8-1.4-3h-1.6c-0.5,0.7-1,1.6-2,2.5h0.2v1.4
		h10.2v2.6h-10.2v1.8h11.9v2.6h-5.1v1.9h4.9v2.5h-4.9v3.7c0,1.6,0,3.3-2.4,3.3h-5.3l-0.5-2.8h4.3c0.5,0,0.8-0.1,0.8-1v-3.1h-12.3
		c0.6,0.4,2.9,2.4,4.1,4.2l-2.3,2c-0.4-0.5-2.2-2.9-4.1-4.4l1.9-1.7h-5.5v-2.5h18.1v-1.9h-18.4v-2.6h11.8v-1.8h-9.9v-2.6h9.9v-1.4
		H532.9z"/>
</g>
<g class="st3">
	<path class="st6" d="M136.6,500.2v3.1h-8.7v13.8h10.2v3.1h-23.9v-3.1h10.3v-13.8h-8.8v-3.1H136.6z"/>
	<path class="st6" d="M165.7,498.7c-1.2,7.7-5.5,10.6-8.5,12.2l-2.1-2.6c1.9-0.9,4.7-2.4,6.2-6.6h-20v-3H165.7z M142.4,519.4
		c5-2,8.5-5,8.5-15.1l3.5,0.1c-0.3,10.2-3.9,14.6-10,17.5L142.4,519.4z"/>
	<path class="st6" d="M190.3,500.6v19.6h-20.5v-3.1h17.2v-13.5h-17v-3.1H190.3z"/>
	<path class="st6" d="M203.8,506.3c-2.1-1.6-5.6-3.3-8.6-4.2l1.5-2.8c2.5,0.7,5,1.5,8.8,3.9L203.8,506.3z M195.5,518
		c10.6-0.8,16.8-4.8,20.7-16.9l3.2,1.4c-4.2,12.1-10.3,17.5-22.9,19L195.5,518z"/>
</g>
<g class="st3">
	<path class="st6" d="M113,548.1c0.9-0.2,2.4-0.7,3.2-0.9v-6.1h-2.9v-2.6h2.9v-4.9h2.9v4.9h2.5v2.6h-2.5v5.2
		c0.4-0.1,1.1-0.4,1.7-0.6v2.8c-0.4,0.2-1.2,0.5-1.7,0.7v8.3c0,2.6-2,2.6-2.4,2.6h-3.4l-0.2-3h2.3c0.4,0,0.8,0,0.8-0.7v-6.1
		c-0.9,0.3-1.6,0.5-2.9,0.9L113,548.1z M137.9,549.7v6.3c0,2-1.7,2-2.7,2h-2.1l-0.5-2.6h2c0.7,0,0.7-0.2,0.7-0.6v-3.9h-3.4v9.2h-2.8
		v-9.2h-3.2v7.1h-2.6v-8.3h-1.8v-5.4h18.4v5.4H137.9z M138.4,534.5v8.8h-15.8v-1.9h13.1v-1.4h-12.4v-1.8h12.4v-1.3h-13.1v-2.2H138.4
		z M124.2,546.6v1.8h4.9v-1.8H124.2z M137.1,546.6h-5.2v1.8h5.2V546.6z"/>
	<path class="st6" d="M149.8,540.6c-0.7,1.9-0.9,2.3-1.1,3c1.5,1.8,2.2,4.4,2.2,6.7c0,4.3-2.5,4.3-3.4,4.3H146l-0.4-2.8h1.4
		c0.9,0,1.1-0.3,1.1-1.4c0-2.5-0.6-4.9-2.2-6.7c0.9-2.2,1.6-4.2,2.2-6.9h-3V560h-2.8v-25.6h8.6v2.5c-0.2,0.8-0.3,1.3-1,3.4
		c2.5-1.3,5.9-3.8,7.7-6.8h2.9c2.6,3.3,4.5,4.9,8.2,6.9l-1.6,2.6c-0.7-0.4-1.4-0.8-2.4-1.6v1.8h-4.3v3.2h7.7v2.6h-7.7v8.5
		c0,1-0.1,2.6-2.8,2.6h-3.7l-0.5-2.6h3.5c0.8,0,0.8-0.1,0.8-0.7v-7.9h-6.6v-2.6h6.6v-3.2h-4.2v-1.7c-1,0.8-1.7,1.1-2.5,1.6
		L149.8,540.6z M155.9,551.6c-1.4,3.5-3.1,5.4-4.6,7l-2.1-1.9c0.9-0.8,2.7-2.5,4.3-6.2L155.9,551.6z M164,540.6
		c-2-1.6-3.4-3.2-4.6-5c-1.7,2.6-4.2,4.6-4.7,5H164z M166.8,558.7c-2.2-2.2-3.3-4.2-4.5-7.2l2.4-0.9c1,2.4,2,4.2,3.9,6L166.8,558.7z
		"/>
	<path class="st6" d="M184.4,556.2c-1.1-1.3-2.7-2.1-3.1-2.4c-0.5,3.4-1.4,4.9-2.4,6.3l-2-2.1c1.7-2.3,2-3.9,2-8.2h-0.9v-2l-1,1.8
		c-0.4-0.7-0.9-1.5-1.3-2.9v13.3h-2.7v-11.2c-0.4,1.9-0.7,2.9-1.7,5l-1.4-3.8c1.5-2.6,2.5-5.7,2.9-8.7h-2.6v-2.8h2.8v-5.1h2.7v5.1
		h1.8v2.8h-1.8v1c0.3,0.8,0.9,2.5,2.7,4.8h7.7c-0.5-3.3-0.9-8.4-0.9-13.7h2.8c0,1.3,0,2,0.1,3.7l1.4-1.6c0.3,0.3,0.3,0.3,0.5,0.4
		c0.6-0.9,1-1.6,1.6-2.7l2.1,0.7c-0.4,0.7-1,1.7-2.3,3.3c0.3,0.4,0.6,0.7,1,1.1c1.1-1.5,1.6-2.2,1.9-2.7l1.9,0.9
		c-1.9,2.8-2.2,3.1-4.6,5.9c1.6-0.1,2.1-0.1,2.9-0.2c-0.3-0.6-0.4-0.9-0.6-1.4l1.9-0.7c1.1,2.2,1.4,3.7,1.6,4.4l-2,0.8
		c-0.2-0.8-0.3-1-0.3-1.3c-0.7,0.1-1.6,0.2-2.2,0.2c0.6,0.4,0.7,0.5,2,1.4l-1.1,1.3h3.4v2.6h-7.5c0.3,1.4,0.7,2.8,1,3.5
		c1.4-1.4,1.9-2.2,2.4-3l2.5,1c-0.5,1-1.6,2.7-3.8,4.6c0.3,0.6,1,1.5,1.7,1.5c0.7,0,1.4-2.1,1.8-3.3l2.1,1.9c-1,3.3-2,4.1-3.8,4.1
		c-2,0-3.1-0.9-4.1-2.5c-2.6,1.6-4.3,2.1-5.5,2.4l-1.1-2.5c1.1-0.3,2.9-0.7,5.4-2.4c-0.4-1-1-2.9-1.6-5.4h-4.8c0,0.7,0,1,0,1.6
		c2.2,0.8,3.5,1.7,4.5,2.4L184.4,556.2z M177.4,543.1c0.5-0.6,1.2-1.3,2.3-2.6c-0.4-0.5-1.5-1.8-3.1-3.2l1.6-1.7
		c0.3,0.2,0.5,0.3,0.6,0.5c0.7-0.9,1.1-1.5,1.7-2.7l2.1,0.8c-0.5,0.9-1.1,2-2.4,3.3c0.3,0.3,0.6,0.7,1,1.1c1-1.3,1.4-1.9,1.9-2.6
		l1.8,1.1c-1.7,2.5-4.6,5.8-4.9,6c0.7,0,1.8-0.1,2.5-0.1c-0.2-0.5-0.3-0.9-0.5-1.3l1.9-0.7c0.8,1.6,1.2,3,1.4,4.3l-2.1,0.7
		c-0.1-0.4-0.1-0.7-0.2-1.2c-0.1,0-5.4,0.5-5.8,0.5l-0.3-2.2H177.4z M190.7,540.3c-0.9-1.2-1.8-2-2.8-2.9c0,1.3,0.2,3.8,0.3,5.3h0.4
		C189.8,541.4,190.4,540.7,190.7,540.3z M191.1,544.6c-0.3,0-2.6,0.2-2.7,0.2c0.1,1,0.3,2.1,0.3,2.5h3.8c-1-0.7-1.4-1-2.3-1.5
		L191.1,544.6z"/>
	<path class="st6" d="M203.3,537.8c-1.2,1.6-2.4,2.7-3.2,3.3l-2-2c2.6-1.7,3.8-3.7,4.5-5.7l2.7,0.5c-0.1,0.5-0.3,0.9-0.5,1.5h6.5
		v2.5h-4.2c0.6,1.1,0.8,1.5,0.9,1.8l-2.8,1.1c-0.2-0.7-0.7-2.2-1.1-2.9H203.3z M212,540.3l-1.7-1.3c1.7-1.4,2.8-2.8,4-5.6l2.6,0.4
		c-0.2,0.5-0.3,0.8-0.6,1.5h8.8v2.5h-5.6c0.6,1,0.7,1.2,1.1,1.9l-2.7,1.1c-0.5-1.3-1.2-2.8-1.4-3h-1.6c-0.5,0.7-1,1.6-2,2.5h0.2v1.4
		h10.1v2.6h-10.1v1.8H225v2.6h-5.1v1.9h4.9v2.5h-4.9v3.7c0,1.6,0,3.3-2.4,3.3h-5.3l-0.5-2.8h4.3c0.5,0,0.9-0.1,0.9-1v-3.1h-12.3
		c0.6,0.4,2.9,2.4,4.1,4.2l-2.3,2c-0.4-0.5-2.2-2.9-4.1-4.4l1.9-1.7h-5.5v-2.5h18.1v-1.9h-18.4v-2.6h11.8v-1.8h-9.9v-2.6h9.9v-1.4
		H212z"/>
</g>
<g>
	<g>
		<line class="st7" x1="739.8" y1="205.7" x2="742.7" y2="205.7"/>
		<line class="st8" x1="758.5" y1="205.7" x2="856.4" y2="205.7"/>
		<line class="st7" x1="864.3" y1="205.7" x2="867.2" y2="205.7"/>
	</g>
</g>
<polyline class="st9" points="735.5,247.2 862.7,247.2 862.7,336.8 "/>
<polyline class="st9" points="473.7,136.6 473.7,184.2 532.6,184.2 "/>
<polyline class="st9" points="539.7,246.8 392.7,246.8 392.7,276.8 "/>
<polyline class="st9" points="539.7,224.3 173.7,224.3 173.7,273.8 "/>
<polygon class="st5" points="177.6,443.3 177.6,426.7 161.5,426.7 161.5,443.3 152.5,443.3 169.5,462.6 186.6,443.3 "/>
<polygon class="st5" points="408.9,443.3 408.9,426.7 392.8,426.7 392.8,443.3 383.8,443.3 400.9,462.6 417.9,443.3 "/>
<polygon class="st5" points="173.7,282.3 189.2,269.5 158.3,269.5 "/>
<polygon class="st5" points="394.2,282.3 409.7,269.5 378.8,269.5 "/>
<polygon class="st5" points="540.3,184.4 527.5,169 527.5,199.9 "/>
<polygon class="st5" points="862.4,348.6 877.9,335.8 846.9,335.8 "/>
<polygon class="st5" points="729,247.6 741.8,263 741.8,232.1 "/>
<polygon class="st1" points="728.7,205.7 741.5,221.2 741.5,190.3 "/>
<polygon class="st1" points="877.8,205.7 864.9,190.3 864.9,221.2 "/>
<path class="st10" d="M746.8,448.1H563.7c-5.2,0-9.4-4.3-9.4-9.4v-95.9c0-5.2,4.3-9.4,9.4-9.4h183.1c5.2,0,9.4,4.3,9.4,9.4v95.9
	C756.3,443.8,752,448.1,746.8,448.1z"/>
<g>
	<polygon class="st11" points="921.3,551.1 947.8,536.3 947.8,357.9 921.3,372.7 	"/>
	<g>
		<rect x="793" y="372.7" class="st12" width="128.3" height="178.4"/>
		<polygon class="st13" points="947.8,357.9 819.6,357.9 793,372.7 921.3,372.7 		"/>
		<rect x="805" y="383.7" class="st1" width="5.5" height="5.5"/>
		<rect x="812.8" y="383.7" class="st1" width="5.5" height="5.5"/>
		<rect x="820.6" y="383.7" class="st1" width="5.5" height="5.5"/>
		<rect x="828.4" y="383.7" class="st1" width="5.5" height="5.5"/>
		<rect x="836.1" y="383.7" class="st1" width="5.5" height="5.5"/>
		<rect x="843.9" y="383.7" class="st1" width="5.5" height="5.5"/>
	</g>
</g>
<polygon class="st14" points="776.2,390.7 744,372.1 744,409.3 "/>
<g class="st3">
	<path class="st6" d="M577.6,369.5c-2.4,1.3-3.8,1.8-4.8,2.1l-1.4-2.8c5.1-1.5,9.5-4.1,12.1-7.3h2.9c4.6,5,9.7,6.7,12.1,7.5
		l-1.5,2.7c-1-0.4-2.6-1-4.8-2.2v2.2h-5.9v2.9h10.9v2.7h-10.9v7.7c0,1.1,0,2.5-2.2,2.5h-5.1l-0.6-2.9h4c0.6,0,0.9-0.2,0.9-0.8v-6.5
		h-10.9v-2.7h10.9v-2.9h-5.9V369.5z M580.2,379c-1.5,2.8-4,5.3-6.3,6.9l-2-2.2c2.2-1.2,4.5-3.6,5.7-5.7L580.2,379z M591.6,369
		c-4-2.3-5.8-4.3-6.6-5.2c-2.1,2.4-5,4.3-6.6,5.2H591.6z M596.1,386c-2.7-1.7-4.7-3.6-6.8-6.9l2.6-1.2c1.3,2.1,3.9,4.5,6.1,5.9
		L596.1,386z"/>
	<path class="st6" d="M606.9,365.3c-2.5,0.2-4.4,0.3-6.3,0.3l-0.6-2.5c8.2-0.1,11.6-0.7,14.9-1.6l1,2.4c-0.8,0.2-2.5,0.8-6.4,1.2
		v1.8h6.5v2.3h-1.9v2.4h2.4v2.2h-2.4v2.5h1.9v2.2H611c1.8,2.5,3.5,3.8,5.5,4.9l-1.8,2.4c-1.2-0.9-3.5-2.7-5.5-6.3v7.7h-2.4v-7.5
		c-1.9,3-4.1,4.9-6.1,6.5l-1.4-2.5c1-0.7,3.3-2.2,5.7-5.4h-4.7v-2.2h1.9v-2.5h-2.3v-2.2h2.3v-2.4h-1.9v-2.3h6.5V365.3z M604.6,369.2
		v2.4h2.3v-2.4H604.6z M604.6,373.8v2.5h2.3v-2.5H604.6z M609.3,369.2v2.4h2.3v-2.4H609.3z M609.3,373.8v2.5h2.3v-2.5H609.3z
		 M617,363.1h2.8v17.7H617V363.1z M622,361.5h2.8v23.5c0,2.3-1.8,2.3-2.5,2.3h-3.8l-0.6-3h3.3c0.2,0,0.7,0,0.7-0.7V361.5z"/>
	<path class="st6" d="M629.2,362.3h22.2v2.3h-9.9v1.1h11v5.9h-2.9v-3.9h-8.1v5.5h-2.6v-5.5h-8v3.9H628v-5.9h10.8v-1.1h-9.6V362.3z
		 M653.4,382.9c-0.2,2.7-0.6,4.3-2.4,4.3h-9.6c-1.4,0-2.7-0.1-2.7-1.9v-2.4h-6.7v1.7h-2.7v-10.8H651v8.5L653.4,382.9z M632.1,379.1
		v1.6h6.7v-1.6H632.1z M632.2,375.7v1.6h6.6v-1.6H632.2z M632.2,368.8h5.4v1.4h-5.4V368.8z M632.2,371.3h5.4v1.5h-5.4V371.3z
		 M641.5,375.7v1.6h6.7v-1.6H641.5z M641.5,379.1v1.6h6.7v-1.6H641.5z M641.5,382.9v1c0,0.6,0,0.8,0.7,0.8h7.4c0.8,0,1-0.1,1.1-1.8
		H641.5z M642.8,368.8h5.5v1.4h-5.5V368.8z M642.8,371.3h5.5v1.5h-5.5V371.3z"/>
	<path class="st6" d="M654.8,384.5c8.4-4.6,9.1-10.1,9.6-14.5h-9v-2.9h9.2c0-0.3,0.1-2.3,0.1-3.6v-2h3.2v2.1c0,1.6-0.1,2.7-0.1,3.5
		h12.4c-0.1,9.3-0.7,14.5-1.1,16.4c-0.2,1.1-0.9,3.9-4.1,3.9H670l-0.5-3.1h4.6c1.6,0,1.8-1,2.1-3c0.4-2.3,0.7-8.1,0.7-11.2h-9.4
		c-0.6,5.4-1.9,12.2-11,17.3L654.8,384.5z"/>
	<path class="st6" d="M693.6,362.5c-0.1,0.6-0.2,1.2-0.4,2.5h11.2v2.8h-12c-0.3,1.1-0.7,1.8-0.9,2.4c1.1-0.5,1.8-0.8,3.2-0.8
		c2.4,0,3.6,1,4.4,3.2c2.7-1.1,5.1-1.8,6.6-2.2l0.7,3.1c-1.3,0.3-3.4,0.8-6.8,2c0.1,1.3,0.1,2.7,0.1,5.1h-3.1
		c0.1-0.7,0.1-1.1,0.1-2.1c0-0.8,0-1.3-0.1-1.8c-1.2,0.6-4.6,2.2-4.6,4.3c0,2.3,3.1,2.3,5.8,2.3c0.4,0,3.1,0,6.9-0.3v3
		c-2.1,0.1-4.4,0.1-6.5,0.1c-3,0-5.9-0.1-7.8-1.6c-0.5-0.4-1.7-1.6-1.7-3.5c0-2.8,2.7-4.8,7.5-7.3c-0.3-0.9-0.7-1.7-2.2-1.7
		c-2.5,0-4.9,2.2-5.7,3.5c-1.7,2.5-1.9,2.8-3.2,4.3l-2.3-2.3c2.8-2.7,5-6.1,6.2-9.8h-5.6V365h6.4c0.2-1.3,0.3-1.9,0.4-2.7
		L693.6,362.5z"/>
</g>
<g class="st3">
	<path class="st6" d="M577.6,396.8c0,2.3-0.2,14.1-0.2,14.9c0,4.3,1,5.6,4.6,5.6c6.2,0,7.7-3.7,8.8-8.4l3,0.9
		c-0.7,3.1-2.2,10.5-11.4,10.5c-4.1,0-6.1-1.4-7.1-2.9c-1.2-1.8-1.2-4.1-1.2-9c0-2.5,0-6.1,0.1-11.5L577.6,396.8z"/>
	<path class="st6" d="M599.4,416.8c8.6,0,13-1.1,13-6.2c0-2.8-1.5-4.3-4.5-4.3c-2.7,0-8.6,1.3-11.5,1.9l-0.6-3.1
		c1-0.1,5.4-0.8,6.3-1c0.9-0.1,4.1-0.6,5.9-0.6c3.2,0,7.5,1.7,7.5,7.1c0,7.2-6.5,8.2-8.8,8.5c-1.9,0.2-4.4,0.5-7,0.4L599.4,416.8z"
		/>
	<path class="st6" d="M627.4,396.6c-0.1,1.2-0.2,2.3-0.6,4.9h3.3c5.6,0,5.9,5,5.9,7.7c0,1.1-0.2,5.4-1.4,8.2c-1.2,2.8-4,2.8-4.9,2.8
		c-1.5,0-3.3-0.2-4.2-0.3l-0.2-3c0.8,0.2,2.1,0.4,3.7,0.4c1.8,0,2.6-0.5,3.1-2.2c0.4-1.4,0.8-4.8,0.8-6.6c0-2.8-0.8-4.2-3.3-4.1
		l-3.5,0c-1.8,9.8-4.1,14-4.9,15.5l-3.1-1.2c3.1-5,4.4-11.6,4.9-14.3l-4.2,0.1v-3h4.7c0.3-2.1,0.4-3.6,0.5-5.1L627.4,396.6z
		 M640.2,411.8c-0.7-7.5-3.1-10.3-4.1-11.4l2.4-1.5c1.5,1.5,4.1,4.4,4.9,12.4L640.2,411.8z"/>
	<path class="st6" d="M651.2,396.7c-0.5,2-0.7,3.5-1.1,6.2c1.7-2.5,4.3-4,7.2-4c3.7,0,7.2,3.2,7.2,9.6c0,7.9-3.8,11.7-15.4,11.8
		l-0.6-2.9c6.2-0.1,12.8-0.4,12.8-8.7c0-5.9-2.7-6.9-4.2-6.9c-0.9,0-5.2,0.4-7.4,7.5c0,2.3,0.1,3,0.3,4l-3,0.3
		c-0.2-1.3-0.2-2.2-0.2-4.2c0-1.2,0-7.3,1.2-12.9L651.2,396.7z"/>
	<path class="st6" d="M691.3,410.2c-0.6-0.8-1-1.3-2.3-2.5c-0.9,0.1-2.6,0.3-3.5,0.4v9.6c0,0.5,0.4,0.5,0.8,0.5h2.9
		c0.7,0,1-0.1,1.3-0.9c0.1-0.4,0.4-1.5,0.4-4l2.8,0.7c-0.5,5.1-0.9,6.9-3.8,6.9h-4.2c-1.2,0-3-0.1-3-1.9v-10.7
		c-2,0.2-2.2,0.2-4.4,0.3c-0.5,7.7-3,11.1-9.1,13l-1.6-2.7c6.4-1.8,7.5-4.8,7.9-10.1c-2.3,0.1-5.9,0.3-6.9,0.3l-0.1-2.9
		c0.5,0,3.2-0.1,3.9-0.1c0.3-0.5,2.5-3.6,3.3-5.2h-8V398h11.5v-2.6h2.9v2.6h11.6v2.8h-14.6c-1,1.7-2.7,4.2-3.3,5.1
		c4.9-0.1,5.7-0.2,10.4-0.6c-0.7-0.6-1.4-1-2.7-2l2.1-2c3.5,2.1,5.6,3.7,8.1,6.5L691.3,410.2z"/>
	<path class="st6" d="M697.2,396.3h22.2v2.3h-9.9v1.1h11v5.9h-2.9v-3.9h-8.1v5.5h-2.6v-5.5h-8v3.9H696v-5.9h10.8v-1.1h-9.6V396.3z
		 M721.5,416.9c-0.2,2.7-0.6,4.3-2.4,4.3h-9.6c-1.4,0-2.7-0.1-2.7-1.9v-2.4h-6.7v1.7h-2.7v-10.8h21.7v8.5L721.5,416.9z M700.1,413.1
		v1.6h6.7v-1.6H700.1z M700.2,409.7v1.6h6.6v-1.6H700.2z M700.3,402.8h5.4v1.4h-5.4V402.8z M700.3,405.3h5.4v1.5h-5.4V405.3z
		 M709.5,409.7v1.6h6.7v-1.6H709.5z M709.5,413.1v1.6h6.7v-1.6H709.5z M709.5,416.9v1c0,0.6,0,0.8,0.7,0.8h7.4c0.8,0,1-0.1,1.1-1.8
		H709.5z M710.8,402.8h5.5v1.4h-5.5V402.8z M710.8,405.3h5.5v1.5h-5.5V405.3z"/>
</g>
</svg>
