<?xml version="1.0" encoding="utf-8"?>
<!-- Generator: Adobe Illustrator 21.0.0, SVG Export Plug-In . SVG Version: 6.00 Build 0)  -->
<svg version="1.1" id="レイヤー_1" xmlns="http://www.w3.org/2000/svg" xmlns:xlink="http://www.w3.org/1999/xlink" x="0px"
	 y="0px" viewBox="0 0 887.8 251.7" style="enable-background:new 0 0 887.8 251.7;" xml:space="preserve">
<style type="text/css">
	.st0{fill:#DCDDDD;stroke:#FFFFFF;stroke-width:2.2677;stroke-miterlimit:10;}
	.st1{fill:#F39800;stroke:#FFFFFF;stroke-width:2.2677;stroke-miterlimit:10;}
	.st2{fill:#D2ECFB;stroke:#FFFFFF;stroke-width:2.2677;stroke-miterlimit:10;}
	.st3{fill:#468CCB;stroke:#FFFFFF;stroke-width:2.2677;stroke-miterlimit:10;}
	.st4{fill:#FFFFFF;}
	.st5{fill:#595757;}
	.st6{fill:#6ABB65;}
	.st7{fill:#468CCB;}
</style>
<rect x="1.1" y="1.1" class="st0" width="144.1" height="41.3"/>
<rect x="145.3" y="1.1" class="st1" width="74.1" height="41.3"/>
<rect x="219.4" y="1.1" class="st2" width="74.1" height="41.3"/>
<rect x="293.6" y="1.1" class="st2" width="74.1" height="41.3"/>
<rect x="367.7" y="1.1" class="st2" width="74.1" height="41.3"/>
<rect x="441.8" y="1.1" class="st2" width="74.1" height="41.3"/>
<rect x="516" y="1.1" class="st2" width="74.1" height="41.3"/>
<rect x="590.1" y="1.1" class="st2" width="74.1" height="41.3"/>
<rect x="664.3" y="1.1" class="st2" width="74.1" height="41.3"/>
<rect x="738.4" y="1.1" class="st2" width="74.1" height="41.3"/>
<rect x="812.5" y="1.1" class="st2" width="74.1" height="41.3"/>
<rect x="1.1" y="42.5" class="st3" width="144.1" height="71.3"/>
<rect x="145.3" y="42.5" class="st1" width="74.1" height="71.3"/>
<rect x="219.4" y="42.5" class="st2" width="74.1" height="71.3"/>
<rect x="293.6" y="42.5" class="st2" width="74.1" height="71.3"/>
<rect x="367.7" y="42.5" class="st2" width="74.1" height="71.3"/>
<rect x="441.8" y="42.5" class="st2" width="74.1" height="71.3"/>
<rect x="516" y="42.5" class="st0" width="74.1" height="71.3"/>
<rect x="590.1" y="42.5" class="st0" width="74.1" height="71.3"/>
<rect x="664.3" y="42.5" class="st0" width="74.1" height="71.3"/>
<rect x="738.4" y="42.5" class="st0" width="74.1" height="71.3"/>
<rect x="812.5" y="42.5" class="st0" width="74.1" height="71.3"/>
<rect x="1.1" y="113.8" class="st3" width="144.1" height="71.3"/>
<rect x="145.3" y="113.8" class="st1" width="74.1" height="71.3"/>
<rect x="219.4" y="113.8" class="st2" width="74.1" height="71.3"/>
<rect x="293.6" y="113.8" class="st2" width="74.1" height="71.3"/>
<rect x="367.7" y="113.8" class="st2" width="74.1" height="71.3"/>
<rect x="441.8" y="113.8" class="st2" width="74.1" height="71.3"/>
<rect x="516" y="113.8" class="st2" width="74.1" height="71.3"/>
<rect x="590.1" y="113.8" class="st2" width="74.1" height="71.3"/>
<rect x="664.3" y="113.8" class="st2" width="74.1" height="71.3"/>
<rect x="738.4" y="113.8" class="st2" width="74.1" height="71.3"/>
<rect x="812.5" y="113.8" class="st2" width="74.1" height="71.3"/>
<g>
	<path class="st4" d="M20.5,80.9l2-17.7H42V69H28.1l-0.9,7.5c1.6-0.9,3.4-1.3,5.2-1.3c3.3,0,5.9,1,7.8,3.1c1.9,2.1,2.8,4.9,2.8,8.6
		c0,2.2-0.5,4.3-1.4,6c-0.9,1.8-2.3,3.2-4.1,4.1c-1.8,1-3.9,1.5-6.3,1.5c-2.1,0-4.1-0.4-5.9-1.3s-3.2-2.1-4.3-3.6
		c-1-1.5-1.6-3.3-1.7-5.3h6.8c0.1,1.5,0.6,2.6,1.5,3.4s2,1.2,3.4,1.2c1.6,0,2.8-0.6,3.6-1.7s1.3-2.7,1.3-4.8c0-2-0.5-3.5-1.5-4.5
		c-1-1.1-2.4-1.6-4.1-1.6c-1.6,0-3,0.4-4,1.3L26,82.3L20.5,80.9z"/>
	<path class="st4" d="M51.9,85.2c-0.9,1-1.3,1.3-1.9,1.8l-2.1-2.7c2.8-2.1,4.7-5.1,5.4-7.7l3.3,0.6c-0.2,0.6-0.3,0.9-0.7,1.9h15v3
		h-7.8v3h7V88h-7v4h8.8v3h-8.8v5.5h-3.2V95H48.2v-3h3.6v-6.8H51.9z M59.9,84.9v-3h-5.7c-0.6,0.9-1.2,1.8-2.2,3H59.9z M55,87.8v4h5
		v-4H55z"/>
	<path class="st4" d="M75.4,88.8c-0.6,0.7-0.8,0.9-1.4,1.5l-1-4.2c3-3.8,3.7-8.3,3.9-9.6l3.1,0.4c-0.2,1.1-0.5,3.4-1.6,6.2v17.2h-3
		V88.8z M79.1,96.5c1.3-0.7,4-2.2,6.4-5.8h-5.6v-2.8h7v-2.1h-5.6v-8.5h14.4v8.5h-5.8v2.1h7v2.8h-5.5c2,3.1,4.1,4.7,5.9,5.9l-1.8,2.8
		c-1.1-0.9-3.6-2.7-5.6-6.3v7.1h-3v-7c-2.7,3.9-5,5.3-6.1,6L79.1,96.5z M84.3,80.1v3.1h8.3v-3.1H84.3z"/>
	<path class="st4" d="M98.4,81h9.9v2.5h-9.9V81z M99.1,77.4h8.4v2.4h-8.4V77.4z M99.1,84.7h8.4v2.5h-8.4V84.7z M99.1,88.4h8.4v2.5
		h-8.4V88.4z M99.1,92.1h8.4v7.3H102v1h-2.9V92.1z M102,94.5v2.4h2.8v-2.4H102z M114.8,80.3h-6.1v-2.9h13.1v2.9h-4v6h3.5v2.9h-3.5
		v7.4h4.4v3h-13.9v-3h1.2V83.4h3v13.2h2.3V80.3z"/>
</g>
<g>
	<path class="st4" d="M165.6,34.2h-4.7V16.1l-5.6,1.7V14l9.8-3.5h0.5V34.2z"/>
	<path class="st4" d="M174.4,22.7c-0.7,0.7-1,1-1.4,1.3l-1.6-2.1c2.1-1.6,3.6-3.9,4.1-5.9l2.5,0.4c-0.1,0.4-0.2,0.7-0.5,1.4H189v2.3
		h-6v2.3h5.3v2.2H183v3.1h6.7V30H183v4.2h-2.4V30h-8.9v-2.3h2.8v-5H174.4z M180.6,22.5v-2.3h-4.3c-0.4,0.7-0.9,1.3-1.7,2.3H180.6z
		 M176.8,24.7v3.1h3.8v-3.1H176.8z"/>
	<path class="st4" d="M204.6,34.3v-0.9H195v0.9h-2.4V16.9h14.5v17.4H204.6z M195,21.6h9.7v-2.5H195V21.6z M195,26.3h9.7v-2.6H195
		V26.3z M195,31.2h9.7v-2.8H195V31.2z"/>
</g>
<g>
	<path class="st5" d="M245.9,34.2h-16.2V31l7.7-8.2c1.1-1.1,1.8-2.2,2.3-3c0.5-0.9,0.8-1.7,0.8-2.4c0-1.1-0.3-1.9-0.8-2.5
		s-1.3-0.9-2.3-0.9c-1.1,0-1.9,0.4-2.5,1.1c-0.6,0.7-0.9,1.7-0.9,2.9h-4.7c0-1.4,0.3-2.8,1-4s1.7-2.1,2.9-2.8s2.7-1,4.3-1
		c2.4,0,4.3,0.6,5.7,1.8c1.3,1.2,2,2.8,2,5c0,1.2-0.3,2.4-0.9,3.6c-0.6,1.2-1.6,2.6-3.1,4.2l-5.4,5.7H246v3.7H245.9z"/>
	<path class="st5" d="M251.9,22.7c-0.7,0.7-1,1-1.4,1.3l-1.6-2.1c2.1-1.6,3.6-3.9,4.1-5.9l2.5,0.4c-0.1,0.4-0.2,0.7-0.5,1.4h11.5
		v2.3h-6v2.3h5.3v2.2h-5.3v3.1h6.7V30h-6.7v4.2h-2.4V30h-8.9v-2.3h2.8v-5H251.9z M258.1,22.5v-2.3h-4.3c-0.4,0.7-0.9,1.3-1.7,2.3
		H258.1z M254.3,24.7v3.1h3.8v-3.1H254.3z"/>
	<path class="st5" d="M282.1,34.3v-0.9h-9.7v0.9H270V16.9h14.5v17.4H282.1z M272.5,21.6h9.7v-2.5h-9.7V21.6z M272.5,26.3h9.7v-2.6
		h-9.7V26.3z M272.5,31.2h9.7v-2.8h-9.7V31.2z"/>
</g>
<g>
	<path class="st5" d="M307.1,20.3h2.5c1.2,0,2.1-0.3,2.7-0.9s0.9-1.4,0.9-2.4s-0.3-1.7-0.9-2.2s-1.4-0.8-2.4-0.8
		c-0.9,0-1.7,0.2-2.3,0.7c-0.6,0.5-0.9,1.1-0.9,1.9H302c0-1.2,0.3-2.3,1-3.3s1.6-1.7,2.8-2.3c1.2-0.6,2.5-0.8,4-0.8
		c2.5,0,4.5,0.6,5.9,1.8s2.1,2.8,2.1,5c0,1.1-0.3,2.1-1,3s-1.5,1.6-2.6,2.1c1.3,0.5,2.3,1.2,3,2.1c0.7,1,1,2.1,1,3.4
		c0,2.1-0.8,3.8-2.3,5.1s-3.6,1.9-6.1,1.9c-2.4,0-4.3-0.6-5.8-1.9c-1.5-1.2-2.3-2.9-2.3-4.9h4.7c0,0.9,0.3,1.6,1,2.2
		s1.5,0.8,2.5,0.8c1.1,0,2-0.3,2.6-0.9s1-1.4,1-2.3c0-2.4-1.3-3.5-3.9-3.5h-2.5L307.1,20.3L307.1,20.3z"/>
	<path class="st5" d="M325.2,22.7c-0.7,0.7-1,1-1.4,1.3l-1.6-2.1c2.1-1.6,3.6-3.9,4.1-5.9l2.5,0.4c-0.1,0.4-0.2,0.7-0.5,1.4h11.5
		v2.3h-6v2.3h5.3v2.2h-5.3v3.1h6.7V30h-6.7v4.2h-2.4V30h-8.9v-2.3h2.8v-5H325.2z M331.4,22.5v-2.3h-4.3c-0.4,0.7-0.9,1.3-1.7,2.3
		H331.4z M327.6,24.7v3.1h3.8v-3.1H327.6z"/>
	<path class="st5" d="M355.5,34.3v-0.9h-9.7v0.9h-2.4V16.9h14.5v17.4H355.5z M345.8,21.6h9.7v-2.5h-9.7V21.6z M345.8,26.3h9.7v-2.6
		h-9.7V26.3z M345.8,31.2h9.7v-2.8h-9.7V31.2z"/>
</g>
<g>
	<path class="st5" d="M389.1,25.3h2.7v3.8h-2.7v5.1h-4.7v-5.1h-9.7l-0.2-3l9.9-15.6h4.7L389.1,25.3L389.1,25.3z M379.1,25.3h5.2V17
		l-0.3,0.5L379.1,25.3z"/>
	<path class="st5" d="M400.8,22.7c-0.7,0.7-1,1-1.4,1.3l-1.6-2.1c2.1-1.6,3.6-3.9,4.1-5.9l2.5,0.4c-0.1,0.4-0.2,0.7-0.5,1.4h11.5
		v2.3h-6v2.3h5.3v2.2h-5.3v3.1h6.7V30h-6.7v4.2H407V30h-9v-2.3h2.8V22.7z M406.9,22.5v-2.3h-4.3c-0.4,0.7-0.9,1.3-1.7,2.3H406.9z
		 M403.1,24.7v3.1h3.8v-3.1H403.1z"/>
	<path class="st5" d="M431,34.3v-0.9h-9.7v0.9h-2.4V16.9h14.5v17.4H431z M421.3,21.6h9.7v-2.5h-9.7V21.6z M421.3,26.3h9.7v-2.6h-9.7
		V26.3z M421.3,31.2h9.7v-2.8h-9.7V31.2z"/>
</g>
<g>
	<path class="st5" d="M450.7,22.6l1.4-12h13.3v3.9H456l-0.6,5.1c1.1-0.6,2.3-0.9,3.6-0.9c2.3,0,4,0.7,5.3,2.1s1.9,3.4,1.9,5.9
		c0,1.5-0.3,2.9-1,4.1c-0.6,1.2-1.6,2.1-2.8,2.8c-1.2,0.7-2.6,1-4.3,1c-1.4,0-2.8-0.3-4-0.9c-1.2-0.6-2.2-1.4-2.9-2.4
		c-0.7-1-1.1-2.2-1.1-3.6h4.7c0.1,1,0.4,1.8,1,2.3s1.4,0.8,2.3,0.8c1.1,0,1.9-0.4,2.5-1.1c0.6-0.8,0.9-1.8,0.9-3.2
		c0-1.3-0.3-2.4-1-3.1s-1.6-1.1-2.8-1.1c-1.1,0-2,0.3-2.7,0.9l-0.5,0.4L450.7,22.6z"/>
	<path class="st5" d="M472.9,22.7c-0.7,0.7-1,1-1.4,1.3l-1.6-2.1c2.1-1.6,3.6-3.9,4.1-5.9l2.5,0.4c-0.1,0.4-0.2,0.7-0.5,1.4h11.5
		v2.3h-6v2.3h5.3v2.2h-5.3v3.1h6.7V30h-6.7v4.2h-2.4V30h-8.9v-2.3h2.8v-5H472.9z M479.1,22.5v-2.3h-4.3c-0.4,0.7-0.9,1.3-1.7,2.3
		H479.1z M475.3,24.7v3.1h3.8v-3.1H475.3z"/>
	<path class="st5" d="M503.2,34.3v-0.9h-9.7v0.9h-2.4V16.9h14.5v17.4H503.2z M493.5,21.6h9.7v-2.5h-9.7V21.6z M493.5,26.3h9.7v-2.6
		h-9.7V26.3z M493.5,31.2h9.7v-2.8h-9.7V31.2z"/>
</g>
<g>
	<path class="st5" d="M536.7,10.3v3.9h-0.5c-2.1,0-3.8,0.6-5.1,1.7s-2.1,2.6-2.3,4.5c1.3-1.3,2.8-1.9,4.8-1.9c2.1,0,3.7,0.7,4.9,2.2
		s1.8,3.4,1.8,5.8c0,1.5-0.3,2.9-1,4.2c-0.7,1.2-1.6,2.2-2.8,2.9s-2.6,1-4.1,1c-2.5,0-4.5-0.9-6-2.6c-1.5-1.7-2.3-4-2.3-6.9v-1.7
		c0-2.6,0.5-4.8,1.5-6.8s2.4-3.5,4.2-4.6s3.9-1.6,6.3-1.6h0.6V10.3z M532.1,22.2c-0.8,0-1.4,0.2-2.1,0.6c-0.6,0.4-1.1,0.9-1.4,1.6
		v1.4c0,1.6,0.3,2.8,0.9,3.7s1.5,1.3,2.6,1.3c1,0,1.8-0.4,2.4-1.2c0.6-0.8,0.9-1.8,0.9-3.1c0-1.3-0.3-2.3-0.9-3.1
		S533.2,22.2,532.1,22.2z"/>
	<path class="st5" d="M546.9,22.7c-0.7,0.7-1,1-1.4,1.3l-1.6-2.1c2.1-1.6,3.6-3.9,4.1-5.9l2.5,0.4c-0.1,0.4-0.2,0.7-0.5,1.4h11.5
		v2.3h-6v2.3h5.3v2.2h-5.3v3.1h6.7V30h-6.7v4.2H553V30h-8.9v-2.3h2.8L546.9,22.7L546.9,22.7z M553,22.5v-2.3h-4.3
		c-0.4,0.7-0.9,1.3-1.7,2.3H553z M549.2,24.7v3.1h3.8v-3.1H549.2z"/>
	<path class="st5" d="M577.1,34.3v-0.9h-9.7v0.9H565V16.9h14.5v17.4H577.1z M567.4,21.6h9.7v-2.5h-9.7V21.6z M567.4,26.3h9.7v-2.6
		h-9.7V26.3z M567.4,31.2h9.7v-2.8h-9.7V31.2z"/>
</g>
<g>
	<path class="st5" d="M615.3,13.2l-9.2,21.1h-5l9.2-19.9h-11.8v-3.8h16.7L615.3,13.2L615.3,13.2z"/>
	<path class="st5" d="M621.4,22.7c-0.7,0.7-1,1-1.4,1.3l-1.6-2.1c2.1-1.6,3.6-3.9,4.1-5.9l2.5,0.4c-0.1,0.4-0.2,0.7-0.5,1.4H636v2.3
		h-6v2.3h5.3v2.2H630v3.1h6.7V30H630v4.2h-2.4V30h-8.9v-2.3h2.8L621.4,22.7L621.4,22.7z M627.6,22.5v-2.3h-4.3
		c-0.4,0.7-0.9,1.3-1.7,2.3H627.6z M623.8,24.7v3.1h3.8v-3.1H623.8z"/>
	<path class="st5" d="M651.6,34.3v-0.9H642v0.9h-2.4V16.9h14.5v17.4H651.6z M642,21.6h9.7v-2.5H642V21.6z M642,26.3h9.7v-2.6H642
		V26.3z M642,31.2h9.7v-2.8H642V31.2z"/>
</g>
<g>
	<path class="st5" d="M688.1,16.8c0,1.1-0.3,2.2-0.9,3.1c-0.6,0.9-1.4,1.6-2.4,2.1c1.1,0.6,2.1,1.3,2.7,2.3c0.7,1,1,2.1,1,3.4
		c0,2.1-0.7,3.8-2.1,5c-1.4,1.2-3.4,1.8-5.8,1.8s-4.4-0.6-5.9-1.8c-1.4-1.2-2.2-2.9-2.2-5c0-1.3,0.3-2.5,1-3.4
		c0.7-1,1.6-1.7,2.7-2.3c-1-0.5-1.8-1.2-2.4-2.1c-0.6-0.9-0.9-1.9-0.9-3.1c0-2,0.7-3.6,2-4.8s3.2-1.8,5.5-1.8s4.1,0.6,5.5,1.8
		C687.4,13.2,688.1,14.8,688.1,16.8z M683.9,27.4c0-1-0.3-1.9-0.9-2.5c-0.6-0.6-1.4-0.9-2.4-0.9s-1.8,0.3-2.4,0.9
		c-0.6,0.6-0.9,1.4-0.9,2.5c0,1,0.3,1.8,0.9,2.4c0.6,0.6,1.4,0.9,2.4,0.9s1.8-0.3,2.4-0.9S683.9,28.4,683.9,27.4z M683.4,17.1
		c0-0.9-0.2-1.7-0.7-2.2c-0.5-0.6-1.2-0.8-2.1-0.8c-0.9,0-1.6,0.3-2,0.8c-0.5,0.5-0.7,1.3-0.7,2.2s0.2,1.7,0.7,2.3
		c0.5,0.6,1.2,0.9,2.1,0.9s1.6-0.3,2.1-0.9C683.2,18.8,683.4,18,683.4,17.1z"/>
	<path class="st5" d="M694.9,22.7c-0.7,0.7-1,1-1.4,1.3l-1.6-2.1c2.1-1.6,3.6-3.9,4.1-5.9l2.5,0.4c-0.1,0.4-0.2,0.7-0.5,1.4h11.5
		v2.3h-6v2.3h5.3v2.2h-5.3v3.1h6.7V30h-6.7v4.2h-2.4V30h-8.9v-2.3h2.8L694.9,22.7L694.9,22.7z M701.1,22.5v-2.3h-4.3
		c-0.4,0.7-0.9,1.3-1.7,2.3H701.1z M697.3,24.7v3.1h3.8v-3.1H697.3z"/>
	<path class="st5" d="M725.1,34.3v-0.9h-9.7v0.9H713V16.9h14.5v17.4H725.1z M715.5,21.6h9.7v-2.5h-9.7V21.6z M715.5,26.3h9.7v-2.6
		h-9.7V26.3z M715.5,31.2h9.7v-2.8h-9.7V31.2z"/>
</g>
<g>
	<path class="st5" d="M757.7,24.8c-1.2,1.2-2.7,1.8-4.3,1.8c-2.1,0-3.8-0.7-5-2.2s-1.9-3.4-1.9-5.8c0-1.6,0.3-3,1-4.3s1.6-2.3,2.8-3
		s2.6-1.1,4.1-1.1c1.6,0,2.9,0.4,4.2,1.2c1.2,0.8,2.2,1.9,2.8,3.4s1,3.1,1,5v1.7c0,3.9-1,7-2.9,9.3c-2,2.3-4.7,3.5-8.3,3.6H750v-3.9
		h1C755.2,30.3,757.4,28.4,757.7,24.8z M754.6,23c0.8,0,1.4-0.2,2-0.6c0.5-0.4,1-0.9,1.2-1.4v-2c0-1.6-0.3-2.8-0.9-3.7
		c-0.6-0.9-1.4-1.3-2.4-1.3c-0.9,0-1.7,0.4-2.3,1.3c-0.6,0.9-0.9,1.9-0.9,3.2s0.3,2.3,0.9,3.2C752.7,22.6,753.5,23,754.6,23z"/>
	<path class="st5" d="M768.3,22.7c-0.7,0.7-1,1-1.4,1.3l-1.6-2.1c2.1-1.6,3.6-3.9,4.1-5.9l2.5,0.4c-0.1,0.4-0.2,0.7-0.5,1.4h11.5
		v2.3h-6v2.3h5.3v2.2h-5.3v3.1h6.7V30h-6.7v4.2h-2.4V30h-8.9v-2.3h2.8L768.3,22.7L768.3,22.7z M774.5,22.5v-2.3h-4.3
		c-0.4,0.7-0.9,1.3-1.7,2.3H774.5z M770.7,24.7v3.1h3.8v-3.1H770.7z"/>
	<path class="st5" d="M798.5,34.3v-0.9h-9.7v0.9h-2.4V16.9H801v17.4H798.5z M788.9,21.6h9.7v-2.5h-9.7V21.6z M788.9,26.3h9.7v-2.6
		h-9.7V26.3z M788.9,31.2h9.7v-2.8h-9.7V31.2z"/>
</g>
<g>
	<path class="st5" d="M826.2,34.5h-4.3V17.9l-5.1,1.6V16l9-3.2h0.5v21.7H826.2z"/>
	<path class="st5" d="M844.2,25.5c0,3-0.6,5.3-1.9,6.9c-1.3,1.6-3.1,2.4-5.4,2.4c-2.4,0-4.2-0.8-5.4-2.3c-1.2-1.6-1.9-3.8-1.9-6.7
		v-4c0-3,0.6-5.3,1.9-6.9c1.3-1.6,3.1-2.4,5.4-2.4s4.2,0.8,5.4,2.3s1.9,3.8,1.9,6.7V25.5z M839.9,21.1c0-1.8-0.2-3.1-0.7-3.9
		s-1.3-1.2-2.3-1.2s-1.8,0.4-2.2,1.2s-0.7,2-0.8,3.7v5.3c0,1.8,0.2,3.1,0.7,3.9c0.5,0.9,1.3,1.3,2.3,1.3c1.1,0,1.8-0.4,2.3-1.2
		c0.5-0.8,0.7-2.1,0.7-3.8V21.1z"/>
	<path class="st5" d="M850.7,23.7c-0.7,0.7-0.9,0.9-1.3,1.2l-1.5-1.9c2-1.5,3.3-3.6,3.8-5.4L854,18c-0.1,0.4-0.2,0.6-0.5,1.3h10.6
		v2.1h-5.5v2.1h4.9v2.1h-4.9v2.8h6.2v2.1h-6.2v3.9h-2.2v-3.9h-8.3v-2.1h2.6L850.7,23.7L850.7,23.7z M856.4,23.5v-2.1h-4
		c-0.4,0.6-0.8,1.2-1.5,2.1H856.4z M852.9,25.6v2.8h3.5v-2.8H852.9z"/>
	<path class="st5" d="M878.6,34.4v-0.8h-9v0.8h-2.2V18.3h13.5v16.1H878.6z M869.7,22.7h9v-2.3h-9V22.7z M869.7,27h9v-2.4h-9V27z
		 M869.7,31.5h9v-2.6h-9V31.5z"/>
</g>
<g>
	<path class="st4" d="M25.7,168.8h-6.9v-26.6l-8.2,2.6v-5.6L25,134h0.7V168.8z"/>
	<path class="st4" d="M53.5,154.5c0,4.8-1,8.5-3,11s-4.9,3.8-8.8,3.8c-3.8,0-6.7-1.3-8.7-3.8s-3-6.1-3.1-10.8v-6.4
		c0-4.9,1-8.6,3-11.1s4.9-3.8,8.7-3.8s6.7,1.2,8.7,3.7s3,6.1,3.1,10.7L53.5,154.5L53.5,154.5z M46.6,147.4c0-2.9-0.4-5-1.2-6.3
		s-2-2-3.7-2c-1.6,0-2.8,0.6-3.6,1.9c-0.8,1.3-1.2,3.2-1.2,5.9v8.5c0,2.8,0.4,5,1.2,6.3c0.8,1.4,2,2.1,3.7,2.1s2.9-0.7,3.7-2
		c0.7-1.3,1.1-3.4,1.2-6.1v-8.3H46.6z"/>
	<path class="st4" d="M61.6,156c-0.9,1-1.3,1.3-1.9,1.8l-2.1-2.7c2.8-2.1,4.7-5.1,5.4-7.7l3.3,0.6c-0.2,0.6-0.3,0.9-0.7,1.9h15v3
		h-7.8v3h7v2.9h-7v4h8.8v3h-8.8v5.5h-3.2v-5.5H57.9v-3h3.6L61.6,156L61.6,156z M69.6,155.7v-3H64c-0.6,0.9-1.2,1.8-2.2,3H69.6z
		 M64.7,158.6v4h5v-4H64.7z"/>
	<path class="st4" d="M85.1,159.6c-0.6,0.7-0.8,0.9-1.4,1.5l-1.1-4.2c3-3.8,3.7-8.3,3.9-9.6l3.1,0.4c-0.2,1.1-0.5,3.4-1.6,6.2v17.2
		h-3L85.1,159.6L85.1,159.6z M88.8,167.4c1.3-0.7,4-2.2,6.4-5.8h-5.6v-2.8h7v-2.1H91v-8.5h14.4v8.5h-5.8v2.1h7v2.8h-5.5
		c2,3.1,4.1,4.7,5.9,5.9l-1.8,2.8c-1.1-0.9-3.6-2.7-5.6-6.3v7.1h-3v-7c-2.7,3.9-5,5.3-6.1,6L88.8,167.4z M94.1,150.9v3.1h8.3v-3.1
		H94.1z"/>
	<path class="st4" d="M108.1,151.8h9.9v2.5h-9.9V151.8z M108.8,148.2h8.4v2.4h-8.4V148.2z M108.8,155.5h8.4v2.5h-8.4V155.5z
		 M108.8,159.2h8.4v2.5h-8.4V159.2z M108.8,162.9h8.4v7.3h-5.5v1h-2.9V162.9z M111.7,165.4v2.4h2.8v-2.4H111.7z M124.5,151.2h-6.1
		v-2.9h13.1v2.9h-4v6h3.5v2.9h-3.5v7.4h4.4v3H118v-3h1.2v-13.2h3v13.2h2.3V151.2z"/>
</g>
<polygon class="st6" points="497.1,103.3 146.6,103.3 146.6,54.7 497.1,54.7 513.8,78.4 "/>
<polygon class="st6" points="867.8,174.3 146.6,174.3 146.6,125.8 867.8,125.8 884.5,149.5 "/>
<g>
	<path class="st4" d="M221.5,75.8c-0.9,0.7-1.2,0.9-1.8,1.2l-1.7-2.2c3.2-1.7,4.1-3.4,4.5-4.3l2.7,0.5c-0.2,0.5-0.3,0.7-0.8,1.5H239
		V75h-2v2.8h2.6v2.5H237v2.8h2v2.5h-20.2v-2.5h2.4v-2.8h-3v-2.5h3.1v-2H221.5z M223.4,86.9c-1.1,3.4-1.9,4.6-2.7,5.4l-2.4-1.7
		c0.7-0.7,1.7-1.8,2.6-4.4L223.4,86.9z M223.8,75v2.8h2V75H223.8z M223.8,80.3v2.8h2v-2.8H223.8z M227.4,86.6
		c0.3,1.5,0.4,4.1,0.4,5.2H225c0-0.7,0.1-1.6,0.1-2.9c0-1,0-1.7-0.1-2.2L227.4,86.6z M228.2,75v2.8h2.1V75H228.2z M228.2,80.3v2.8
		h2.1v-2.8H228.2z M232,86.4c0.2,0.5,1.3,3.3,1.5,5.3l-2.8,0.2c-0.3-2.4-0.6-3.6-1.2-5.3L232,86.4z M232.5,75v2.8h2.1V75H232.5z
		 M232.5,80.3v2.8h2.1v-2.8H232.5z M236.7,86c1.2,1.6,2,2.8,3.1,4.9l-2.6,1.4c-0.3-0.7-0.8-2.1-2.9-5.2L236.7,86z"/>
	<path class="st4" d="M242.7,81.7c-0.4,0.6-0.5,0.8-0.9,1.3l-1.1-3.8c1.7-2.5,2.5-5.8,2.7-8.6l2.7,0.3c-0.1,1-0.3,2.2-0.8,4.1v17.1
		h-2.6L242.7,81.7L242.7,81.7z M245.8,89.8c1.4-0.1,3.1-0.5,4.4-0.9H247v-8.5h14.1v8.5H258c2.1,0.8,3.8,1,4.6,1l-0.9,2.2
		c-2.4-0.4-4.2-0.9-5.9-1.9l1.1-1.3h-5.4l0.9,1.4c-2.4,1.2-4.8,1.7-5.6,1.8L245.8,89.8z M248.3,77.3h-2v-4.6h2.4
		c-0.2-0.5-0.5-1.1-0.7-1.5l2.5-0.5c0.2,0.4,0.7,1.5,1,2.1h1.1v-2.1h2.7v2.1h1.2c0.4-0.6,0.8-1.9,0.9-2.1l2.6,0.5
		c-0.2,0.5-0.4,1.1-0.7,1.5h2.5v4.6h-2v2.3h-11.7v-2.3H248.3z M259.5,75.7v-1.1h-10.6v1.1H259.5z M249.7,81.9v0.9h8.9v-0.9H249.7z
		 M249.7,84.1V85h8.9v-0.9H249.7z M249.7,86.3v0.9h8.9v-0.9H249.7z M250.8,77.1v1.1h6.7v-1.1H250.8z"/>
	<path class="st4" d="M265.5,82.1c-0.3,0.4-0.6,0.7-1.1,1.3l-1-3.6c1.8-2.5,2.9-5.9,3.3-9.1l2.8,0.3c-0.3,1.5-0.7,3.5-1.5,5.7v15.4
		h-2.6v-10H265.5z M284.3,82.6c-1.1-0.3-3.2-0.8-5.8-2.3c-2.6,1.4-4.7,1.8-5.9,2l-0.9-1.9v8.9h-2.5V74h2.5v1.3
		c0.4-0.3,2.3-1.8,3.3-4.7l2.7,0.4c-0.2,0.5-0.3,0.9-0.6,1.4h7.8v2.4h-1.4c-0.4,1-1.2,2.4-2.8,3.8c1.8,0.8,3.3,1.2,4.6,1.4
		L284.3,82.6z M271.8,76.3V80c1.2-0.1,2.7-0.4,4.6-1.3c-1.2-1.1-1.6-1.7-2-2.2c-0.6,0.6-1,0.9-1.4,1.2L271.8,76.3z M285.3,87.2
		c-1.2,1.1-4.4,4.3-12.3,4.9l-0.9-2.3c6.8-0.6,9.7-2.7,11.3-4.2L285.3,87.2z M280.4,82.7c-1.6,1.2-4.4,2.1-7.2,2.6l-0.8-1.9
		c1.6-0.3,4.1-0.8,6.3-2.1L280.4,82.7z M282.7,84.9c-3.3,2.7-7.2,3.4-9.3,3.8l-0.8-2.1c3.3-0.5,6.3-1.5,8.5-3.1L282.7,84.9z
		 M276,74.8c0.3,0.4,1,1.4,2.7,2.5c1.2-0.9,1.8-1.7,2.4-2.5H276z"/>
	<path class="st4" d="M286.1,87.7c0.9-0.2,1.6-0.4,2.8-0.7v-5.7h-2.2v-2.7h2.2v-4.2h-2.4v-2.7h7.4v2.7h-2.2v4.2h2v2.7h-2v4.8
		c1.2-0.4,1.6-0.5,2.2-0.8V88c-2,0.9-5.6,2.1-7.3,2.5L286.1,87.7z M294.5,71.3h12.7v11.1h-5v1.9h5.2v2.4h-5.2v2.2h5.6v2.6h-14.6
		v-2.6h6.4v-2.2h-5.1v-2.4h5.1v-1.9h-5V71.3H294.5z M297.1,73.8v2h2.5v-2H297.1z M297.1,77.8V80h2.5v-2.2H297.1z M302.1,73.8v2h2.4
		v-2H302.1z M302.1,77.8V80h2.4v-2.2H302.1z"/>
	<path class="st4" d="M314.1,87.4c-0.7,1.7-2.2,3.6-3.5,4.7l-1.9-2c1.2-1,2.5-2.8,3.1-3.9L314.1,87.4z M310.6,70.7h2.6v1.8h3.7v-1.8
		h2.6v1.8h1.5V75h-1.5v8.7h1.4v2.4H309v-2.4h1.5V75h-1.2v-2.5h1.2v-1.8H310.6z M313.2,75v1.4h3.7V75H313.2z M313.2,78.5V80h3.7v-1.5
		H313.2z M313.2,82.1v1.6h3.7v-1.6H313.2z M317.2,86.3c0.7,0.6,1.6,1.6,2.4,2.9l-1.9,1.7c-0.5-0.9-1.3-2.1-2.3-3.2L317.2,86.3z
		 M329.7,71.3v18.8c0,1.9-1.2,1.9-2,1.9h-3l-0.5-2.7h2.1c0.6,0,0.7-0.3,0.7-0.7v-3.3h-3.4c-0.4,4.3-1.8,6.1-2.3,6.8l-2.3-1.9
		c1.6-2.3,2.3-4.4,2.3-10.8v-8h8.4V71.3z M324,79.6c0,1.2,0,1.8,0,3.2h3.2v-3.2H324z M324,74v3.2h3.1V74H324z"/>
	<path class="st4" d="M332.5,71.5h8.9V80h-6.3v12h-2.7V71.5H332.5z M335.2,73.6v1.3h3.6v-1.3H335.2z M335.2,76.6V78h3.6v-1.3
		L335.2,76.6L335.2,76.6z M347.6,89.4h1.5c0.5,0,0.6-0.3,0.6-0.7V80h-6.5v-8.5h9.2v18.3c0,0.8-0.2,2.3-1.7,2.3h-3.9l-0.4-2.2h-9.2
		v-8.6h10.4V89.4z M339.8,83.3v1.3h5.3v-1.3H339.8z M339.8,86.3v1.4h5.3v-1.4H339.8z M345.8,73.6v1.3h3.9v-1.3H345.8z M345.8,76.6
		V78h3.9v-1.3L345.8,76.6L345.8,76.6z"/>
</g>
<g>
	<path class="st4" d="M378,79.4l1.9-16.5h18.2v5.4h-12.9l-0.8,7c1.5-0.8,3.2-1.2,4.9-1.2c3.1,0,5.5,1,7.3,2.9s2.6,4.6,2.6,8.1
		c0,2.1-0.4,4-1.3,5.6c-0.9,1.7-2.2,2.9-3.8,3.9c-1.7,0.9-3.6,1.4-5.8,1.4c-2,0-3.8-0.4-5.5-1.2c-1.7-0.8-3-1.9-4-3.4
		s-1.5-3.1-1.6-4.9h6.4c0.1,1.4,0.6,2.4,1.4,3.2s1.9,1.1,3.2,1.1c1.5,0,2.6-0.5,3.4-1.6c0.8-1,1.2-2.5,1.2-4.5
		c0-1.8-0.5-3.3-1.4-4.2c-0.9-1-2.2-1.5-3.9-1.5c-1.5,0-2.8,0.4-3.7,1.2l-0.6,0.6L378,79.4z"/>
	<path class="st4" d="M407.3,80.6c-0.9,0.9-1.2,1.2-1.7,1.6l-1.9-2.5c2.6-2,4.4-4.7,5-7.2l3,0.5c-0.1,0.5-0.2,0.8-0.6,1.7h14v2.8
		h-7.3v2.8h6.5V83h-6.5v3.8h8.2v2.8h-8.2v5.1h-3v-5.1h-10.9v-2.8h3.4V80.6z M414.8,80.3v-2.8h-5.3c-0.5,0.8-1.1,1.6-2,2.8H414.8z
		 M410.2,83v3.8h4.6V83H410.2z"/>
</g>
<g>
	<path class="st4" d="M367.5,144.5c-0.9,0.7-1.2,0.9-1.8,1.2l-1.7-2.2c3.2-1.7,4.1-3.4,4.5-4.3l2.7,0.5c-0.2,0.5-0.3,0.7-0.8,1.5
		H385v2.5h-2v2.8h2.6v2.5H383v2.8h2v2.5h-20.2v-2.5h2.4V149h-3v-2.5h3.1v-2H367.5z M369.4,155.6c-1.1,3.4-1.9,4.6-2.7,5.4l-2.4-1.7
		c0.7-0.7,1.7-1.8,2.6-4.4L369.4,155.6z M369.8,143.7v2.8h2v-2.8H369.8z M369.8,149v2.8h2V149H369.8z M373.4,155.3
		c0.3,1.5,0.4,4.1,0.4,5.2H371c0-0.7,0.1-1.6,0.1-2.9c0-1,0-1.7-0.1-2.2L373.4,155.3z M374.2,143.7v2.8h2.1v-2.8H374.2z M374.2,149
		v2.8h2.1V149H374.2z M378,155.1c0.2,0.5,1.3,3.3,1.5,5.3l-2.8,0.2c-0.3-2.4-0.6-3.6-1.2-5.3L378,155.1z M378.5,143.7v2.8h2.1v-2.8
		H378.5z M378.5,149v2.8h2.1V149H378.5z M382.7,154.6c1.2,1.6,2,2.8,3.1,4.9l-2.6,1.4c-0.3-0.7-0.8-2.1-2.9-5.2L382.7,154.6z"/>
	<path class="st4" d="M388.7,150.3c-0.4,0.6-0.5,0.8-0.9,1.3l-1.1-3.8c1.7-2.5,2.5-5.8,2.7-8.6l2.7,0.3c-0.1,1-0.3,2.2-0.8,4.1v17.1
		h-2.6L388.7,150.3L388.7,150.3z M391.8,158.5c1.4-0.1,3.1-0.5,4.4-0.9H393v-8.5h14.1v8.5H404c2.1,0.8,3.8,1,4.6,1l-0.9,2.2
		c-2.4-0.4-4.2-0.9-5.9-1.9l1.1-1.3h-5.4l0.9,1.4c-2.4,1.2-4.8,1.7-5.6,1.8L391.8,158.5z M394.3,146h-2v-4.6h2.4
		c-0.2-0.5-0.5-1.1-0.7-1.5l2.5-0.5c0.2,0.4,0.7,1.5,1,2.1h1.1v-2.1h2.7v2.1h1.2c0.4-0.6,0.8-1.9,0.9-2.1l2.6,0.5
		c-0.2,0.5-0.4,1.1-0.7,1.5h2.5v4.6h-2v2.3h-11.7V146H394.3z M405.5,144.4v-1.1h-10.6v1.1H405.5z M395.7,150.5v0.9h8.9v-0.9H395.7z
		 M395.7,152.7v0.9h8.9v-0.9H395.7z M395.7,155v0.9h8.9V155H395.7z M396.8,145.8v1.1h6.7v-1.1H396.8z"/>
	<path class="st4" d="M411.5,150.8c-0.3,0.4-0.6,0.7-1.1,1.3l-1-3.6c1.8-2.5,2.9-5.9,3.3-9.1l2.8,0.3c-0.3,1.5-0.7,3.5-1.5,5.7v15.4
		h-2.6v-10H411.5z M430.3,151.2c-1.1-0.3-3.2-0.8-5.8-2.3c-2.6,1.4-4.7,1.8-5.9,2l-0.9-1.9v8.9h-2.5v-15.2h2.5v1.3
		c0.4-0.3,2.3-1.8,3.3-4.7l2.7,0.4c-0.2,0.5-0.3,0.9-0.6,1.4h7.8v2.4h-1.4c-0.4,1-1.2,2.4-2.8,3.8c1.8,0.8,3.3,1.2,4.6,1.4
		L430.3,151.2z M417.8,144.9v3.7c1.2-0.1,2.7-0.4,4.6-1.3c-1.2-1.1-1.6-1.7-2-2.2c-0.6,0.6-1,0.9-1.4,1.2L417.8,144.9z M431.3,155.9
		c-1.2,1.1-4.4,4.3-12.3,4.9l-0.9-2.3c6.8-0.6,9.7-2.7,11.3-4.2L431.3,155.9z M426.4,151.4c-1.6,1.2-4.4,2.1-7.2,2.6l-0.8-1.9
		c1.6-0.3,4.1-0.8,6.3-2.1L426.4,151.4z M428.7,153.5c-3.3,2.7-7.2,3.4-9.3,3.8l-0.8-2.1c3.3-0.5,6.3-1.5,8.5-3.1L428.7,153.5z
		 M422,143.5c0.3,0.4,1,1.4,2.7,2.5c1.2-0.9,1.8-1.7,2.4-2.5H422z"/>
	<path class="st4" d="M432.1,156.3c0.9-0.2,1.6-0.4,2.8-0.7v-5.7h-2.2v-2.7h2.2V143h-2.4v-2.7h7.4v2.7h-2.2v4.2h2v2.7h-2v4.8
		c1.2-0.4,1.6-0.5,2.2-0.8v2.7c-2,0.9-5.6,2.1-7.3,2.5L432.1,156.3z M440.5,140h12.7v11h-5v1.9h5.2v2.4h-5.2v2.2h5.6v2.6h-14.6v-2.6
		h6.4v-2.2h-5.1V153h5.1v-2h-5v-11H440.5z M443.1,142.5v2h2.5v-2H443.1z M443.1,146.5v2.2h2.5v-2.2H443.1z M448.1,142.5v2h2.4v-2
		H448.1z M448.1,146.5v2.2h2.4v-2.2H448.1z"/>
	<path class="st4" d="M460.1,156.1c-0.7,1.7-2.2,3.6-3.5,4.7l-1.9-2c1.2-1,2.5-2.8,3.1-3.9L460.1,156.1z M456.6,139.4h2.6v1.8h3.7
		v-1.8h2.6v1.8h1.5v2.5h-1.5v8.7h1.4v2.4H455v-2.4h1.5v-8.7h-1.2v-2.5h1.2v-1.8H456.6z M459.2,143.7v1.4h3.7v-1.4H459.2z
		 M459.2,147.2v1.5h3.7v-1.5H459.2z M459.2,150.7v1.6h3.7v-1.6H459.2z M463.2,155c0.7,0.6,1.6,1.6,2.4,2.9l-1.9,1.7
		c-0.5-0.9-1.3-2.1-2.3-3.2L463.2,155z M475.7,140v18.8c0,1.9-1.2,1.9-2,1.9h-3l-0.5-2.7h2.1c0.6,0,0.7-0.3,0.7-0.7V154h-3.4
		c-0.4,4.3-1.8,6.1-2.3,6.8l-2.3-1.9c1.6-2.3,2.3-4.4,2.3-10.8v-8h8.4V140z M470,148.3c0,1.2,0,1.8,0,3.2h3.2v-3.2H470z M470,142.6
		v3.2h3.1v-3.2H470z"/>
	<path class="st4" d="M478.5,140.2h8.9v8.5h-6.3v12h-2.7v-20.5H478.5z M481.2,142.3v1.3h3.6v-1.3H481.2z M481.2,145.3v1.3h3.6v-1.3
		H481.2z M493.6,158.1h1.5c0.5,0,0.6-0.3,0.6-0.7v-8.7h-6.5v-8.5h9.2v18.3c0,0.8-0.2,2.3-1.7,2.3h-3.9l-0.4-2.2h-9.2V150h10.4V158.1
		z M485.8,152v1.3h5.3V152H485.8z M485.8,155v1.4h5.3V155H485.8z M491.8,142.3v1.3h3.9v-1.3H491.8z M491.8,145.3v1.3h3.9v-1.3H491.8
		z"/>
</g>
<g>
	<path class="st4" d="M539.3,166.1h-6.5v-24.9l-7.7,2.4v-5.2l13.5-4.8h0.7V166.1z"/>
	<path class="st4" d="M567.2,152.6c0,4.5-0.9,7.9-2.8,10.3c-1.9,2.4-4.6,3.6-8.2,3.6c-3.5,0-6.2-1.2-8.1-3.5
		c-1.9-2.3-2.8-5.7-2.9-10v-6c0-4.5,0.9-8,2.8-10.3c1.9-2.4,4.6-3.5,8.1-3.5s6.2,1.2,8.1,3.5c1.9,2.3,2.8,5.7,2.9,10v5.9H567.2z
		 M560.8,146.1c0-2.7-0.4-4.7-1.1-5.9c-0.7-1.2-1.9-1.8-3.4-1.8s-2.6,0.6-3.4,1.8s-1.1,3-1.1,5.5v7.9c0,2.7,0.4,4.6,1.1,5.9
		s1.9,1.9,3.5,1.9s2.7-0.6,3.4-1.9c0.7-1.2,1.1-3.1,1.1-5.7L560.8,146.1L560.8,146.1z"/>
	<path class="st4" d="M575.6,151.2c-0.9,0.9-1.2,1.2-1.7,1.6l-1.9-2.5c2.6-2,4.4-4.7,5-7.2l3,0.5c-0.1,0.5-0.2,0.8-0.6,1.7h14v2.8
		h-7.3v2.8h6.5v2.7h-6.5v3.8h8.2v2.8h-8.2v5.1h-3v-5.1h-10.9v-2.8h3.4V151.2z M583.2,151v-2.8h-5.3c-0.5,0.8-1.1,1.6-2,2.8H583.2z
		 M578.5,153.7v3.8h4.6v-3.8H578.5z"/>
</g>
<path class="st7" d="M141.3,251.7H29.2c-14.8,0-27-12.1-27-27l0,0c0-14.8,12.1-27,27-27h112.1c14.8,0,27,12.1,27,27l0,0
	C168.3,239.5,156.2,251.7,141.3,251.7z"/>
<path class="st7" d="M320.1,251.7h-112c-14.8,0-27-12.1-27-27l0,0c0-14.8,12.1-27,27-27h112.1c14.8,0,27,12.1,27,27l0,0
	C347.1,239.5,335,251.7,320.1,251.7z"/>
<path class="st7" d="M499,251.7H386.9c-14.8,0-27-12.1-27-27l0,0c0-14.8,12.1-27,27-27H499c14.8,0,27,12.1,27,27l0,0
	C526,239.5,513.8,251.7,499,251.7z"/>
<path class="st7" d="M677.8,251.7H565.7c-14.8,0-27-12.1-27-27l0,0c0-14.8,12.1-27,27-27h112.1c14.8,0,27,12.1,27,27l0,0
	C704.8,239.5,692.7,251.7,677.8,251.7z"/>
<path class="st7" d="M856.6,251.7h-112c-14.8,0-27-12.1-27-27l0,0c0-14.8,12.1-27,27-27h112.1c14.8,0,27,12.1,27,27l0,0
	C883.6,239.5,871.5,251.7,856.6,251.7z"/>
<g>
	<path class="st4" d="M68.8,214.7h3v6.1c0,4.6,2.4,7.5,2.9,8.1c2,2.5,5.1,3.7,6.6,4.4l-1.8,2.8c-6.3-2.9-8.1-6.4-9-9.6
		c-0.4,1.7-1.6,6.3-8.9,9.6l-1.8-2.7c3.9-1.6,9.1-4.6,9.1-12.4L68.8,214.7L68.8,214.7z M63.3,225.8c-0.6-2.3-1.7-5.1-3.1-7l2.6-1.1
		c1.3,1.7,2.7,4.6,3.4,7.1L63.3,225.8z M74.7,224.6c1.6-2.3,2.6-5.8,2.8-7.2l3,1c-0.8,3-1.4,4.5-3.2,7.4L74.7,224.6z"/>
	<path class="st4" d="M82.2,233.2c4-0.6,9.5-2.1,9.4-9.7h2.8c-0.1,7.2,4.6,9,9.5,9.8l-1.4,2.9c-6.3-1.7-8.4-4.4-9.5-6.8
		c-1.6,3.9-5.7,5.8-9.5,6.8L82.2,233.2z M86.4,223.7c-0.6-1.1-1.7-2.7-3.5-4.6c1.8-2,2.4-2.6,3.5-4.4L89,216
		c-0.8,1.1-1.2,1.6-2.6,3.1c1.2,1.2,1.4,1.4,2.6,3L86.4,223.7z M86.2,230c-0.4-0.7-1.1-2.1-2.9-4.4l2.3-1.5c1.2,1.4,2.1,2.5,3,4.3
		L86.2,230z M93.5,223.5c-1.2-1.8-2.6-3.4-3.8-4.5c0.4-0.4,2.6-2.7,3.6-4.5l2.6,1.3c-1,1.4-1.8,2.2-2.6,3.1c0.7,0.6,1.9,1.8,2.9,2.9
		L93.5,223.5z M100.7,223.9c-1.1-1.8-2.3-3.3-3.8-4.7c1.9-2,2.2-2.4,3.7-4.6l2.6,1.4c-0.6,0.8-1.8,2.2-2.8,3.1
		c0.7,0.7,1.8,1.8,2.8,3.1L100.7,223.9z M97.3,228.4c1.3-1.5,2-2.6,2.8-4.2l2.7,1.3c-0.2,0.5-1.4,2.6-3.1,4.4L97.3,228.4z"/>
</g>
<g>
	<path class="st4" d="M232.5,219.9h8.1v2.8c-0.5,3.2-2,8.2-6.9,11.4l-1.6-2.7c3.5-2.3,5.1-4.8,5.8-8.7h-5.4L232.5,219.9L232.5,219.9
		z M244.5,217.3c0,0.1,0,0.3,0,0.4c0,0.3,1.4,4.7,1.5,4.8c3.1-2.4,4.6-4.3,5.2-5.1l2.5,1.9c-1.9,2.2-4.1,4-6.5,5.7
		c1,1.6,2.7,4.1,6.8,6.5l-1.7,2.8c-3.5-2.4-6.6-5.7-7.8-9.4v8.6c0,2.1-1.1,2.5-2.2,2.5h-4.1l-0.6-2.9h3.4c0.4,0,0.7-0.2,0.7-0.6
		v-17.8h2.9L244.5,217.3L244.5,217.3z"/>
	<path class="st4" d="M259.7,227.8c-0.3,1.7-2,6.3-3,8l-2.1-2.4c0.4-0.7,1.3-2.2,2.8-6.9L259.7,227.8z M256.2,220.8
		c0.3,0.1,2.2,1,3.6,2.2l-1.7,2.2c-0.7-0.6-2.2-1.7-3.4-2.3L256.2,220.8z M260.6,217l-1.7,2.3c-0.9-0.8-2.4-1.7-3.5-2.2l1.6-2.2
		C257.5,215.1,259.1,215.7,260.6,217v-1.6h15.2v5.4h-12.6v1.1h13.3v2.1h-5.9v1.2h5.2v9.1c0,1-0.2,1.8-1.6,1.8h-2.6l-0.4-2.4h1.7
		c0.5,0,0.5,0,0.5-0.5v-1.3l-0.8,1.1c-1-0.9-1.7-1.4-2-1.5v4.5h-2.1v-3.8l-0.9,1.2c-0.5-0.5-1-0.9-1.9-1.5v4.2h-2.2v-10.9h5V224
		h-5.3v0.6c0,2.8-0.3,8.1-2.5,11.5l-2.3-1.9c1.8-3.2,2.2-6.8,2.2-9.8L260.6,217L260.6,217z M263.2,217.5v1.4h9.9v-1.4H263.2z
		 M265.6,228.9l0.9-1.2c0.7,0.4,1.3,0.8,1.9,1.4v-1.9h-2.8V228.9z M265.6,231.6l0.8-1.1c0.5,0.2,1.2,0.7,2,1.4V229l-1,1.2
		c-0.7-0.6-1-0.8-1.8-1.3V231.6z M270.5,228.6l0.8-1.1c0.9,0.5,1.7,1.2,1.9,1.4v-1.8h-2.8v1.5H270.5z M270.5,231.4l0.9-1.1
		c0.5,0.3,1.7,1.1,1.9,1.3V229l-0.9,1.2c-0.3-0.3-0.9-0.7-1.9-1.5V231.4z"/>
	<path class="st4" d="M285.6,215.6c0,0.5-0.1,3-0.1,4.6c1.3-1.2,3.7-3.1,6.5-3.1c1.5,0,2.7,0.7,3.2,1.7c0.4,0.7,0.6,1.8,0.5,3.5
		l-0.2,6c0,1.9-0.1,3.2,3.2,3.1l-0.7,3c-3.8-0.3-5.9-0.9-5.7-5.8l0.2-5.9c0-1.4,0-2.7-1.4-2.7c-1.2,0-3.5,1-5.9,4
		c0,2-0.1,2.9-0.1,4.6c0,2.9,0.1,5.3,0.1,6.5h-3.1c0-1.1,0-5.7,0.1-6.7c-1.3,2-2.2,2.9-2.8,3.5l-1.7-2.9c0.8-0.8,2.8-2.7,4.4-5.6
		v-1.6h-3.7V219h3.8c0-0.3,0-3.3,0-3.3h3.4V215.6z"/>
</g>
<g>
	<path class="st4" d="M424.3,223.9c1.5,0.8,2.2,1.3,3.4,2.5l-1.7,2.2c-1.1-1.4-2.5-2.2-3.2-2.6L424.3,223.9z M428.9,230.4
		c-1.6,2.9-3.7,5.1-4.4,5.8l-1.6-2.4c1.3-1.2,2.6-2.6,4.4-5.4L428.9,230.4z M427.9,214.7h2.7v1.2h6.4v-1.2h2.7v1.2h4.6v2.5h-4.6v1.3
		H437v-1.3h-6.4v1.3h-2.7v-1.3h-4.7v-2.5h4.7V214.7z M425.2,219.2c1.2,0.6,2.4,1.5,3.4,2.5l-1.8,2.2c-0.9-1.1-1.8-1.9-3.3-2.7
		L425.2,219.2z M428.2,223.3c2.3-1,3.9-2.2,5.5-4.2l2.8,0.2c-0.2,0.4-0.3,0.5-0.5,0.9h6.6v1.9c-0.6,0.8-1.5,2.3-3.6,3.7
		c2.3,0.9,4.5,1.1,5.7,1.2l-1,2.7c-0.7-0.1-0.8-0.2-1-0.2v6.6H440v-0.9h-7.3v0.9H430v-6.6c-0.1,0-0.2,0-0.7,0.1l-1.1-2.5
		c1.3-0.2,3.3-0.5,5.8-1.5c-0.4-0.3-1-0.8-1.8-1.8c-1,0.7-1.8,1.1-2.4,1.4L428.2,223.3z M441.2,229.1c-2.1-0.6-3.7-1.2-4.8-1.8
		c-0.9,0.5-2.3,1.1-4.6,1.8H441.2z M432.7,231.3v1.8h7.3v-1.8H432.7z M434.1,222.2c-0.1,0.1-0.1,0.1-0.2,0.2
		c0.6,0.7,1.4,1.4,2.4,2.1c1.4-0.9,2.2-1.7,2.8-2.3H434.1z"/>
	<path class="st4" d="M465.5,217.4h-7.8v1h8.8v5.4h-2.7v-3.4h-6.1v5.1H455v-5.1h-6v3.4h-2.7v-5.4h8.7v-1h-7.7v-2.1h18.2V217.4z
		 M447.1,226.1h18.6v10H463v-0.7h-13.2v0.7h-2.7L447.1,226.1L447.1,226.1z M449.8,228.2v1.5h5.2v-1.5H449.8z M449.8,231.5v1.6h5.2
		v-1.6H449.8z M450,221.3h4.2v1.4H450V221.3z M450,223.7h4.2v1.4H450V223.7z M457.7,228.2v1.5h5.4v-1.5H457.7z M457.7,231.5v1.6h5.4
		v-1.6H457.7z M458.5,221.3h4.3v1.4h-4.3V221.3z M458.5,223.7h4.3v1.4h-4.3V223.7z"/>
</g>
<g>
	<path class="st4" d="M774.5,228.1c-0.9,2.2-2.8,5.8-4.6,7.9l-1.7-2.8c1.5-1.8,3.1-4.4,4.1-6.7L774.5,228.1z M769.6,220.7
		c0.7,0.3,2.3,1,3.9,2.2l-1.6,2.5c-1.9-1.5-3.1-2-3.7-2.3L769.6,220.7z M770.5,214.6c0.5,0.2,2.4,1.1,3.9,2.3l-1.7,2.4
		c-1.3-1-2.6-1.8-3.8-2.4L770.5,214.6z M777.5,214.8c0.7,1,1.7,2.7,2.3,4.5l-2.7,0.9c-0.1-0.4-1-2.8-2.1-4.4L777.5,214.8z
		 M780.8,220.5v-5.8h2.8v5.8h5.3v13.7c0,1.4-0.8,1.9-2,1.9H783l-0.5-2.7h3.1c0.4,0,0.5-0.1,0.5-0.6v-1.9h-7.8v5.2h-2.8v-15.6
		L780.8,220.5L780.8,220.5z M778.3,222.9v1.7h7.8v-1.7H778.3z M778.3,226.9v1.7h7.8v-1.7H778.3z M789.7,215.7
		c-0.5,1.2-1.3,3.1-2.5,4.6l-2.4-1.1c1-1.4,1.8-2.8,2.4-4.4L789.7,215.7z"/>
	<path class="st4" d="M790.7,231.1c2.2-1.9,3.5-4.2,3.7-4.5h-3.3v-2.4h3.6v-1.5h-3v-2.3h3V219h-3.4v-2.4h3.4v-1.9h2.6v1.9h3.1v2.4
		h-3.1v1.5h2.7v2.3h-2.7v1.5h3.6v2.4h-3.4c1.5,2.3,2.8,3.1,3.4,3.6l-1.4,2.5c-0.4-0.4-1.3-1.3-2.3-3v6.3h-2.6v-5.9
		c-1.4,2.5-2.4,3.5-3,4.1L790.7,231.1z M804.4,218.4c-1.2,0.1-1.9,0.2-3,0.2l-0.6-2.6c6.7-0.3,8.9-1,10-1.4l1.1,2.3
		c-0.6,0.2-1.9,0.7-4.8,1.1v2.7l4.8-0.4l0.2,2.6l-5,0.5v2.8l5-0.4l0.1,2.6l-5.2,0.4v3.7c0,0.4,0,0.7,0.6,0.7h1.5
		c0.4,0,0.6-0.3,0.6-0.5c0.1-0.2,0.2-1.9,0.2-2.4l2.5,0.7c-0.1,3.8-0.5,5-2.1,5h-4.1c-0.5,0-2,0-2-1.7V229l-3.3,0.3l-0.2-2.6
		l3.5-0.3v-2.8l-3.3,0.3l-0.2-2.6l3.5-0.3v-2.6H804.4z"/>
	<path class="st4" d="M814.5,225.2h9V236h-2.6v-1h-3.7v1h-2.6v-10.8H814.5z M816.6,215.4h15.7v8.3h-15.7V215.4z M817.1,232.5h3.7
		v-4.8h-3.7V232.5z M819.3,221.2h10.2v-3.3h-10.2V221.2z M831.7,236.1v-1h-4.1v1H825v-10.8h9.3v10.8H831.7z M827.7,232.5h4.1v-4.8
		h-4.1V232.5z"/>
</g>
<g>
	<path class="st4" d="M556.7,225.2c-0.6-1.2-2-3.8-3.8-5.8l2.5-1.4c1.6,1.8,2.7,3.2,4,5.6L556.7,225.2z M554.7,232.3
		c4-1,10.6-2.8,12.5-14.9l3.2,0.6c-2.2,9.3-5.3,14.4-14.2,16.7L554.7,232.3z"/>
	<path class="st4" d="M590,218c-0.4,5.4-1.6,14.5-14.1,16.9l-1.2-2.7c10-1.6,11.3-7.5,11.9-11.5H573V218H590z"/>
	<path class="st4" d="M597.9,216.6v5.3c3.7,1,7.2,2.6,10.5,4.5l-1.4,3c-1.9-1.3-6.5-3.8-9-4.5v10.5h-3v-18.7h2.9V216.6z"/>
	<path class="st4" d="M617.5,225.9c0,1.4-1.2,2.6-2.6,2.6c-1.4,0-2.6-1.1-2.6-2.6s1.2-2.6,2.6-2.6S617.5,224.5,617.5,225.9z"/>
	<path class="st4" d="M632.3,216.6v3.1h7v1.7c-0.3,10.1-6.1,13.1-13.6,13.8l-0.9-2.7c3.9-0.3,8.9-1.3,10.6-5.4c0.1-0.3,1-2.6,1-4.8
		h-10.9v4.8h-2.8v-7.4h6.8v-3.1L632.3,216.6L632.3,216.6z"/>
	<path class="st4" d="M651.6,235.4H649v-7.3c-2.7,1.7-4.5,2.3-6.1,2.8l-1.2-2.3c7.3-2.4,11.1-6.6,12.5-8.5l2.2,1.7
		c-0.6,0.7-2.3,2.5-4.8,4.5L651.6,235.4L651.6,235.4z"/>
	<path class="st4" d="M663.5,222.8c0,2.5-0.2,4.7-0.7,6.8c-0.5,2.5-1.6,4.5-3.3,6.1l-2.3-2c1.2-1.1,3.4-3.3,3.4-10.4v-5.7h2.9
		L663.5,222.8L663.5,222.8z M669.3,231.5c1.3-0.5,2.6-1.2,3.8-3c0.5-0.8,1.3-2.3,1.7-4.8l2.6,1.1c-1.2,5.9-5.1,10-11,10.1v-18.1h2.8
		v14.7H669.3z"/>
	<path class="st4" d="M676.8,232.8c4.8-1.8,9.6-6.1,12-12.3H678v-2.7h14.5c-0.3,1.4-0.9,4.6-3.9,8.8c2.6,2,4.9,4,7.1,6.1l-2.4,2.4
		c-2-2.3-4.1-4.4-6.4-6.4c-2.4,2.7-5.2,5-8.5,6.4L676.8,232.8z"/>
</g>
</svg>
