<?xml version="1.0" encoding="utf-8"?>
<!-- Generator: Adobe Illustrator 21.0.0, SVG Export Plug-In . SVG Version: 6.00 Build 0)  -->
<svg version="1.1" id="レイヤー_1" xmlns="http://www.w3.org/2000/svg" xmlns:xlink="http://www.w3.org/1999/xlink" x="0px"
	 y="0px" viewBox="0 0 513.7 308.8" style="enable-background:new 0 0 513.7 308.8;" xml:space="preserve">
<style type="text/css">
	.st0{fill:#D2ECFB;}
	.st1{fill:#FEF4E5;}
	.st2{enable-background:new    ;}
	.st3{fill:#FFFFFF;}
	.st4{fill:#6ABB65;}
	.st5{fill:#E71F19;}
	.st6{fill:#CDE192;}
	.st7{fill:#F4D923;}
	.st8{fill:none;stroke:#E71F19;stroke-width:11.3386;stroke-miterlimit:10;}
	.st9{fill:#468CCB;}
	.st10{fill:#F39800;}
	.st11{fill:#F7F8F8;}
	.st12{fill:#E60012;}
	.st13{fill:none;stroke:#FFFFFF;stroke-width:5.6693;stroke-linejoin:round;stroke-miterlimit:10;}
</style>
<g>
	<rect x="398.7" y="26.4" class="st0" width="115" height="282.3"/>
	<rect y="26.4" class="st0" width="115" height="282.3"/>
	<rect x="115" y="26.4" class="st1" width="283.8" height="282.3"/>
</g>
<g class="st2">
	<path d="M1.1,16.8c1.6-2.5,2.5-4.8,3-6l1.6,1.1c-1.4,3.9-2.7,5.8-3.3,6.7L1.1,16.8z M2.2,6.1c1.7,0.7,2.6,1.4,3.1,1.8L4.1,9.5
		C3,8.6,2.5,8.3,1.2,7.7L2.2,6.1z M3.1,0.8C4,1.2,5.3,1.9,6,2.5L4.8,4.2C4,3.5,3,2.9,2,2.4L3.1,0.8z M6.1,10.5h5.7V8.5h2v2.1h5.6
		v1.7H15c1.2,1.6,2.9,2.9,4.8,3.7l-1.1,1.8c-2.8-1.7-4.3-3.7-4.9-4.5v5.3h-2v-5.3C9.9,16,7,17.7,6.4,18l-1.2-1.7
		c0.6-0.3,1.6-0.8,2.8-1.7c1.6-1.1,2-1.8,2.4-2.3H6.1V10.5z M6.3,7.3c2.4-1,3.3-2,3.7-4.3H8.5v1.9H6.5V1.3h12.4v3.6h-1.9V3h-1.7v3.4
		c0,0.3,0.1,0.4,0.4,0.4h1.5c0.2,0,0.4,0,0.4-0.2c0.1-0.2,0.1-0.8,0.2-1.3l1.6,0.3c-0.3,2.8-1,2.8-1.6,2.8h-3.3
		c-0.5,0-1.1-0.2-1.1-0.8V3h-1.7c-0.5,3.9-3.3,5.4-4.5,6L6.3,7.3z"/>
	<path d="M20.3,10.4c1.6-1.1,3.9-3.9,4.6-6.2h-4.2V2.3h8V0.6h2.1v1.7h7.8v1.9H25.4L27,4.6c-0.3,0.8-0.8,2.1-2.2,4v10h-2V11
		c-0.7,0.7-1,0.9-1.4,1.2L20.3,10.4z M25.1,10.8c2.8-1.9,4-3.6,5.1-6.6l2,0.5c-0.2,0.6-0.3,1-0.6,1.7h6.2v1.7
		c-0.2,0.7-0.9,2.5-1.4,3.5c-0.3,0.5-1,1.8-2.4,3.2c1.8,1.1,3.6,1.6,4.7,1.9l-0.9,2c-1.1-0.4-3.1-1-5.4-2.6
		c-2.3,1.7-4.6,2.3-5.8,2.6l-0.8-2c1.2-0.2,3.1-0.7,5-2c-1.8-1.7-2.4-3.2-2.6-3.8c-0.7,0.7-1.2,1.1-1.7,1.5L25.1,10.8z M30.5,8.1
		c-0.3,0.5-0.7,0.9-1.2,1.5c0.3,0.7,1,2.4,2.9,4c0.4-0.4,0.7-0.7,1.2-1.3c-1.1-1.1-1.9-1.7-2.8-2.3l1.2-1.3c0.4,0.3,1.3,0.8,2.6,2.1
		c0.6-1.2,0.9-2,1.1-2.6H30.5z"/>
</g>
<g class="st2">
	<path d="M473.3,16.8c1.6-2.5,2.5-4.8,3-6l1.6,1.1c-1.4,3.9-2.7,5.8-3.3,6.7L473.3,16.8z M474.4,6.1c1.7,0.7,2.6,1.4,3.1,1.8
		l-1.2,1.6c-1.1-0.8-1.6-1.2-2.9-1.8L474.4,6.1z M475.3,0.8c0.9,0.4,2.2,1.2,2.9,1.8l-1.2,1.7c-0.8-0.7-1.8-1.4-2.8-1.9L475.3,0.8z
		 M478.3,10.5h5.7V8.5h2v2.1h5.6v1.7h-4.3c1.2,1.6,2.9,2.9,4.8,3.7l-1.1,1.8c-2.8-1.7-4.3-3.7-4.9-4.5v5.3h-2v-5.3
		c-1.9,2.7-4.8,4.3-5.4,4.6l-1.2-1.7c0.6-0.3,1.6-0.8,2.8-1.7c1.6-1.1,2-1.8,2.4-2.3h-4.4V10.5z M478.4,7.3c2.4-1,3.3-2,3.7-4.3
		h-1.5v1.9h-1.9V1.3h12.4v3.6h-1.9V3h-1.7v3.4c0,0.3,0.1,0.4,0.4,0.4h1.5c0.2,0,0.4,0,0.4-0.2c0.1-0.2,0.1-0.8,0.2-1.3l1.6,0.3
		c-0.3,2.8-1,2.8-1.6,2.8h-3.3c-0.5,0-1.1-0.2-1.1-0.8V3H484c-0.5,3.9-3.3,5.4-4.5,6L478.4,7.3z"/>
	<path d="M492.4,10.4c1.6-1.1,3.9-3.9,4.6-6.2h-4.2V2.3h8V0.6h2.1v1.7h7.8v1.9h-13.1l1.6,0.4c-0.3,0.8-0.8,2.1-2.2,4v10h-2V11
		c-0.7,0.7-1,0.9-1.4,1.2L492.4,10.4z M497.2,10.8c2.8-1.9,4-3.6,5.1-6.6l2,0.5c-0.2,0.6-0.3,1-0.6,1.7h6.2v1.7
		c-0.2,0.7-0.9,2.5-1.4,3.5c-0.3,0.5-1,1.8-2.4,3.2c1.8,1.1,3.6,1.6,4.7,1.9l-0.9,2c-1.1-0.4-3.1-1-5.4-2.6
		c-2.3,1.7-4.6,2.3-5.8,2.6l-0.8-2c1.2-0.2,3.1-0.7,5-2c-1.8-1.7-2.4-3.2-2.6-3.8c-0.7,0.7-1.2,1.1-1.7,1.5L497.2,10.8z M502.7,8.1
		c-0.3,0.5-0.7,0.9-1.2,1.5c0.3,0.7,1,2.4,2.9,4c0.4-0.4,0.7-0.7,1.2-1.3c-1.1-1.1-1.9-1.7-2.8-2.3l1.2-1.3c0.4,0.3,1.3,0.8,2.6,2.1
		c0.6-1.2,0.9-2,1.1-2.6H502.7z"/>
</g>
<g class="st2">
	<path d="M114.2,17.4c0.3-0.4,0.8-1,1.3-2.2h-3.8v3.4h-1.8v-3.4h-4v-1.8h4V12h-3.3V4.9h3.3V3.7H106V1.9h3.8V0.6h1.8v1.3h3.9v1.8
		h-3.9v1.2h3.4V12h-3.4v1.4h3.9V15c0.8-2,0.9-3.8,0.9-5.3V1.1h7v15.5c0,1.2-0.1,2-1.6,2h-2.5l-0.3-2h2c0.4,0,0.5,0,0.5-0.5v-3.4
		h-3.5c-0.4,2.7-1.2,4.4-2.2,5.9L114.2,17.4z M108.2,6.4v1.3h5.1V6.4H108.2z M108.2,9.1v1.3h5.1V9.1H108.2z M118.3,7.8v1.8
		c0,0.5,0,0.9-0.1,1.3h3.3V7.8H118.3z M118.3,2.9v3.1h3.3V2.9H118.3z"/>
</g>
<g class="st2">
	<path d="M397.6,7.8c2,0.8,3.9,2.3,4.7,3.1c1.5-1.7,2.2-3.6,2.7-5.8h-7.3c-1.4,2-3.1,3.7-5.1,5.1l-1.4-1.7c1.5-0.9,4.8-3.1,6.5-8
		l2.3,0.3c-0.2,0.6-0.5,1.4-1,2.3h8.7c-0.8,4.5-3.2,13.1-15,15.4l-1-2.1c3.3-0.6,6.4-1.8,9-4c-1.3-1.4-2.8-2.3-4.3-3.2L397.6,7.8z"
		/>
</g>
<g>
	<rect x="39.1" y="116.8" class="st3" width="36.6" height="57"/>
	<g>
		<path class="st3" d="M79.7,112.9h-6.3v-4.5c0-1.8-1.5-3.2-3.2-3.2H45.1c-1.8,0-3.2,1.5-3.2,3.2v4.5h-6.3c-1.8,0-3.2,1.5-3.2,3.2
			v64.7c0,1.8,1.5,3.2,3.2,3.2h44.2c1.8,0,3.2-1.5,3.2-3.2v-64.7C82.9,114.4,81.5,112.9,79.7,112.9z M54.9,122.7v-4.5h5.5v4.5
			c0,1.8,1.5,3.2,3.2,3.2h6.3V171H45.3v-45.1h6.3C53.4,125.9,54.9,124.5,54.9,122.7z"/>
		<path class="st3" d="M46.6,149.5c0.4,1,1.2,1.8,2.2,2.1l4.4,1.2l-1.6,9.7c-0.3,1.5,0.6,3,2,3.6c0.4,0.2,0.8,0.2,1.2,0.2
			c1.1,0,2.1-0.5,2.7-1.4l10.7-16c0.6-0.9,0.7-2,0.4-2.9c-0.4-1-1.2-1.7-2.2-2l-4.1-1.1l2.8-10.4c0.4-1.5-0.3-3.1-1.7-3.8
			c-1.4-0.7-3.1-0.2-4,1l-12.3,16.9C46.5,147.4,46.3,148.5,46.6,149.5z"/>
	</g>
	<g>
		<path class="st4" d="M70.1,116.1v-7.8h-25v7.8h-9.6v64.7h44.2v-64.7C79.7,116.1,70.1,116.1,70.1,116.1z M73.2,174.3H42.1v-51.6
			h9.6v-7.8h12v7.8h9.6L73.2,174.3L73.2,174.3z"/>
		<polygon class="st4" points="62,131.6 49.7,148.5 56.9,150.5 54.8,163.1 65.5,147.1 58.3,145.1 		"/>
	</g>
</g>
<g class="st2">
	<path d="M15.8,195.5c-0.1,0.3-0.2,0.6-0.7,1.6H22v1.3h-2.3c-0.4,1.2-0.9,2.2-1.8,3.2c1.9,0.7,3,1.3,3.6,1.6l-0.9,1.3
		c-0.6-0.3-1.7-1-3.9-1.9c-0.4,0.3-2.3,1.5-5.9,1.9l-0.5-1.4c2.6-0.2,4-0.7,4.8-1.1c-0.8-0.3-1.8-0.6-3.9-1.3c0.4-0.4,1-1.2,1.7-2.3
		h-2.8v-1.3h3.5c0.4-0.8,0.6-1.3,0.7-1.7L15.8,195.5z M10.4,193.6h4.9v-1.2h1.4v1.2h5v2.9h-1.4v-1.6h-8.6v1.6h-1.4V193.6z
		 M14.5,198.4c-0.5,0.9-0.8,1.2-1.1,1.6c1.1,0.3,2.2,0.7,3.2,1.1c1.1-1,1.5-2.1,1.7-2.7H14.5z"/>
	<path d="M25,193.9c-0.1,0.6-0.2,1.5-0.2,3.1c0,1.2,0.1,4,0.9,4.9c0.1,0.2,0.4,0.3,0.7,0.3c0.8,0,1.5-1.4,1.9-2.7l1.2,0.7
		c-0.9,2.4-1.9,3.5-3.3,3.5c-2.4,0-2.9-3.6-2.9-6.8c0-1.4,0.1-2.6,0.2-3.2L25,193.9z M32.8,202.4c0-2.4-0.1-3.6-0.6-5.1
		c-0.5-1.3-1.1-2.1-1.6-2.6l1.1-0.8c1.6,1.7,2.7,3.5,2.7,8.5L32.8,202.4z"/>
	<path d="M35.4,203.2c1.1-1.7,1.7-3.2,2-4l1.1,0.7c-1,2.6-1.8,3.8-2.2,4.5L35.4,203.2z M36.1,196.1c1.1,0.5,1.7,0.9,2,1.2l-0.8,1.1
		c-0.7-0.6-1.1-0.8-1.9-1.2L36.1,196.1z M36.7,192.6c0.6,0.3,1.4,0.8,1.9,1.2l-0.8,1.1c-0.5-0.5-1.2-0.9-1.8-1.2L36.7,192.6z
		 M38.7,199.1h3.8v-1.4h1.3v1.4h3.7v1.2h-2.9c0.8,1,1.9,1.9,3.2,2.5l-0.8,1.2c-1.9-1.1-2.9-2.5-3.3-3v3.5h-1.3v-3.5
		c-1.3,1.8-3.2,2.8-3.6,3.1l-0.8-1.1c0.4-0.2,1-0.5,1.9-1.1c1.1-0.8,1.4-1.2,1.6-1.5h-2.9V199.1z M38.8,196.9
		c1.6-0.7,2.2-1.3,2.4-2.9h-1v1.2H39v-2.4h8.2v2.4H46v-1.2h-1.1v2.2c0,0.2,0,0.3,0.2,0.3h1c0.1,0,0.3,0,0.3-0.1
		c0-0.2,0.1-0.6,0.1-0.9l1.1,0.2c-0.2,1.9-0.7,1.9-1.1,1.9h-2.2c-0.3,0-0.7-0.1-0.7-0.5v-3.1h-1.1c-0.3,2.6-2.2,3.6-3,4L38.8,196.9z
		"/>
	<path d="M48.1,199c1.1-0.8,2.6-2.6,3.1-4.1h-2.8v-1.2h5.3v-1.1H55v1.1h5.2v1.2h-8.7l1.1,0.3c-0.2,0.5-0.5,1.4-1.5,2.7v6.6h-1.3
		v-5.1c-0.4,0.4-0.7,0.6-0.9,0.8L48.1,199z M51.3,199.2c1.8-1.3,2.7-2.4,3.4-4.4l1.3,0.3c-0.1,0.4-0.2,0.7-0.4,1.1h4.1v1.1
		c-0.1,0.4-0.6,1.7-0.9,2.3c-0.2,0.3-0.7,1.2-1.6,2.1c1.2,0.7,2.4,1.1,3.1,1.3l-0.6,1.3c-0.8-0.2-2.1-0.7-3.6-1.7
		c-1.5,1.1-3,1.5-3.8,1.7l-0.5-1.3c0.8-0.2,2-0.5,3.3-1.3c-1.2-1.1-1.6-2.1-1.7-2.5c-0.5,0.5-0.8,0.7-1.1,1L51.3,199.2z M54.9,197.4
		c-0.2,0.3-0.4,0.6-0.8,1c0.2,0.5,0.6,1.6,1.9,2.6c0.3-0.2,0.5-0.4,0.8-0.9c-0.7-0.7-1.3-1.1-1.8-1.5l0.8-0.9
		c0.3,0.2,0.9,0.6,1.7,1.4c0.4-0.8,0.6-1.3,0.7-1.7H54.9z"/>
	<path d="M63.3,199.6c-0.8,1.5-1.5,2.3-1.9,2.8l-0.5-1.5c0.5-0.5,1.4-1.5,2.3-3.3h-2.1v-1.2h2.2v-4.1h1.3v4.1h2v1.2h-1.9
		c0.5,1,1,1.6,1.6,2.2l-0.8,1.2c-0.4-0.6-0.7-1-0.9-1.4v4.7h-1.3V199.6z M62.1,193.2c0.3,0.8,0.5,1.8,0.6,2.5l-1.1,0.3
		c0-1.1-0.3-2-0.5-2.6L62.1,193.2z M66.8,193.3c-0.1,0.6-0.4,1.8-0.8,2.7l-1.1-0.3c0.1-0.4,0.4-1.1,0.6-2.6L66.8,193.3z M70.5,199.6
		v-7.1h1.4v6.8l1-0.2l0.2,1.3l-1.2,0.3v3.9h-1.4v-3.6l-4.3,0.9l-0.2-1.3L70.5,199.6z M67.6,196.2c0.9,0.5,1.7,1.2,2.2,1.8l-0.8,1
		c-0.7-0.8-1.2-1.2-2.1-1.8L67.6,196.2z M67.9,193c1.1,0.6,1.7,1.2,2.3,1.8l-0.9,1c-0.5-0.6-1.2-1.3-2.2-1.9L67.9,193z"/>
	<path d="M76,196.4c-0.7,0.4-1.1,0.6-1.6,0.8l-0.8-1.2c2-0.7,4.3-2.2,5.5-3.6h1.2c0.6,0.7,3.2,2.8,5.6,3.6l-0.7,1.3
		c-0.4-0.2-0.7-0.4-1.6-0.9v0.9h-3.1v1.4h4.8v1.2h-4.8v3.1h1c0.2-0.5,0.7-1.8,1-2.8l1.4,0.3c-0.4,1.2-0.5,1.4-1,2.4h2.7v1.2H74v-1.2
		h2.5c-0.3-0.9-0.4-1.3-0.9-2.3l1.3-0.4c0.6,1.1,1,2.5,1,2.7h1.2v-3.1h-4.8v-1.2h4.8v-1.4H76V196.4z M83,196c-1.7-1-2.7-2-3.2-2.5
		c-1,0.9-1.8,1.7-3.1,2.5H83z"/>
	<path d="M97.9,194.9c-0.3,0-0.6-0.1-1.1-0.1c-1.1,0-1.9,0.3-2.5,0.6c-1.8,0.9-3.4,2.7-3.4,4.4c0,1.9,2.2,2.6,5.9,2.5l-0.2,1.5
		c-2.7,0-4.1-0.3-5.3-0.9c-1.1-0.6-1.9-1.8-1.9-3c0-1.3,0.7-3.3,3.5-5c-2,0.1-4,0.3-5.9,0.4l-0.1-1.5c0.9,0,1.8-0.1,2.7-0.1
		c1.1-0.1,7-0.3,8.3-0.3L97.9,194.9z M95.4,198.7c-0.5-1-0.8-1.4-1.1-1.9l0.9-0.5c0.3,0.4,0.8,1,1.2,1.8L95.4,198.7z M97,197.9
		c-0.7-1.2-0.8-1.3-1.2-1.8l0.9-0.5c0.4,0.5,1,1.3,1.1,1.7L97,197.9z"/>
</g>
<g class="st2">
	<path d="M33.7,216.2c-0.3-0.4-0.4-0.6-1-1.2c-0.4,0.1-1.2,0.1-1.6,0.2v4.4c0,0.2,0.2,0.2,0.4,0.2h1.3c0.3,0,0.5,0,0.6-0.4
		c0.1-0.2,0.2-0.7,0.2-1.8l1.3,0.3c-0.2,2.3-0.4,3.2-1.8,3.2h-1.9c-0.6,0-1.4,0-1.4-0.9v-4.9c-0.9,0.1-1,0.1-2,0.1
		c-0.2,3.5-1.4,5.1-4.2,6l-0.7-1.3c2.9-0.8,3.4-2.2,3.6-4.7c-1.1,0.1-2.7,0.1-3.2,0.1l-0.1-1.3c0.2,0,1.5,0,1.8,0
		c0.2-0.2,1.2-1.6,1.5-2.4h-3.7v-1.3h5.3v-1.2h1.3v1.2h5.3v1.3h-6.7c-0.5,0.8-1.2,2-1.5,2.4c2.3-0.1,2.6-0.1,4.8-0.3
		c-0.3-0.3-0.6-0.5-1.3-0.9l1-0.9c1.6,1,2.6,1.7,3.7,3L33.7,216.2z"/>
	<path d="M36.5,209.8h10.2v1.1h-4.6v0.5h5.1v2.7h-1.3v-1.8h-3.7v2.5h-1.2v-2.5h-3.7v1.8h-1.3v-2.7h5v-0.5h-4.5V209.8z M47.7,219.3
		c-0.1,1.2-0.3,2-1.1,2h-4.4c-0.7,0-1.2,0-1.2-0.9v-1.1h-3.1v0.8h-1.2v-5h10v3.9L47.7,219.3z M37.8,217.6v0.8h3.1v-0.8H37.8z
		 M37.9,216v0.7h3V216H37.9z M37.9,212.9h2.5v0.7h-2.5V212.9z M37.9,214h2.5v0.7h-2.5V214z M42.2,216v0.7h3.1V216H42.2z M42.2,217.6
		v0.8h3.1v-0.8H42.2z M42.2,219.3v0.5c0,0.3,0,0.4,0.3,0.4h3.4c0.4,0,0.4,0,0.5-0.8H42.2z M42.7,212.9h2.6v0.7h-2.6V212.9z
		 M42.7,214h2.6v0.7h-2.6V214z"/>
	<path d="M51.1,210h1.5l0,1.7h4.2v1.3h-4.2l0,2.1h0.8c1.5,0,2.6-0.2,3.2-0.4l0.4,1.3c-1.4,0.4-3.6,0.4-3.8,0.4h-0.6
		c0,2.6,0.2,3,2.6,3c1.5,0,2.8-0.1,2.8-2c0-1.1-0.3-1.8-0.7-2.7l1.3-0.4c0.5,1,0.8,2.1,0.8,3.2c0,3-2.4,3.3-4.3,3.3
		c-3.6,0-4-1.2-4-4.4h-2.3v-1.3H51l0-2.1H49v-1.3h2.1L51.1,210z"/>
	<path d="M69.5,211.2h-8.9v-1.3h11.9v1.3h-1.6v9.1c0,0.8-0.3,1.1-1.3,1.1H67l-0.2-1.4h2.5c0.2,0,0.3-0.2,0.3-0.4V211.2z M67.6,212.5
		v5.7h-4.7v0.7h-1.3v-6.4H67.6z M62.9,213.7v3.3h3.4v-3.3H62.9z"/>
	<path d="M78.4,213.3c-0.1-0.2-0.1-0.4-0.4-0.8c-0.8,0.1-3,0.4-4.6,0.5l-0.1-1.2c0.4,0,0.4,0,0.9,0c0.4-0.8,0.7-1.6,0.9-2.3l1.3,0.2
		c-0.2,0.7-0.3,1-0.9,2.1c0.1,0,1.4-0.1,2.1-0.2c-0.3-0.5-0.5-0.8-0.7-1.1l1-0.6c1.1,1.5,1.4,2.1,1.7,2.8L78.4,213.3z M73.9,213.7
		h4.9v6.7c0,0.8-0.7,1-1,1h-1.6l-0.2-1.3h1.3c0.2,0,0.3-0.1,0.3-0.2v-1h-2.5v2.5h-1.2V213.7z M75.1,214.8v1h2.5v-1H75.1z
		 M75.1,216.8v1.1h2.5v-1.1H75.1z M81.4,209.4v1.8c0.4-0.1,1.9-0.7,3-1.4l0.7,1c-0.9,0.5-2.3,1.1-3.7,1.5v1.2c0,0.1,0,0.3,0.3,0.3
		h1.8c0.4,0,0.6,0,0.6-1.5l1.2,0.4c-0.1,1.7-0.4,2.3-1.4,2.3h-2.7c-1.1,0-1.2-0.8-1.2-1.1v-4.5H81.4z M80.1,215.4h1.3v1.7
		c0.5-0.2,2-0.8,2.9-1.4l0.7,1.1c-1.1,0.7-2.7,1.2-3.6,1.5v1.4c0,0.3,0.2,0.4,0.4,0.4h1.7c0.4,0,0.4,0,0.6-1.7l1.2,0.3
		c-0.2,2.1-0.4,2.6-1.6,2.6h-2.5c-1.1,0-1.1-0.9-1.1-1.2V215.4z"/>
</g>
<g class="st2">
	<path class="st4" d="M419.9,210.2h12.8v1.3H427v0.6h6.3v3.4h-1.7v-2.3H427v3.2h-1.5v-3.2h-4.6v2.3h-1.6v-3.4h6.3v-0.6h-5.6V210.2z
		 M433.9,222.1c-0.1,1.5-0.3,2.5-1.4,2.5H427c-0.8,0-1.5,0-1.5-1.1v-1.4h-3.9v1H420v-6.2h12.5v4.9L433.9,222.1z M421.5,219.9v0.9
		h3.9v-0.9H421.5z M421.6,218v0.9h3.8V218H421.6z M421.6,214h3.1v0.8h-3.1V214z M421.6,215.4h3.1v0.8h-3.1V215.4z M427,218v0.9h3.9
		V218H427z M427,219.9v0.9h3.9v-0.9H427z M427,222.1v0.6c0,0.4,0,0.4,0.4,0.4h4.3c0.4,0,0.6,0,0.6-1H427z M427.7,214h3.2v0.8h-3.2
		V214z M427.7,215.4h3.2v0.8h-3.2V215.4z"/>
	<path class="st4" d="M434.7,223c4.9-2.7,5.3-5.9,5.6-8.4h-5.2v-1.7h5.3c0-0.2,0.1-1.3,0.1-2.1v-1.2h1.8v1.2c0,0.9,0,1.5-0.1,2h7.2
		c0,5.4-0.4,8.4-0.7,9.5c-0.1,0.6-0.5,2.2-2.3,2.2h-3l-0.3-1.8h2.7c0.9,0,1-0.6,1.2-1.7c0.2-1.3,0.4-4.7,0.4-6.5h-5.4
		c-0.4,3.1-1.1,7-6.3,10L434.7,223z"/>
	<path class="st4" d="M452.4,217c-0.4,0.6-0.7,0.9-1,1.2l-0.8-1.9c1.2-1.3,2.4-4.2,2.6-6.6l1.7,0.2c-0.1,0.7-0.3,2-0.9,3.7v11.1
		h-1.6V217z M461,212.6v1.2h4.1v5.1h-4.3c-0.2,1.2-0.5,1.9-0.9,2.5c2.7,1.5,5.2,1.6,6.1,1.6l-0.7,1.8c-1-0.1-3.7-0.5-6.4-2.1
		c-1.6,1.6-3.2,1.9-3.9,2l-0.7-1.6c0.9-0.2,2-0.5,3.2-1.4c-1.1-0.9-1.4-1.3-1.8-1.8l1.4-0.8c0.3,0.4,0.7,0.8,1.4,1.3
		c0.4-0.7,0.5-1.2,0.6-1.6h-3.7v-5.1h4v-1.2h-4.5v-1.5h4.5v-1.4h1.6v1.4h4.8v1.5H461z M459.4,215.2h-2.5v2.2h2.4
		c0-0.3,0.1-0.8,0.1-1.6V215.2z M461,216c0,0.7,0,1.2,0,1.5h2.6v-2.2H461V216z"/>
	<path class="st4" d="M479.1,219.9h-3.9v4.7h-1.6v-4.7h-3.8c-0.2,1.5-0.5,3.1-1.9,4.8l-1.3-1.5c0.3-0.4,0.8-1,1.2-1.8
		c0.5-1.4,0.6-2.9,0.6-3.3v-7.6h12.4v13c0,0.5-0.2,1.4-1.4,1.4h-2.1l-0.2-1.7h1.6c0.1,0,0.4,0,0.4-0.4V219.9z M470.1,216v1.8
		c0,0.1,0,0.5,0,0.5h3.6V216H470.1z M470.1,212v2.3h3.6V212H470.1z M475.3,212v2.3h3.9V212H475.3z M475.3,216v2.3h3.9V216H475.3z"/>
	<path class="st4" d="M485.5,218.7c-1,1.9-1.9,2.9-2.4,3.5l-0.6-1.8c0.6-0.6,1.8-1.8,2.9-4.1h-2.6v-1.5h2.8v-5.1h1.6v5.1h2.5v1.5
		h-2.4c0.7,1.3,1.2,2,2,2.8l-1,1.5c-0.5-0.8-0.8-1.2-1.1-1.8v5.9h-1.6V218.7z M484,210.6c0.3,0.9,0.6,2.3,0.7,3.2l-1.4,0.4
		c0-1.4-0.4-2.5-0.6-3.3L484,210.6z M489.9,210.8c-0.1,0.8-0.5,2.3-1,3.3l-1.3-0.4c0.2-0.4,0.5-1.3,0.8-3.2L489.9,210.8z
		 M494.6,218.6v-8.9h1.7v8.5l1.3-0.3l0.2,1.6l-1.5,0.3v4.8h-1.7v-4.5l-5.4,1.2l-0.3-1.6L494.6,218.6z M490.8,214.4
		c1.1,0.6,2.1,1.5,2.8,2.2l-1.1,1.2c-0.8-1-1.5-1.5-2.7-2.3L490.8,214.4z M491.2,210.4c1.4,0.8,2.1,1.5,2.9,2.3l-1.1,1.2
		c-0.7-0.8-1.5-1.6-2.7-2.4L491.2,210.4z"/>
</g>
<g class="st2">
	<path class="st4" d="M147.1,68.5V72c2.7-0.7,4.2-1.4,5.6-2.2l0.8,1.1c-2.1,1.1-3.6,1.6-6.4,2.3v2.4c0,0.3,0.1,0.5,0.5,0.5h4.9
		c0.4,0,1.1-0.1,1.5-0.2l0.1,1.4c-0.3,0.1-0.7,0.1-1.7,0.1h-4.6c-0.6,0-2,0-2-1.5v-7.6H147.1z M155.1,68.8c0,0.7-0.5,1.2-1.2,1.2
		c-0.6,0-1.2-0.5-1.2-1.2c0-0.7,0.5-1.2,1.2-1.2C154.6,67.6,155.1,68.1,155.1,68.8z M153.4,68.8c0,0.3,0.2,0.5,0.5,0.5
		c0.3,0,0.5-0.2,0.5-0.5c0-0.3-0.2-0.5-0.5-0.5C153.6,68.2,153.4,68.5,153.4,68.8z"/>
	<path class="st4" d="M165.8,72.2v1.4h-10.1v-1.4H165.8z"/>
	<path class="st4" d="M176.2,69.6c-0.3,1.9-1.3,7.4-8.1,8.3l-0.5-1.2c3.7-0.5,5.9-1.9,6.9-6h-4c-1,1.3-1.9,2.1-2.7,2.6l-0.8-1
		c0.7-0.4,2.6-1.6,3.7-4.5l1.4,0.3c-0.1,0.4-0.2,0.7-0.6,1.3H176.2z"/>
	<path class="st4" d="M177.5,68.1h3.5v8.6h-2.4v0.9h-1.1V68.1z M178.6,69.2v2.6h1.4v-2.6H178.6z M178.6,72.9v2.7h1.4v-2.7H178.6z
		 M187.6,69.7h-2.3V71h2.7v1.1h-1.2v1.1h1.1v1.1h-1.1v2.8c0,0.3,0,1.2-1.1,1.2h-1.8l-0.2-1.2h1.7c0.1,0,0.2,0,0.2-0.2v-2.6h-4.1
		v-1.1h4.1v-1.1h-4.2V71h2.7v-1.3h-2.3v-1.1h2.3v-1h1.1v1h2.3V69.7z M182.6,74.5c0.7,0.7,1.1,1.1,1.5,1.8l-1,0.7
		c-0.6-1-0.8-1.2-1.5-1.9L182.6,74.5z"/>
	<path class="st4" d="M190.9,68.3c-0.3,1.7-0.5,3.5-0.5,5.2c0,1.4,0.1,2.8,0.4,4.1l-1.3,0.2c-0.3-1.3-0.4-2.7-0.4-4.2
		c0-0.6,0-2.4,0.4-5.4L190.9,68.3z M193.7,73.3c-0.2,0.4-0.5,0.9-0.5,1.5c0,1.2,1.3,1.2,2.7,1.2c1.2,0,1.8-0.1,2.2-0.1v1.3
		c-0.7,0.1-1.6,0.1-2.1,0.1c-1.5,0-4,0-4-2.4c0-0.9,0.4-1.6,0.6-2L193.7,73.3z M197.9,69v1.2h-5.6V69H197.9z"/>
	<path class="st4" d="M200.3,72.8c-0.3,0.4-0.5,0.6-0.7,0.9l-0.6-1.3c0.9-1,1.7-3,1.8-4.7l1.2,0.1c-0.1,0.5-0.2,1.4-0.6,2.6v7.9
		h-1.1V72.8z M206.4,69.7v0.8h2.9v3.6h-3.1c-0.2,0.9-0.4,1.3-0.6,1.8c1.9,1,3.7,1.1,4.3,1.2l-0.5,1.3c-0.7-0.1-2.6-0.4-4.5-1.5
		c-1.1,1.1-2.3,1.3-2.7,1.5l-0.5-1.1c0.6-0.1,1.4-0.3,2.2-1c-0.8-0.6-1-0.9-1.2-1.3l1-0.6c0.2,0.2,0.5,0.6,1,0.9
		c0.3-0.5,0.4-0.9,0.4-1.1h-2.7v-3.6h2.9v-0.8H202v-1.1h3.2v-1h1.1v1h3.4v1.1H206.4z M205.3,71.6h-1.8v1.6h1.7c0-0.2,0-0.5,0-1.1
		V71.6z M206.4,72.1c0,0.5,0,0.9,0,1.1h1.8v-1.6h-1.8V72.1z"/>
	<path class="st4" d="M219.3,74.9h-2.8v3.4h-1.1v-3.4h-2.7c-0.1,1.1-0.4,2.2-1.3,3.4l-0.9-1c0.2-0.3,0.6-0.7,0.8-1.3
		c0.4-1,0.4-2.1,0.4-2.3v-5.4h8.8v9.2c0,0.3-0.1,1-1,1H218l-0.1-1.2h1.2c0.1,0,0.3,0,0.3-0.3V74.9z M212.8,72.1v1.3
		c0,0.1,0,0.3,0,0.4h2.6v-1.7H212.8z M212.8,69.3V71h2.6v-1.7H212.8z M216.5,69.3V71h2.8v-1.7H216.5z M216.5,72.1v1.7h2.8v-1.7
		H216.5z"/>
</g>
<g class="st2">
	<path class="st4" d="M384.1,66.5V70c2.7-0.7,4.2-1.4,5.6-2.2l0.8,1.1c-2.1,1.1-3.6,1.6-6.4,2.3v2.4c0,0.3,0.1,0.5,0.5,0.5h4.9
		c0.4,0,1.1-0.1,1.5-0.2l0.1,1.4c-0.3,0.1-0.7,0.1-1.7,0.1h-4.6c-0.6,0-2,0-2-1.5v-7.6H384.1z M392.1,66.8c0,0.7-0.5,1.2-1.2,1.2
		c-0.6,0-1.2-0.5-1.2-1.2c0-0.7,0.5-1.2,1.2-1.2C391.6,65.6,392.1,66.1,392.1,66.8z M390.4,66.8c0,0.3,0.2,0.5,0.5,0.5
		c0.3,0,0.5-0.2,0.5-0.5c0-0.3-0.2-0.5-0.5-0.5C390.6,66.2,390.4,66.5,390.4,66.8z"/>
	<path class="st4" d="M402.8,70.2v1.4h-10.1v-1.4H402.8z"/>
	<path class="st4" d="M413.2,67.6c-0.3,1.9-1.3,7.4-8.1,8.3l-0.5-1.2c3.7-0.5,5.9-1.9,6.9-6h-4c-1,1.3-1.9,2.1-2.7,2.6l-0.8-1
		c0.7-0.4,2.6-1.6,3.7-4.5l1.4,0.3c-0.1,0.4-0.2,0.7-0.6,1.3H413.2z"/>
	<path class="st4" d="M414.5,66.1h3.5v8.6h-2.4v0.9h-1.1V66.1z M415.6,67.2v2.6h1.4v-2.6H415.6z M415.6,70.9v2.7h1.4v-2.7H415.6z
		 M424.6,67.7h-2.3V69h2.7v1.1h-1.2v1.1h1.1v1.1h-1.1v2.8c0,0.3,0,1.2-1.1,1.2h-1.8l-0.2-1.2h1.7c0.1,0,0.2,0,0.2-0.2v-2.6h-4.1
		v-1.1h4.1v-1.1h-4.2V69h2.7v-1.3h-2.3v-1.1h2.3v-1h1.1v1h2.3V67.7z M419.6,72.5c0.7,0.7,1.1,1.1,1.5,1.8l-1,0.7
		c-0.6-1-0.8-1.2-1.5-1.9L419.6,72.5z"/>
	<path class="st4" d="M427.9,66.3c-0.3,1.7-0.5,3.5-0.5,5.2c0,1.4,0.1,2.8,0.4,4.1l-1.3,0.2c-0.3-1.3-0.4-2.7-0.4-4.2
		c0-0.6,0-2.4,0.4-5.4L427.9,66.3z M430.7,71.3c-0.2,0.4-0.5,0.9-0.5,1.5c0,1.2,1.3,1.2,2.7,1.2c1.2,0,1.8-0.1,2.2-0.1v1.3
		c-0.7,0.1-1.6,0.1-2.1,0.1c-1.5,0-4,0-4-2.4c0-0.9,0.4-1.6,0.6-2L430.7,71.3z M434.9,67v1.2h-5.6V67H434.9z"/>
	<path class="st4" d="M437.3,70.8c-0.3,0.4-0.5,0.6-0.7,0.9l-0.6-1.3c0.9-1,1.7-3,1.8-4.7l1.2,0.1c-0.1,0.5-0.2,1.4-0.6,2.6v7.9
		h-1.1V70.8z M443.4,67.7v0.8h2.9v3.6h-3.1c-0.2,0.9-0.4,1.3-0.6,1.8c1.9,1,3.7,1.1,4.3,1.2l-0.5,1.3c-0.7-0.1-2.6-0.4-4.5-1.5
		c-1.1,1.1-2.3,1.3-2.7,1.5l-0.5-1.1c0.6-0.1,1.4-0.3,2.2-1c-0.8-0.6-1-0.9-1.2-1.3l1-0.6c0.2,0.2,0.5,0.6,1,0.9
		c0.3-0.5,0.4-0.9,0.4-1.1h-2.7v-3.6h2.9v-0.8H439v-1.1h3.2v-1h1.1v1h3.4v1.1H443.4z M442.3,69.6h-1.8v1.6h1.7c0-0.2,0-0.5,0-1.1
		V69.6z M443.4,70.1c0,0.5,0,0.9,0,1.1h1.8v-1.6h-1.8V70.1z"/>
	<path class="st4" d="M456.3,72.9h-2.8v3.4h-1.1v-3.4h-2.7c-0.1,1.1-0.4,2.2-1.3,3.4l-0.9-1c0.2-0.3,0.6-0.7,0.8-1.3
		c0.4-1,0.4-2.1,0.4-2.3v-5.4h8.8v9.2c0,0.3-0.1,1-1,1H455l-0.1-1.2h1.2c0.1,0,0.3,0,0.3-0.3V72.9z M449.8,70.1v1.3
		c0,0.1,0,0.3,0,0.4h2.6v-1.7H449.8z M449.8,67.3V69h2.6v-1.7H449.8z M453.5,67.3V69h2.8v-1.7H453.5z M453.5,70.1v1.7h2.8v-1.7
		H453.5z"/>
</g>
<g class="st2">
	<path class="st5" d="M240.1,263.3c3.9-1.4,6.1-4.8,6.6-7.8h-6.4v-1.7h6.5v-3.7h1.8v3.7h6.7v1.7h-6.3c1.2,5.5,5.3,7.3,6.7,7.9
		l-1.1,1.7c-0.7-0.3-1.7-0.8-3-1.9c-0.9-0.8-2.9-2.7-3.7-5.8c-2,5.5-5.6,7-6.9,7.6L240.1,263.3z M246.8,261.1c1,0.5,2.5,1.8,3.2,2.6
		l-1.3,1.4c-0.2-0.3-1.4-1.7-2.9-2.7L246.8,261.1z"/>
	<path class="st5" d="M260.9,262.6c1.1-0.4,2.7-1.1,3.6-2.5h-0.9c-0.7,0.6-1.2,0.9-1.5,1.1l-0.6-0.8c-0.3,1.4-0.8,1.8-2.1,1.8h-0.5
		l-0.2-1.6h0.4c0.6,0,0.9-0.1,0.9-1.1c0-0.7-0.1-2.1-1.4-3.3c0.6-1.3,1-2.6,1.2-3.9h-1.6v13h-1.5v-14.4h4.6v1.4
		c-0.2,1-0.5,2.3-1.2,3.8c1.1,1.2,1.4,3.1,1.3,4.1c0.2-0.1,1.4-0.7,2.2-2h-2.2v-1.3h9.8v1.3H265c-0.1,0.2-0.2,0.4-0.5,0.8h6.3
		c0,0.6-0.1,3.4-0.2,4c-0.3,2.3-0.8,2.3-2,2.3h-1.4l-0.3-1.5h1.1c0.1,0,0.7,0,0.8-0.2c0.1-0.1,0.3-0.3,0.4-3.4h-1
		c-0.4,1.3-1.8,3.8-4.7,5.2l-0.9-1.2c0.7-0.3,3.1-1.4,4.3-4.1h-0.9c-1.2,2.2-2.7,2.9-4.4,3.7L260.9,262.6z M270.3,250.8v5.2h-8.1
		v-5.2H270.3z M263.7,252v0.9h5.1V252H263.7z M263.7,253.9v1h5.1v-1H263.7z"/>
	<path class="st5" d="M272.3,255.7h6.6v-5.5h1.7v5.5h6.7v1.6h-4.9v5.6c0,0.2,0,0.4,0.4,0.4h1.9c0.3,0,0.5-0.1,0.6-0.3
		c0.2-0.3,0.2-0.8,0.4-2.7l1.7,0.4c-0.3,3.6-0.8,4.2-2.3,4.2h-2.7c-1,0-1.6,0-1.6-1.1v-6.5h-2.3c-0.2,5.7-3.6,7.2-5.4,7.9l-0.9-1.6
		c3-0.6,4.7-3.3,4.6-6.3h-4.5V255.7z M275.7,255.2c-0.3-0.8-1.5-2.5-2.3-3.3l1.5-1c0.6,0.6,1.9,2.3,2.4,3.4L275.7,255.2z
		 M282.4,254.3c1-1.4,1.5-2.1,2.3-3.5l1.7,0.7c-0.5,1.2-1.8,3-2.6,3.8L282.4,254.3z"/>
	<path class="st5" d="M303.1,252.3c-0.3,0.4-0.9,1.1-2.1,2.3c1,0.5,1.8,0.9,2.4,1.2l-0.7,1.5c-0.6-0.3-1.3-0.6-2.3-1.2v1.1h-2.1v1.8
		h4.4v1.5h-4.4v2.6c0,0.4,0.2,0.4,0.4,0.4h2.1c0.7,0,0.7-0.4,0.8-1.9l1.6,0.2c-0.2,2.4-0.4,3.3-1.7,3.3h-3.3c-0.5,0-1.4,0-1.4-1.1
		v-3.4h-2.5c-0.5,2.8-2.7,4.2-5.2,4.8l-0.8-1.6c2.5-0.3,4.2-1.7,4.4-3.2h-3.9v-1.5h4.1v-1.8H291v-1c-1,0.6-1.6,0.9-2.1,1.1l-0.8-1.5
		c0.5-0.2,1.4-0.5,2.8-1.3c-0.1-0.1-0.9-0.8-1.9-1.6l0.9-0.8h-0.1v-1.4h6.9c0.2,0.4,0.5,0.8,1.1,1.4c1.2-1.2,1.4-1.3,1.9-1.9
		l1.3,0.8c-0.6,0.7-1.3,1.4-2.1,2.1c0.3,0.2,0.5,0.4,0.9,0.7c1.3-1.2,1.5-1.5,2.2-2.2L303.1,252.3z M290.3,252
		c0.8,0.6,1.8,1.5,1.9,1.5c0.9-0.7,1.3-1.1,1.7-1.5H290.3z M299.7,255.6c-1.9-1.1-3.3-2.7-4-3.5c-0.6,0.7-1.5,1.9-3.8,3.5H299.7z
		 M294.4,257.1v1.8h2.4v-1.8H294.4z"/>
	<path class="st5" d="M305.3,250.7h12.8v1.3h-5.7v0.6h6.3v3.4h-1.7v-2.3h-4.7v3.2h-1.5v-3.2h-4.6v2.3h-1.6v-3.4h6.3V252h-5.6V250.7z
		 M319.3,262.6c-0.1,1.5-0.3,2.5-1.4,2.5h-5.5c-0.8,0-1.5,0-1.5-1.1v-1.4H307v1h-1.6v-6.2h12.5v4.9L319.3,262.6z M307,260.4v0.9h3.9
		v-0.9H307z M307,258.5v0.9h3.8v-0.9H307z M307.1,254.5h3.1v0.8h-3.1V254.5z M307.1,255.9h3.1v0.8h-3.1V255.9z M312.4,258.5v0.9h3.9
		v-0.9H312.4z M312.4,260.4v0.9h3.9v-0.9H312.4z M312.4,262.6v0.6c0,0.4,0,0.4,0.4,0.4h4.3c0.4,0,0.6,0,0.6-1H312.4z M313.2,254.5
		h3.2v0.8h-3.2V254.5z M313.2,255.9h3.2v0.8h-3.2V255.9z"/>
	<path class="st5" d="M320.2,255.3h15v1h-15V255.3z M333.6,256.9v4h-5.2v0.6h5.6v1.1h-5.6v0.7h6.8v1.3h-15v-1.3h6.7v-0.7h-5.6v-1.1
		h5.6V261h-5.1v-4H333.6z M321.5,250.7h12.4v4.1h-12.4V250.7z M323,251.8v0.6h9.3v-0.6H323z M323,253.2v0.6h9.3v-0.6H323z
		 M323.3,257.9v0.6h3.6v-0.6H323.3z M323.3,259.3v0.6h3.6v-0.6H323.3z M328.4,257.9v0.6h3.7v-0.6H328.4z M328.4,259.3v0.6h3.7v-0.6
		H328.4z"/>
</g>
<path class="st6" d="M115.6,239.8c11.7-16,38.7-76.3,57-80.3s19,6.3,26.3,17.3l1.7,5.3l-30.3,47.3L115,271.8"/>
<path class="st6" d="M316.3,194.4c9.7-15.7,55.3-77.3,82.7-78.3v169l-13.7-1.3l-16-8.3l-14.3-13l-18-24l-10.3-20.3L316.3,194.4z"/>
<path class="st7" d="M199.5,176.4c10,29,35.2,55.7,55.5,58s47.5-10.5,65.5-47l-18.8-43L282,121.8l-13-8l-16.7-1.3l-12.3,2.7
	l-12.7,12l-9.3,10L199.5,176.4z"/>
<g>
	<path class="st4" d="M6.8,221.5c1.7,1.4,1.9,3.9,0.5,5.5c-1.4,1.7-3.9,1.9-5.5,0.5c-1.7-1.4-1.9-3.9-0.5-5.5S5.2,220.2,6.8,221.5z"
		/>
	<path class="st4" d="M14,228.6c1.7,1.3,2,3.8,0.7,5.5s-3.8,2-5.5,0.7s-2-3.8-0.7-5.5S12.3,227.3,14,228.6z"/>
	<path class="st4" d="M22,234.6c1.8,1.2,2.2,3.7,1,5.5s-3.7,2.2-5.5,1s-2.2-3.7-1-5.5C17.8,233.8,20.3,233.3,22,234.6z"/>
	<path class="st4" d="M30.4,240c1.9,1.1,2.4,3.5,1.3,5.4s-3.5,2.4-5.4,1.3c-1.9-1.1-2.4-3.5-1.3-5.4C26.1,239.4,28.5,238.9,30.4,240
		z"/>
	<path class="st4" d="M39.3,245c1.9,1,2.7,3.3,1.7,5.3c-1,1.9-3.3,2.7-5.3,1.7c-1.9-1-2.7-3.3-1.7-5.3S37.4,244,39.3,245z"/>
	<path class="st4" d="M48.6,249.1c2,0.8,3,3.1,2.2,5.1s-3.1,3-5.1,2.2c-2-0.8-3-3.1-2.2-5.1C44.3,249.3,46.6,248.3,48.6,249.1z"/>
	<path class="st4" d="M58.2,252.2c2.1,0.5,3.4,2.7,2.8,4.8c-0.5,2.1-2.7,3.4-4.8,2.8c-2.1-0.5-3.4-2.7-2.8-4.8
		C53.9,252.9,56.1,251.7,58.2,252.2z"/>
	<path class="st4" d="M68,254c2.2,0.2,3.7,2.1,3.5,4.3c-0.2,2.2-2.1,3.7-4.3,3.5c-2.2-0.2-3.7-2.1-3.5-4.3
		C63.9,255.3,65.8,253.8,68,254z"/>
	<path class="st4" d="M77.8,254.2c2.2-0.2,4,1.4,4.2,3.6c0.2,2.2-1.4,4-3.6,4.2s-4-1.4-4.2-3.6C74.1,256.2,75.7,254.3,77.8,254.2z"
		/>
	<path class="st4" d="M87.5,252.4c2.1-0.6,4.3,0.6,4.8,2.7c0.6,2.1-0.6,4.3-2.7,4.8c-2.1,0.6-4.3-0.6-4.8-2.7
		C84.2,255.2,85.4,253,87.5,252.4z"/>
	<path class="st4" d="M96.6,248.8c1.9-1,4.3-0.2,5.3,1.7s0.2,4.3-1.7,5.3c-1.9,1-4.3,0.2-5.3-1.7C93.9,252.2,94.7,249.8,96.6,248.8z
		"/>
	<path class="st4" d="M105.1,243.6c1.7-1.3,4.2-0.9,5.5,0.8s0.9,4.2-0.8,5.5c-1.7,1.3-4.2,0.9-5.5-0.8
		C102.9,247.3,103.3,244.9,105.1,243.6z"/>
	<path class="st4" d="M112.6,237.1c1.5-1.5,4-1.5,5.5,0s1.5,4,0,5.5s-4,1.5-5.5,0C111.1,241,111.1,238.6,112.6,237.1z"/>
	<path class="st4" d="M119.4,229.6c1.4-1.7,3.8-1.9,5.5-0.6c1.7,1.4,1.9,3.8,0.6,5.5s-3.8,1.9-5.5,0.6
		C118.3,233.7,118.1,231.3,119.4,229.6z"/>
	<path class="st4" d="M125.4,221.4c1.2-1.8,3.6-2.3,5.4-1.1s2.3,3.6,1.1,5.4c-1.2,1.8-3.6,2.3-5.4,1.1
		C124.7,225.6,124.2,223.2,125.4,221.4z"/>
	<path class="st4" d="M130.6,213c0.9-2,3.2-2.9,5.1-2s2.9,3.2,2,5.1c-0.9,2-3.2,2.9-5.1,2C130.6,217.3,129.8,215,130.6,213z"/>
	<path class="st4" d="M134.9,203.3c0.9-2,3.2-2.8,5.2-1.9c2,0.9,2.8,3.2,1.9,5.2c-0.9,2-3.2,2.8-5.2,1.9
		C134.8,207.6,134,205.3,134.9,203.3z"/>
	<path class="st4" d="M139.4,193.7c1-1.9,3.3-2.7,5.3-1.8c1.9,1,2.7,3.3,1.8,5.3c-1,1.9-3.3,2.7-5.3,1.8
		C139.2,198,138.5,195.6,139.4,193.7z"/>
	<path class="st4" d="M144.5,184.2c1.1-1.9,3.5-2.6,5.3-1.5c1.9,1.1,2.6,3.5,1.5,5.3c-1.1,1.9-3.5,2.6-5.3,1.5
		C144.1,188.5,143.4,186.1,144.5,184.2z"/>
	<path class="st4" d="M150.1,174.9c1.2-1.8,3.6-2.3,5.4-1.1s2.3,3.6,1.1,5.4c-1.2,1.8-3.6,2.3-5.4,1.1
		C149.4,179.2,148.9,176.7,150.1,174.9z"/>
	<path class="st4" d="M156.9,166c1.4-1.6,3.9-1.8,5.5-0.4c1.6,1.4,1.8,3.9,0.4,5.5c-1.4,1.6-3.9,1.8-5.5,0.4
		C155.6,170.1,155.5,167.6,156.9,166z"/>
	<path class="st4" d="M165.9,158c1.8-1.2,4.3-0.6,5.4,1.2c1.2,1.8,0.6,4.3-1.2,5.4c-1.8,1.2-4.3,0.6-5.4-1.2
		C163.5,161.6,164.1,159.2,165.9,158z"/>
	<path class="st4" d="M179.2,154.4c2.2,0.2,3.8,2,3.6,4.2s-2,3.8-4.2,3.6s-3.8-2-3.6-4.2S177.1,154.2,179.2,154.4z"/>
	<path class="st4" d="M191.8,160c1.6,1.4,1.8,3.9,0.4,5.5c-1.4,1.6-3.9,1.8-5.5,0.4c-1.6-1.4-1.8-3.9-0.4-5.5
		C187.7,158.8,190.2,158.6,191.8,160z"/>
	<path class="st4" d="M199.5,169.2c1.2,1.8,0.7,4.2-1.1,5.4s-4.2,0.7-5.4-1.1s-0.7-4.2,1.1-5.4C195.9,166.8,198.3,167.4,199.5,169.2
		z"/>
	<path class="st4" d="M205,178.8c1,1.9,0.2,4.3-1.7,5.3s-4.3,0.2-5.3-1.7s-0.2-4.3,1.7-5.3C201.7,176.1,204,176.9,205,178.8z"/>
	<path class="st4" d="M209.6,188.5c0.9,2,0,4.3-2,5.2s-4.3,0-5.2-2s0-4.3,2-5.2C206.4,185.6,208.7,186.5,209.6,188.5z"/>
	<path class="st4" d="M213.9,197.8c0.9,2,0.1,4.3-1.8,5.2c-2,0.9-4.3,0.1-5.2-1.8s-0.1-4.3,1.8-5.2
		C210.6,195,212.9,195.9,213.9,197.8z"/>
	<path class="st4" d="M219.1,206c1.4,1.7,1.1,4.2-0.6,5.5c-1.7,1.4-4.2,1.1-5.5-0.6c-1.4-1.7-1.1-4.2,0.6-5.5
		C215.3,204,217.8,204.3,219.1,206z"/>
	<path class="st4" d="M225.9,213.4c1.6,1.5,1.6,4,0.1,5.5c-1.5,1.6-4,1.6-5.5,0.1c-1.6-1.5-1.6-4-0.1-5.5
		C221.9,211.9,224.3,211.9,225.9,213.4z"/>
	<path class="st4" d="M233.5,219.9c1.7,1.3,2.1,3.7,0.8,5.5c-1.3,1.7-3.7,2.1-5.5,0.8c-1.7-1.3-2.1-3.7-0.8-5.5
		S231.8,218.6,233.5,219.9z"/>
	<path class="st4" d="M241.9,225.2c1.9,1,2.7,3.4,1.7,5.3c-1,1.9-3.4,2.7-5.3,1.7c-1.9-1-2.7-3.4-1.7-5.3
		C237.7,224.9,240,224.2,241.9,225.2z"/>
	<path class="st4" d="M251,228.9c2.1,0.6,3.3,2.8,2.7,4.9c-0.6,2.1-2.8,3.3-4.9,2.7c-2.1-0.6-3.3-2.8-2.7-4.9
		C246.8,229.5,249,228.3,251,228.9z"/>
	<path class="st4" d="M260.5,230.5c2.2,0.1,3.9,1.9,3.8,4.1c-0.1,2.2-1.9,3.9-4.1,3.8s-3.9-1.9-3.8-4.1
		C256.5,232.1,258.4,230.4,260.5,230.5z"/>
	<path class="st4" d="M270.1,229.6c2.1-0.5,4.2,0.8,4.7,2.9c0.5,2.1-0.8,4.2-2.9,4.7s-4.2-0.8-4.7-2.9
		C266.7,232.2,268,230.1,270.1,229.6z"/>
	<path class="st4" d="M279.2,226.3c1.9-1,4.3-0.2,5.3,1.8s0.2,4.3-1.8,5.3c-1.9,1-4.3,0.2-5.3-1.8
		C276.5,229.6,277.3,227.3,279.2,226.3z"/>
	<path class="st4" d="M287.6,221.1c1.7-1.3,4.2-1,5.5,0.8c1.3,1.7,1,4.2-0.8,5.5s-4.2,1-5.5-0.8
		C285.5,224.8,285.8,222.4,287.6,221.1z"/>
	<path class="st4" d="M295.1,214.5c1.5-1.5,4-1.5,5.5,0s1.5,4,0,5.5s-4,1.5-5.5,0C293.5,218.5,293.6,216,295.1,214.5z"/>
	<path class="st4" d="M301.9,207c1.4-1.7,3.8-1.9,5.5-0.6c1.7,1.4,1.9,3.8,0.6,5.5c-1.4,1.7-3.8,1.9-5.5,0.6
		C300.8,211.1,300.5,208.7,301.9,207z"/>
	<path class="st4" d="M308,198.8c1.2-1.8,3.7-2.2,5.5-1s2.2,3.7,1,5.5s-3.7,2.2-5.5,1C307.2,203,306.8,200.6,308,198.8z"/>
	<path class="st4" d="M314.1,190.2c1.3-1.8,3.7-2.2,5.5-0.9s2.2,3.7,0.9,5.5c-1.3,1.8-3.7,2.2-5.5,0.9S312.8,192,314.1,190.2z"/>
	<path class="st4" d="M320.2,181.7c1.3-1.8,3.7-2.1,5.5-0.9c1.8,1.3,2.1,3.7,0.9,5.5s-3.7,2.1-5.5,0.9
		C319.3,185.9,319,183.4,320.2,181.7z"/>
	<path class="st4" d="M326.5,173.2c1.3-1.7,3.8-2.1,5.5-0.8s2.1,3.8,0.8,5.5c-1.3,1.7-3.8,2.1-5.5,0.8
		C325.6,177.4,325.2,174.9,326.5,173.2z"/>
	<path class="st4" d="M333,164.9c1.3-1.7,3.8-2,5.5-0.6c1.7,1.3,2,3.8,0.6,5.5c-1.3,1.7-3.8,2-5.5,0.6S331.7,166.6,333,164.9z"/>
	<path class="st4" d="M339.7,156.6c1.4-1.7,3.9-1.9,5.5-0.5s1.9,3.9,0.5,5.5s-3.9,1.9-5.5,0.5C338.5,160.8,338.3,158.3,339.7,156.6z
		"/>
	<path class="st4" d="M346.7,148.6c1.5-1.6,3.9-1.7,5.5-0.3c1.6,1.5,1.7,3.9,0.3,5.5s-3.9,1.7-5.5,0.3
		C345.3,152.6,345.2,150.2,346.7,148.6z"/>
	<path class="st4" d="M354,140.8c1.5-1.5,4-1.6,5.5,0c1.5,1.5,1.6,4,0,5.5c-1.5,1.5-4,1.6-5.5,0C352.5,144.8,352.5,142.3,354,140.8z
		"/>
	<path class="st4" d="M361.8,133.3c1.6-1.4,4.1-1.3,5.5,0.3s1.3,4.1-0.3,5.5c-1.6,1.4-4.1,1.3-5.5-0.3
		C360,137.2,360.2,134.7,361.8,133.3z"/>
	<path class="st4" d="M370.3,126.4c1.7-1.3,4.2-1,5.5,0.8c1.3,1.7,1,4.2-0.8,5.5s-4.2,1-5.5-0.8S368.5,127.7,370.3,126.4z"/>
	<path class="st4" d="M379.5,120.2c1.9-1.1,4.3-0.5,5.4,1.4s0.5,4.3-1.4,5.4c-1.9,1.1-4.3,0.5-5.4-1.4S377.6,121.3,379.5,120.2z"/>
	<path class="st4" d="M389.7,115.2c2-0.8,4.3,0.2,5.1,2.2c0.8,2-0.2,4.3-2.2,5.1c-2,0.8-4.3-0.2-5.1-2.2
		C386.7,118.3,387.7,116,389.7,115.2z"/>
	<path class="st4" d="M400.9,112.1c2.1-0.3,4.2,1.1,4.5,3.2s-1.1,4.2-3.2,4.5s-4.2-1.1-4.5-3.2C397.3,114.5,398.8,112.5,400.9,112.1
		z"/>
	<path class="st4" d="M412.6,111.6c2.2,0.2,3.8,2.1,3.6,4.2c-0.2,2.2-2.1,3.8-4.2,3.6c-2.2-0.2-3.8-2.1-3.6-4.2
		C408.6,113.1,410.5,111.5,412.6,111.6z"/>
	<path class="st4" d="M424.2,114c2.1,0.7,3.2,2.9,2.5,5s-2.9,3.2-5,2.5s-3.2-2.9-2.5-5C419.9,114.4,422.2,113.3,424.2,114z"/>
	<path class="st4" d="M434.7,118.7c1.9,1.1,2.6,3.5,1.5,5.3c-1.1,1.9-3.5,2.6-5.3,1.5c-1.9-1.1-2.6-3.5-1.5-5.3
		C430.5,118.3,432.8,117.6,434.7,118.7z"/>
	<path class="st4" d="M444.1,125c1.7,1.3,2,3.8,0.7,5.5s-3.8,2-5.5,0.7s-2-3.8-0.7-5.5S442.4,123.7,444.1,125z"/>
	<path class="st4" d="M452.4,132.3c1.6,1.5,1.6,4,0.1,5.5c-1.5,1.6-4,1.6-5.5,0.1s-1.6-4-0.1-5.5
		C448.4,130.8,450.9,130.8,452.4,132.3z"/>
	<path class="st4" d="M459.9,140.2c1.4,1.6,1.3,4.1-0.4,5.5c-1.6,1.4-4.1,1.3-5.5-0.4s-1.3-4.1,0.4-5.5
		C456,138.4,458.4,138.6,459.9,140.2z"/>
	<path class="st4" d="M466.8,148.2c1.4,1.6,1.2,4.1-0.4,5.5s-4.1,1.2-5.5-0.4c-1.4-1.6-1.2-4.1,0.4-5.5
		C462.9,146.3,465.4,146.5,466.8,148.2z"/>
	<path class="st4" d="M473.6,156.2c1.4,1.7,1.2,4.1-0.5,5.5s-4.1,1.2-5.5-0.5s-1.2-4.1,0.5-5.5C469.7,154.3,472.2,154.5,473.6,156.2
		z"/>
	<path class="st4" d="M480.3,164.3c1.4,1.7,1.1,4.1-0.6,5.5s-4.1,1.1-5.5-0.6c-1.4-1.7-1.1-4.1,0.6-5.5S479,162.6,480.3,164.3z"/>
	<path class="st4" d="M486.9,172.5c1.3,1.7,1,4.2-0.7,5.5s-4.2,1-5.5-0.7s-1-4.2,0.7-5.5S485.6,170.8,486.9,172.5z"/>
	<path class="st4" d="M493.4,180.9c1.3,1.7,1,4.2-0.8,5.5c-1.7,1.3-4.2,1-5.5-0.8c-1.3-1.7-1-4.2,0.8-5.5
		C489.6,178.8,492.1,179.2,493.4,180.9z"/>
	<path class="st4" d="M499.7,189.4c1.3,1.8,0.9,4.2-0.9,5.5s-4.2,0.9-5.5-0.9c-1.3-1.8-0.9-4.2,0.9-5.5S498.4,187.7,499.7,189.4z"/>
	<path class="st4" d="M505.7,198.1c1.2,1.8,0.7,4.2-1.1,5.4c-1.8,1.2-4.2,0.7-5.4-1.1c-1.2-1.8-0.7-4.2,1.1-5.4
		C502.1,195.8,504.5,196.3,505.7,198.1z"/>
	<path class="st4" d="M511.6,207.1c1.1,1.8,0.6,4.3-1.3,5.4c-1.8,1.1-4.3,0.6-5.4-1.3s-0.6-4.3,1.3-5.4
		C508,204.7,510.4,205.2,511.6,207.1z"/>
</g>
<path class="st8" d="M76.7,282.3C192.1,265.2,202.8,108.7,260,110.4c57.1,1.7,66.3,164.1,132.1,173.5"/>
<g>
	<rect x="398.7" y="273.7" class="st9" width="115" height="35"/>
	<rect y="273.7" class="st9" width="115" height="35"/>
	<rect x="115" y="273.7" class="st10" width="283.8" height="35"/>
</g>
<g>
	<g class="st2">
		<path class="st11" d="M26,284.9H38v1.2h-5.3v0.6h5.9v3.2H37v-2.1h-4.3v2.9h-1.4v-2.9h-4.3v2.1h-1.5v-3.2h5.8v-0.6H26V284.9z
			 M39.1,296c-0.1,1.4-0.3,2.3-1.3,2.3h-5.1c-0.8,0-1.4,0-1.4-1V296h-3.6v0.9h-1.5V291h11.7v4.6L39.1,296z M27.6,293.9v0.9h3.6v-0.9
			H27.6z M27.7,292.1v0.8h3.5v-0.8H27.7z M27.7,288.4h2.9v0.8h-2.9V288.4z M27.7,289.7h2.9v0.8h-2.9V289.7z M32.7,292.1v0.8h3.6
			v-0.8H32.7z M32.7,293.9v0.9h3.6v-0.9H32.7z M32.7,296v0.5c0,0.3,0,0.4,0.4,0.4h4c0.4,0,0.5,0,0.6-1H32.7z M33.4,288.4h3v0.8h-3
			V288.4z M33.4,289.7h3v0.8h-3V289.7z"/>
		<path class="st11" d="M39.9,296.8c4.5-2.5,4.9-5.5,5.2-7.8h-4.8v-1.6h5c0-0.2,0.1-1.2,0.1-2v-1.1h1.7v1.1c0,0.9,0,1.4-0.1,1.9h6.7
			c0,5-0.4,7.8-0.6,8.8c-0.1,0.6-0.5,2.1-2.2,2.1H48l-0.3-1.7h2.5c0.8,0,1-0.5,1.1-1.6c0.2-1.2,0.4-4.4,0.4-6.1h-5.1
			c-0.3,2.9-1,6.5-5.9,9.3L39.9,296.8z"/>
		<path class="st11" d="M57,295.6c-0.2,0.8-0.5,1.8-1.3,2.9l-1.1-0.8c0.7-0.9,0.9-1.4,1.2-2.6L57,295.6z M55.3,284.8h3.9v10h-3.9
			V284.8z M56.6,286.2v1.5h1.3v-1.5H56.6z M56.6,289v1.5h1.3V289H56.6z M56.6,291.9v1.6h1.3v-1.6H56.6z M58.7,295.2
			c0.4,0.7,0.8,1.5,1.1,2.4l-1.2,0.5c-0.4-1.2-0.6-1.6-1.1-2.5L58.7,295.2z M66.6,285.3h1.9v1.1h-1.9v0.8h1.4v1.1h-1.4v0.9h2.2v1.1
			h-4v0.7h3.2v3.8h0.8v1.1h-0.8v1.3c0,1-0.5,1.3-1.4,1.3h-1.8l-0.1-1.5h1.5c0.4,0,0.4-0.2,0.4-0.3v-0.8h-4.9v2.6h-1.4v-2.6h-0.8
			v-1.1h0.8V291h3.1v-0.7h-3.9v-1.1h2.1v-0.9h-1.4v-1.1h1.4v-0.8h-1.8v-1.1h1.8v-0.9H63v0.9h2.2v-0.9h1.4V285.3z M61.7,292v0.8h1.7
			V292H61.7z M61.7,293.9v0.9h1.7v-0.9H61.7z M63,286.4v0.8h2.2v-0.8H63z M63,288.3v0.9h2.2v-0.9H63z M64.8,292v0.8h1.8V292H64.8z
			 M64.8,293.9v0.9h1.8v-0.9H64.8z"/>
		<path class="st11" d="M71.8,284.9h5.7c-0.1,5.1,1,8.9,6.4,11.8l-1.1,1.6c-2-1.2-4.9-3.3-6.1-7.7c-1,3.2-2.2,5.1-6.2,7.7l-1.1-1.5
			c3.6-1.9,6.4-5.3,6.4-10.3h-4.1V284.9z"/>
	</g>
</g>
<g>
	<g class="st2">
		<path class="st11" d="M430.3,284.6h11.9v1.2h-5.3v0.6h5.9v3.2h-1.6v-2.1h-4.3v2.9h-1.4v-2.9h-4.3v2.1h-1.5v-3.2h5.8v-0.6h-5.2
			V284.6z M443.4,295.7c-0.1,1.4-0.3,2.3-1.3,2.3h-5.1c-0.8,0-1.4,0-1.4-1v-1.3h-3.6v0.9h-1.5v-5.8h11.7v4.6L443.4,295.7z
			 M431.9,293.7v0.9h3.6v-0.9H431.9z M431.9,291.8v0.8h3.5v-0.8H431.9z M432,288.1h2.9v0.8H432V288.1z M432,289.4h2.9v0.8H432V289.4
			z M437,291.8v0.8h3.6v-0.8H437z M437,293.7v0.9h3.6v-0.9H437z M437,295.7v0.5c0,0.3,0,0.4,0.4,0.4h4c0.4,0,0.5,0,0.6-1H437z
			 M437.6,288.1h3v0.8h-3V288.1z M437.6,289.4h3v0.8h-3V289.4z"/>
		<path class="st11" d="M444.1,296.5c4.5-2.5,4.9-5.5,5.2-7.8h-4.8v-1.6h5c0-0.2,0.1-1.2,0.1-2v-1.1h1.7v1.1c0,0.9,0,1.4-0.1,1.9
			h6.7c0,5-0.4,7.8-0.6,8.8c-0.1,0.6-0.5,2.1-2.2,2.1h-2.8l-0.3-1.7h2.5c0.8,0,1-0.5,1.1-1.6c0.2-1.2,0.4-4.4,0.4-6.1H451
			c-0.3,2.9-1,6.5-5.9,9.3L444.1,296.5z"/>
		<path class="st11" d="M461.3,295.3c-0.2,0.8-0.5,1.8-1.3,2.9l-1.1-0.8c0.7-0.9,0.9-1.4,1.2-2.6L461.3,295.3z M459.5,284.5h3.9v10
			h-3.9V284.5z M460.8,285.9v1.5h1.3v-1.5H460.8z M460.8,288.7v1.5h1.3v-1.5H460.8z M460.8,291.6v1.6h1.3v-1.6H460.8z M463,294.9
			c0.4,0.7,0.8,1.5,1.1,2.4l-1.2,0.5c-0.4-1.2-0.6-1.6-1.1-2.5L463,294.9z M470.8,285h1.9v1.1h-1.9v0.8h1.4v1.1h-1.4v0.9h2.2v1.1h-4
			v0.7h3.2v3.8h0.8v1.1h-0.8v1.3c0,1-0.5,1.3-1.4,1.3h-1.8l-0.1-1.5h1.5c0.4,0,0.4-0.2,0.4-0.3v-0.8h-4.9v2.6h-1.4v-2.6h-0.8v-1.1
			h0.8v-3.8h3.1V290h-3.9v-1.1h2.1V288h-1.4v-1.1h1.4v-0.8h-1.8V285h1.8v-0.9h1.3v0.9h2.2v-0.9h1.4V285z M465.9,291.7v0.8h1.7v-0.8
			H465.9z M465.9,293.6v0.9h1.7v-0.9H465.9z M467.3,286.1v0.8h2.2v-0.8H467.3z M467.3,288v0.9h2.2V288H467.3z M469,291.7v0.8h1.8
			v-0.8H469z M469,293.6v0.9h1.8v-0.9H469z"/>
		<path class="st11" d="M476.1,284.7h5.7c-0.1,5.1,1,8.9,6.4,11.8l-1.1,1.6c-2-1.2-4.9-3.3-6.1-7.7c-1,3.2-2.2,5.1-6.2,7.7l-1.1-1.5
			c3.6-1.9,6.4-5.3,6.4-10.3h-4.1V284.7z"/>
	</g>
</g>
<g>
	<g class="st2">
		<path class="st11" d="M159.4,285.3h11.9v1.2H166v0.6h5.9v3.2h-1.6v-2.1H166v2.9h-1.4v-2.9h-4.3v2.1h-1.5v-3.2h5.8v-0.6h-5.2V285.3
			z M172.5,296.4c-0.1,1.4-0.3,2.3-1.3,2.3H166c-0.8,0-1.4,0-1.4-1v-1.3H161v0.9h-1.5v-5.8h11.7v4.6L172.5,296.4z M161,294.4v0.9
			h3.6v-0.9H161z M161,292.6v0.8h3.5v-0.8H161z M161.1,288.8h2.9v0.8h-2.9V288.8z M161.1,290.2h2.9v0.8h-2.9V290.2z M166,292.6v0.8
			h3.6v-0.8H166z M166,294.4v0.9h3.6v-0.9H166z M166,296.4v0.5c0,0.3,0,0.4,0.4,0.4h4c0.4,0,0.5,0,0.6-1H166z M166.7,288.8h3v0.8h-3
			V288.8z M166.7,290.2h3v0.8h-3V290.2z"/>
		<path class="st11" d="M173.2,297.2c4.5-2.5,4.9-5.5,5.2-7.8h-4.8v-1.6h5c0-0.2,0.1-1.2,0.1-2v-1.1h1.7v1.1c0,0.9,0,1.4-0.1,1.9
			h6.7c0,5-0.4,7.8-0.6,8.8c-0.1,0.6-0.5,2.1-2.2,2.1h-2.8l-0.3-1.7h2.5c0.8,0,1-0.5,1.1-1.6c0.2-1.2,0.4-4.4,0.4-6.1h-5.1
			c-0.3,2.9-1,6.5-5.9,9.3L173.2,297.2z"/>
		<path class="st11" d="M194.1,285.4c0,0.3-0.1,0.6-0.2,1.3h6.1v1.5h-6.5c-0.2,0.6-0.4,1-0.5,1.3c0.6-0.3,1-0.4,1.7-0.4
			c1.3,0,1.9,0.5,2.4,1.7c1.5-0.6,2.8-1,3.6-1.2l0.4,1.7c-0.7,0.1-1.8,0.4-3.6,1.1c0.1,0.7,0.1,1.4,0,2.8h-1.7
			c0-0.4,0.1-0.6,0.1-1.1c0-0.4,0-0.7,0-1c-0.7,0.3-2.5,1.2-2.5,2.3c0,1.3,1.7,1.3,3.1,1.3c0.2,0,1.7,0,3.7-0.2v1.6
			c-1.1,0-2.4,0.1-3.5,0.1c-1.6,0-3.2,0-4.2-0.8c-0.3-0.2-0.9-0.8-0.9-1.9c0-1.5,1.5-2.6,4-3.9c-0.1-0.5-0.4-0.9-1.2-0.9
			c-1.3,0-2.6,1.2-3.1,1.9c-0.9,1.4-1,1.5-1.7,2.3l-1.2-1.3c1.5-1.5,2.7-3.3,3.4-5.3h-3v-1.5h3.4c0.1-0.7,0.2-1,0.2-1.5L194.1,285.4
			z"/>
		<path class="st11" d="M202.4,297.5c1.8-0.1,3.4-0.8,4-1.1h-2.9v-6.6h11.4v6.6h-2.6c1.4,0.6,2.3,1,3.8,1.1l-0.8,1.4
			c-1.9-0.3-3.3-0.9-4.5-1.8l0.9-0.7h-5.1l1.1,0.8c-0.8,0.5-3.1,1.4-4.6,1.7L202.4,297.5z M202.8,285.3h12.8v3.6h-12.8V285.3z
			 M204.3,287.9h2.4v-1.4h-2.4V287.9z M205,291.6h8.4v-0.8H205V291.6z M205,293.4h8.4v-0.9H205V293.4z M205,295.3h8.4v-0.9H205
			V295.3z M208,287.9h2.4v-1.4H208V287.9z M211.8,287.9h2.4v-1.4h-2.4V287.9z"/>
		<path class="st11" d="M223,296.3c0.7,0,3,0,4.3-1.1c0.9-0.7,1.3-1.9,1.3-2.9c0-1.7-0.9-3-2.9-3c-1.9,0-3.3,1.1-4.3,2.1v6.7h-1.7
			l0.1-4.6c-0.6,1-0.6,1.1-1.5,2.1l-1-1.6c0.4-0.4,1.5-1.4,2.6-3.3l0-1.5h-2.1v-1.5h2.1v-2.2h1.6l0,2.2h0.6v0.8
			c-0.2,0.3-0.4,0.8-0.6,1.1v0.1c0.6-0.5,2.2-1.8,4.6-1.8c2.9,0,4.3,2.3,4.3,4.6c0,5-4.6,5.4-6.9,5.5L223,296.3z"/>
		<path class="st11" d="M236.7,285.4c0,0.2-0.3,1.7-0.4,1.8h3.1v1.5h-3.4c-0.4,1.9-1.6,6.1-2.5,7.9L232,296c0.3-0.7,1.6-3.5,2.4-7.2
			H232v-1.5h2.7c0.1-0.7,0.2-1.2,0.3-1.8L236.7,285.4z M245,288.8c-0.5,0-0.8-0.1-1.3-0.1c-0.9,0-1.3,0.1-1.7,0.1l0.1,4.5
			c2.1,1,2.8,1.7,3.2,2l-1,1.6c-0.3-0.3-1.1-1.1-2.2-1.8c0,0.3,0,1.4-0.3,2c-0.5,0.9-1.8,1.2-2.8,1.2c-3.1,0-3.5-2-3.5-2.7
			c0-1.7,1.4-2.9,3.7-2.9c0.6,0,0.9,0.1,1.2,0.1l-0.2-5.4c1.1-0.2,2-0.3,4.6-0.4L245,288.8z M240.6,294.3c-0.4-0.1-0.8-0.2-1.4-0.2
			c-1.2,0-2.1,0.5-2.1,1.5c0,1,1.2,1.2,1.8,1.2c1.7,0,1.7-1,1.7-1.4V294.3z"/>
		<path class="st11" d="M255.5,298.4c-2-1.6-4.2-3.1-6.4-4.4c-1.2-0.7-2.3-1.3-2.3-2.3c0-0.7,0.7-1.5,2.3-2.8c3-2.5,3.4-2.8,4.4-3.9
			l1.6,1.1c-2.1,1.8-2.4,2.1-5.3,4.3c-0.7,0.6-1,0.8-1,1.1c0,0.4,0.7,0.7,1.1,1c2.2,1.2,5.7,3.4,7.1,4.5L255.5,298.4z"/>
		<path class="st11" d="M271.6,287.7c-0.3,0-0.7-0.1-1.3-0.1c-1.3,0-2.2,0.4-2.9,0.7c-2.1,1.1-4,3.1-4,5.1c0,2.3,2.6,3.1,6.9,2.9
			l-0.2,1.8c-3.2,0-4.8-0.4-6.1-1.1c-1.3-0.7-2.2-2.1-2.2-3.5c0-1.5,0.8-3.9,4.1-5.9c-2.3,0.1-4.6,0.3-6.9,0.5l-0.1-1.7
			c1,0,2.1-0.1,3.2-0.1c1.3-0.1,8.1-0.3,9.6-0.4L271.6,287.7z"/>
		<path class="st11" d="M276.7,293.5c-0.5,1.3-1.7,3.9-2.8,5.3l-1-1.5c1.5-1.9,2.3-4.1,2.6-4.7L276.7,293.5z M273.6,289
			c1.5,0.7,2.1,1.2,2.4,1.4l-1,1.3c-0.7-0.6-1.4-1-2.2-1.5L273.6,289z M274.4,284.9c0.7,0.4,1.7,1,2.3,1.4l-0.9,1.3
			c-0.7-0.6-1.2-1-2.3-1.5L274.4,284.9z M279.4,292.4h5.1v-0.7h1.5v7.1h-1.5v-2.7h-5.4c-0.4,1.4-0.9,2.1-1.7,2.7l-1.2-1
			c0.8-0.6,1.7-1.4,1.7-4.1v-2h1.5V292.4z M276.7,290.2c0.7-0.1,1.9-0.2,3.8-0.9c-0.3-0.2-1.2-0.8-2-2.1h-1.5v-1.3h4.2v-1.1h1.6v1.1
			h4.2v1.3h-1.5c-0.3,0.5-0.7,1.2-1.9,2.1c1.2,0.4,2.4,0.6,3.8,0.8l-0.5,1.5c-0.8-0.1-2.7-0.3-4.9-1.4c-1.1,0.5-2.5,1-4.8,1.4
			L276.7,290.2z M284.5,294.8v-1.1h-5.1c0,0.3,0,0.6-0.1,1.1H284.5z M280,287.3c0.8,0.9,1.5,1.2,1.9,1.4c1.1-0.6,1.4-1,1.8-1.4H280z
			"/>
		<path class="st11" d="M291.8,287v-1.6h1.6v1.6h3.2v1.5h-3.2l0,3c0,0,0,0.2,0.1,0.2c0,0.1,0.1,0.5,0.1,0.7c0,0.6-0.1,1.1-0.3,1.6
			c-0.2,0.5-0.4,1.1-0.4,1.7c0,0.7,0.2,0.8,2.6,0.8c1.9,0,3.7,0,3.7-1.9c0-1.7-1.1-3.1-1.5-3.6l1.5-0.7c0.4,0.6,1.8,2.2,1.8,4.4
			c0,2.7-2.1,3.2-2.7,3.3c-0.4,0.1-0.7,0.1-3,0.1c-1.6,0-3.9,0-3.9-1.7c0-0.2,0.1-0.4,0.2-0.8c-0.3,0.1-0.4,0.1-0.6,0.1
			c-2.4,0-2.4-2.4-2.4-2.8c0-1.1,0.4-3.2,2.7-3.2c0.4,0,0.5,0.1,0.7,0.1v-1.3h-3V287H291.8z M289.8,292.9c0,0.7,0.3,1.2,1,1.2
			c0.5,0,0.7-0.2,0.8-0.5c0.2-0.5,0.3-1,0.3-1.2c0-1-0.4-1.2-0.9-1.2C289.9,291.3,289.8,292.7,289.8,292.9z M300.3,289.8
			c-0.8-1.1-2-2.4-3.3-3.1l1.1-1.2c1.2,0.6,2.6,1.8,3.5,3L300.3,289.8z"/>
		<path class="st11" d="M302.9,285.5h4.6v11.3h-3.2v1.1h-1.4V285.5z M304.3,287v3.3h1.8V287H304.3z M304.3,291.7v3.6h1.8v-3.6H304.3
			z M316.1,287.6H313v1.7h3.5v1.4H315v1.5h1.4v1.4H315v3.6c0,0.4,0,1.5-1.4,1.5h-2.4l-0.3-1.5h2.2c0.1,0,0.3,0,0.3-0.2v-3.4h-5.3
			v-1.4h5.3v-1.5H308v-1.4h3.5v-1.7h-3v-1.4h3v-1.3h1.5v1.3h3.1V287.6z M309.5,293.9c1,0.9,1.4,1.4,2,2.4l-1.3,1
			c-0.8-1.3-1-1.6-1.9-2.5L309.5,293.9z"/>
		<path class="st11" d="M318,285.5h5.7v5.4h-4.2v7.9H318V285.5z M319.4,286.7v1h2.7v-1H319.4z M319.4,288.7v1h2.7v-1H319.4z
			 M327.8,291.7v5.5h-6.9v-5.5H327.8z M322.3,293v1h4.1v-1H322.3z M322.3,295v1.1h4.1V295H322.3z M329.4,290.9H325v-5.4h5.9v11.9
			c0,0.4,0,1.4-1,1.4h-2.3l-0.2-1.5h1.7c0.2,0,0.3-0.1,0.3-0.4V290.9z M326.4,286.7v1h3v-1H326.4z M326.4,288.7v1h3v-1H326.4z"/>
		<path class="st11" d="M334.1,284.9h1.5v1.1h2.9v-1.1h1.5v1.1h3v-1.1h1.5v1.1h1.8v1.3h-1.8v2.1h-10.3v-2.1h-1.8v-1.3h1.8V284.9z
			 M334.1,293.5h-1.4v-3.4h13.3v3.4h-1.5v3.3c0,0.4-0.1,1.2-1,1.2h-2.1l-0.3-1.5h1.7c0.3,0,0.3-0.2,0.3-0.4v-2.1h-3v4.9h-1.5v-4.9
			h-2.9v4.1h-1.5V293.5z M338.5,292.6v-1.1h-4.4v1.1H338.5z M335.6,287.3v1h2.9v-1H335.6z M340,287.3v1h3v-1H340z M344.4,292.6v-1.1
			H340v1.1H344.4z"/>
	</g>
</g>
<g>
	<g class="st2">
		<path class="st12" d="M220.8,141.9c-1.7,0.9-2.8,1.3-3.5,1.5l-1-2.1c3.7-1.1,6.9-3,8.8-5.3h2.1c3.3,3.6,7.1,4.9,8.8,5.4l-1.1,2
			c-0.7-0.3-1.9-0.7-3.5-1.6v1.6h-4.3v2.1h7.9v1.9h-7.9v5.6c0,0.8,0,1.9-1.6,1.9h-3.7l-0.4-2.1h2.9c0.4,0,0.6-0.1,0.6-0.6v-4.8h-8
			v-1.9h8v-2.1h-4.3V141.9z M222.7,148.8c-1.1,2.1-2.9,3.9-4.6,5.1l-1.5-1.6c1.6-0.9,3.3-2.6,4.2-4.2L222.7,148.8z M231,141.5
			c-2.9-1.7-4.2-3.1-4.8-3.8c-1.5,1.8-3.6,3.1-4.8,3.8H231z M234.3,153.9c-2-1.2-3.4-2.7-5-5.1l1.9-0.8c1,1.6,2.8,3.3,4.4,4.3
			L234.3,153.9z"/>
		<path class="st12" d="M242.2,138.8c-1.8,0.1-3.2,0.2-4.6,0.2l-0.5-1.8c6-0.1,8.5-0.5,10.9-1.2l0.7,1.8c-0.6,0.2-1.9,0.6-4.7,0.8
			v1.3h4.8v1.7h-1.4v1.7h1.7v1.6h-1.7v1.9h1.4v1.6h-3.5c1.3,1.9,2.5,2.8,4,3.6l-1.3,1.8c-0.9-0.7-2.6-1.9-4-4.6v5.6h-1.8v-5.5
			c-1.4,2.2-3,3.6-4.4,4.8l-1-1.8c0.7-0.5,2.4-1.6,4.2-3.9h-3.4v-1.6h1.4V145h-1.7v-1.6h1.7v-1.7h-1.4V140h4.7V138.8z M240.5,141.6
			v1.7h1.7v-1.7H240.5z M240.5,145v1.9h1.7V145H240.5z M243.9,141.6v1.7h1.7v-1.7H243.9z M243.9,145v1.9h1.7V145H243.9z
			 M249.6,137.2h2v12.9h-2V137.2z M253.2,136.1h2v17.2c0,1.7-1.3,1.7-1.8,1.7h-2.7l-0.4-2.2h2.4c0.2,0,0.5,0,0.5-0.5V136.1z"/>
		<path class="st12" d="M260.1,143.4c-0.9,0.8-1.5,1.3-2.1,1.7l-1.5-1.8c2.6-1.4,5.1-4.4,6-7.3l2.1,0.5c-0.7,1.9-1.8,4.2-4.4,6.7
			h12.4c0,2-0.1,7.3-0.8,9.9c-0.5,1.8-1.9,1.9-2.8,1.9h-3.1l-0.4-2.1h3.1c1.1,0,1.3-1,1.5-1.9c0.2-0.9,0.4-2.8,0.4-5.7H266
			c-0.5,5.4-3.3,8-7.5,9.8l-1.2-1.9c4.4-1.8,6.1-3.7,6.6-7.8h-3.7V143.4z M275,144.9c-1.7-1.1-5.1-4.7-6.5-8.4l2.1-0.6
			c1,2.5,3.2,5.6,5.9,7.3L275,144.9z"/>
		<path class="st12" d="M281.3,137.1c-0.7,2.7-0.8,5.6-0.8,8.4c0,2.7,0.2,5.4,0.7,8.1l-2.3,0.3c-0.5-2.8-0.6-5.7-0.6-8.5
			c0-2.8,0.1-5.7,0.7-8.5L281.3,137.1z M288.7,140.2v-3.4h2.2v3.4h3.8v2.1h-3.8l0.1,5.2c1.7,0.8,3.3,2.1,4.2,3l-1.5,1.9
			c-1.1-1.2-1.7-1.7-2.8-2.6c0,1.6-0.1,4-4,4c-4.3,0-4.5-3-4.5-3.5c0-2,1.7-3.8,4.5-3.8c0.2,0,0.9,0,1.8,0.2l-0.1-4.5h-6v-2.1H288.7
			z M288.9,148.8c-0.4-0.2-0.9-0.4-1.7-0.4c-1.6,0-2.5,0.7-2.5,1.8c0,0.3,0.1,1.6,2.3,1.6c1.9,0,1.9-0.8,1.9-1.7V148.8z"/>
	</g>
	<g class="st2">
		<path class="st13" d="M220.8,141.9c-1.7,0.9-2.8,1.3-3.5,1.5l-1-2.1c3.7-1.1,6.9-3,8.8-5.3h2.1c3.3,3.6,7.1,4.9,8.8,5.4l-1.1,2
			c-0.7-0.3-1.9-0.7-3.5-1.6v1.6h-4.3v2.1h7.9v1.9h-7.9v5.6c0,0.8,0,1.9-1.6,1.9h-3.7l-0.4-2.1h2.9c0.4,0,0.6-0.1,0.6-0.6v-4.8h-8
			v-1.9h8v-2.1h-4.3V141.9z M222.7,148.8c-1.1,2.1-2.9,3.9-4.6,5.1l-1.5-1.6c1.6-0.9,3.3-2.6,4.2-4.2L222.7,148.8z M231,141.5
			c-2.9-1.7-4.2-3.1-4.8-3.8c-1.5,1.8-3.6,3.1-4.8,3.8H231z M234.3,153.9c-2-1.2-3.4-2.7-5-5.1l1.9-0.8c1,1.6,2.8,3.3,4.4,4.3
			L234.3,153.9z"/>
		<path class="st13" d="M242.2,138.8c-1.8,0.1-3.2,0.2-4.6,0.2l-0.5-1.8c6-0.1,8.5-0.5,10.9-1.2l0.7,1.8c-0.6,0.2-1.9,0.6-4.7,0.8
			v1.3h4.8v1.7h-1.4v1.7h1.7v1.6h-1.7v1.9h1.4v1.6h-3.5c1.3,1.9,2.5,2.8,4,3.6l-1.3,1.8c-0.9-0.7-2.6-1.9-4-4.6v5.6h-1.8v-5.5
			c-1.4,2.2-3,3.6-4.4,4.8l-1-1.8c0.7-0.5,2.4-1.6,4.2-3.9h-3.4v-1.6h1.4V145h-1.7v-1.6h1.7v-1.7h-1.4V140h4.7V138.8z M240.5,141.6
			v1.7h1.7v-1.7H240.5z M240.5,145v1.9h1.7V145H240.5z M243.9,141.6v1.7h1.7v-1.7H243.9z M243.9,145v1.9h1.7V145H243.9z
			 M249.6,137.2h2v12.9h-2V137.2z M253.2,136.1h2v17.2c0,1.7-1.3,1.7-1.8,1.7h-2.7l-0.4-2.2h2.4c0.2,0,0.5,0,0.5-0.5V136.1z"/>
		<path class="st13" d="M260.1,143.4c-0.9,0.8-1.5,1.3-2.1,1.7l-1.5-1.8c2.6-1.4,5.1-4.4,6-7.3l2.1,0.5c-0.7,1.9-1.8,4.2-4.4,6.7
			h12.4c0,2-0.1,7.3-0.8,9.9c-0.5,1.8-1.9,1.9-2.8,1.9h-3.1l-0.4-2.1h3.1c1.1,0,1.3-1,1.5-1.9c0.2-0.9,0.4-2.8,0.4-5.7H266
			c-0.5,5.4-3.3,8-7.5,9.8l-1.2-1.9c4.4-1.8,6.1-3.7,6.6-7.8h-3.7V143.4z M275,144.9c-1.7-1.1-5.1-4.7-6.5-8.4l2.1-0.6
			c1,2.5,3.2,5.6,5.9,7.3L275,144.9z"/>
		<path class="st13" d="M281.3,137.1c-0.7,2.7-0.8,5.6-0.8,8.4c0,2.7,0.2,5.4,0.7,8.1l-2.3,0.3c-0.5-2.8-0.6-5.7-0.6-8.5
			c0-2.8,0.1-5.7,0.7-8.5L281.3,137.1z M288.7,140.2v-3.4h2.2v3.4h3.8v2.1h-3.8l0.1,5.2c1.7,0.8,3.3,2.1,4.2,3l-1.5,1.9
			c-1.1-1.2-1.7-1.7-2.8-2.6c0,1.6-0.1,4-4,4c-4.3,0-4.5-3-4.5-3.5c0-2,1.7-3.8,4.5-3.8c0.2,0,0.9,0,1.8,0.2l-0.1-4.5h-6v-2.1H288.7
			z M288.9,148.8c-0.4-0.2-0.9-0.4-1.7-0.4c-1.6,0-2.5,0.7-2.5,1.8c0,0.3,0.1,1.6,2.3,1.6c1.9,0,1.9-0.8,1.9-1.7V148.8z"/>
	</g>
	<g class="st2">
		<path class="st12" d="M200.6,159.7c0,1.7-0.2,10.3-0.2,10.8c0,3.1,0.7,4.1,3.4,4.1c4.6,0,5.6-2.7,6.4-6.1l2.2,0.6
			c-0.5,2.3-1.6,7.6-8.3,7.6c-3,0-4.5-1-5.2-2.1c-0.8-1.3-0.8-3-0.8-6.6c0-1.8,0-4.5,0.1-8.4L200.6,159.7z"/>
		<path class="st12" d="M216.5,174.3c6.3,0,9.5-0.8,9.5-4.5c0-2-1.1-3.1-3.3-3.1c-1.9,0-6.3,0.9-8.4,1.4l-0.4-2.3
			c0.7-0.1,3.9-0.6,4.6-0.7c0.6-0.1,3-0.5,4.3-0.5c2.4,0,5.5,1.2,5.5,5.2c0,5.2-4.7,5.9-6.4,6.2c-1.4,0.2-3.2,0.3-5.1,0.3
			L216.5,174.3z"/>
		<path class="st12" d="M236.9,159.5c-0.1,0.9-0.2,1.7-0.4,3.6h2.4c4.1,0,4.3,3.6,4.3,5.6c0,0.8-0.1,3.9-1,6c-0.9,2-2.9,2-3.6,2
			c-1.1,0-2.4-0.2-3-0.2l-0.1-2.2c0.6,0.1,1.5,0.3,2.7,0.3c1.3,0,1.9-0.3,2.3-1.6c0.3-1,0.6-3.5,0.6-4.8c0-2.1-0.6-3-2.4-3l-2.5,0
			c-1.3,7.1-3,10.2-3.6,11.3l-2.3-0.9c2.3-3.7,3.2-8.4,3.6-10.4l-3.1,0v-2.2h3.4c0.2-1.5,0.3-2.6,0.4-3.7L236.9,159.5z M246.3,170.6
			c-0.5-5.5-2.2-7.5-3-8.3l1.7-1.1c1.1,1.1,3,3.2,3.6,9.1L246.3,170.6z"/>
		<path class="st12" d="M254.3,159.6c-0.4,1.5-0.5,2.6-0.8,4.5c1.3-1.8,3.1-2.9,5.2-2.9c2.7,0,5.3,2.3,5.3,7c0,5.7-2.8,8.6-11.2,8.6
			l-0.4-2.1c4.6-0.1,9.4-0.3,9.4-6.3c0-4.3-2-5-3.1-5c-0.7,0-3.8,0.3-5.4,5.4c0,1.7,0.1,2.2,0.2,2.9l-2.2,0.2c-0.1-1-0.2-1.6-0.2-3
			c0-0.9,0-5.3,0.8-9.4L254.3,159.6z"/>
		<path class="st12" d="M283.6,169.5c-0.4-0.6-0.7-1-1.7-1.9c-0.7,0.1-1.9,0.2-2.5,0.3v7c0,0.3,0.3,0.3,0.6,0.3h2.1
			c0.5,0,0.7,0,0.9-0.7c0.1-0.3,0.3-1.1,0.3-2.9l2.1,0.5c-0.3,3.7-0.7,5-2.8,5h-3c-0.9,0-2.2-0.1-2.2-1.4V168
			c-1.5,0.1-1.6,0.1-3.2,0.2c-0.3,5.6-2.2,8.1-6.7,9.5l-1.1-2c4.6-1.3,5.4-3.5,5.7-7.4c-1.7,0.1-4.3,0.2-5.1,0.2l-0.1-2.1
			c0.4,0,2.3,0,2.8,0c0.2-0.3,1.8-2.6,2.4-3.8h-5.8v-2h8.4v-1.9h2.1v1.9h8.4v2h-10.6c-0.7,1.2-1.9,3.1-2.4,3.7
			c3.6-0.1,4.2-0.1,7.6-0.4c-0.5-0.4-1-0.7-2-1.4l1.5-1.5c2.5,1.5,4.1,2.7,5.9,4.7L283.6,169.5z"/>
		<path class="st12" d="M287.9,159.3h16.2v1.7h-7.2v0.8h8v4.3h-2.1v-2.9h-5.9v4h-1.9v-4h-5.8v2.9H287v-4.3h7.9V161h-7V159.3z
			 M305.6,174.4c-0.1,1.9-0.4,3.1-1.8,3.1h-7c-1,0-2-0.1-2-1.4v-1.8H290v1.2h-2v-7.9h15.8v6.2L305.6,174.4z M290,171.6v1.2h4.9v-1.2
			H290z M290.1,169.1v1.1h4.8v-1.1H290.1z M290.1,164.1h4v1h-4V164.1z M290.1,165.9h4v1.1h-4V165.9z M296.9,169.1v1.1h4.9v-1.1
			H296.9z M296.9,171.6v1.2h4.9v-1.2H296.9z M296.9,174.3v0.7c0,0.4,0,0.6,0.5,0.6h5.4c0.6,0,0.7-0.1,0.8-1.3H296.9z M297.8,164.1h4
			v1h-4V164.1z M297.8,165.9h4v1.1h-4V165.9z"/>
	</g>
	<g class="st2">
		<path class="st13" d="M200.6,159.7c0,1.7-0.2,10.3-0.2,10.8c0,3.1,0.7,4.1,3.4,4.1c4.6,0,5.6-2.7,6.4-6.1l2.2,0.6
			c-0.5,2.3-1.6,7.6-8.3,7.6c-3,0-4.5-1-5.2-2.1c-0.8-1.3-0.8-3-0.8-6.6c0-1.8,0-4.5,0.1-8.4L200.6,159.7z"/>
		<path class="st13" d="M216.5,174.3c6.3,0,9.5-0.8,9.5-4.5c0-2-1.1-3.1-3.3-3.1c-1.9,0-6.3,0.9-8.4,1.4l-0.4-2.3
			c0.7-0.1,3.9-0.6,4.6-0.7c0.6-0.1,3-0.5,4.3-0.5c2.4,0,5.5,1.2,5.5,5.2c0,5.2-4.7,5.9-6.4,6.2c-1.4,0.2-3.2,0.3-5.1,0.3
			L216.5,174.3z"/>
		<path class="st13" d="M236.9,159.5c-0.1,0.9-0.2,1.7-0.4,3.6h2.4c4.1,0,4.3,3.6,4.3,5.6c0,0.8-0.1,3.9-1,6c-0.9,2-2.9,2-3.6,2
			c-1.1,0-2.4-0.2-3-0.2l-0.1-2.2c0.6,0.1,1.5,0.3,2.7,0.3c1.3,0,1.9-0.3,2.3-1.6c0.3-1,0.6-3.5,0.6-4.8c0-2.1-0.6-3-2.4-3l-2.5,0
			c-1.3,7.1-3,10.2-3.6,11.3l-2.3-0.9c2.3-3.7,3.2-8.4,3.6-10.4l-3.1,0v-2.2h3.4c0.2-1.5,0.3-2.6,0.4-3.7L236.9,159.5z M246.3,170.6
			c-0.5-5.5-2.2-7.5-3-8.3l1.7-1.1c1.1,1.1,3,3.2,3.6,9.1L246.3,170.6z"/>
		<path class="st13" d="M254.3,159.6c-0.4,1.5-0.5,2.6-0.8,4.5c1.3-1.8,3.1-2.9,5.2-2.9c2.7,0,5.3,2.3,5.3,7c0,5.7-2.8,8.6-11.2,8.6
			l-0.4-2.1c4.6-0.1,9.4-0.3,9.4-6.3c0-4.3-2-5-3.1-5c-0.7,0-3.8,0.3-5.4,5.4c0,1.7,0.1,2.2,0.2,2.9l-2.2,0.2c-0.1-1-0.2-1.6-0.2-3
			c0-0.9,0-5.3,0.8-9.4L254.3,159.6z"/>
		<path class="st13" d="M283.6,169.5c-0.4-0.6-0.7-1-1.7-1.9c-0.7,0.1-1.9,0.2-2.5,0.3v7c0,0.3,0.3,0.3,0.6,0.3h2.1
			c0.5,0,0.7,0,0.9-0.7c0.1-0.3,0.3-1.1,0.3-2.9l2.1,0.5c-0.3,3.7-0.7,5-2.8,5h-3c-0.9,0-2.2-0.1-2.2-1.4V168
			c-1.5,0.1-1.6,0.1-3.2,0.2c-0.3,5.6-2.2,8.1-6.7,9.5l-1.1-2c4.6-1.3,5.4-3.5,5.7-7.4c-1.7,0.1-4.3,0.2-5.1,0.2l-0.1-2.1
			c0.4,0,2.3,0,2.8,0c0.2-0.3,1.8-2.6,2.4-3.8h-5.8v-2h8.4v-1.9h2.1v1.9h8.4v2h-10.6c-0.7,1.2-1.9,3.1-2.4,3.7
			c3.6-0.1,4.2-0.1,7.6-0.4c-0.5-0.4-1-0.7-2-1.4l1.5-1.5c2.5,1.5,4.1,2.7,5.9,4.7L283.6,169.5z"/>
		<path class="st13" d="M287.9,159.3h16.2v1.7h-7.2v0.8h8v4.3h-2.1v-2.9h-5.9v4h-1.9v-4h-5.8v2.9H287v-4.3h7.9V161h-7V159.3z
			 M305.6,174.4c-0.1,1.9-0.4,3.1-1.8,3.1h-7c-1,0-2-0.1-2-1.4v-1.8H290v1.2h-2v-7.9h15.8v6.2L305.6,174.4z M290,171.6v1.2h4.9v-1.2
			H290z M290.1,169.1v1.1h4.8v-1.1H290.1z M290.1,164.1h4v1h-4V164.1z M290.1,165.9h4v1.1h-4V165.9z M296.9,169.1v1.1h4.9v-1.1
			H296.9z M296.9,171.6v1.2h4.9v-1.2H296.9z M296.9,174.3v0.7c0,0.4,0,0.6,0.5,0.6h5.4c0.6,0,0.7-0.1,0.8-1.3H296.9z M297.8,164.1h4
			v1h-4V164.1z M297.8,165.9h4v1.1h-4V165.9z"/>
	</g>
	<g class="st2">
		<path class="st12" d="M220.8,141.9c-1.7,0.9-2.8,1.3-3.5,1.5l-1-2.1c3.7-1.1,6.9-3,8.8-5.3h2.1c3.3,3.6,7.1,4.9,8.8,5.4l-1.1,2
			c-0.7-0.3-1.9-0.7-3.5-1.6v1.6h-4.3v2.1h7.9v1.9h-7.9v5.6c0,0.8,0,1.9-1.6,1.9h-3.7l-0.4-2.1h2.9c0.4,0,0.6-0.1,0.6-0.6v-4.8h-8
			v-1.9h8v-2.1h-4.3V141.9z M222.7,148.8c-1.1,2.1-2.9,3.9-4.6,5.1l-1.5-1.6c1.6-0.9,3.3-2.6,4.2-4.2L222.7,148.8z M231,141.5
			c-2.9-1.7-4.2-3.1-4.8-3.8c-1.5,1.8-3.6,3.1-4.8,3.8H231z M234.3,153.9c-2-1.2-3.4-2.7-5-5.1l1.9-0.8c1,1.6,2.8,3.3,4.4,4.3
			L234.3,153.9z"/>
		<path class="st12" d="M242.2,138.8c-1.8,0.1-3.2,0.2-4.6,0.2l-0.5-1.8c6-0.1,8.5-0.5,10.9-1.2l0.7,1.8c-0.6,0.2-1.9,0.6-4.7,0.8
			v1.3h4.8v1.7h-1.4v1.7h1.7v1.6h-1.7v1.9h1.4v1.6h-3.5c1.3,1.9,2.5,2.8,4,3.6l-1.3,1.8c-0.9-0.7-2.6-1.9-4-4.6v5.6h-1.8v-5.5
			c-1.4,2.2-3,3.6-4.4,4.8l-1-1.8c0.7-0.5,2.4-1.6,4.2-3.9h-3.4v-1.6h1.4V145h-1.7v-1.6h1.7v-1.7h-1.4V140h4.7V138.8z M240.5,141.6
			v1.7h1.7v-1.7H240.5z M240.5,145v1.9h1.7V145H240.5z M243.9,141.6v1.7h1.7v-1.7H243.9z M243.9,145v1.9h1.7V145H243.9z
			 M249.6,137.2h2v12.9h-2V137.2z M253.2,136.1h2v17.2c0,1.7-1.3,1.7-1.8,1.7h-2.7l-0.4-2.2h2.4c0.2,0,0.5,0,0.5-0.5V136.1z"/>
		<path class="st12" d="M260.1,143.4c-0.9,0.8-1.5,1.3-2.1,1.7l-1.5-1.8c2.6-1.4,5.1-4.4,6-7.3l2.1,0.5c-0.7,1.9-1.8,4.2-4.4,6.7
			h12.4c0,2-0.1,7.3-0.8,9.9c-0.5,1.8-1.9,1.9-2.8,1.9h-3.1l-0.4-2.1h3.1c1.1,0,1.3-1,1.5-1.9c0.2-0.9,0.4-2.8,0.4-5.7H266
			c-0.5,5.4-3.3,8-7.5,9.8l-1.2-1.9c4.4-1.8,6.1-3.7,6.6-7.8h-3.7V143.4z M275,144.9c-1.7-1.1-5.1-4.7-6.5-8.4l2.1-0.6
			c1,2.5,3.2,5.6,5.9,7.3L275,144.9z"/>
		<path class="st12" d="M281.3,137.1c-0.7,2.7-0.8,5.6-0.8,8.4c0,2.7,0.2,5.4,0.7,8.1l-2.3,0.3c-0.5-2.8-0.6-5.7-0.6-8.5
			c0-2.8,0.1-5.7,0.7-8.5L281.3,137.1z M288.7,140.2v-3.4h2.2v3.4h3.8v2.1h-3.8l0.1,5.2c1.7,0.8,3.3,2.1,4.2,3l-1.5,1.9
			c-1.1-1.2-1.7-1.7-2.8-2.6c0,1.6-0.1,4-4,4c-4.3,0-4.5-3-4.5-3.5c0-2,1.7-3.8,4.5-3.8c0.2,0,0.9,0,1.8,0.2l-0.1-4.5h-6v-2.1H288.7
			z M288.9,148.8c-0.4-0.2-0.9-0.4-1.7-0.4c-1.6,0-2.5,0.7-2.5,1.8c0,0.3,0.1,1.6,2.3,1.6c1.9,0,1.9-0.8,1.9-1.7V148.8z"/>
	</g>
	<g class="st2">
		<path class="st12" d="M200.6,159.7c0,1.7-0.2,10.3-0.2,10.8c0,3.1,0.7,4.1,3.4,4.1c4.6,0,5.6-2.7,6.4-6.1l2.2,0.6
			c-0.5,2.3-1.6,7.6-8.3,7.6c-3,0-4.5-1-5.2-2.1c-0.8-1.3-0.8-3-0.8-6.6c0-1.8,0-4.5,0.1-8.4L200.6,159.7z"/>
		<path class="st12" d="M216.5,174.3c6.3,0,9.5-0.8,9.5-4.5c0-2-1.1-3.1-3.3-3.1c-1.9,0-6.3,0.9-8.4,1.4l-0.4-2.3
			c0.7-0.1,3.9-0.6,4.6-0.7c0.6-0.1,3-0.5,4.3-0.5c2.4,0,5.5,1.2,5.5,5.2c0,5.2-4.7,5.9-6.4,6.2c-1.4,0.2-3.2,0.3-5.1,0.3
			L216.5,174.3z"/>
		<path class="st12" d="M236.9,159.5c-0.1,0.9-0.2,1.7-0.4,3.6h2.4c4.1,0,4.3,3.6,4.3,5.6c0,0.8-0.1,3.9-1,6c-0.9,2-2.9,2-3.6,2
			c-1.1,0-2.4-0.2-3-0.2l-0.1-2.2c0.6,0.1,1.5,0.3,2.7,0.3c1.3,0,1.9-0.3,2.3-1.6c0.3-1,0.6-3.5,0.6-4.8c0-2.1-0.6-3-2.4-3l-2.5,0
			c-1.3,7.1-3,10.2-3.6,11.3l-2.3-0.9c2.3-3.7,3.2-8.4,3.6-10.4l-3.1,0v-2.2h3.4c0.2-1.5,0.3-2.6,0.4-3.7L236.9,159.5z M246.3,170.6
			c-0.5-5.5-2.2-7.5-3-8.3l1.7-1.1c1.1,1.1,3,3.2,3.6,9.1L246.3,170.6z"/>
		<path class="st12" d="M254.3,159.6c-0.4,1.5-0.5,2.6-0.8,4.5c1.3-1.8,3.1-2.9,5.2-2.9c2.7,0,5.3,2.3,5.3,7c0,5.7-2.8,8.6-11.2,8.6
			l-0.4-2.1c4.6-0.1,9.4-0.3,9.4-6.3c0-4.3-2-5-3.1-5c-0.7,0-3.8,0.3-5.4,5.4c0,1.7,0.1,2.2,0.2,2.9l-2.2,0.2c-0.1-1-0.2-1.6-0.2-3
			c0-0.9,0-5.3,0.8-9.4L254.3,159.6z"/>
		<path class="st12" d="M283.6,169.5c-0.4-0.6-0.7-1-1.7-1.9c-0.7,0.1-1.9,0.2-2.5,0.3v7c0,0.3,0.3,0.3,0.6,0.3h2.1
			c0.5,0,0.7,0,0.9-0.7c0.1-0.3,0.3-1.1,0.3-2.9l2.1,0.5c-0.3,3.7-0.7,5-2.8,5h-3c-0.9,0-2.2-0.1-2.2-1.4V168
			c-1.5,0.1-1.6,0.1-3.2,0.2c-0.3,5.6-2.2,8.1-6.7,9.5l-1.1-2c4.6-1.3,5.4-3.5,5.7-7.4c-1.7,0.1-4.3,0.2-5.1,0.2l-0.1-2.1
			c0.4,0,2.3,0,2.8,0c0.2-0.3,1.8-2.6,2.4-3.8h-5.8v-2h8.4v-1.9h2.1v1.9h8.4v2h-10.6c-0.7,1.2-1.9,3.1-2.4,3.7
			c3.6-0.1,4.2-0.1,7.6-0.4c-0.5-0.4-1-0.7-2-1.4l1.5-1.5c2.5,1.5,4.1,2.7,5.9,4.7L283.6,169.5z"/>
		<path class="st12" d="M287.9,159.3h16.2v1.7h-7.2v0.8h8v4.3h-2.1v-2.9h-5.9v4h-1.9v-4h-5.8v2.9H287v-4.3h7.9V161h-7V159.3z
			 M305.6,174.4c-0.1,1.9-0.4,3.1-1.8,3.1h-7c-1,0-2-0.1-2-1.4v-1.8H290v1.2h-2v-7.9h15.8v6.2L305.6,174.4z M290,171.6v1.2h4.9v-1.2
			H290z M290.1,169.1v1.1h4.8v-1.1H290.1z M290.1,164.1h4v1h-4V164.1z M290.1,165.9h4v1.1h-4V165.9z M296.9,169.1v1.1h4.9v-1.1
			H296.9z M296.9,171.6v1.2h4.9v-1.2H296.9z M296.9,174.3v0.7c0,0.4,0,0.6,0.5,0.6h5.4c0.6,0,0.7-0.1,0.8-1.3H296.9z M297.8,164.1h4
			v1h-4V164.1z M297.8,165.9h4v1.1h-4V165.9z"/>
	</g>
</g>
<path class="st4" d="M168.9,149.8c-19.6-59.6-44.7-73.2-61.7-73.6c-14-0.3-40.1,6.5-50.2,28.8v-0.5c8.2-18,26.3-36.7,50.2-36.2
	c35.5,0.8,59.8,43.1,69.6,78.4L168.9,149.8z"/>
<polygon class="st4" points="176,155.2 182.3,132.9 156.2,143.3 "/>
<polygon class="st4" points="400.6,111.2 402.6,88.1 378.8,103.2 "/>
<path class="st4" d="M392.3,104c-19.3-30.9-52.7-33.5-70.5-32c-28.4,2.3-55,14.5-61.2,26.8h-0.3c8.3-16.7,32.4-33,60.8-35.3
	c19.5-1.6,56.2,1.3,77.8,35.5L392.3,104z"/>
<g>
	<rect x="242" y="49.9" class="st10" width="4.4" height="2.1"/>
	<rect x="270.5" y="49.9" class="st10" width="4.4" height="2.1"/>
	<polygon class="st10" points="243.6,58.3 244.7,60.1 248.5,57.9 247.5,56.1 	"/>
	<polygon class="st10" points="273.3,43.6 272.2,41.8 268.4,44 269.4,45.8 	"/>
	<polygon class="st10" points="249.3,64.7 251.1,65.8 253.3,61.9 251.5,60.9 	"/>
	<polygon class="st10" points="267.6,37.2 265.8,36.1 263.6,40 265.4,41 	"/>
	<rect x="257.4" y="63" class="st10" width="2.1" height="4.4"/>
	<rect x="257.4" y="34.4" class="st10" width="2.1" height="4.4"/>
	<polygon class="st10" points="263.6,61.9 265.8,65.8 267.6,64.7 265.4,60.9 	"/>
	<polygon class="st10" points="253.3,40 251.1,36.1 249.3,37.2 251.5,41 	"/>
	<polygon class="st10" points="268.4,57.9 272.2,60.1 273.3,58.3 269.4,56.1 	"/>
	<polygon class="st10" points="248.5,44 244.7,41.8 243.6,43.6 247.5,45.8 	"/>
	<path class="st10" d="M258.5,40.9c-5.6,0-10.1,4.5-10.1,10.1s4.5,10,10.1,10s10.1-4.5,10.1-10.1C268.5,45.4,264,40.9,258.5,40.9z"
		/>
</g>
<g>
	<path class="st9" d="M35.1,57.1C28.4,57.1,23,51.7,23,45c0-3.2,1.3-6.1,3.3-8.3C19.9,37.6,15,43.1,15,49.8
		c0,7.3,5.9,13.3,13.3,13.3c5.1,0,9.5-2.9,11.7-7.1C38.5,56.7,36.8,57.1,35.1,57.1z"/>
	<path class="st9" d="M32.3,45.9c0.1,0.1,0.1,0.1,0.1,0.2L32,48.7c0,0.1,0,0.2,0.1,0.2c0.1,0.1,0.2,0.1,0.2,0l2.3-1.2
		c0.1,0,0.1,0,0.2,0l2.3,1.2c0.1,0,0.2,0,0.2,0c0.1-0.1,0.1-0.1,0.1-0.2L37,46.1c0-0.1,0-0.1,0.1-0.2l1.9-1.8c0,0,0-0.1,0-0.2
		s-0.1-0.1-0.2-0.2l-2.6-0.4c-0.1,0-0.1-0.1-0.2-0.1l-1.2-2.3c0-0.1-0.1-0.1-0.2-0.1c-0.1,0-0.2,0-0.2,0.1l-1.2,2.3
		c0,0.1-0.1,0.1-0.2,0.1l-2.6,0.4c-0.1,0-0.2,0.1-0.2,0.2c0,0.1,0,0.2,0.1,0.2L32.3,45.9z"/>
</g>
<g>
	<path class="st9" d="M500.8,57.1c-6.7,0-12.1-5.4-12.1-12.1c0-3.2,1.3-6.1,3.3-8.3c-6.4,0.9-11.4,6.4-11.4,13.1
		c0,7.3,5.9,13.3,13.3,13.3c5.1,0,9.5-2.9,11.7-7.1C504.2,56.7,502.5,57.1,500.8,57.1z"/>
	<path class="st9" d="M498,45.9c0.1,0.1,0.1,0.1,0.1,0.2l-0.4,2.6c0,0.1,0,0.2,0.1,0.2c0.1,0.1,0.2,0.1,0.2,0l2.3-1.2
		c0.1,0,0.1,0,0.2,0l2.3,1.2c0.1,0,0.2,0,0.2,0c0.1-0.1,0.1-0.1,0.1-0.2l-0.4-2.6c0-0.1,0-0.1,0.1-0.2l1.9-1.8
		c0.1-0.1,0.1-0.2,0.1-0.2c0-0.1-0.1-0.1-0.2-0.2l-2.6-0.4c-0.1,0-0.1-0.1-0.2-0.1l-1.2-2.3c0-0.1-0.1-0.1-0.2-0.1s-0.2,0-0.2,0.1
		l-1.2,2.3c0,0.1-0.1,0.1-0.2,0.1l-2.6,0.4c-0.1,0-0.2,0.1-0.2,0.2c0,0.1,0,0.2,0.1,0.2L498,45.9z"/>
</g>
</svg>
