<?xml version="1.0" encoding="utf-8"?>
<!-- Generator: Adobe Illustrator 21.0.0, SVG Export Plug-In . SVG Version: 6.00 Build 0)  -->
<svg version="1.1" id="レイヤー_1" xmlns="http://www.w3.org/2000/svg" xmlns:xlink="http://www.w3.org/1999/xlink" x="0px"
	 y="0px" viewBox="0 0 440.1 98.1" style="enable-background:new 0 0 440.1 98.1;" xml:space="preserve" width="300" height="68">
<style type="text/css">
	.st0{fill:url(#SVGID_1_);}
	.st1{fill:url(#SVGID_2_);}
	.st2{fill:url(#SVGID_3_);}
	.st3{fill:url(#SVGID_4_);}
	.st4{fill:url(#SVGID_5_);}
	.st5{fill:url(#SVGID_6_);}
	.st6{fill:url(#SVGID_7_);}
	.st7{fill:url(#SVGID_8_);}
	.st8{fill:url(#SVGID_9_);}
	.st9{fill:url(#SVGID_10_);}
	.st10{fill:url(#SVGID_11_);}
	.st11{fill:url(#SVGID_12_);}
	.st12{fill:url(#SVGID_13_);}
	.st13{fill:url(#SVGID_14_);}
	.st14{fill:url(#SVGID_15_);}
	.st15{fill:url(#SVGID_16_);}
	.st16{fill:url(#SVGID_17_);}
	.st17{fill:url(#SVGID_18_);}
	.st18{fill:url(#SVGID_19_);}
	.st19{fill:url(#SVGID_20_);}
	.st20{fill:url(#SVGID_21_);}
	.st21{fill:#4694D1;}
	.st22{fill:#727171;}
</style>
<g>
	<linearGradient id="SVGID_1_" gradientUnits="userSpaceOnUse" x1="15.3509" y1="21.6978" x2="76.9067" y2="21.6978">
		<stop  offset="0" style="stop-color:#D9E480"/>
		<stop  offset="1" style="stop-color:#00AA71"/>
	</linearGradient>
	<path class="st0" d="M44.5,14.4c12.3-1.3,23.9,3.5,32.4,12.2C69.4,15.7,57.2,9.2,44.1,10.6C31,12,20.4,20.8,15.4,33
		C21.9,22.8,32.2,15.7,44.5,14.4z"/>
	<linearGradient id="SVGID_2_" gradientUnits="userSpaceOnUse" x1="16.3555" y1="36.1591" x2="28.4124" y2="93.2706">
		<stop  offset="0" style="stop-color:#7ECEF4"/>
		<stop  offset="1" style="stop-color:#4694D1"/>
	</linearGradient>
	<path class="st1" d="M6.8,46.9c2-14.5,10.8-26.6,23.1-33.9C15.4,18.5,4.6,30.8,2.4,46.2c-2.1,15.5,5,30.2,17.4,39.5
		C10,75.4,4.8,61.4,6.8,46.9z"/>
	<linearGradient id="SVGID_3_" gradientUnits="userSpaceOnUse" x1="-11.2853" y1="58.2575" x2="66.9784" y2="114.0998">
		<stop  offset="0" style="stop-color:#7ECEF4"/>
		<stop  offset="1" style="stop-color:#4694D1"/>
	</linearGradient>
	<path class="st2" d="M13.3,84.3C4.7,75.6,0.5,64.5,0.6,53.9C-1.6,64.8,2,77.1,11.1,86.4c9.1,9.2,21.4,13,32.4,11
		C32.9,97.4,21.8,92.9,13.3,84.3z"/>
	<linearGradient id="SVGID_4_" gradientUnits="userSpaceOnUse" x1="9.8195" y1="51.8664" x2="48.0779" y2="51.8664">
		<stop  offset="0" style="stop-color:#D9E480"/>
		<stop  offset="1" style="stop-color:#00AA71"/>
	</linearGradient>
	<path class="st3" d="M17.1,74.5c-5-8.6-6.2-18.7-3.6-28.3c4.4-16.1,18.7-26.9,34.6-27.5c-0.7,0-1.4-0.1-2.1-0.1
		c-20,0-36.2,16.2-36.2,36.2c0,12.6,6.5,23.7,16.3,30.2C22.5,82.2,19.5,78.6,17.1,74.5z"/>
	<g>
		<linearGradient id="SVGID_5_" gradientUnits="userSpaceOnUse" x1="48.8495" y1="73.647" x2="26.2164" y2="47.4179">
			<stop  offset="0" style="stop-color:#7ECEF4"/>
			<stop  offset="1" style="stop-color:#4694D1"/>
		</linearGradient>
		<path class="st4" d="M45,68.6l3.2-12l-18.6-5c-1.2,5-1.5,10.1-0.9,15.1C34,66.5,39.5,67.2,45,68.6z"/>
		<linearGradient id="SVGID_6_" gradientUnits="userSpaceOnUse" x1="69.3052" y1="55.9958" x2="46.672" y2="29.7668">
			<stop  offset="0" style="stop-color:#7ECEF4"/>
			<stop  offset="1" style="stop-color:#4694D1"/>
		</linearGradient>
		<path class="st5" d="M36.7,33.6c4.8-5.7,10.9-10.1,17.8-12.4c-9.1-1.3-18.1,1-25.3,6C31.3,29.5,33.9,31.7,36.7,33.6z"/>
		<linearGradient id="SVGID_7_" gradientUnits="userSpaceOnUse" x1="40.4622" y1="80.8846" x2="17.829" y2="54.6555">
			<stop  offset="0" style="stop-color:#7ECEF4"/>
			<stop  offset="1" style="stop-color:#4694D1"/>
		</linearGradient>
		<path class="st6" d="M15.3,47.7c-1.7,7-1.2,14.2,1.4,20.9c3.1-1,6.6-1.6,10.2-1.8c-0.6-5.1-0.3-10.4,1-15.6L15.3,47.7z"/>
		<linearGradient id="SVGID_8_" gradientUnits="userSpaceOnUse" x1="52.0022" y1="70.9264" x2="29.3692" y2="44.6974">
			<stop  offset="0" style="stop-color:#7ECEF4"/>
			<stop  offset="1" style="stop-color:#4694D1"/>
		</linearGradient>
		<path class="st7" d="M35.5,35.1c-3-2-5.7-4.3-7.9-6.7c-5.4,4.3-9.6,10.2-11.8,17.3l12.6,3.4C30,44,32.4,39.2,35.5,35.1z"/>
		<linearGradient id="SVGID_9_" gradientUnits="userSpaceOnUse" x1="58.0339" y1="65.7218" x2="35.4008" y2="39.4927">
			<stop  offset="0" style="stop-color:#7ECEF4"/>
			<stop  offset="1" style="stop-color:#4694D1"/>
		</linearGradient>
		<path class="st8" d="M52,42.7c-5.5-1.6-10.6-3.8-15-6.6c-3,4-5.3,8.5-6.8,13.5l18.6,5L52,42.7z"/>
		<linearGradient id="SVGID_10_" gradientUnits="userSpaceOnUse" x1="74.0727" y1="51.8818" x2="51.4397" y2="25.6528">
			<stop  offset="0" style="stop-color:#7ECEF4"/>
			<stop  offset="1" style="stop-color:#4694D1"/>
		</linearGradient>
		<path class="st9" d="M69.5,43c-1.3-7.6-4.8-14.7-10-20l-5,18.3C59.6,42.6,64.7,43.1,69.5,43z"/>
		<linearGradient id="SVGID_11_" gradientUnits="userSpaceOnUse" x1="70.7034" y1="54.789" x2="48.0703" y2="28.5601">
			<stop  offset="0" style="stop-color:#7ECEF4"/>
			<stop  offset="1" style="stop-color:#4694D1"/>
		</linearGradient>
		<path class="st10" d="M57.5,22.2c-7.4,1.9-14.1,6.3-19.2,12.3c4.2,2.6,9,4.7,14.2,6.2L57.5,22.2z"/>
		<linearGradient id="SVGID_12_" gradientUnits="userSpaceOnUse" x1="80.4048" y1="46.4178" x2="57.7717" y2="20.1888">
			<stop  offset="0" style="stop-color:#7ECEF4"/>
			<stop  offset="1" style="stop-color:#4694D1"/>
		</linearGradient>
		<path class="st11" d="M79.7,41.7c-2.5-6.4-6.7-11.9-12.1-15.9c-1.7-1-3.5-1.9-5.4-2.6c4.8,5.5,7.9,12.4,9.2,19.8
			C74.3,42.8,77.1,42.4,79.7,41.7z"/>
		<g>
			<linearGradient id="SVGID_13_" gradientUnits="userSpaceOnUse" x1="67.0848" y1="57.9117" x2="44.4517" y2="31.6828">
				<stop  offset="0" style="stop-color:#7ECEF4"/>
				<stop  offset="1" style="stop-color:#4694D1"/>
			</linearGradient>
			<path class="st12" d="M68.6,60c0.1,0,0.3-0.1,0.4-0.1c0,0,0,0,0,0c1.2-5,1.5-10,0.9-14.9c-5.1,0.1-10.5-0.5-15.8-1.8l-3.2,12
				L68.6,60C68.6,60,68.6,60,68.6,60z"/>
			<linearGradient id="SVGID_14_" gradientUnits="userSpaceOnUse" x1="49.9172" y1="72.7263" x2="27.2821" y2="46.495">
				<stop  offset="0" style="stop-color:#7ECEF4"/>
				<stop  offset="1" style="stop-color:#4694D1"/>
			</linearGradient>
			<path class="st13" d="M46.6,67.9c-0.4,0.2-0.7,0.4-1.1,0.6C45.9,68.4,46.2,68.1,46.6,67.9z"/>
			<linearGradient id="SVGID_15_" gradientUnits="userSpaceOnUse" x1="75.1745" y1="50.9311" x2="52.5414" y2="24.702">
				<stop  offset="0" style="stop-color:#7ECEF4"/>
				<stop  offset="1" style="stop-color:#4694D1"/>
			</linearGradient>
			<path class="st14" d="M71,59.4c4.4-1,8.2-1.8,10.8-2.8c0.1,0,0.2-0.1,0.3-0.1c0-0.6,0-1.1,0-1.7c0-3.9-0.6-7.7-1.8-11.3
				c-2.7,0.7-5.6,1.2-8.6,1.4C72.3,49.7,72.1,54.6,71,59.4z"/>
			<linearGradient id="SVGID_16_" gradientUnits="userSpaceOnUse" x1="57.5748" y1="66.1179" x2="34.9417" y2="39.8888">
				<stop  offset="0" style="stop-color:#7ECEF4"/>
				<stop  offset="1" style="stop-color:#4694D1"/>
			</linearGradient>
			<path class="st15" d="M64.4,61l-14.2-3.8l-2.8,10.3C53,64.4,58.9,62.5,64.4,61z"/>
			<linearGradient id="SVGID_17_" gradientUnits="userSpaceOnUse" x1="35.0073" y1="85.5915" x2="12.3742" y2="59.3624">
				<stop  offset="0" style="stop-color:#7ECEF4"/>
				<stop  offset="1" style="stop-color:#4694D1"/>
			</linearGradient>
			<path class="st16" d="M27.1,68.9c-3.5,0.2-6.7,0.8-9.7,1.7c0.5,1,0.9,2,1.5,2.9c3.9,6.8,9.8,11.9,16.8,14.9c0,0,0,0,0,0
				C35.7,88.2,29.1,81.7,27.1,68.9z"/>
			<linearGradient id="SVGID_18_" gradientUnits="userSpaceOnUse" x1="41.455" y1="80.0276" x2="18.8219" y2="53.7986">
				<stop  offset="0" style="stop-color:#7ECEF4"/>
				<stop  offset="1" style="stop-color:#4694D1"/>
			</linearGradient>
			<path class="st17" d="M35.1,84.1c0.1-3.8,1.8-9,7.9-13.7l0,0c-4.7-1.1-9.5-1.6-14-1.5C30,74.4,32,79.6,35.1,84.1L35.1,84.1z"/>
			<linearGradient id="SVGID_19_" gradientUnits="userSpaceOnUse" x1="48.7862" y1="73.7052" x2="26.1431" y2="47.4647">
				<stop  offset="0" style="stop-color:#7ECEF4"/>
				<stop  offset="1" style="stop-color:#4694D1"/>
			</linearGradient>
			<path class="st18" d="M44.6,69.2c0.1-0.1,0.3-0.2,0.4-0.3C44.8,69,44.7,69.1,44.6,69.2z"/>
			<linearGradient id="SVGID_20_" gradientUnits="userSpaceOnUse" x1="47.8947" y1="74.4802" x2="25.236" y2="48.2214">
				<stop  offset="0" style="stop-color:#7ECEF4"/>
				<stop  offset="1" style="stop-color:#4694D1"/>
			</linearGradient>
			<path class="st19" d="M43.7,69.8c0.1,0,0.1-0.1,0.2-0.1C43.8,69.7,43.8,69.8,43.7,69.8z"/>
		</g>
	</g>
	<g>
		
			<linearGradient id="SVGID_21_" gradientUnits="userSpaceOnUse" x1="-86.3106" y1="642.4033" x2="-85.4805" y2="642.4033" gradientTransform="matrix(-75.8478 21.967 -21.3199 -58.3972 7249.5327 39477.9336)">
			<stop  offset="0" style="stop-color:#D9E480"/>
			<stop  offset="1" style="stop-color:#00AA71"/>
		</linearGradient>
		<path class="st20" d="M49.1,69.7c12.9-7.5,28.2-8.6,35.2-11.2c7.1-2.7,9.5-6.7,9.5-6.7S92.5,89.6,54.3,98c-4.5,0.4-7-0.3-8.3-1.3
			c-0.1-2.9,0.1-6.5,1.5-10c0.8-2,2.1-3.9,3.9-5.4c1.9-1.8,3.6-3.2,5.4-4.4c3.5-2.4,6.7-3.6,7.7-4.1c1-0.4,2.8-1.2,5.1-2.1
			c2.2-0.8,4.9-2,7.1-3.2c4.6-2.4,8.4-5,8.4-5c0,0-4.1,2.2-8.9,4.2c-2.4,1.1-4.9,1.9-7.3,2.6c-2.3,0.7-4.2,1.4-5.3,1.9
			c-2,0.9-13.9,5.2-19.1,14.8c-1.1,2.4-1.7,4.8-2,7c-1.5-0.3-3.4-1.1-4.1-2.9C37,87,36.2,77.1,49.1,69.7z"/>
	</g>
</g>
<g>
	<path class="st21" d="M128,72.7h-23.5V33.6h22.6v7.2h-13.8v8.7h12.8v7.2h-12.8v9H128V72.7z"/>
	<path class="st21" d="M156.4,72.7h-8.2v-4h-0.1c-1.9,3.1-4.6,4.7-8.3,4.7c-2.7,0-4.8-0.8-6.4-2.3c-1.6-1.5-2.3-3.6-2.3-6.2
		c0-5.4,3.2-8.6,9.6-9.4l7.6-1c0-3.1-1.7-4.6-5-4.6c-3.3,0-6.5,1-9.5,3v-6.5c1.2-0.6,2.8-1.2,4.9-1.6c2.1-0.5,4-0.7,5.7-0.7
		c8,0,12,4,12,11.9V72.7z M148.3,61.4v-1.9l-5.1,0.7c-2.8,0.4-4.2,1.6-4.2,3.8c0,1,0.3,1.8,1,2.4c0.7,0.6,1.6,0.9,2.8,0.9
		c1.6,0,2.9-0.6,4-1.7C147.8,64.5,148.3,63.1,148.3,61.4z"/>
	<path class="st21" d="M180.1,52.5c-1-0.6-2.2-0.8-3.6-0.8c-1.9,0-3.3,0.7-4.4,2.1c-1.1,1.4-1.6,3.2-1.6,5.6v13.3h-8.6v-28h8.6V50
		h0.1c1.4-3.8,3.8-5.7,7.4-5.7c0.9,0,1.6,0.1,2.1,0.3V52.5z"/>
	<path class="st21" d="M203,72.4c-1.3,0.7-3.2,1-5.8,1c-6.1,0-9.1-3.2-9.1-9.5V51.1h-4.5v-6.4h4.5v-6l8.6-2.5v8.5h6.3v6.4h-6.3v11.3
		c0,2.9,1.2,4.4,3.5,4.4c0.9,0,1.8-0.3,2.8-0.8V72.4z"/>
	<path class="st21" d="M234.4,72.7h-8.6V56.8c0-4.1-1.5-6.1-4.5-6.1c-1.5,0-2.8,0.6-3.7,1.7c-0.9,1.1-1.4,2.6-1.4,4.4v15.9h-8.6
		V31.3h8.6v17.6h0.1c2.1-3.2,5-4.8,8.6-4.8c6.3,0,9.5,3.8,9.5,11.5V72.7z"/>
	<path class="st22" d="M272.2,61.2H254c0.3,4.1,2.8,6.1,7.7,6.1c3.1,0,5.8-0.7,8.1-2.2v6.2c-2.6,1.4-5.9,2.1-10.1,2.1
		c-4.5,0-8-1.3-10.5-3.8c-2.5-2.5-3.7-6-3.7-10.5c0-4.6,1.3-8.3,4-11c2.7-2.7,6-4.1,9.9-4.1c4.1,0,7.2,1.2,9.5,3.6
		c2.2,2.4,3.3,5.7,3.3,9.9V61.2z M264.2,55.9c0-4-1.6-6-4.9-6c-1.4,0-2.6,0.6-3.6,1.7c-1,1.1-1.6,2.6-1.8,4.3H264.2z"/>
	<path class="st22" d="M297.1,71.7c-1.9,1.1-4.8,1.7-8.4,1.7c-4.3,0-7.8-1.3-10.4-3.9c-2.7-2.6-4-6-4-10.1c0-4.7,1.4-8.5,4.3-11.2
		c2.8-2.7,6.7-4.1,11.4-4.1c3.3,0,5.7,0.4,7.2,1.3v7.3c-1.8-1.3-3.8-2-6-2c-2.5,0-4.4,0.7-5.9,2.2c-1.4,1.4-2.2,3.4-2.2,6
		c0,2.5,0.7,4.4,2.1,5.8c1.4,1.4,3.3,2.1,5.7,2.1c2.1,0,4.2-0.7,6.3-2V71.7z"/>
	<path class="st22" d="M314.7,73.4c-4.7,0-8.3-1.3-11-3.9c-2.7-2.6-4-6.2-4-10.6c0-4.6,1.4-8.2,4.1-10.9c2.8-2.6,6.5-3.9,11.2-3.9
		c4.6,0,8.3,1.3,10.9,3.9c2.6,2.6,4,6.1,4,10.4c0,4.6-1.4,8.3-4.1,11C323.2,72.1,319.4,73.4,314.7,73.4z M314.9,50.7
		c-2,0-3.6,0.7-4.7,2.1c-1.1,1.4-1.7,3.4-1.7,6c0,5.4,2.2,8.1,6.5,8.1c4.1,0,6.2-2.8,6.2-8.3C321.2,53.3,319.1,50.7,314.9,50.7z"/>
	<path class="st22" d="M341.7,72.7H333V31.3h8.6V72.7z"/>
	<path class="st22" d="M359.7,73.4c-4.7,0-8.3-1.3-11-3.9c-2.7-2.6-4-6.2-4-10.6c0-4.6,1.4-8.2,4.1-10.9c2.8-2.6,6.5-3.9,11.2-3.9
		c4.6,0,8.3,1.3,10.9,3.9c2.6,2.6,4,6.1,4,10.4c0,4.6-1.4,8.3-4.1,11C368.2,72.1,364.5,73.4,359.7,73.4z M360,50.7
		c-2,0-3.6,0.7-4.7,2.1c-1.1,1.4-1.7,3.4-1.7,6c0,5.4,2.2,8.1,6.5,8.1c4.1,0,6.2-2.8,6.2-8.3C366.2,53.3,364.1,50.7,360,50.7z"/>
	<path class="st22" d="M406.6,69.5c0,5.2-1.5,9.2-4.5,12.1c-3,2.8-7.4,4.3-13,4.3c-3.8,0-6.8-0.5-9-1.6V77c2.9,1.7,5.8,2.5,8.7,2.5
		c2.9,0,5.2-0.8,6.8-2.3c1.6-1.5,2.4-3.6,2.4-6.3v-2.2h-0.1c-2,3.1-4.9,4.7-8.7,4.7c-3.6,0-6.4-1.3-8.5-3.8
		c-2.1-2.5-3.1-5.9-3.1-10.1c0-4.7,1.2-8.5,3.5-11.3c2.3-2.8,5.4-4.2,9.2-4.2c3.4,0,6,1.3,7.6,3.9h0.1v-3.2h8.6V69.5z M398.1,59.3
		v-2.2c0-1.8-0.5-3.3-1.6-4.5c-1-1.2-2.4-1.9-4.1-1.9c-1.9,0-3.4,0.7-4.5,2.2c-1.1,1.5-1.6,3.6-1.6,6.3c0,2.3,0.5,4.2,1.6,5.5
		c1,1.4,2.5,2,4.3,2c1.8,0,3.2-0.7,4.3-2.1C397.5,63.4,398.1,61.5,398.1,59.3z"/>
	<path class="st22" d="M440.1,44.8L428.8,75c-2.7,7.3-6.8,10.9-12.3,10.9c-2.1,0-3.8-0.2-5.2-0.7v-6.9c1.1,0.7,2.4,1,3.7,1
		c2.2,0,3.8-1,4.6-3.1l1.5-3.5l-11.4-27.9h9.6l5.2,17c0.3,1.1,0.6,2.3,0.8,3.7h0.1c0.2-1.1,0.5-2.3,0.9-3.7l5.3-17.1H440.1z"/>
</g>
<g>
	<path class="st21" d="M110.9,14.2c-0.1,0.4-1.6,5.5-3.4,8.1l-2.5-2.5c1.8-2.7,2.9-6.1,3.2-7.3L110.9,14.2z M109.1,8.1
		c-0.8-0.9-2.5-2.5-3.8-3.4l2.1-2.3c1.9,1.2,2.9,2,4.1,3.2L109.1,8.1z M116.2,9.1h3.4v2.4c0,0.8,0.8,3.2,1.8,4.8
		c1.4,2.2,4,3.2,4.9,3.5l-1.8,3.2c-2.4-0.9-5-2.9-6.4-6.4c-0.4,1.3-1.6,4.4-7.3,6.5l-1.9-3.2c1.5-0.4,7.1-1.6,7.1-8.1V9.1z
		 M117.5,2.3c-0.2,0.6-0.4,1.3-0.8,2.5h9.1v3.1c-0.5,1.9-1.1,3.6-2.5,6l-2.9-1.7c0.4-0.6,1.5-2.3,2-4.3h-7.2c-1,1.9-2.1,3.4-3.4,4.6
		l-2.6-2.4c3-2.5,4.3-6.3,4.8-8.3L117.5,2.3z"/>
	<path class="st21" d="M147.6,21.8h-14.4v0.9h-3.4v-13h-2.5V6.6h2.5V2.2h3.4v4.4h2.9V1.9h3.3v4.7h2.9V1.9h3.3v4.7h2.6v3.2h-2.6v6.9
		H136V9.8h-2.9v8.9h14.4V21.8z M139.3,13.6h2.9V9.8h-2.9V13.6z"/>
	<path class="st21" d="M151.2,13.3c-0.5,0.6-0.7,0.9-1.3,1.3l-1.1-4.4c2.1-2.5,3.1-4.8,3.6-8.1l3.4,0.2c-0.2,1-0.6,2.8-1.3,4.9v15.7
		h-3.3V13.3z M159.5,7.6c-0.3-2.6-0.3-4.5-0.3-5.6h3.4c0,1,0.1,2.8,0.3,5.4l3.8-0.3c-1.1-1.3-2.6-2.7-3.3-3.2l2.1-2
		c1,0.7,2.3,1.7,3.7,3.3l-2,1.9l2.6-0.2l0.2,3.1l-6.6,0.5c1.1,7.7,2.9,8.4,3.1,8.4c0.4,0,0.7-0.8,0.8-1.1c0.1-0.3,0.4-1.5,0.5-1.8
		l2.5,2.3c-1.3,4.5-2.8,4.7-3.7,4.7c-4.8,0-6.2-8.6-6.7-12.2l-4.5,0.4l-0.2-3.1L159.5,7.6z"/>
	<path class="st21" d="M176.7,3.2c-0.2,1.3-0.9,5.1-0.9,10.5c0,2.6,0.2,5.3,0.7,7.9l-3.6,0.3c-0.2-1.1-0.6-3.3-0.6-7.4
		c0-4.9,0.5-9.6,0.8-11.6L176.7,3.2z M182.5,13.2c-0.8,1-1,1.8-1,2.5c0,1.5,1.7,1.8,3.8,1.8c1.6,0,3.6-0.1,5.2-0.3l0.1,3.6
		c-0.6,0.1-1.8,0.2-4,0.2c-3.6,0-8.4-0.2-8.4-4.6c0-0.6,0-2.2,1.4-4.4L182.5,13.2z M190.1,4.4v3.4h-11.3V4.4H190.1z"/>
	<path class="st21" d="M194.9,15.1c0,1.9-0.2,4.8-0.7,6.6l-2.1-1.5c0.4-1.4,0.6-2.4,0.7-5.3L194.9,15.1z M200.6,13.8l-1.6,0.5
		c0-0.3-0.1-0.6-0.1-0.8c-0.1,0-0.5,0.1-0.8,0.1v9.2h-2.6v-8.9c-0.5,0-2.6,0.3-2.9,0.3l-0.3-3c0.5,0,0.8,0,1.3,0
		c0.4-0.5,0.8-1.1,1-1.4c-1.1-1.5-2-2.2-2.5-2.5l1.3-2.8c0.3,0.2,0.4,0.3,0.5,0.4c0.6-1.1,1-1.9,1.4-2.9l2.7,0.6
		c-0.5,1.3-1.4,2.7-2.3,4.1c0.2,0.2,0.3,0.3,0.6,0.7c1.1-1.7,1.6-2.6,1.9-3.2l2.2,0.9V3.3h4.7V2h3.1v1.3h5v2.8h-5v1.1h4.3v2.5H201
		V7.1h4V6.1h-4.7V5.7c-1.1,1.9-2.4,3.7-3.8,5.4c0.4,0,1.5-0.1,1.7-0.1c-0.1-0.4-0.3-1-0.4-1.3l1.9-0.7c0.3,0.6,0.5,1,0.9,2.4v-0.6
		h12.1v4.6h-2.9v-2.1h-6.4V14h2.3c-0.1,4.7-0.9,6.8-4.4,8.8l-1.9-2.7c2.4-0.9,3.3-2.3,3.4-4.9h-2.2V13.8z M200.4,14.7
		c0.4,1.7,0.5,3.8,0.5,4.6l-2.1,0.4c0-1.7-0.1-3.2-0.4-4.6L200.4,14.7z M206.5,14h3v5.1c0,0.5,0.1,0.5,0.4,0.5h0.6
		c0.3,0,0.4-0.1,0.4-0.4c0-0.4,0.1-2.1,0.1-2.2l2.4,0.7c0,3.5-0.2,4.9-1.9,4.9h-3.1c-1.7,0-1.7-1.4-1.7-1.9V14z"/>
	<path class="st21" d="M227.7,22.4c-3.3-2.7-6.5-4.8-9.3-6.6c-2.1-1.3-3.3-2.1-3.3-3.5c0-1.1,0.7-1.7,2.5-3.3
		c4.1-3.6,5.7-5.1,7.4-6.8l3.9,2c-3.3,2.9-7.2,5.9-8.6,6.9c-0.4,0.3-0.9,0.6-0.9,1c0,0.4,0.4,0.6,1.1,1c2.1,1.1,7.8,4.2,10.6,6.6
		L227.7,22.4z"/>
	<path class="st21" d="M234.5,13.3c-0.5,0.6-0.7,0.8-1.1,1.1l-0.9-4.7c1.9-2.2,2.9-5.3,3.3-7.9l3.2,0.3c-0.1,0.9-0.4,2.9-1.3,5.6
		v15.1h-3.2V13.3z M245.6,5.7c-1.1-0.9-2-1.4-3.4-2.2l3.3-1.9c1.4,0.8,3.1,2,4.2,2.8l-2.1,1.3h5.9v3.1H248v3.4h4.7v3.1H248v3.8h5.8
		v3.1h-15.1v-3.1h5.9v-3.8h-4.6v-3.1h4.6V8.8h-5.4V5.7H245.6z"/>
	<path class="st21" d="M258.7,19.9c-1.2,0.4-2.4,0.8-3.7,1.1l-0.3-3.5c0.5-0.1,0.9-0.1,1.8-0.3v-4.6h-1.3V9.5h1.3V5.9h-1.5V2.8h6
		v3.1h-1.5v3.6h1.1v3.1h-1.1v3.8c0.8-0.2,1.1-0.3,1.5-0.4l0.1,2.7c2-0.8,2.9-1.6,3.5-2H262v-4.9h12.9v4.9h-0.3l1.4,1
		c-0.6,0.6-0.7,0.7-1.8,1.6c1,0.4,1.4,0.6,1.8,0.7l-1.5,2.8c-3.6-1.6-5-3.1-5.9-4.1v4h-3.2v-3.2c-2.2,1.6-4.2,2.5-5.1,2.9
		L258.7,19.9z M275.8,8.7v2.4H261V8.7H275.8z M275.3,2.5V8h-13.7V2.5H275.3z M264.4,4.6v1.5h1.3V4.6H264.4z M265,13.7v1.2h6.8v-1.2
		H265z M267.8,4.6v1.5h1.3V4.6H267.8z M269.9,16.7c0.4,0.3,0.9,0.7,1.8,1.3c0.7-0.6,1-0.9,1.5-1.3H269.9z M271.2,4.6v1.5h1.4V4.6
		H271.2z"/>
	<path class="st21" d="M276.6,16.9c0.6-0.1,1.1-0.2,2.2-0.5v-6.2h-1.9V7h1.9V2h3.2V7h1.3v3.2H282v5.2c0.4-0.1,0.6-0.2,1.5-0.6l0.2,3
		c-2.4,1.2-4.3,1.9-6.6,2.5L276.6,16.9z M296.9,10.3v7h-3.3v2c0,0.5,0,0.7,0.5,0.7h0.4c0.6,0,0.6,0,0.7-1.9l2.6,0.5
		c-0.2,3.3-0.5,4.2-2.4,4.2h-2.8c-2,0-2-1.1-2-2.1v-3.4h-1.2c-0.2,2.5-1.5,4.6-6,5.7l-1.5-2.9c2.5-0.4,4.1-0.9,4.5-2.8h-2v-7H296.9z
		 M284.3,3.2h4.7V2h3.3v1.3h5.1v2.5h-1.7c-0.1,0.6-0.2,0.8-0.4,1.3h2.5v2.5h-14.2V7h2.4c-0.2-0.9-0.2-1-0.3-1.3h-1.5V3.2z
		 M287.6,12.2v0.9h6.2v-0.9H287.6z M287.6,14.5v0.9h6.2v-0.9H287.6z M288.9,5.8c0,0.2,0.2,0.9,0.3,1.3h2.9c0.1-0.3,0.2-0.5,0.3-1.3
		H288.9z"/>
	<path class="st21" d="M308.3,18.7c2.4-0.2,7.3-0.6,7.3-6.5c0-3.7-2.1-5.2-4.6-5.4c-0.1,1.9-0.9,13.4-6.8,13.4c-3,0-4.8-3-4.8-6.5
		c0-4.9,3.4-10.2,10.7-10.2c5.1,0,9.3,2.8,9.3,9c0,2.5-0.7,5.1-3,7.1c-2.2,1.9-5.5,2.2-6.7,2.4L308.3,18.7z M302.8,13.7
		c0,0.8,0.2,2.8,1.5,2.8c1.7,0,2.9-4.3,3.3-9.6C302.8,8.3,302.8,13.1,302.8,13.7z"/>
	<path class="st21" d="M337,2.4c1.8,1.3,3.5,3.5,4.7,5.8l-3,1.7c-0.8-1.4-1.8-3.2-3.2-4.7v2.9h-4.8V10c0.6-0.1,1.3-0.2,2.7-0.2
		c3.2,0,4.6,0.9,5.5,1.6c1.6,1.5,1.8,3.6,1.8,4.5c0,6.1-7.1,6.1-9,6.1l-0.7-3c2.3,0,6.2,0,6.2-3.3c0-2.8-2.8-3-3.9-3
		c-1,0-2,0.2-2.6,0.3v5.3c0,2.8-2.4,3.3-3.9,3.3c-3.6,0-4.9-2.8-4.9-4.5c0-4.1,4.2-5.8,5.5-6.4V8.2h-5.1V5h5.1V2.8h3.3V5h4.5
		c-0.2-0.2-0.4-0.3-0.8-0.7L337,2.4z M327.3,14c-0.6,0.3-2.2,1.1-2.2,2.9c0,1.1,0.8,1.5,1.3,1.5c0.9,0,0.9-0.5,0.9-0.9V14z"/>
	<path class="st21" d="M351.6,6c-1.1,0-6.3,0.2-7.5,0.2L343.5,3c0.8,0,1.5,0.1,2.4,0.1c4.2,0,11.6-0.4,15.5-1.3l1.3,3.1
		c-3.5,0.5-5.7,0.8-7.7,0.9v2.1h7.5V11h-7.5v2h8.6v3.1h-8.6v4.2c0,2.1-1.6,2.5-2.3,2.5h-5.2l-0.6-3.3h4c0.4,0,0.7,0,0.7-0.5v-2.8
		h-8.8V13h8.8v-2H344V7.9h7.6V6z"/>
	<path class="st21" d="M366.4,13.3c-0.3,0.4-0.5,0.6-1,1.2l-0.8-4.6c1.8-2.2,2.9-5.5,3.1-7.9l3.3,0.3c-0.1,1-0.4,2.8-1.3,5.4v15.3
		h-3.2V13.3z M382.4,23c-0.1-0.5-0.2-0.9-0.3-1.6c-3.8,0.5-6.9,0.8-11.3,1l-0.4-3.2c1.2,0,1.6,0,2.1-0.1c0.8-2.4,1.6-4.7,1.9-7h-3.6
		V9h15v3.2h-7.9c-0.4,2.1-0.9,3.9-2,6.8c1.6-0.1,3.9-0.2,5.4-0.5c-0.6-2.1-1.2-3.4-1.6-4.1l2.9-1.1c1.3,2.3,2.6,6,3.2,8.7L382.4,23z
		 M385,2.8V6h-13.5V2.8H385z"/>
	<path class="st21" d="M391.7,3.9c-0.4,2.3-0.6,4.4-0.6,6.7c0,2,0.2,6.8,1.9,6.8c1.1,0,2.1-2.3,2.7-4.1l2.9,1.7
		c-0.7,1.9-2.4,6.5-5.8,6.5c-4.6,0-5.2-7.5-5.2-11.2c0-2.3,0.2-5,0.4-6.7L391.7,3.9z M403.2,19.4c0-0.4,0-0.9,0-1.6
		c0-7.5-2.5-10.7-3.9-11.9l2.8-1.9c2,2,5,5.1,4.8,15.1L403.2,19.4z"/>
</g>
</svg>
