<?xml version="1.0" encoding="utf-8"?>
<!-- Generator: Adobe Illustrator 21.0.0, SVG Export Plug-In . SVG Version: 6.00 Build 0)  -->
<svg version="1.1" id="レイヤー_1" xmlns="http://www.w3.org/2000/svg" xmlns:xlink="http://www.w3.org/1999/xlink" x="0px" y="0px" viewBox="0 0 35 35" style="enable-background:new 0 0 35 35;" xml:space="preserve"  width="25" height="25">
<style type="text/css">
	.st0{fill:#FFFFFF;}
</style>
<g id="電話アイコン_3_">
	<g>
		<path class="st0" d="M20.9,34.3c2.8-0.1,4.8-1.1,6.2-3.2c0.5-0.7,0.5-1.5-0.2-2.1c-1-0.9-2-1.6-3.1-2.5c-1-0.7-2.1-1.6-3.2-2.3
			c-0.9-0.5-1.4-0.5-2.1,0.1c-0.6,0.5-1.2,1.1-1.9,1.7c-0.5,0.5-0.6,0.5-1,0c-0.9-0.9-1.7-1.9-2.6-2.7c-2.2-2.2-3.8-5.1-5.6-7.8
			c-0.2-0.4-0.2-0.6,0.2-0.9c0.6-0.4,1.4-0.9,2-1.2c1-0.6,1.2-1.1,0.7-2.2c-1-2.5-2-4.8-3.1-7.2c-0.4-0.9-1-1.1-1.9-0.7
			C3.5,4,2,5.3,1.2,7.3C0.5,9,0.7,10.8,1.1,12.4c0.7,4,2.5,7.7,4.6,11.1c1.4,2.3,3.5,4,5.6,5.7c2.1,1.7,4.3,3.3,6.9,4.2
			C19.2,33.8,20.3,34,20.9,34.3z M18.3,0.6c0,0.5,0,1-0.1,1.5c0,0.4,0,0.5,0.5,0.6c6.4,1.6,10.9,5.6,13,11.9
			c0.4,1.1,0.6,2.3,0.9,3.7c0.6,0,1.2,0,1.9,0C34,10.5,27.8,2.2,18.3,0.6z M17.8,8.4c0.1,0,0.1,0.1,0.1,0.1c4.8,1.2,7.8,4.2,8.5,9.3
			c0,0.1,0.1,0.4,0.2,0.4c0.6,0,1.2,0,1.9,0c-0.5-7-6.3-11.4-10.6-11.6C17.9,7.2,17.9,7.8,17.8,8.4z M22.9,17.9
			c0.1-2.7-2.5-5.6-5.2-5.8c0,0.6-0.1,1.2-0.1,2c2,0.5,3.1,1.9,3.5,3.8C21.5,17.9,22.1,17.9,22.9,17.9z"/>
		<path class="st0" d="M20.9,34.3c-0.6-0.2-1.7-0.4-2.8-0.9c-2.6-1-4.8-2.5-6.9-4.2C9,27.5,7,25.8,5.6,23.5C3.5,20,1.7,16.4,1,12.4
			C0.7,10.8,0.5,9,1.2,7.3c0.9-2,2.2-3.3,4.2-4.1C6.3,3,6.9,3.1,7.3,4c1.1,2.3,2.1,4.7,3.1,7c0.5,1.1,0.2,1.6-0.7,2.2
			c-0.6,0.4-1.4,0.9-2,1.2c-0.4,0.2-0.5,0.5-0.2,0.9c1.7,2.7,3.3,5.6,5.8,7.9c0.9,0.9,1.7,1.9,2.6,2.7c0.5,0.5,0.6,0.5,1,0
			c0.6-0.6,1.2-1.1,1.9-1.7c0.7-0.6,1.2-0.7,2.1-0.1c1.1,0.7,2.1,1.5,3.2,2.3c1,0.7,2.1,1.6,3.1,2.5c0.7,0.6,0.9,1.2,0.2,2.1
			C25.7,33.1,23.7,34,20.9,34.3z"/>
		<path class="st0" d="M18.3,0.6c9.5,1.6,15.7,9.9,16,17.6c-0.6,0-1.2,0-1.9,0c-0.2-1.2-0.5-2.5-0.9-3.7c-2.1-6.3-6.4-10.3-13-11.9
			c-0.4-0.1-0.5-0.2-0.5-0.6C18.3,1.6,18.3,1.1,18.3,0.6z"/>
		<path class="st0" d="M17.8,8.4c0-0.6,0.1-1.2,0.1-1.9c4.3,0.2,10.1,4.6,10.5,11.5c-0.6,0-1.2,0-1.9,0c-0.1,0-0.2-0.2-0.2-0.4
			C25.6,12.7,22.8,9.6,17.8,8.4C17.9,8.5,17.9,8.4,17.8,8.4z"/>
		<path class="st0" d="M22.9,17.9c-0.6,0-1.4,0-2,0c-0.2-2-1.5-3.3-3.5-3.8c0-0.6,0.1-1.2,0.1-2C20.3,12.4,22.9,15.2,22.9,17.9z"/>
	</g>
</g>
</svg>
