<?xml version="1.0" encoding="utf-8"?>
<!-- Generator: Adobe Illustrator 23.0.1, SVG Export Plug-In . SVG Version: 6.00 Build 0)  -->
<svg version="1.1" id="レイヤー_1" xmlns="http://www.w3.org/2000/svg" xmlns:xlink="http://www.w3.org/1999/xlink" x="0px" y="0px" viewBox="0 0 28.3 28.3" style="enable-background:new 0 0 28.3 28.3;" xml:space="preserve" width="24" height="24">
<g id="電話アイコン_3_">
	<g>
		<path d="M16.9,27.7c2.3-0.1,3.9-0.9,5-2.6c0.4-0.6,0.4-1.2-0.2-1.7c-0.8-0.7-1.6-1.3-2.5-2c-0.8-0.6-1.7-1.3-2.6-1.9
			c-0.7-0.4-1.1-0.4-1.7,0.1c-0.5,0.4-1,0.9-1.5,1.4c-0.4,0.4-0.5,0.4-0.8,0c-0.7-0.7-1.4-1.5-2.1-2.2C8.7,17,7.4,14.7,6,12.5
			c-0.2-0.3-0.2-0.5,0.2-0.7c0.5-0.3,1.1-0.7,1.6-1c0.8-0.5,1-0.9,0.6-1.8C7.6,7,6.8,5.1,5.9,3.2C5.6,2.5,5.1,2.3,4.4,2.6
			C2.8,3.2,1.6,4.3,1,5.9C0.4,7.3,0.6,8.7,0.9,10c0.6,3.2,2,6.2,3.7,9c1.1,1.9,2.8,3.2,4.5,4.6s3.5,2.7,5.6,3.4
			C15.5,27.3,16.4,27.5,16.9,27.7z M14.8,0.5c0,0.4,0,0.8-0.1,1.2c0,0.3,0,0.4,0.4,0.5c5.2,1.3,8.8,4.5,10.5,9.6
			c0.3,0.9,0.5,1.9,0.7,3c0.5,0,1,0,1.5,0C27.5,8.5,22.5,1.8,14.8,0.5z M14.4,6.8c0.1,0,0.1,0.1,0.1,0.1c3.9,1,6.3,3.4,6.9,7.5
			c0,0.1,0.1,0.3,0.2,0.3c0.5,0,1,0,1.5,0C22.7,9,18,5.5,14.5,5.3C14.5,5.8,14.5,6.3,14.4,6.8z M18.5,14.5c0.1-2.2-2-4.5-4.2-4.7
			c0,0.5-0.1,1-0.1,1.6c1.6,0.4,2.5,1.5,2.8,3.1C17.4,14.5,17.9,14.5,18.5,14.5z"/>
		<path d="M16.9,27.7c-0.5-0.2-1.4-0.3-2.3-0.7c-2.1-0.8-3.9-2-5.6-3.4S5.7,20.9,4.5,19c-1.7-2.8-3.1-5.7-3.7-9
			C0.6,8.7,0.4,7.3,1,5.9c0.7-1.6,1.8-2.7,3.4-3.3c0.7-0.2,1.2-0.1,1.5,0.6C6.8,5.1,7.6,7,8.4,8.9c0.4,0.9,0.2,1.3-0.6,1.8
			c-0.5,0.3-1.1,0.7-1.6,1c-0.3,0.2-0.4,0.4-0.2,0.7c1.4,2.2,2.7,4.5,4.7,6.4c0.7,0.7,1.4,1.5,2.1,2.2c0.4,0.4,0.5,0.4,0.8,0
			c0.5-0.5,1-0.9,1.5-1.4c0.6-0.5,1-0.6,1.7-0.1c0.9,0.6,1.7,1.2,2.6,1.9c0.8,0.6,1.7,1.3,2.5,2c0.6,0.5,0.7,1,0.2,1.7
			C20.8,26.8,19.2,27.5,16.9,27.7z"/>
		<path d="M14.8,0.5c7.7,1.3,12.7,8,12.9,14.2c-0.5,0-1,0-1.5,0c-0.2-1-0.4-2-0.7-3C23.8,6.6,20.3,3.4,15,2.1
			c-0.3-0.1-0.4-0.2-0.4-0.5C14.8,1.3,14.8,0.9,14.8,0.5z"/>
		<path d="M14.4,6.8c0-0.5,0.1-1,0.1-1.5C18,5.5,22.7,9,23,14.6c-0.5,0-1,0-1.5,0c-0.1,0-0.2-0.2-0.2-0.3
			C20.7,10.3,18.4,7.8,14.4,6.8C14.5,6.9,14.5,6.8,14.4,6.8z"/>
		<path d="M18.5,14.5c-0.5,0-1.1,0-1.6,0c-0.2-1.6-1.2-2.7-2.8-3.1c0-0.5,0.1-1,0.1-1.6C16.4,10,18.5,12.3,18.5,14.5z"/>
	</g>
</g>
</svg>
