<?xml version="1.0" encoding="utf-8"?>
<!-- Generator: Adobe Illustrator 21.0.0, SVG Export Plug-In . SVG Version: 6.00 Build 0)  -->
<svg version="1.1" id="レイヤー_1" xmlns="http://www.w3.org/2000/svg" xmlns:xlink="http://www.w3.org/1999/xlink" x="0px" y="0px" viewBox="0 0 513.7 308.2" style="enable-background:new 0 0 513.7 308.2;" xml:space="preserve" width="700" height="421">
<style type="text/css">
	.st0{fill:#D2ECFB;}
	.st1{fill:#FEF4E5;}
	.st2{fill:#FFFFFF;}
	.st3{fill:#6ABB65;}
	.st4{fill:#E71F19;}
	.st5{fill:#CDE192;}
	.st6{fill:#F4D923;}
	.st7{fill:none;stroke:#E71F19;stroke-width:11.3386;stroke-miterlimit:10;}
	.st8{fill:#468CCB;}
	.st9{fill:#F39800;}
	.st10{fill:#F7F8F8;}
	.st11{fill:#E60012;stroke:#FFFFFF;stroke-width:5.6693;stroke-linejoin:round;stroke-miterlimit:10;}
	.st12{fill:#E60012;}
</style>
<g>
	<rect x="398.7" y="25.9" class="st0" width="115" height="282.3"/>
	<rect y="25.9" class="st0" width="115" height="282.3"/>
	<rect x="115" y="25.9" class="st1" width="283.8" height="282.3"/>
</g>
<g>
	<path d="M1.1,16.3c1.6-2.5,2.5-4.8,3-6l1.6,1.1c-1.4,3.9-2.7,5.8-3.3,6.7L1.1,16.3z M2.2,5.5c1.7,0.7,2.6,1.4,3.1,1.8L4.1,8.9
		C3,8.1,2.5,7.8,1.2,7.1L2.2,5.5z M3.1,0.2C4,0.6,5.3,1.4,6,2L4.8,3.7C4,3,3,2.3,2,1.8L3.1,0.2z M6.1,10h5.7V7.9h2V10h5.6v1.7H15
		c1.3,1.6,2.9,2.9,4.8,3.7l-1.1,1.8c-2.8-1.7-4.3-3.7-4.9-4.5v5.3h-2v-5.3c-1.9,2.7-4.8,4.3-5.4,4.6l-1.2-1.7
		c0.6-0.3,1.6-0.8,2.8-1.7c1.6-1.1,2-1.8,2.4-2.3H6.1V10z M6.3,6.8c2.4-1,3.3-2,3.7-4.3H8.5v1.9H6.5V0.7h12.4v3.6h-1.9V2.5h-1.7v3.4
		c0,0.3,0.1,0.4,0.4,0.4h1.5c0.2,0,0.4,0,0.4-0.2c0.1-0.2,0.1-0.8,0.2-1.3l1.6,0.3c-0.3,2.8-1,2.8-1.6,2.8h-3.3
		c-0.5,0-1.1-0.2-1.1-0.8V2.5h-1.7c-0.5,3.9-3.3,5.4-4.5,6L6.3,6.8z"/>
	<path d="M20.3,9.9c1.6-1.1,3.9-3.9,4.6-6.2h-4.2V1.8h8V0h2.1v1.7h7.8v1.9H25.4L27,4.1c-0.3,0.8-0.8,2.1-2.2,4v10h-2v-7.6
		c-0.7,0.7-1,0.9-1.4,1.2L20.3,9.9z M25.1,10.3c2.8-1.9,4-3.6,5.1-6.6l2,0.5c-0.2,0.6-0.3,1-0.6,1.7h6.2v1.7
		c-0.2,0.7-0.9,2.5-1.4,3.5c-0.3,0.5-1,1.8-2.4,3.2c1.8,1.1,3.6,1.6,4.7,1.9l-0.9,2c-1.1-0.4-3.1-1-5.4-2.6
		c-2.3,1.7-4.6,2.3-5.8,2.6l-0.8-2c1.2-0.2,3.1-0.7,5-2c-1.8-1.7-2.4-3.2-2.6-3.8c-0.7,0.7-1.2,1.1-1.7,1.5L25.1,10.3z M30.5,7.6
		c-0.3,0.5-0.7,0.9-1.2,1.5c0.3,0.7,1,2.4,2.9,4c0.4-0.4,0.7-0.7,1.2-1.3c-1.1-1.1-1.9-1.7-2.8-2.3l1.2-1.3c0.4,0.3,1.3,0.8,2.6,2.1
		c0.6-1.2,0.9-2,1.1-2.6H30.5z"/>
</g>
<g>
	<path d="M473.3,16.3c1.6-2.5,2.5-4.8,3-6l1.6,1.1c-1.4,3.9-2.7,5.8-3.3,6.7L473.3,16.3z M474.4,5.5c1.7,0.7,2.6,1.4,3.1,1.8
		l-1.2,1.6c-1.1-0.8-1.6-1.2-2.9-1.8L474.4,5.5z M475.3,0.2c0.9,0.4,2.2,1.2,2.9,1.8l-1.2,1.7c-0.8-0.7-1.8-1.4-2.8-1.9L475.3,0.2z
		 M478.3,10h5.7V7.9h2V10h5.6v1.7h-4.3c1.2,1.6,2.9,2.9,4.8,3.7l-1.1,1.8c-2.8-1.7-4.3-3.7-4.9-4.5v5.3h-2v-5.3
		c-1.9,2.7-4.8,4.3-5.4,4.6l-1.2-1.7c0.6-0.3,1.6-0.8,2.8-1.7c1.6-1.1,2-1.8,2.4-2.3h-4.4V10z M478.4,6.8c2.4-1,3.3-2,3.7-4.3h-1.5
		v1.9h-1.9V0.7h12.4v3.6h-1.9V2.5h-1.7v3.4c0,0.3,0.1,0.4,0.4,0.4h1.5c0.2,0,0.4,0,0.4-0.2c0.1-0.2,0.1-0.8,0.2-1.3l1.6,0.3
		c-0.3,2.8-1,2.8-1.6,2.8h-3.3c-0.5,0-1.1-0.2-1.1-0.8V2.5H484c-0.5,3.9-3.3,5.4-4.5,6L478.4,6.8z"/>
	<path d="M492.4,9.9c1.6-1.1,3.9-3.9,4.6-6.2h-4.2V1.8h8V0h2.1v1.7h7.8v1.9h-13.1l1.6,0.4c-0.3,0.8-0.8,2.1-2.2,4v10h-2v-7.6
		c-0.7,0.7-1,0.9-1.4,1.2L492.4,9.9z M497.2,10.3c2.8-1.9,4-3.6,5.1-6.6l2,0.5c-0.2,0.6-0.3,1-0.6,1.7h6.2v1.7
		c-0.2,0.7-0.9,2.5-1.4,3.5c-0.3,0.5-1,1.8-2.4,3.2c1.8,1.1,3.6,1.6,4.7,1.9l-0.9,2c-1.1-0.4-3.1-1-5.4-2.6
		c-2.3,1.7-4.6,2.3-5.8,2.6l-0.8-2c1.2-0.2,3.1-0.7,5-2c-1.8-1.7-2.4-3.2-2.6-3.8c-0.7,0.7-1.2,1.1-1.7,1.5L497.2,10.3z M502.7,7.6
		c-0.3,0.5-0.7,0.9-1.2,1.5c0.3,0.7,1,2.4,2.9,4c0.4-0.4,0.7-0.7,1.2-1.3c-1.1-1.1-1.9-1.7-2.8-2.3l1.2-1.3c0.4,0.3,1.3,0.8,2.6,2.1
		c0.6-1.2,0.9-2,1.1-2.6H502.7z"/>
</g>
<g>
	<path d="M114.2,16.9c0.3-0.4,0.8-1,1.3-2.2h-3.8v3.4h-1.8v-3.4h-4v-1.8h4v-1.4h-3.3V4.3h3.3V3.2H106V1.4h3.8V0h1.8v1.3h3.9v1.8
		h-3.9v1.2h3.4v7.2h-3.4v1.4h3.9v1.5c0.8-2,0.9-3.8,0.9-5.3V0.5h7v15.5c0,1.2-0.1,2-1.6,2h-2.5l-0.3-2h2c0.4,0,0.5,0,0.5-0.5v-3.4
		h-3.5c-0.4,2.7-1.2,4.4-2.2,5.9L114.2,16.9z M108.2,5.9v1.3h5.1V5.9H108.2z M108.2,8.6v1.3h5.1V8.6H108.2z M118.3,7.3v1.8
		c0,0.5,0,0.9-0.1,1.3h3.3V7.3H118.3z M118.3,2.4v3.1h3.3V2.4H118.3z"/>
</g>
<g>
	<path d="M260.3,7.5C260,7,259.9,6.6,259.7,6h-8.6v0.6c0,2.3-0.4,5.3-2.3,7.8l-1.4-1.6c1.2-1.8,1.8-3.4,1.8-6.3V0.9h15V6h-2.7
		c0.9,2.6,2.2,4.1,4.3,5.8l-1.3,1.6c-0.7-0.6-1.7-1.6-2.7-3v3.8h-10.1V7.5H260.3z M264.8,15.5v1.8h-16.6v-1.8H264.8z M251.2,2.6v1.7
		h11.1V2.6H251.2z M253.5,9v1.2h6.6V9H253.5z M253.5,11.5v1.2h6.6v-1.2H253.5z"/>
</g>
<g>
	<path d="M397.7,7.3c2,0.8,3.9,2.3,4.7,3.1c1.5-1.7,2.2-3.6,2.7-5.8h-7.3c-1.4,2-3.1,3.7-5.1,5.1L391.3,8c1.5-0.9,4.8-3.1,6.5-8
		l2.3,0.3c-0.2,0.6-0.5,1.4-1,2.3h8.7c-0.8,4.5-3.2,13.1-15,15.4l-1-2.1c3.3-0.6,6.4-1.7,9-4c-1.3-1.4-2.8-2.3-4.3-3.2L397.7,7.3z"
		/>
</g>
<g>
	<rect x="39.1" y="116.3" class="st2" width="36.6" height="57"/>
	<g>
		<path class="st2" d="M79.7,112.4h-6.3v-4.5c0-1.8-1.5-3.2-3.2-3.2H45.1c-1.8,0-3.2,1.5-3.2,3.2v4.5h-6.3c-1.8,0-3.2,1.5-3.2,3.2
			v64.7c0,1.8,1.5,3.2,3.2,3.2h44.2c1.8,0,3.2-1.5,3.2-3.2v-64.7C82.9,113.8,81.5,112.4,79.7,112.4z M54.9,122.1v-4.5h5.5v4.5
			c0,1.8,1.5,3.2,3.2,3.2h6.3v45.1H45.3v-45.1h6.3C53.4,125.4,54.9,123.9,54.9,122.1z"/>
		<path class="st2" d="M46.6,149c0.4,1,1.2,1.8,2.2,2.1l4.4,1.2l-1.6,9.7c-0.3,1.5,0.6,3,2,3.6c0.4,0.2,0.8,0.2,1.2,0.2
			c1.1,0,2.1-0.5,2.7-1.4l10.7-16c0.6-0.9,0.7-2,0.4-2.9c-0.4-1-1.2-1.7-2.2-2l-4.1-1.1l2.8-10.4c0.4-1.5-0.3-3.1-1.7-3.8
			c-1.4-0.7-3.1-0.2-4,1L47.1,146C46.5,146.9,46.3,148,46.6,149z"/>
	</g>
	<g>
		<path class="st3" d="M70.1,115.6v-7.8H45.1v7.8h-9.6v64.7h44.2v-64.7H70.1z M73.2,173.7H42.1v-51.6h9.6v-7.8h12v7.8h9.6
			L73.2,173.7L73.2,173.7z"/>
		<polygon class="st3" points="62,131 49.7,147.9 56.9,149.9 54.8,162.5 65.5,146.5 58.3,144.5 		"/>
	</g>
</g>
<g>
	<path d="M15.8,194.8c-0.1,0.3-0.2,0.6-0.7,1.6H22v1.3h-2.3c-0.4,1.2-0.9,2.2-1.8,3.2c1.9,0.7,3,1.3,3.6,1.6l-0.9,1.3
		c-0.6-0.3-1.7-1-3.9-1.9c-0.4,0.3-2.3,1.5-5.9,1.9l-0.5-1.4c2.6-0.2,4-0.7,4.8-1.1c-0.8-0.3-1.8-0.6-3.9-1.3c0.4-0.4,1-1.2,1.7-2.3
		h-2.8v-1.3h3.5c0.4-0.8,0.6-1.3,0.7-1.7L15.8,194.8z M10.4,192.9h4.9v-1.2h1.4v1.2h5v2.9h-1.4v-1.6h-8.6v1.6h-1.4V192.9z
		 M14.5,197.6c-0.5,0.9-0.8,1.2-1.1,1.6c1.1,0.3,2.2,0.7,3.2,1.1c1.1-1,1.5-2.1,1.7-2.7H14.5z"/>
	<path d="M25,193.2c-0.1,0.6-0.2,1.5-0.2,3.1c0,1.2,0.1,4,0.9,4.9c0.1,0.2,0.4,0.3,0.7,0.3c0.8,0,1.5-1.4,1.9-2.7l1.2,0.7
		c-0.9,2.4-1.9,3.5-3.3,3.5c-2.4,0-2.9-3.6-2.9-6.8c0-1.4,0.1-2.6,0.2-3.2L25,193.2z M32.8,201.7c0-2.4-0.1-3.6-0.6-5.1
		c-0.5-1.3-1.1-2.1-1.6-2.6l1.1-0.8c1.6,1.7,2.7,3.5,2.7,8.5L32.8,201.7z"/>
	<path d="M35.4,202.5c1.1-1.7,1.7-3.2,2-4l1.1,0.7c-1,2.6-1.8,3.8-2.2,4.5L35.4,202.5z M36.1,195.4c1.1,0.5,1.7,0.9,2,1.2l-0.8,1.1
		c-0.7-0.6-1.1-0.8-1.9-1.2L36.1,195.4z M36.7,191.8c0.6,0.3,1.4,0.8,1.9,1.2l-0.8,1.1c-0.5-0.5-1.2-0.9-1.8-1.2L36.7,191.8z
		 M38.7,198.3h3.8V197h1.3v1.4h3.7v1.2h-2.9c0.8,1,1.9,1.9,3.2,2.5l-0.8,1.2c-1.9-1.1-2.9-2.5-3.3-3v3.5h-1.3v-3.5
		c-1.3,1.8-3.2,2.8-3.6,3.1l-0.8-1.1c0.4-0.2,1-0.5,1.9-1.1c1.1-0.8,1.4-1.2,1.6-1.5h-2.9V198.3z M38.8,196.2
		c1.6-0.7,2.2-1.3,2.4-2.9h-1v1.3H39v-2.4h8.2v2.4H46v-1.3h-1.1v2.2c0,0.2,0,0.3,0.2,0.3h1c0.1,0,0.3,0,0.3-0.1
		c0-0.2,0.1-0.6,0.1-0.9l1.1,0.2c-0.2,1.9-0.7,1.9-1.1,1.9h-2.2c-0.3,0-0.7-0.1-0.7-0.5v-3.1h-1.1c-0.3,2.6-2.2,3.6-3,4L38.8,196.2z
		"/>
	<path d="M48.1,198.3c1.1-0.8,2.6-2.6,3.1-4.1h-2.8v-1.2h5.3v-1.1H55v1.1h5.2v1.2h-8.7l1.1,0.3c-0.2,0.5-0.5,1.4-1.5,2.7v6.6h-1.3
		v-5.1c-0.4,0.4-0.7,0.6-0.9,0.8L48.1,198.3z M51.3,198.5c1.8-1.3,2.7-2.4,3.4-4.4l1.3,0.3c-0.1,0.4-0.2,0.7-0.4,1.1h4.1v1.1
		c-0.1,0.4-0.6,1.7-0.9,2.3c-0.2,0.3-0.7,1.2-1.6,2.1c1.2,0.7,2.4,1.1,3.1,1.3l-0.6,1.3c-0.8-0.2-2.1-0.7-3.6-1.7
		c-1.5,1.1-3,1.5-3.8,1.7l-0.5-1.3c0.8-0.2,2-0.5,3.3-1.3c-1.2-1.1-1.6-2.1-1.7-2.5c-0.5,0.5-0.8,0.7-1.1,1L51.3,198.5z M54.9,196.7
		c-0.2,0.3-0.4,0.6-0.8,1c0.2,0.5,0.6,1.6,1.9,2.6c0.3-0.2,0.5-0.4,0.8-0.9c-0.7-0.7-1.3-1.1-1.8-1.5l0.8-0.9
		c0.3,0.2,0.9,0.6,1.7,1.4c0.4-0.8,0.6-1.3,0.7-1.7H54.9z"/>
	<path d="M63.3,198.9c-0.8,1.5-1.5,2.3-1.9,2.8l-0.5-1.5c0.5-0.5,1.4-1.5,2.3-3.3h-2.1v-1.2h2.2v-4.1h1.3v4.1h2v1.2h-1.9
		c0.5,1,1,1.6,1.6,2.2l-0.8,1.2c-0.4-0.6-0.7-1-0.9-1.4v4.7h-1.3V198.9z M62.1,192.4c0.3,0.8,0.5,1.8,0.6,2.5l-1.1,0.3
		c0-1.1-0.3-2-0.5-2.6L62.1,192.4z M66.8,192.6c-0.1,0.6-0.4,1.8-0.8,2.7L65,195c0.1-0.4,0.4-1.1,0.6-2.6L66.8,192.6z M70.5,198.8
		v-7.1h1.4v6.8l1-0.2l0.2,1.3l-1.2,0.3v3.9h-1.4v-3.6l-4.3,0.9l-0.2-1.2L70.5,198.8z M67.6,195.5c0.9,0.5,1.7,1.2,2.2,1.8l-0.8,1
		c-0.7-0.8-1.2-1.2-2.1-1.8L67.6,195.5z M67.9,192.3c1.1,0.6,1.7,1.2,2.3,1.8l-0.9,1c-0.5-0.6-1.2-1.3-2.2-1.9L67.9,192.3z"/>
	<path d="M76,195.6c-0.7,0.4-1.1,0.6-1.6,0.8l-0.8-1.2c2-0.7,4.3-2.2,5.5-3.6h1.2c0.6,0.7,3.2,2.8,5.6,3.6l-0.7,1.3
		c-0.4-0.2-0.7-0.4-1.6-0.9v0.9h-3.1v1.4h4.8v1.2h-4.8v3.1h1c0.2-0.5,0.7-1.8,1-2.8l1.4,0.3c-0.4,1.2-0.5,1.4-1,2.4h2.7v1.2H74v-1.2
		h2.5c-0.3-0.9-0.4-1.3-0.9-2.3l1.3-0.4c0.6,1.1,1,2.5,1,2.7h1.2v-3.1h-4.8v-1.2h4.8v-1.4H76V195.6z M83,195.3c-1.7-1-2.7-2-3.2-2.5
		c-1,0.9-1.8,1.7-3.1,2.5H83z"/>
	<path d="M98,194.2c-0.3,0-0.6-0.1-1.1-0.1c-1.1,0-1.9,0.3-2.5,0.6c-1.8,0.9-3.4,2.7-3.4,4.4c0,1.9,2.2,2.6,5.9,2.5l-0.2,1.5
		c-2.7,0-4.1-0.3-5.3-0.9c-1.1-0.6-1.9-1.8-1.9-3c0-1.3,0.7-3.3,3.5-5c-2,0.1-4,0.3-5.9,0.4l-0.1-1.5c0.9,0,1.8-0.1,2.7-0.1
		c1.1-0.1,7-0.3,8.3-0.3L98,194.2z M95.5,198c-0.5-1-0.8-1.4-1.1-1.9l0.9-0.5c0.3,0.4,0.8,1,1.2,1.8L95.5,198z M97.2,197.2
		c-0.7-1.2-0.8-1.3-1.2-1.8l0.9-0.5c0.4,0.5,1,1.3,1.1,1.7L97.2,197.2z"/>
	<path d="M33.7,215.5c-0.3-0.4-0.4-0.6-1-1.2c-0.4,0.1-1.2,0.1-1.6,0.2v4.4c0,0.2,0.2,0.2,0.4,0.2h1.3c0.3,0,0.5,0,0.6-0.4
		c0.1-0.2,0.2-0.7,0.2-1.8l1.3,0.3c-0.2,2.3-0.4,3.2-1.8,3.2h-1.9c-0.6,0-1.4,0-1.4-0.9v-4.9c-0.9,0.1-1,0.1-2,0.1
		c-0.2,3.5-1.4,5.1-4.2,6l-0.7-1.3c2.9-0.8,3.4-2.2,3.6-4.7c-1.1,0.1-2.7,0.1-3.2,0.1l-0.1-1.3c0.2,0,1.5,0,1.8,0
		c0.2-0.2,1.2-1.6,1.5-2.4h-3.7v-1.3h5.3v-1.2h1.3v1.2h5.3v1.3h-6.7c-0.5,0.8-1.2,2-1.5,2.4c2.3-0.1,2.6-0.1,4.8-0.3
		c-0.3-0.3-0.6-0.5-1.3-0.9l1-0.9c1.6,1,2.6,1.7,3.7,3L33.7,215.5z"/>
	<path d="M36.4,209.1h10.2v1.1h-4.6v0.5h5.1v2.7h-1.3v-1.8h-3.7v2.5h-1.2v-2.5h-3.7v1.8h-1.3v-2.7h5v-0.5h-4.5V209.1z M47.6,218.6
		c-0.1,1.2-0.3,2-1.1,2h-4.4c-0.7,0-1.2,0-1.2-0.9v-1.1h-3.1v0.8h-1.2v-5h10v3.9L47.6,218.6z M37.7,216.9v0.8h3.1v-0.8H37.7z
		 M37.8,215.3v0.7h3v-0.7H37.8z M37.8,212.1h2.5v0.7h-2.5V212.1z M37.8,213.3h2.5v0.7h-2.5V213.3z M42.1,215.3v0.7h3.1v-0.7H42.1z
		 M42.1,216.9v0.8h3.1v-0.8H42.1z M42.1,218.6v0.5c0,0.3,0,0.4,0.3,0.4h3.4c0.4,0,0.4,0,0.5-0.8H42.1z M42.7,212.1h2.6v0.7h-2.6
		V212.1z M42.7,213.3h2.6v0.7h-2.6V213.3z"/>
	<path d="M51.3,209.3h1.5l0,1.7h4.2v1.3h-4.2l0,2.1h0.8c1.5,0,2.6-0.2,3.2-0.4l0.4,1.3c-1.4,0.4-3.6,0.4-3.8,0.4h-0.6
		c0,2.6,0.2,3,2.6,3c1.5,0,2.8-0.1,2.8-2c0-1.1-0.3-1.8-0.7-2.7l1.3-0.4c0.5,1,0.8,2.1,0.8,3.2c0,3-2.4,3.3-4.3,3.3
		c-3.6,0-4-1.2-4-4.4h-2.3v-1.3h2.3l0-2.1h-2.1V211h2.1L51.3,209.3z"/>
	<path d="M70,210.5h-8.9v-1.3h11.9v1.3h-1.6v9.1c0,0.8-0.3,1.1-1.3,1.1h-2.6l-0.2-1.4h2.5c0.2,0,0.3-0.2,0.3-0.4V210.5z M68.1,211.8
		v5.7h-4.7v0.7h-1.3v-6.4H68.1z M63.4,213v3.3h3.4V213H63.4z"/>
	<path d="M78.9,212.6c-0.1-0.2-0.1-0.4-0.4-0.8c-0.8,0.1-3,0.4-4.6,0.5l-0.1-1.2c0.4,0,0.4,0,0.9,0c0.4-0.8,0.7-1.6,0.9-2.3l1.3,0.2
		c-0.2,0.7-0.3,1-0.9,2.1c0.1,0,1.4-0.1,2.1-0.2c-0.3-0.5-0.5-0.8-0.7-1.1l1-0.6c1.1,1.5,1.4,2.1,1.7,2.8L78.9,212.6z M74.3,212.9
		h4.9v6.7c0,0.8-0.7,1-1,1h-1.6l-0.2-1.2h1.3c0.2,0,0.3-0.1,0.3-0.2v-1h-2.5v2.5h-1.2V212.9z M75.6,214.1v1H78v-1H75.6z M75.6,216.1
		v1.1H78v-1.1H75.6z M81.8,208.7v1.8c0.4-0.1,1.9-0.7,3-1.4l0.7,1c-0.9,0.5-2.3,1.1-3.7,1.5v1.2c0,0.1,0,0.3,0.3,0.3h1.8
		c0.4,0,0.6,0,0.6-1.5l1.2,0.4c-0.1,1.7-0.4,2.3-1.4,2.3h-2.7c-1.1,0-1.2-0.8-1.2-1.1v-4.5H81.8z M80.5,214.7h1.3v1.7
		c0.5-0.2,2-0.8,2.9-1.4l0.7,1.1c-1.1,0.7-2.7,1.3-3.6,1.5v1.4c0,0.3,0.2,0.4,0.4,0.4h1.7c0.4,0,0.4,0,0.6-1.7l1.2,0.3
		c-0.2,2.1-0.4,2.6-1.6,2.6h-2.5c-1.1,0-1.1-0.9-1.1-1.2V214.7z"/>
</g>
<g>
	<path class="st3" d="M419.9,209.7h12.8v1.3H427v0.6h6.3v3.4h-1.7v-2.3H427v3.2h-1.5v-3.2h-4.6v2.3h-1.6v-3.4h6.3V211h-5.6V209.7z
		 M433.9,221.6c-0.1,1.5-0.3,2.5-1.4,2.5H427c-0.8,0-1.5,0-1.5-1.1v-1.4h-3.9v1H420v-6.2h12.5v4.9L433.9,221.6z M421.5,219.4v0.9
		h3.9v-0.9H421.5z M421.6,217.4v0.9h3.8v-0.9H421.6z M421.6,213.4h3.1v0.8h-3.1V213.4z M421.6,214.9h3.1v0.8h-3.1V214.9z M427,217.4
		v0.9h3.9v-0.9H427z M427,219.4v0.9h3.9v-0.9H427z M427,221.5v0.6c0,0.4,0,0.4,0.4,0.4h4.3c0.4,0,0.6,0,0.6-1H427z M427.7,213.4h3.2
		v0.8h-3.2V213.4z M427.7,214.9h3.2v0.8h-3.2V214.9z"/>
	<path class="st3" d="M434.7,222.5c4.9-2.7,5.3-5.9,5.6-8.4h-5.2v-1.7h5.3c0-0.2,0.1-1.3,0.1-2.1v-1.2h1.8v1.2c0,0.9,0,1.5-0.1,2
		h7.2c0,5.4-0.4,8.4-0.7,9.5c-0.1,0.6-0.5,2.2-2.3,2.2h-3l-0.3-1.8h2.7c0.9,0,1-0.6,1.2-1.7c0.2-1.3,0.4-4.7,0.4-6.5h-5.4
		c-0.4,3.1-1.1,7-6.3,10L434.7,222.5z"/>
	<path class="st3" d="M452.4,216.4c-0.4,0.6-0.7,0.9-1,1.2l-0.8-1.9c1.2-1.3,2.4-4.2,2.6-6.6l1.7,0.2c-0.1,0.7-0.3,2-0.9,3.7v11.1
		h-1.6V216.4z M461,212.1v1.2h4.1v5.1h-4.3c-0.2,1.2-0.5,1.9-0.9,2.5c2.7,1.5,5.2,1.6,6.1,1.6l-0.7,1.8c-1-0.1-3.7-0.5-6.4-2.1
		c-1.6,1.6-3.2,1.9-3.9,2l-0.7-1.6c0.9-0.2,2-0.5,3.2-1.4c-1.1-0.9-1.4-1.3-1.8-1.8l1.4-0.8c0.3,0.4,0.7,0.8,1.4,1.3
		c0.4-0.7,0.5-1.2,0.6-1.6h-3.7v-5.1h4v-1.2h-4.5v-1.5h4.5v-1.4h1.6v1.4h4.8v1.5H461z M459.4,214.7h-2.5v2.2h2.4
		c0-0.3,0.1-0.8,0.1-1.6V214.7z M461,215.4c0,0.7,0,1.2,0,1.5h2.6v-2.2H461V215.4z"/>
	<path class="st3" d="M479.1,219.3h-3.9v4.7h-1.6v-4.7h-3.8c-0.2,1.5-0.5,3.1-1.9,4.8l-1.3-1.5c0.3-0.4,0.8-1,1.2-1.8
		c0.5-1.4,0.6-2.9,0.6-3.3v-7.6h12.4v13c0,0.5-0.2,1.4-1.4,1.4h-2.1l-0.2-1.7h1.6c0.1,0,0.4,0,0.4-0.4V219.3z M470.1,215.4v1.8
		c0,0.1,0,0.5,0,0.5h3.6v-2.3H470.1z M470.1,211.5v2.3h3.6v-2.3H470.1z M475.3,211.5v2.3h3.9v-2.3H475.3z M475.3,215.4v2.3h3.9v-2.3
		H475.3z"/>
	<path class="st3" d="M485.5,218.2c-1,1.9-1.9,2.9-2.4,3.5l-0.6-1.8c0.6-0.6,1.8-1.8,2.9-4.1h-2.6v-1.5h2.8v-5.1h1.6v5.1h2.5v1.5
		h-2.4c0.7,1.3,1.2,2,2,2.8l-1,1.5c-0.5-0.8-0.8-1.2-1.1-1.8v5.9h-1.6V218.2z M484,210.1c0.3,0.9,0.6,2.3,0.7,3.2l-1.4,0.4
		c0-1.4-0.4-2.5-0.6-3.3L484,210.1z M489.9,210.3c-0.1,0.8-0.5,2.3-1,3.3l-1.3-0.4c0.2-0.4,0.5-1.3,0.8-3.2L489.9,210.3z
		 M494.6,218.1v-8.9h1.7v8.5l1.3-0.3l0.2,1.6l-1.5,0.3v4.8h-1.7v-4.5l-5.4,1.2l-0.3-1.6L494.6,218.1z M490.8,213.9
		c1.1,0.6,2.1,1.5,2.8,2.2l-1.1,1.2c-0.8-1-1.5-1.5-2.7-2.3L490.8,213.9z M491.2,209.9c1.4,0.8,2.1,1.5,2.9,2.3l-1.1,1.2
		c-0.7-0.8-1.5-1.6-2.7-2.4L491.2,209.9z"/>
</g>
<g>
	<path class="st3" d="M147.6,68v3.5c2.7-0.7,4.2-1.4,5.6-2.2l0.8,1.1c-2.1,1.1-3.6,1.6-6.4,2.3v2.4c0,0.3,0.1,0.5,0.5,0.5h4.9
		c0.4,0,1.1-0.1,1.5-0.2l0.1,1.4c-0.3,0.1-0.7,0.1-1.7,0.1h-4.6c-0.6,0-2,0-2-1.5V68H147.6z M155.6,68.2c0,0.7-0.5,1.2-1.2,1.2
		c-0.6,0-1.2-0.5-1.2-1.2c0-0.7,0.5-1.2,1.2-1.2S155.6,67.6,155.6,68.2z M153.8,68.2c0,0.3,0.2,0.5,0.5,0.5c0.3,0,0.5-0.2,0.5-0.5
		c0-0.3-0.2-0.5-0.5-0.5C154.1,67.7,153.8,67.9,153.8,68.2z"/>
	<path class="st3" d="M166.6,71.7V73h-10.1v-1.4H166.6z"/>
	<path class="st3" d="M177.4,69c-0.3,1.9-1.3,7.4-8.1,8.3l-0.5-1.2c3.7-0.5,5.9-2,6.9-6h-4c-1,1.3-1.9,2.1-2.7,2.6l-0.8-1
		c0.7-0.4,2.6-1.6,3.7-4.5l1.4,0.3c-0.1,0.4-0.2,0.7-0.6,1.3H177.4z"/>
	<path class="st3" d="M179.2,67.6h3.5v8.6h-2.4V77h-1.1V67.6z M180.3,68.7v2.6h1.4v-2.6H180.3z M180.3,72.3v2.7h1.4v-2.7H180.3z
		 M189.2,69.2h-2.3v1.3h2.7v1.1h-1.2v1.1h1.1v1.1h-1.1v2.8c0,0.3,0,1.2-1.1,1.2h-1.8l-0.2-1.2h1.7c0.1,0,0.2,0,0.2-0.2v-2.6h-4.1
		v-1.1h4.1v-1.1h-4.2v-1.1h2.7v-1.3h-2.3v-1.1h2.3v-1h1.1v1h2.3V69.2z M184.2,74c0.7,0.7,1.1,1.1,1.5,1.8l-1,0.7
		c-0.6-1-0.8-1.2-1.5-1.9L184.2,74z"/>
	<path class="st3" d="M192.9,67.8c-0.3,1.7-0.5,3.5-0.5,5.2c0,1.4,0.1,2.8,0.4,4.1l-1.3,0.2c-0.3-1.3-0.4-2.7-0.4-4.2
		c0-0.6,0-2.4,0.4-5.4L192.9,67.8z M195.7,72.8c-0.2,0.4-0.5,0.9-0.5,1.5c0,1.2,1.3,1.2,2.7,1.2c1.2,0,1.8-0.1,2.2-0.1v1.3
		c-0.7,0.1-1.6,0.1-2.1,0.1c-1.5,0-4,0-4-2.4c0-0.9,0.4-1.6,0.6-2L195.7,72.8z M199.9,68.5v1.2h-5.6v-1.2H199.9z"/>
	<path class="st3" d="M202.7,72.3c-0.3,0.4-0.5,0.6-0.7,0.9l-0.6-1.3c0.8-1,1.7-3,1.8-4.7l1.2,0.1c-0.1,0.5-0.2,1.4-0.6,2.6v7.9
		h-1.1V72.3z M208.9,69.2V70h2.9v3.6h-3.1c-0.2,0.9-0.4,1.3-0.6,1.8c1.9,1,3.7,1.1,4.3,1.2l-0.5,1.3c-0.7-0.1-2.6-0.4-4.5-1.5
		c-1.1,1.1-2.3,1.3-2.7,1.5l-0.5-1.1c0.6-0.1,1.4-0.3,2.2-1c-0.8-0.6-1-0.9-1.2-1.3l1-0.6c0.2,0.2,0.5,0.6,1,0.9
		c0.3-0.5,0.4-0.9,0.4-1.1h-2.7V70h2.9v-0.8h-3.2v-1.1h3.2v-1h1.1v1h3.4v1.1H208.9z M207.7,71H206v1.6h1.7c0-0.2,0-0.5,0-1.1V71z
		 M208.9,71.5c0,0.5,0,0.9,0,1.1h1.8V71h-1.8V71.5z"/>
	<path class="st3" d="M221.8,74.3H219v3.4h-1.1v-3.4h-2.7c-0.1,1.1-0.4,2.2-1.3,3.4l-0.9-1c0.2-0.3,0.6-0.7,0.8-1.3
		c0.4-1,0.4-2.1,0.4-2.3v-5.4h8.8v9.2c0,0.3-0.1,1-1,1h-1.5l-0.1-1.2h1.2c0.1,0,0.3,0,0.3-0.3V74.3z M215.3,71.5v1.3
		c0,0.1,0,0.3,0,0.4h2.6v-1.7H215.3z M215.3,68.8v1.7h2.6v-1.7H215.3z M219,68.8v1.7h2.8v-1.7H219z M219,71.5v1.7h2.8v-1.7H219z"/>
</g>
<g>
	<path class="st3" d="M384.6,66v3.5c2.7-0.7,4.2-1.4,5.6-2.2l0.8,1.1c-2.1,1.1-3.6,1.6-6.4,2.3v2.4c0,0.3,0.1,0.5,0.5,0.5h4.9
		c0.4,0,1.1-0.1,1.5-0.2l0.1,1.4c-0.3,0.1-0.7,0.1-1.7,0.1h-4.6c-0.6,0-2,0-2-1.5V66H384.6z M392.6,66.2c0,0.7-0.5,1.2-1.2,1.2
		c-0.6,0-1.2-0.5-1.2-1.2c0-0.7,0.5-1.2,1.2-1.2S392.6,65.6,392.6,66.2z M390.8,66.2c0,0.3,0.2,0.5,0.5,0.5c0.3,0,0.5-0.2,0.5-0.5
		c0-0.3-0.2-0.5-0.5-0.5C391.1,65.7,390.8,65.9,390.8,66.2z"/>
	<path class="st3" d="M403.6,69.7V71h-10.1v-1.4H403.6z"/>
	<path class="st3" d="M414.4,67c-0.3,1.9-1.3,7.4-8.1,8.3l-0.5-1.2c3.7-0.5,5.9-2,6.9-6h-4c-1,1.3-1.9,2.1-2.7,2.6l-0.8-1
		c0.7-0.4,2.6-1.6,3.7-4.5l1.4,0.3c-0.1,0.4-0.2,0.7-0.6,1.3H414.4z"/>
	<path class="st3" d="M416.2,65.6h3.5v8.6h-2.4V75h-1.1V65.6z M417.3,66.7v2.6h1.4v-2.6H417.3z M417.3,70.3v2.7h1.4v-2.7H417.3z
		 M426.2,67.2h-2.3v1.3h2.7v1.1h-1.2v1.1h1.1v1.1h-1.1v2.8c0,0.3,0,1.2-1.1,1.2h-1.8l-0.2-1.2h1.7c0.1,0,0.2,0,0.2-0.2v-2.6h-4.1
		v-1.1h4.1v-1.1h-4.2v-1.1h2.7v-1.3h-2.3v-1.1h2.3v-1h1.1v1h2.3V67.2z M421.2,72c0.7,0.7,1.1,1.1,1.5,1.8l-1,0.7
		c-0.6-1-0.8-1.2-1.5-1.9L421.2,72z"/>
	<path class="st3" d="M429.9,65.8c-0.3,1.7-0.5,3.5-0.5,5.2c0,1.4,0.1,2.8,0.4,4.1l-1.3,0.2c-0.3-1.3-0.4-2.7-0.4-4.2
		c0-0.6,0-2.4,0.4-5.4L429.9,65.8z M432.7,70.8c-0.2,0.4-0.5,0.9-0.5,1.5c0,1.2,1.3,1.2,2.7,1.2c1.2,0,1.8-0.1,2.2-0.1v1.3
		c-0.7,0.1-1.6,0.1-2.1,0.1c-1.5,0-4,0-4-2.4c0-0.9,0.4-1.6,0.6-2L432.7,70.8z M436.9,66.5v1.2h-5.6v-1.2H436.9z"/>
	<path class="st3" d="M439.7,70.3c-0.3,0.4-0.5,0.6-0.7,0.9l-0.6-1.3c0.8-1,1.7-3,1.8-4.7l1.2,0.1c-0.1,0.5-0.2,1.4-0.6,2.6v7.9
		h-1.1V70.3z M445.9,67.2V68h2.9v3.6h-3.1c-0.2,0.9-0.4,1.3-0.6,1.8c1.9,1,3.7,1.1,4.3,1.2l-0.5,1.3c-0.7-0.1-2.6-0.4-4.5-1.5
		c-1.1,1.1-2.3,1.3-2.7,1.5l-0.5-1.1c0.6-0.1,1.4-0.3,2.2-1c-0.8-0.6-1-0.9-1.2-1.3l1-0.6c0.2,0.2,0.5,0.6,1,0.9
		c0.3-0.5,0.4-0.9,0.4-1.1h-2.7V68h2.9v-0.8h-3.2v-1.1h3.2v-1h1.1v1h3.4v1.1H445.9z M444.7,69H443v1.6h1.7c0-0.2,0-0.5,0-1.1V69z
		 M445.9,69.5c0,0.5,0,0.9,0,1.1h1.8V69h-1.8V69.5z"/>
	<path class="st3" d="M458.8,72.3H456v3.4h-1.1v-3.4h-2.7c-0.1,1.1-0.4,2.2-1.3,3.4l-0.9-1c0.2-0.3,0.6-0.7,0.8-1.3
		c0.4-1,0.4-2.1,0.4-2.3v-5.4h8.8v9.2c0,0.3-0.1,1-1,1h-1.5l-0.1-1.2h1.2c0.1,0,0.3,0,0.3-0.3V72.3z M452.3,69.5v1.3
		c0,0.1,0,0.3,0,0.4h2.6v-1.7H452.3z M452.3,66.8v1.7h2.6v-1.7H452.3z M456,66.8v1.7h2.8v-1.7H456z M456,69.5v1.7h2.8v-1.7H456z"/>
</g>
<g>
	<path class="st4" d="M240.1,262.8c3.9-1.4,6.1-4.8,6.6-7.8h-6.4v-1.7h6.5v-3.7h1.8v3.7h6.7v1.7h-6.3c1.2,5.5,5.3,7.3,6.7,7.9
		l-1.1,1.7c-0.7-0.3-1.7-0.8-3-1.9c-0.9-0.8-2.9-2.7-3.7-5.8c-2,5.5-5.6,7-6.9,7.6L240.1,262.8z M246.8,260.6c1,0.5,2.5,1.8,3.2,2.6
		l-1.3,1.4c-0.2-0.3-1.4-1.7-2.9-2.7L246.8,260.6z"/>
	<path class="st4" d="M260.9,262.1c1.1-0.4,2.7-1.1,3.6-2.5h-0.9c-0.7,0.6-1.2,0.9-1.5,1.1l-0.6-0.8c-0.3,1.4-0.8,1.8-2.1,1.8h-0.5
		l-0.2-1.6h0.4c0.6,0,0.9-0.1,0.9-1.1c0-0.7-0.1-2.1-1.4-3.3c0.6-1.3,1-2.6,1.2-3.9h-1.6v13h-1.5v-14.4h4.6v1.4
		c-0.2,1-0.5,2.3-1.2,3.8c1.1,1.2,1.4,3.1,1.3,4.1c0.2-0.1,1.4-0.7,2.2-2h-2.2v-1.3h9.8v1.3H265c-0.1,0.2-0.2,0.4-0.5,0.8h6.3
		c0,0.6-0.1,3.4-0.2,4c-0.3,2.3-0.8,2.3-2,2.3h-1.4l-0.3-1.5h1.1c0.1,0,0.7,0,0.8-0.2c0.1-0.1,0.3-0.3,0.4-3.4h-1
		c-0.4,1.3-1.8,3.8-4.7,5.2l-0.9-1.2c0.7-0.3,3.1-1.4,4.3-4.1h-0.9c-1.2,2.2-2.7,2.9-4.4,3.7L260.9,262.1z M270.3,250.2v5.2h-8.1
		v-5.2H270.3z M263.7,251.4v0.9h5.1v-0.9H263.7z M263.7,253.4v1h5.1v-1H263.7z"/>
	<path class="st4" d="M272.3,255.2h6.6v-5.5h1.7v5.5h6.7v1.6h-4.9v5.6c0,0.2,0,0.4,0.4,0.4h1.9c0.3,0,0.5-0.1,0.6-0.3
		c0.2-0.3,0.2-0.8,0.4-2.7l1.7,0.4c-0.3,3.6-0.8,4.2-2.3,4.2h-2.7c-1,0-1.6,0-1.6-1.1v-6.5h-2.3c-0.2,5.7-3.6,7.2-5.4,7.9l-0.9-1.6
		c3-0.6,4.7-3.3,4.6-6.3h-4.5V255.2z M275.7,254.6c-0.3-0.8-1.5-2.5-2.3-3.3l1.5-1c0.6,0.6,1.9,2.3,2.4,3.4L275.7,254.6z
		 M282.4,253.8c1-1.4,1.5-2.1,2.3-3.5l1.7,0.7c-0.5,1.2-1.8,3-2.6,3.8L282.4,253.8z"/>
	<path class="st4" d="M303.1,251.7c-0.3,0.4-0.9,1.1-2.1,2.3c1,0.5,1.8,0.9,2.4,1.2l-0.7,1.5c-0.6-0.3-1.3-0.6-2.3-1.2v1.1h-2.1v1.8
		h4.4v1.5h-4.4v2.6c0,0.4,0.2,0.4,0.4,0.4h2.1c0.7,0,0.7-0.4,0.8-1.9l1.6,0.2c-0.2,2.4-0.4,3.3-1.7,3.3h-3.3c-0.5,0-1.4,0-1.4-1.1
		v-3.4h-2.5c-0.5,2.8-2.7,4.2-5.2,4.8l-0.8-1.6c2.5-0.3,4.2-1.7,4.4-3.2h-3.9v-1.5h4.1v-1.8H291v-1c-1,0.6-1.6,0.9-2.1,1.1l-0.8-1.5
		c0.5-0.2,1.4-0.5,2.8-1.3c-0.1-0.1-0.9-0.8-1.9-1.6l0.9-0.8h-0.1v-1.4h6.9c0.2,0.4,0.5,0.8,1.1,1.4c1.2-1.2,1.4-1.3,1.9-1.9
		l1.3,0.8c-0.6,0.7-1.3,1.4-2.1,2.1c0.3,0.2,0.5,0.4,0.9,0.7c1.3-1.2,1.5-1.5,2.2-2.2L303.1,251.7z M290.3,251.5
		c0.8,0.6,1.8,1.5,1.9,1.5c0.9-0.7,1.3-1.1,1.7-1.5H290.3z M299.7,255c-1.9-1.1-3.3-2.7-4-3.5c-0.6,0.7-1.5,1.9-3.8,3.5H299.7z
		 M294.4,256.5v1.8h2.4v-1.8H294.4z"/>
	<path class="st4" d="M305.3,250.2h12.8v1.3h-5.7v0.6h6.3v3.4h-1.7v-2.3h-4.7v3.2h-1.5v-3.2h-4.6v2.3h-1.6v-3.4h6.3v-0.6h-5.6V250.2
		z M319.3,262.1c-0.1,1.5-0.3,2.5-1.4,2.5h-5.5c-0.8,0-1.5,0-1.5-1.1V262H307v1h-1.6v-6.2h12.5v4.9L319.3,262.1z M307,259.9v0.9h3.9
		v-0.9H307z M307,257.9v0.9h3.8v-0.9H307z M307.1,253.9h3.1v0.8h-3.1V253.9z M307.1,255.4h3.1v0.8h-3.1V255.4z M312.4,257.9v0.9h3.9
		v-0.9H312.4z M312.4,259.9v0.9h3.9v-0.9H312.4z M312.4,262v0.6c0,0.4,0,0.4,0.4,0.4h4.3c0.4,0,0.6,0,0.6-1H312.4z M313.2,253.9h3.2
		v0.8h-3.2V253.9z M313.2,255.4h3.2v0.8h-3.2V255.4z"/>
	<path class="st4" d="M320.2,254.8h15v1h-15V254.8z M333.6,256.4v4h-5.2v0.6h5.6v1.1h-5.6v0.7h6.8v1.3h-15v-1.3h6.7v-0.7h-5.6v-1.1
		h5.6v-0.6h-5.1v-4H333.6z M321.5,250.1h12.4v4.1h-12.4V250.1z M323,251.3v0.6h9.3v-0.6H323z M323,252.7v0.6h9.3v-0.6H323z
		 M323.3,257.3v0.6h3.6v-0.6H323.3z M323.3,258.8v0.6h3.6v-0.6H323.3z M328.4,257.3v0.6h3.7v-0.6H328.4z M328.4,258.8v0.6h3.7v-0.6
		H328.4z"/>
</g>
<path class="st5" d="M115.6,239.2c11.7-16,38.7-76.3,57-80.3s19,6.3,26.3,17.3l1.7,5.3l-30.3,47.3L115,271.2"/>
<path class="st5" d="M316.3,193.9c9.7-15.7,55.3-77.3,82.7-78.3v169l-13.7-1.3l-16-8.3l-14.3-13l-18-24l-10.3-20.3L316.3,193.9z"/>
<path class="st6" d="M199.5,175.9c10,29,35.2,55.7,55.5,58c20.3,2.3,47.5-10.5,65.5-47l-18.8-43L282,121.2l-13-8l-16.7-1.3
	l-12.3,2.7l-12.7,12l-9.3,10L199.5,175.9z"/>
<g>
	<path class="st3" d="M6.8,221c1.7,1.4,1.9,3.9,0.5,5.5c-1.4,1.7-3.9,1.9-5.5,0.5c-1.7-1.4-1.9-3.9-0.5-5.5
		C2.7,219.8,5.2,219.6,6.8,221z"/>
	<path class="st3" d="M14,228.1c1.7,1.3,2,3.8,0.7,5.5c-1.3,1.7-3.8,2-5.5,0.7s-2-3.8-0.7-5.5C9.8,227.1,12.3,226.8,14,228.1z"/>
	<path class="st3" d="M22,234c1.8,1.2,2.2,3.7,1,5.5s-3.7,2.2-5.5,1c-1.8-1.2-2.2-3.7-1-5.5C17.8,233.2,20.3,232.8,22,234z"/>
	<path class="st3" d="M30.4,239.4c1.9,1.1,2.4,3.5,1.3,5.4c-1.1,1.9-3.5,2.4-5.4,1.3c-1.9-1.1-2.4-3.5-1.3-5.4
		C26.1,238.9,28.5,238.3,30.4,239.4z"/>
	<path class="st3" d="M39.3,244.4c1.9,1,2.7,3.3,1.7,5.3c-1,1.9-3.3,2.7-5.3,1.7c-1.9-1-2.7-3.3-1.7-5.3
		C35,244.2,37.4,243.4,39.3,244.4z"/>
	<path class="st3" d="M48.6,248.6c2,0.8,3,3.1,2.2,5.1c-0.8,2-3.1,3-5.1,2.2c-2-0.8-3-3.1-2.2-5.1C44.3,248.8,46.6,247.8,48.6,248.6
		z"/>
	<path class="st3" d="M58.2,251.7c2.1,0.5,3.4,2.7,2.8,4.8c-0.5,2.1-2.7,3.4-4.8,2.8c-2.1-0.5-3.4-2.7-2.8-4.8
		C53.9,252.4,56.1,251.2,58.2,251.7z"/>
	<path class="st3" d="M68,253.5c2.2,0.2,3.7,2.1,3.5,4.3c-0.2,2.2-2.1,3.7-4.3,3.5c-2.2-0.2-3.7-2.1-3.5-4.3
		C63.9,254.8,65.8,253.2,68,253.5z"/>
	<path class="st3" d="M77.8,253.6c2.2-0.2,4,1.4,4.2,3.6c0.2,2.2-1.4,4-3.6,4.2c-2.2,0.2-4-1.4-4.2-3.6
		C74.1,255.6,75.7,253.8,77.8,253.6z"/>
	<path class="st3" d="M87.5,251.9c2.1-0.6,4.3,0.6,4.8,2.7c0.6,2.1-0.6,4.3-2.7,4.8c-2.1,0.6-4.3-0.6-4.8-2.7
		C84.2,254.6,85.4,252.5,87.5,251.9z"/>
	<path class="st3" d="M96.6,248.3c1.9-1,4.3-0.2,5.3,1.7c1,1.9,0.2,4.3-1.7,5.3c-1.9,1-4.3,0.2-5.3-1.7
		C93.9,251.6,94.7,249.3,96.6,248.3z"/>
	<path class="st3" d="M105.1,243.1c1.7-1.3,4.2-0.9,5.5,0.8c1.3,1.7,0.9,4.2-0.8,5.5c-1.7,1.3-4.2,0.9-5.5-0.8
		C102.9,246.8,103.3,244.4,105.1,243.1z"/>
	<path class="st3" d="M112.6,236.5c1.5-1.5,4-1.5,5.5,0s1.5,4,0,5.5c-1.5,1.5-4,1.5-5.5,0C111.1,240.5,111.1,238,112.6,236.5z"/>
	<path class="st3" d="M119.4,229c1.4-1.7,3.8-1.9,5.5-0.6c1.7,1.4,1.9,3.8,0.6,5.5s-3.8,1.9-5.5,0.6
		C118.3,233.2,118.1,230.7,119.4,229z"/>
	<path class="st3" d="M125.4,220.8c1.2-1.8,3.6-2.3,5.4-1.1c1.8,1.2,2.3,3.6,1.1,5.4c-1.2,1.8-3.6,2.3-5.4,1.1
		C124.7,225.1,124.2,222.6,125.4,220.8z"/>
	<path class="st3" d="M130.6,212.5c0.9-2,3.2-2.9,5.1-2s2.9,3.2,2,5.1c-0.9,2-3.2,2.9-5.1,2C130.6,216.7,129.8,214.4,130.6,212.5z"
		/>
	<path class="st3" d="M134.9,202.8c0.9-2,3.2-2.8,5.2-1.9c2,0.9,2.8,3.2,1.9,5.2c-0.9,2-3.2,2.8-5.2,1.9
		C134.8,207.1,134,204.7,134.9,202.8z"/>
	<path class="st3" d="M139.4,193.2c1-1.9,3.3-2.7,5.3-1.8c1.9,1,2.7,3.3,1.8,5.3c-1,1.9-3.3,2.7-5.3,1.8
		C139.2,197.5,138.5,195.1,139.4,193.2z"/>
	<path class="st3" d="M144.5,183.7c1.1-1.9,3.5-2.6,5.3-1.5c1.9,1.1,2.6,3.5,1.5,5.3c-1.1,1.9-3.5,2.6-5.3,1.5
		C144.1,187.9,143.4,185.5,144.5,183.7z"/>
	<path class="st3" d="M150.1,174.4c1.2-1.8,3.6-2.3,5.4-1.1s2.3,3.6,1.1,5.4c-1.2,1.8-3.6,2.3-5.4,1.1
		C149.4,178.6,148.9,176.2,150.1,174.4z"/>
	<path class="st3" d="M156.9,165.5c1.4-1.6,3.9-1.8,5.5-0.4c1.6,1.4,1.8,3.9,0.4,5.5c-1.4,1.6-3.9,1.8-5.5,0.4
		C155.6,169.6,155.5,167.1,156.9,165.5z"/>
	<path class="st3" d="M165.9,157.5c1.8-1.2,4.3-0.6,5.4,1.2c1.2,1.8,0.6,4.3-1.2,5.4c-1.8,1.2-4.3,0.6-5.4-1.2
		C163.5,161.1,164.1,158.7,165.9,157.5z"/>
	<path class="st3" d="M179.2,153.8c2.2,0.2,3.8,2,3.6,4.2c-0.2,2.2-2,3.8-4.2,3.6c-2.2-0.2-3.8-2-3.6-4.2
		C175.2,155.2,177.1,153.6,179.2,153.8z"/>
	<path class="st3" d="M191.8,159.5c1.6,1.4,1.8,3.9,0.4,5.5c-1.4,1.6-3.9,1.8-5.5,0.4c-1.6-1.4-1.8-3.9-0.4-5.5
		C187.7,158.2,190.2,158.1,191.8,159.5z"/>
	<path class="st3" d="M199.5,168.6c1.2,1.8,0.7,4.2-1.1,5.4c-1.8,1.2-4.2,0.7-5.4-1.1s-0.7-4.2,1.1-5.4
		C195.9,166.3,198.3,166.8,199.5,168.6z"/>
	<path class="st3" d="M205,178.3c1,1.9,0.2,4.3-1.7,5.3c-1.9,1-4.3,0.2-5.3-1.7c-1-1.9-0.2-4.3,1.7-5.3
		C201.7,175.6,204,176.3,205,178.3z"/>
	<path class="st3" d="M209.6,187.9c0.9,2,0,4.3-2,5.2s-4.3,0-5.2-2s0-4.3,2-5.2C206.4,185.1,208.7,186,209.6,187.9z"/>
	<path class="st3" d="M213.9,197.3c0.9,2,0.1,4.3-1.8,5.2c-2,0.9-4.3,0.1-5.2-1.8s-0.1-4.3,1.8-5.2
		C210.6,194.5,212.9,195.3,213.9,197.3z"/>
	<path class="st3" d="M219.1,205.4c1.4,1.7,1.1,4.2-0.6,5.5c-1.7,1.4-4.2,1.1-5.5-0.6c-1.4-1.7-1.1-4.2,0.6-5.5
		C215.3,203.4,217.8,203.7,219.1,205.4z"/>
	<path class="st3" d="M225.9,212.8c1.6,1.5,1.6,4,0.1,5.5c-1.5,1.6-4,1.6-5.5,0.1c-1.6-1.5-1.6-4-0.1-5.5
		C221.9,211.4,224.3,211.3,225.9,212.8z"/>
	<path class="st3" d="M233.5,219.4c1.7,1.3,2.1,3.7,0.8,5.5c-1.3,1.7-3.7,2.1-5.5,0.8c-1.7-1.3-2.1-3.7-0.8-5.5
		C229.3,218.4,231.8,218.1,233.5,219.4z"/>
	<path class="st3" d="M241.9,224.7c1.9,1,2.7,3.4,1.7,5.3c-1,1.9-3.4,2.7-5.3,1.7c-1.9-1-2.7-3.4-1.7-5.3
		C237.7,224.4,240,223.7,241.9,224.7z"/>
	<path class="st3" d="M251,228.4c2.1,0.6,3.3,2.8,2.7,4.9c-0.6,2.1-2.8,3.3-4.9,2.7c-2.1-0.6-3.3-2.8-2.7-4.9
		C246.8,229,249,227.8,251,228.4z"/>
	<path class="st3" d="M260.5,230c2.2,0.1,3.9,1.9,3.8,4.1c-0.1,2.2-1.9,3.9-4.1,3.8s-3.9-1.9-3.8-4.1
		C256.5,231.5,258.4,229.9,260.5,230z"/>
	<path class="st3" d="M270.1,229.1c2.1-0.5,4.2,0.8,4.7,2.9c0.5,2.1-0.8,4.2-2.9,4.7c-2.1,0.5-4.2-0.8-4.7-2.9
		C266.7,231.6,268,229.5,270.1,229.1z"/>
	<path class="st3" d="M279.2,225.8c1.9-1,4.3-0.2,5.3,1.8s0.2,4.3-1.8,5.3c-1.9,1-4.3,0.2-5.3-1.8
		C276.5,229.1,277.3,226.7,279.2,225.8z"/>
	<path class="st3" d="M287.6,220.6c1.7-1.3,4.2-1,5.5,0.8c1.3,1.7,1,4.2-0.8,5.5s-4.2,1-5.5-0.8
		C285.5,224.3,285.8,221.8,287.6,220.6z"/>
	<path class="st3" d="M295.1,214c1.5-1.5,4-1.5,5.5,0c1.5,1.5,1.5,4,0,5.5s-4,1.5-5.5,0C293.5,218,293.6,215.5,295.1,214z"/>
	<path class="st3" d="M301.9,206.4c1.4-1.7,3.8-1.9,5.5-0.6c1.7,1.4,1.9,3.8,0.6,5.5c-1.4,1.7-3.8,1.9-5.5,0.6
		C300.8,210.6,300.5,208.1,301.9,206.4z"/>
	<path class="st3" d="M308,198.3c1.2-1.8,3.7-2.2,5.5-1s2.2,3.7,1,5.5c-1.2,1.8-3.7,2.2-5.5,1C307.2,202.5,306.8,200,308,198.3z"/>
	<path class="st3" d="M314.1,189.7c1.3-1.8,3.7-2.2,5.5-0.9c1.8,1.3,2.2,3.7,0.9,5.5c-1.3,1.8-3.7,2.2-5.5,0.9
		C313.2,193.9,312.8,191.4,314.1,189.7z"/>
	<path class="st3" d="M320.2,181.2c1.3-1.8,3.7-2.1,5.5-0.9c1.8,1.3,2.1,3.7,0.9,5.5s-3.7,2.1-5.5,0.9
		C319.3,185.4,319,182.9,320.2,181.2z"/>
	<path class="st3" d="M326.5,172.7c1.3-1.7,3.8-2.1,5.5-0.8c1.7,1.3,2.1,3.8,0.8,5.5c-1.3,1.7-3.8,2.1-5.5,0.8
		C325.6,176.9,325.2,174.4,326.5,172.7z"/>
	<path class="st3" d="M333,164.3c1.3-1.7,3.8-2,5.5-0.6c1.7,1.3,2,3.8,0.6,5.5c-1.3,1.7-3.8,2-5.5,0.6
		C331.9,168.5,331.7,166,333,164.3z"/>
	<path class="st3" d="M339.7,156.1c1.4-1.7,3.9-1.9,5.5-0.5s1.9,3.9,0.5,5.5s-3.9,1.9-5.5,0.5C338.5,160.2,338.3,157.8,339.7,156.1z
		"/>
	<path class="st3" d="M346.7,148c1.5-1.6,3.9-1.7,5.5-0.3c1.6,1.5,1.7,3.9,0.3,5.5s-3.9,1.7-5.5,0.3
		C345.3,152.1,345.2,149.6,346.7,148z"/>
	<path class="st3" d="M354,140.2c1.5-1.5,4-1.6,5.5,0c1.5,1.5,1.6,4,0,5.5c-1.5,1.5-4,1.6-5.5,0C352.5,144.2,352.5,141.8,354,140.2z
		"/>
	<path class="st3" d="M361.8,132.8c1.6-1.4,4.1-1.3,5.5,0.3c1.4,1.6,1.3,4.1-0.3,5.5c-1.6,1.4-4.1,1.3-5.5-0.3
		C360,136.7,360.2,134.2,361.8,132.8z"/>
	<path class="st3" d="M370.3,125.8c1.7-1.3,4.2-1,5.5,0.8c1.3,1.7,1,4.2-0.8,5.5s-4.2,1-5.5-0.8
		C368.2,129.6,368.5,127.1,370.3,125.8z"/>
	<path class="st3" d="M379.5,119.6c1.9-1.1,4.3-0.5,5.4,1.4c1.1,1.9,0.5,4.3-1.4,5.4c-1.9,1.1-4.3,0.5-5.4-1.4
		C377,123.1,377.6,120.7,379.5,119.6z"/>
	<path class="st3" d="M389.7,114.7c2-0.8,4.3,0.2,5.1,2.2c0.8,2-0.2,4.3-2.2,5.1c-2,0.8-4.3-0.2-5.1-2.2
		C386.7,117.7,387.7,115.5,389.7,114.7z"/>
	<path class="st3" d="M400.9,111.6c2.1-0.3,4.2,1.1,4.5,3.2c0.3,2.1-1.1,4.2-3.2,4.5s-4.2-1.1-4.5-3.2
		C397.3,113.9,398.8,111.9,400.9,111.6z"/>
	<path class="st3" d="M412.6,111.1c2.2,0.2,3.8,2.1,3.6,4.2c-0.2,2.2-2.1,3.8-4.2,3.6c-2.2-0.2-3.8-2.1-3.6-4.2
		C408.6,112.5,410.5,110.9,412.6,111.1z"/>
	<path class="st3" d="M424.2,113.5c2.1,0.7,3.2,2.9,2.5,5c-0.7,2.1-2.9,3.2-5,2.5c-2.1-0.7-3.2-2.9-2.5-5
		C419.9,113.9,422.2,112.8,424.2,113.5z"/>
	<path class="st3" d="M434.7,118.2c1.9,1.1,2.6,3.5,1.5,5.3c-1.1,1.9-3.5,2.6-5.3,1.5c-1.9-1.1-2.6-3.5-1.5-5.3
		C430.5,117.7,432.8,117.1,434.7,118.2z"/>
	<path class="st3" d="M444.1,124.5c1.7,1.3,2,3.8,0.7,5.5c-1.3,1.7-3.8,2-5.5,0.7c-1.7-1.3-2-3.8-0.7-5.5
		C439.9,123.4,442.4,123.1,444.1,124.5z"/>
	<path class="st3" d="M452.4,131.8c1.6,1.5,1.6,4,0.1,5.5c-1.5,1.6-4,1.6-5.5,0.1s-1.6-4-0.1-5.5
		C448.4,130.3,450.9,130.3,452.4,131.8z"/>
	<path class="st3" d="M459.9,139.7c1.4,1.6,1.3,4.1-0.4,5.5c-1.6,1.4-4.1,1.3-5.5-0.4s-1.3-4.1,0.4-5.5
		C456,137.9,458.4,138.1,459.9,139.7z"/>
	<path class="st3" d="M466.8,147.6c1.4,1.6,1.2,4.1-0.4,5.5c-1.6,1.4-4.1,1.2-5.5-0.4c-1.4-1.6-1.2-4.1,0.4-5.5
		C462.9,145.8,465.4,146,466.8,147.6z"/>
	<path class="st3" d="M473.6,155.6c1.4,1.7,1.2,4.1-0.5,5.5c-1.7,1.4-4.1,1.2-5.5-0.5s-1.2-4.1,0.5-5.5
		C469.7,153.7,472.2,154,473.6,155.6z"/>
	<path class="st3" d="M480.3,163.7c1.4,1.7,1.1,4.1-0.6,5.5s-4.1,1.1-5.5-0.6c-1.4-1.7-1.1-4.1,0.6-5.5
		C476.5,161.8,479,162.1,480.3,163.7z"/>
	<path class="st3" d="M486.9,172c1.3,1.7,1,4.2-0.7,5.5s-4.2,1-5.5-0.7c-1.3-1.7-1-4.2,0.7-5.5C483.1,170,485.6,170.3,486.9,172z"/>
	<path class="st3" d="M493.4,180.3c1.3,1.7,1,4.2-0.8,5.5c-1.7,1.3-4.2,1-5.5-0.8c-1.3-1.7-1-4.2,0.8-5.5
		C489.6,178.3,492.1,178.6,493.4,180.3z"/>
	<path class="st3" d="M499.7,188.9c1.3,1.8,0.9,4.2-0.9,5.5c-1.8,1.3-4.2,0.9-5.5-0.9c-1.3-1.8-0.9-4.2,0.9-5.5
		C496,186.7,498.4,187.1,499.7,188.9z"/>
	<path class="st3" d="M505.7,197.6c1.2,1.8,0.7,4.2-1.1,5.4c-1.8,1.2-4.2,0.7-5.4-1.1c-1.2-1.8-0.7-4.2,1.1-5.4
		C502.1,195.3,504.5,195.8,505.7,197.6z"/>
	<path class="st3" d="M511.6,206.5c1.1,1.8,0.6,4.3-1.3,5.4c-1.8,1.1-4.3,0.6-5.4-1.3s-0.6-4.3,1.3-5.4
		C508,204.1,510.4,204.7,511.6,206.5z"/>
</g>
<path class="st7" d="M76.7,281.7C192.1,264.6,202.8,108.2,260,109.9c57.1,1.7,66.3,164.1,132.1,173.5"/>
<g>
	<rect x="398.7" y="273.2" class="st8" width="115" height="35"/>
	<rect y="273.2" class="st8" width="115" height="35"/>
	<rect x="115" y="273.2" class="st9" width="283.8" height="35"/>
</g>
<g>
	<g>
		<path class="st10" d="M26,284.3H38v1.2h-5.3v0.6h5.9v3.2H37v-2.1h-4.3v2.9h-1.4v-2.9h-4.3v2.1h-1.5v-3.2h5.8v-0.6H26V284.3z
			 M39.1,295.4c-0.1,1.4-0.3,2.3-1.3,2.3h-5.1c-0.8,0-1.4,0-1.4-1v-1.3h-3.6v0.9h-1.5v-5.8h11.7v4.6L39.1,295.4z M27.6,293.4v0.9
			h3.6v-0.9H27.6z M27.7,291.6v0.8h3.5v-0.8H27.7z M27.7,287.9h2.9v0.8h-2.9V287.9z M27.7,289.2h2.9v0.8h-2.9V289.2z M32.7,291.6
			v0.8h3.6v-0.8H32.7z M32.7,293.4v0.9h3.6v-0.9H32.7z M32.7,295.4v0.5c0,0.3,0,0.4,0.4,0.4h4c0.4,0,0.5,0,0.6-1H32.7z M33.4,287.9
			h3v0.8h-3V287.9z M33.4,289.2h3v0.8h-3V289.2z"/>
		<path class="st10" d="M39.9,296.3c4.5-2.5,4.9-5.5,5.2-7.8h-4.8v-1.6h5c0-0.2,0.1-1.2,0.1-2v-1.1h1.7v1.1c0,0.9,0,1.4-0.1,1.9h6.7
			c0,5-0.4,7.8-0.6,8.8c-0.1,0.6-0.5,2.1-2.2,2.1H48l-0.3-1.7h2.5c0.8,0,1-0.5,1.1-1.6c0.2-1.2,0.4-4.4,0.4-6.1h-5.1
			c-0.3,2.9-1,6.5-5.9,9.3L39.9,296.3z"/>
		<path class="st10" d="M57,295c-0.2,0.8-0.5,1.8-1.3,2.9l-1.1-0.8c0.7-0.9,0.9-1.4,1.2-2.6L57,295z M55.3,284.3h3.9v10h-3.9V284.3z
			 M56.6,285.7v1.5h1.3v-1.5H56.6z M56.6,288.5v1.5h1.3v-1.5H56.6z M56.6,291.3v1.6h1.3v-1.6H56.6z M58.7,294.7
			c0.4,0.7,0.8,1.5,1.1,2.4l-1.2,0.5c-0.4-1.2-0.6-1.6-1.1-2.5L58.7,294.7z M66.6,284.7h1.9v1.1h-1.9v0.8h1.4v1.1h-1.4v0.9h2.2v1.1
			h-4v0.7h3.2v3.8h0.8v1.1h-0.8v1.3c0,1-0.5,1.3-1.4,1.3h-1.8l-0.1-1.5h1.5c0.4,0,0.4-0.2,0.4-0.3v-0.8h-4.9v2.6h-1.4v-2.6h-0.8
			v-1.1h0.8v-3.8h3.1v-0.7h-3.9v-1.1h2.1v-0.9h-1.4v-1.1h1.4v-0.8h-1.8v-1.1h1.8v-0.9H63v0.9h2.2v-0.9h1.4V284.7z M61.7,291.5v0.8
			h1.7v-0.8H61.7z M61.7,293.3v0.9h1.7v-0.9H61.7z M63,285.9v0.8h2.2v-0.8H63z M63,287.7v0.9h2.2v-0.9H63z M64.8,291.5v0.8h1.8v-0.8
			H64.8z M64.8,293.3v0.9h1.8v-0.9H64.8z"/>
		<path class="st10" d="M71.8,284.4h5.7c-0.1,5.1,1,8.9,6.4,11.8l-1.1,1.6c-2-1.2-4.9-3.3-6.1-7.7c-1,3.2-2.2,5.1-6.2,7.7l-1.1-1.5
			c3.6-1.9,6.4-5.3,6.4-10.3h-4.1V284.4z"/>
	</g>
</g>
<g>
	<g>
		<path class="st10" d="M430.3,284.1h11.9v1.2h-5.3v0.6h5.9v3.2h-1.6V287h-4.3v2.9h-1.4V287h-4.3v2.1h-1.5v-3.2h5.8v-0.6h-5.2V284.1
			z M443.4,295.1c-0.1,1.4-0.3,2.3-1.3,2.3h-5.1c-0.8,0-1.4,0-1.4-1v-1.3h-3.6v0.9h-1.5v-5.8h11.7v4.6L443.4,295.1z M431.9,293.1
			v0.9h3.6v-0.9H431.9z M431.9,291.3v0.8h3.5v-0.8H431.9z M432,287.6h2.9v0.8H432V287.6z M432,288.9h2.9v0.8H432V288.9z M437,291.3
			v0.8h3.6v-0.8H437z M437,293.1v0.9h3.6v-0.9H437z M437,295.1v0.5c0,0.3,0,0.4,0.4,0.4h4c0.4,0,0.5,0,0.6-1H437z M437.6,287.6h3
			v0.8h-3V287.6z M437.6,288.9h3v0.8h-3V288.9z"/>
		<path class="st10" d="M444.1,296c4.5-2.5,4.9-5.5,5.2-7.8h-4.8v-1.6h5c0-0.2,0.1-1.2,0.1-2v-1.1h1.7v1.1c0,0.9,0,1.4-0.1,1.9h6.7
			c0,5-0.4,7.8-0.6,8.8c-0.1,0.6-0.5,2.1-2.2,2.1h-2.8l-0.3-1.7h2.5c0.8,0,1-0.5,1.1-1.6c0.2-1.2,0.4-4.4,0.4-6.1H451
			c-0.3,2.9-1,6.5-5.9,9.3L444.1,296z"/>
		<path class="st10" d="M461.3,294.8c-0.2,0.8-0.5,1.8-1.3,2.9l-1.1-0.8c0.7-0.9,0.9-1.4,1.2-2.6L461.3,294.8z M459.5,284h3.9v10
			h-3.9V284z M460.8,285.4v1.5h1.3v-1.5H460.8z M460.8,288.2v1.5h1.3v-1.5H460.8z M460.8,291v1.6h1.3V291H460.8z M463,294.4
			c0.4,0.7,0.8,1.5,1.1,2.4l-1.2,0.5c-0.4-1.2-0.6-1.6-1.1-2.5L463,294.4z M470.8,284.5h1.9v1.1h-1.9v0.8h1.4v1.1h-1.4v0.9h2.2v1.1
			h-4v0.7h3.2v3.8h0.8v1.1h-0.8v1.3c0,1-0.5,1.3-1.4,1.3h-1.8l-0.1-1.5h1.5c0.4,0,0.4-0.2,0.4-0.3V295h-4.9v2.6h-1.4V295h-0.8v-1.1
			h0.8v-3.8h3.1v-0.7h-3.9v-1.1h2.1v-0.9h-1.4v-1.1h1.4v-0.8h-1.8v-1.1h1.8v-0.9h1.3v0.9h2.2v-0.9h1.4V284.5z M465.9,291.2v0.8h1.7
			v-0.8H465.9z M465.9,293v0.9h1.7V293H465.9z M467.3,285.6v0.8h2.2v-0.8H467.3z M467.3,287.5v0.9h2.2v-0.9H467.3z M469,291.2v0.8
			h1.8v-0.8H469z M469,293v0.9h1.8V293H469z"/>
		<path class="st10" d="M476.1,284.1h5.7c-0.1,5.1,1,8.9,6.4,11.8l-1.1,1.6c-2-1.2-4.9-3.3-6.1-7.7c-1,3.2-2.2,5.1-6.2,7.7l-1.1-1.5
			c3.6-1.9,6.4-5.3,6.4-10.3h-4.1V284.1z"/>
	</g>
</g>
<g>
	<g>
		<path class="st10" d="M159.4,284.8h11.9v1.2H166v0.6h5.9v3.2h-1.6v-2.1H166v2.9h-1.4v-2.9h-4.3v2.1h-1.5v-3.2h5.8V286h-5.2V284.8z
			 M172.5,295.9c-0.1,1.4-0.3,2.3-1.3,2.3H166c-0.8,0-1.4,0-1.4-1v-1.3H161v0.9h-1.5v-5.8h11.7v4.6L172.5,295.9z M161,293.8v0.9h3.6
			v-0.9H161z M161,292v0.8h3.5V292H161z M161.1,288.3h2.9v0.8h-2.9V288.3z M161.1,289.6h2.9v0.8h-2.9V289.6z M166,292v0.8h3.6V292
			H166z M166,293.8v0.9h3.6v-0.9H166z M166,295.8v0.5c0,0.3,0,0.4,0.4,0.4h4c0.4,0,0.5,0,0.6-1H166z M166.7,288.3h3v0.8h-3V288.3z
			 M166.7,289.6h3v0.8h-3V289.6z"/>
		<path class="st10" d="M173.2,296.7c4.5-2.5,4.9-5.5,5.2-7.8h-4.8v-1.6h5c0-0.2,0.1-1.2,0.1-2v-1.1h1.7v1.1c0,0.9,0,1.4-0.1,1.9
			h6.7c0,5-0.4,7.8-0.6,8.8c-0.1,0.6-0.5,2.1-2.2,2.1h-2.8l-0.3-1.7h2.5c0.8,0,1-0.5,1.1-1.6c0.2-1.2,0.4-4.4,0.4-6.1h-5.1
			c-0.3,2.9-1,6.5-5.9,9.3L173.2,296.7z"/>
		<path class="st10" d="M194.5,284.9c0,0.3-0.1,0.6-0.2,1.3h6.1v1.5h-6.5c-0.2,0.6-0.4,1-0.5,1.3c0.6-0.3,1-0.4,1.7-0.4
			c1.3,0,1.9,0.5,2.4,1.7c1.5-0.6,2.8-1,3.6-1.2l0.4,1.7c-0.7,0.1-1.8,0.4-3.6,1.1c0.1,0.7,0.1,1.4,0,2.8h-1.7
			c0-0.4,0.1-0.6,0.1-1.1c0-0.4,0-0.7,0-1c-0.7,0.3-2.5,1.2-2.5,2.3c0,1.3,1.7,1.3,3.1,1.3c0.2,0,1.7,0,3.7-0.2v1.6
			c-1.1,0-2.4,0.1-3.5,0.1c-1.6,0-3.2,0-4.2-0.8c-0.3-0.2-0.9-0.8-0.9-1.9c0-1.5,1.5-2.6,4-3.9c-0.1-0.5-0.4-0.9-1.2-0.9
			c-1.3,0-2.6,1.2-3.1,1.9c-0.9,1.4-1,1.5-1.7,2.3l-1.2-1.3c1.5-1.5,2.7-3.3,3.4-5.3h-3v-1.5h3.4c0.1-0.7,0.2-1,0.2-1.5L194.5,284.9
			z"/>
		<path class="st10" d="M203.2,296.9c1.8-0.1,3.4-0.8,4-1.1h-2.9v-6.6h11.4v6.6h-2.6c1.4,0.6,2.3,1,3.8,1.1l-0.8,1.4
			c-1.9-0.3-3.3-0.9-4.5-1.8l0.9-0.7h-5.1l1.1,0.8c-0.8,0.5-3.1,1.4-4.6,1.7L203.2,296.9z M203.7,284.8h12.8v3.6h-12.8V284.8z
			 M205.1,287.3h2.4v-1.4h-2.4V287.3z M205.9,291.1h8.4v-0.8h-8.4V291.1z M205.9,292.9h8.4V292h-8.4V292.9z M205.9,294.7h8.4v-0.9
			h-8.4V294.7z M208.9,287.3h2.4v-1.4h-2.4V287.3z M212.6,287.3h2.4v-1.4h-2.4V287.3z"/>
		<path class="st10" d="M223.9,295.7c0.7,0,3,0,4.3-1.1c0.9-0.7,1.3-1.9,1.3-2.9c0-1.7-0.9-3-2.9-3c-1.9,0-3.3,1.1-4.3,2.1v6.7h-1.7
			l0.1-4.6c-0.6,1-0.6,1.1-1.5,2.1l-1-1.6c0.4-0.4,1.5-1.4,2.6-3.3l0-1.5h-2.1v-1.5h2.1V285h1.6l0,2.2h0.6v0.8
			c-0.2,0.3-0.4,0.8-0.6,1.1v0.1c0.6-0.5,2.2-1.8,4.6-1.8c2.9,0,4.3,2.3,4.3,4.6c0,5-4.6,5.4-6.9,5.5L223.9,295.7z"/>
		<path class="st10" d="M238,284.9c0,0.2-0.3,1.7-0.4,1.8h3.1v1.5h-3.4c-0.4,1.9-1.6,6.1-2.5,7.9l-1.6-0.7c0.3-0.7,1.6-3.5,2.4-7.2
			h-2.4v-1.5h2.7c0.1-0.7,0.2-1.2,0.3-1.8L238,284.9z M246.2,288.2c-0.5,0-0.8-0.1-1.3-0.1c-0.9,0-1.3,0.1-1.7,0.1l0.1,4.5
			c2.1,1,2.8,1.7,3.2,2l-1,1.6c-0.3-0.3-1.1-1.1-2.2-1.8c0,0.3,0,1.4-0.3,2c-0.5,0.9-1.8,1.2-2.8,1.2c-3.1,0-3.5-2-3.5-2.7
			c0-1.7,1.4-2.9,3.7-2.9c0.6,0,0.9,0.1,1.2,0.1l-0.2-5.4c1.1-0.2,2-0.3,4.6-0.4L246.2,288.2z M241.8,293.7
			c-0.4-0.1-0.8-0.2-1.4-0.2c-1.2,0-2.1,0.6-2.1,1.5c0,1,1.2,1.2,1.8,1.2c1.7,0,1.7-1,1.7-1.4V293.7z"/>
		<path class="st10" d="M258.1,297.9c-2-1.6-4.2-3.1-6.4-4.4c-1.2-0.7-2.3-1.3-2.3-2.3c0-0.7,0.7-1.5,2.3-2.8c3-2.5,3.4-2.8,4.4-3.9
			l1.6,1.1c-2.1,1.8-2.4,2.1-5.3,4.3c-0.7,0.6-1,0.8-1,1.1c0,0.4,0.7,0.7,1.1,1c2.2,1.2,5.7,3.4,7.1,4.5L258.1,297.9z"/>
		<path class="st10" d="M275.9,287.2c-0.3,0-0.7-0.1-1.3-0.1c-1.3,0-2.2,0.4-2.9,0.7c-2.1,1.1-4,3.1-4,5.1c0,2.3,2.6,3.1,6.9,2.9
			l-0.2,1.8c-3.2,0-4.8-0.4-6.1-1.1c-1.3-0.7-2.2-2.1-2.2-3.5c0-1.5,0.8-3.9,4.1-5.9c-2.3,0.1-4.6,0.3-6.9,0.5l-0.1-1.7
			c1,0,2.1-0.1,3.2-0.1c1.3-0.1,8.1-0.3,9.6-0.4L275.9,287.2z"/>
		<path class="st10" d="M281.1,293c-0.5,1.3-1.7,3.9-2.8,5.3l-1-1.5c1.5-1.9,2.3-4.1,2.6-4.7L281.1,293z M278,288.5
			c1.5,0.7,2.1,1.2,2.4,1.4l-1,1.3c-0.7-0.6-1.4-1-2.2-1.5L278,288.5z M278.8,284.4c0.7,0.4,1.7,1,2.3,1.4l-0.9,1.3
			c-0.7-0.6-1.2-1-2.3-1.5L278.8,284.4z M283.8,291.9h5.1v-0.7h1.5v7.1h-1.5v-2.7h-5.4c-0.4,1.4-0.9,2.1-1.7,2.7l-1.2-1
			c0.8-0.6,1.7-1.4,1.7-4.1v-2h1.5V291.9z M281.1,289.6c0.7-0.1,1.9-0.2,3.8-0.9c-0.3-0.2-1.2-0.8-2-2.1h-1.5v-1.3h4.2v-1.1h1.6v1.1
			h4.2v1.3h-1.5c-0.3,0.5-0.7,1.2-1.9,2.1c1.2,0.4,2.4,0.6,3.8,0.8l-0.5,1.5c-0.8-0.1-2.7-0.3-4.9-1.4c-1.1,0.5-2.5,1-4.8,1.4
			L281.1,289.6z M288.8,294.3v-1.1h-5.1c0,0.3,0,0.6-0.1,1.1H288.8z M284.4,286.7c0.8,0.9,1.5,1.2,1.9,1.4c1.1-0.5,1.4-1,1.8-1.4
			H284.4z"/>
		<path class="st10" d="M296.3,286.5v-1.6h1.6v1.6h3.2v1.5h-3.2l0,3c0,0,0,0.2,0.1,0.2c0,0.1,0.1,0.5,0.1,0.7c0,0.6-0.1,1.1-0.3,1.6
			c-0.2,0.5-0.4,1.1-0.4,1.7c0,0.7,0.2,0.8,2.6,0.8c1.9,0,3.7,0,3.7-1.9c0-1.7-1.1-3.1-1.5-3.6l1.5-0.7c0.4,0.6,1.8,2.2,1.8,4.4
			c0,2.7-2.1,3.2-2.7,3.3c-0.4,0.1-0.7,0.1-3,0.1c-1.6,0-3.9,0-3.9-1.7c0-0.2,0.1-0.4,0.2-0.8c-0.3,0.1-0.4,0.1-0.6,0.1
			c-2.4,0-2.4-2.4-2.4-2.8c0-1.1,0.4-3.2,2.7-3.2c0.4,0,0.5,0.1,0.7,0.1V288h-3v-1.5H296.3z M294.3,292.3c0,0.7,0.3,1.2,1,1.2
			c0.5,0,0.7-0.2,0.8-0.5c0.2-0.5,0.3-1,0.3-1.2c0-1-0.4-1.2-0.9-1.2C294.4,290.7,294.3,292.1,294.3,292.3z M304.8,289.2
			c-0.8-1.1-2-2.4-3.3-3.1l1.1-1.2c1.2,0.6,2.6,1.8,3.5,3L304.8,289.2z"/>
		<path class="st10" d="M307.6,284.9h4.6v11.3H309v1.1h-1.4V284.9z M309,286.4v3.3h1.8v-3.3H309z M309,291.2v3.6h1.8v-3.6H309z
			 M320.7,287h-3.1v1.7h3.5v1.4h-1.5v1.5h1.4v1.4h-1.4v3.6c0,0.4,0,1.5-1.4,1.5h-2.4l-0.3-1.5h2.2c0.1,0,0.3,0,0.3-0.2v-3.4h-5.3
			v-1.4h5.3v-1.5h-5.5v-1.4h3.5V287h-3v-1.4h3v-1.3h1.5v1.3h3.1V287z M314.1,293.3c1,0.9,1.4,1.4,2,2.4l-1.3,1
			c-0.8-1.3-1-1.6-1.9-2.5L314.1,293.3z"/>
		<path class="st10" d="M322.6,284.9h5.7v5.4h-4.2v7.9h-1.5V284.9z M324.1,286.1v1h2.7v-1H324.1z M324.1,288.1v1h2.7v-1H324.1z
			 M332.5,291.2v5.5h-6.9v-5.5H332.5z M327,292.4v1h4.1v-1H327z M327,294.4v1.1h4.1v-1.1H327z M334,290.4h-4.4v-5.4h5.9v11.9
			c0,0.4,0,1.4-1,1.4h-2.3l-0.2-1.5h1.7c0.2,0,0.3-0.1,0.3-0.4V290.4z M331.1,286.1v1h3v-1H331.1z M331.1,288.1v1h3v-1H331.1z"/>
		<path class="st10" d="M338.8,284.3h1.5v1.1h2.9v-1.1h1.5v1.1h3v-1.1h1.5v1.1h1.8v1.3h-1.8v2.1h-10.3v-2.1H337v-1.3h1.8V284.3z
			 M338.8,293h-1.4v-3.4h13.3v3.4h-1.5v3.3c0,0.4-0.1,1.2-1,1.2h-2.1l-0.3-1.5h1.7c0.3,0,0.3-0.2,0.3-0.4v-2.1h-3v4.9h-1.5v-4.9
			h-2.9v4.1h-1.5V293z M343.2,292.1v-1.1h-4.4v1.1H343.2z M340.3,286.7v1h2.9v-1H340.3z M344.6,286.7v1h3v-1H344.6z M349.1,292.1
			v-1.1h-4.5v1.1H349.1z"/>
	</g>
</g>
<g>
	<g>
		<path class="st11" d="M220.8,142c-1.7,0.9-2.8,1.3-3.5,1.5l-1-2.1c3.7-1.1,6.9-3,8.8-5.3h2.1c3.3,3.6,7.1,4.9,8.8,5.4l-1.1,2
			c-0.7-0.3-1.9-0.7-3.5-1.6v1.6h-4.3v2.1h7.9v1.9h-7.9v5.6c0,0.8,0,1.9-1.6,1.9h-3.7l-0.4-2.1h2.9c0.4,0,0.6-0.1,0.6-0.6v-4.8h-8
			v-1.9h8v-2.1h-4.3V142z M222.7,149c-1.1,2.1-2.9,3.9-4.6,5.1l-1.5-1.6c1.6-0.9,3.3-2.6,4.2-4.2L222.7,149z M231,141.7
			c-2.9-1.7-4.2-3.1-4.8-3.8c-1.5,1.8-3.6,3.1-4.8,3.8H231z M234.3,154.1c-2-1.2-3.4-2.7-5-5.1l1.9-0.8c1,1.6,2.8,3.3,4.4,4.3
			L234.3,154.1z"/>
		<path class="st11" d="M242.2,139c-1.8,0.1-3.2,0.2-4.6,0.2l-0.5-1.8c6-0.1,8.5-0.5,10.9-1.2l0.7,1.8c-0.6,0.2-1.9,0.6-4.7,0.8v1.3
			h4.8v1.7h-1.4v1.7h1.7v1.6h-1.7v1.9h1.4v1.6h-3.5c1.3,1.9,2.5,2.8,4,3.6l-1.3,1.8c-0.9-0.7-2.6-1.9-4-4.6v5.6h-1.8v-5.5
			c-1.4,2.2-3,3.6-4.4,4.8l-1-1.8c0.7-0.5,2.4-1.6,4.2-3.9h-3.4V147h1.4v-1.9h-1.7v-1.6h1.7v-1.7h-1.4v-1.7h4.7V139z M240.5,141.8
			v1.7h1.7v-1.7H240.5z M240.5,145.2v1.9h1.7v-1.9H240.5z M243.9,141.8v1.7h1.7v-1.7H243.9z M243.9,145.2v1.9h1.7v-1.9H243.9z
			 M249.6,137.4h2v12.9h-2V137.4z M253.2,136.2h2v17.2c0,1.7-1.3,1.7-1.8,1.7h-2.7l-0.4-2.2h2.4c0.2,0,0.5,0,0.5-0.5V136.2z"/>
		<path class="st11" d="M260.1,143.6c-0.9,0.8-1.5,1.3-2.1,1.7l-1.5-1.8c2.6-1.4,5.1-4.4,6-7.3l2.1,0.5c-0.7,1.9-1.8,4.2-4.4,6.7
			h12.4c0,2-0.1,7.3-0.8,9.9c-0.5,1.8-1.9,1.9-2.8,1.9h-3.1l-0.4-2.1h3.1c1.1,0,1.3-1,1.5-1.9c0.2-0.9,0.4-2.8,0.4-5.7H266
			c-0.5,5.4-3.3,8-7.5,9.8l-1.2-1.9c4.4-1.8,6.1-3.7,6.6-7.8h-3.7V143.6z M275,145.1c-1.7-1.1-5.1-4.7-6.5-8.4l2.1-0.6
			c1,2.5,3.2,5.6,5.9,7.3L275,145.1z"/>
		<path class="st11" d="M281.5,137.3c-0.7,2.7-0.8,5.6-0.8,8.4c0,2.7,0.2,5.4,0.7,8.1l-2.3,0.3c-0.5-2.8-0.6-5.7-0.6-8.5
			c0-2.8,0.1-5.7,0.7-8.5L281.5,137.3z M288.9,140.4V137h2.2v3.4h3.8v2.1h-3.8l0.1,5.2c1.7,0.8,3.3,2.1,4.2,3l-1.5,1.9
			c-1.1-1.2-1.7-1.7-2.8-2.6c0,1.6-0.1,4-4,4c-4.3,0-4.5-3-4.5-3.5c0-2,1.7-3.8,4.5-3.8c0.2,0,0.9,0,1.8,0.2l-0.1-4.5h-6v-2.1H288.9
			z M289.1,149c-0.4-0.2-0.9-0.4-1.7-0.4c-1.6,0-2.5,0.7-2.5,1.8c0,0.3,0.1,1.6,2.3,1.6c1.9,0,1.9-0.8,1.9-1.7V149z"/>
		<path class="st11" d="M202.5,159.8c0,1.7-0.2,10.3-0.2,10.8c0,3.1,0.7,4.1,3.4,4.1c4.6,0,5.6-2.7,6.4-6.1l2.2,0.6
			c-0.5,2.3-1.6,7.6-8.3,7.6c-3,0-4.5-1-5.2-2.1c-0.8-1.3-0.8-3-0.8-6.6c0-1.8,0-4.5,0.1-8.4L202.5,159.8z"/>
		<path class="st11" d="M221.4,174.4c6.3,0,9.5-0.8,9.5-4.5c0-2-1.1-3.1-3.3-3.1c-1.9,0-6.3,0.9-8.4,1.4l-0.4-2.3
			c0.7-0.1,3.9-0.6,4.6-0.7c0.6-0.1,3-0.5,4.3-0.5c2.4,0,5.5,1.2,5.5,5.2c0,5.2-4.7,5.9-6.4,6.2c-1.4,0.2-3.2,0.3-5.1,0.3
			L221.4,174.4z"/>
		<path class="st11" d="M243.9,159.7c-0.1,0.9-0.2,1.7-0.4,3.6h2.4c4.1,0,4.3,3.6,4.3,5.6c0,0.8-0.1,3.9-1,6c-0.9,2-2.9,2-3.6,2
			c-1.1,0-2.4-0.2-3-0.2l-0.1-2.2c0.6,0.1,1.5,0.3,2.7,0.3c1.3,0,1.9-0.3,2.3-1.6c0.3-1,0.6-3.5,0.6-4.8c0-2.1-0.6-3-2.4-3l-2.5,0
			c-1.3,7.1-3,10.2-3.6,11.3l-2.3-0.9c2.3-3.7,3.2-8.4,3.6-10.4l-3.1,0v-2.2h3.4c0.2-1.5,0.3-2.6,0.4-3.7L243.9,159.7z M253.2,170.8
			c-0.5-5.5-2.2-7.5-3-8.3l1.7-1.1c1.1,1.1,3,3.2,3.6,9.1L253.2,170.8z"/>
		<path class="st11" d="M263.3,159.7c-0.4,1.5-0.5,2.6-0.8,4.5c1.3-1.8,3.1-2.9,5.2-2.9c2.7,0,5.3,2.3,5.3,7c0,5.7-2.8,8.6-11.2,8.6
			l-0.4-2.1c4.6-0.1,9.4-0.3,9.4-6.3c0-4.3-2-5-3.1-5c-0.7,0-3.8,0.3-5.4,5.4c0,1.7,0.1,2.2,0.2,2.9l-2.2,0.2c-0.1-1-0.2-1.6-0.2-3
			c0-0.9,0-5.3,0.8-9.4L263.3,159.7z"/>
		<path class="st11" d="M294.5,169.6c-0.4-0.6-0.7-1-1.7-1.9c-0.7,0.1-1.9,0.2-2.5,0.3v7c0,0.3,0.3,0.3,0.6,0.3h2.1
			c0.5,0,0.7,0,0.9-0.7c0.1-0.3,0.3-1.1,0.3-2.9l2.1,0.5c-0.3,3.7-0.7,5-2.8,5h-3c-0.9,0-2.2-0.1-2.2-1.4v-7.8
			c-1.5,0.1-1.6,0.1-3.2,0.2c-0.3,5.6-2.2,8.1-6.7,9.5l-1.1-2c4.6-1.3,5.4-3.5,5.7-7.4c-1.7,0.1-4.3,0.2-5.1,0.2l-0.1-2.1
			c0.4,0,2.3,0,2.8,0c0.2-0.3,1.8-2.6,2.4-3.8h-5.8v-2h8.4v-1.9h2.1v1.9h8.4v2h-10.6c-0.7,1.2-1.9,3.1-2.4,3.7
			c3.6-0.1,4.2-0.1,7.6-0.4c-0.5-0.4-1-0.7-2-1.4l1.5-1.5c2.5,1.5,4.1,2.7,5.9,4.7L294.5,169.6z"/>
		<path class="st11" d="M298.8,159.5h16.2v1.7h-7.2v0.8h8v4.3h-2.1v-2.9h-5.9v4h-1.9v-4H300v2.9h-2.1V162h7.9v-0.8h-7V159.5z
			 M316.5,174.5c-0.1,1.9-0.4,3.1-1.8,3.1h-7c-1,0-2-0.1-2-1.4v-1.8h-4.9v1.2h-2v-7.9h15.8v6.2L316.5,174.5z M300.9,171.7v1.2h4.9
			v-1.2H300.9z M301,169.3v1.1h4.8v-1.1H301z M301,164.2h4v1h-4V164.2z M301,166h4v1.1h-4V166z M307.8,169.3v1.1h4.9v-1.1H307.8z
			 M307.8,171.7v1.2h4.9v-1.2H307.8z M307.8,174.5v0.7c0,0.4,0,0.6,0.5,0.6h5.4c0.6,0,0.7-0.1,0.8-1.3H307.8z M308.7,164.2h4v1h-4
			V164.2z M308.7,166h4v1.1h-4V166z"/>
	</g>
	<g>
		<path class="st12" d="M220.8,142c-1.7,0.9-2.8,1.3-3.5,1.5l-1-2.1c3.7-1.1,6.9-3,8.8-5.3h2.1c3.3,3.6,7.1,4.9,8.8,5.4l-1.1,2
			c-0.7-0.3-1.9-0.7-3.5-1.6v1.6h-4.3v2.1h7.9v1.9h-7.9v5.6c0,0.8,0,1.9-1.6,1.9h-3.7l-0.4-2.1h2.9c0.4,0,0.6-0.1,0.6-0.6v-4.8h-8
			v-1.9h8v-2.1h-4.3V142z M222.7,149c-1.1,2.1-2.9,3.9-4.6,5.1l-1.5-1.6c1.6-0.9,3.3-2.6,4.2-4.2L222.7,149z M231,141.7
			c-2.9-1.7-4.2-3.1-4.8-3.8c-1.5,1.8-3.6,3.1-4.8,3.8H231z M234.3,154.1c-2-1.2-3.4-2.7-5-5.1l1.9-0.8c1,1.6,2.8,3.3,4.4,4.3
			L234.3,154.1z"/>
		<path class="st12" d="M242.2,139c-1.8,0.1-3.2,0.2-4.6,0.2l-0.5-1.8c6-0.1,8.5-0.5,10.9-1.2l0.7,1.8c-0.6,0.2-1.9,0.6-4.7,0.8v1.3
			h4.8v1.7h-1.4v1.7h1.7v1.6h-1.7v1.9h1.4v1.6h-3.5c1.3,1.9,2.5,2.8,4,3.6l-1.3,1.8c-0.9-0.7-2.6-1.9-4-4.6v5.6h-1.8v-5.5
			c-1.4,2.2-3,3.6-4.4,4.8l-1-1.8c0.7-0.5,2.4-1.6,4.2-3.9h-3.4V147h1.4v-1.9h-1.7v-1.6h1.7v-1.7h-1.4v-1.7h4.7V139z M240.5,141.8
			v1.7h1.7v-1.7H240.5z M240.5,145.2v1.9h1.7v-1.9H240.5z M243.9,141.8v1.7h1.7v-1.7H243.9z M243.9,145.2v1.9h1.7v-1.9H243.9z
			 M249.6,137.4h2v12.9h-2V137.4z M253.2,136.2h2v17.2c0,1.7-1.3,1.7-1.8,1.7h-2.7l-0.4-2.2h2.4c0.2,0,0.5,0,0.5-0.5V136.2z"/>
		<path class="st12" d="M260.1,143.6c-0.9,0.8-1.5,1.3-2.1,1.7l-1.5-1.8c2.6-1.4,5.1-4.4,6-7.3l2.1,0.5c-0.7,1.9-1.8,4.2-4.4,6.7
			h12.4c0,2-0.1,7.3-0.8,9.9c-0.5,1.8-1.9,1.9-2.8,1.9h-3.1l-0.4-2.1h3.1c1.1,0,1.3-1,1.5-1.9c0.2-0.9,0.4-2.8,0.4-5.7H266
			c-0.5,5.4-3.3,8-7.5,9.8l-1.2-1.9c4.4-1.8,6.1-3.7,6.6-7.8h-3.7V143.6z M275,145.1c-1.7-1.1-5.1-4.7-6.5-8.4l2.1-0.6
			c1,2.5,3.2,5.6,5.9,7.3L275,145.1z"/>
		<path class="st12" d="M281.5,137.3c-0.7,2.7-0.8,5.6-0.8,8.4c0,2.7,0.2,5.4,0.7,8.1l-2.3,0.3c-0.5-2.8-0.6-5.7-0.6-8.5
			c0-2.8,0.1-5.7,0.7-8.5L281.5,137.3z M288.9,140.4V137h2.2v3.4h3.8v2.1h-3.8l0.1,5.2c1.7,0.8,3.3,2.1,4.2,3l-1.5,1.9
			c-1.1-1.2-1.7-1.7-2.8-2.6c0,1.6-0.1,4-4,4c-4.3,0-4.5-3-4.5-3.5c0-2,1.7-3.8,4.5-3.8c0.2,0,0.9,0,1.8,0.2l-0.1-4.5h-6v-2.1H288.9
			z M289.1,149c-0.4-0.2-0.9-0.4-1.7-0.4c-1.6,0-2.5,0.7-2.5,1.8c0,0.3,0.1,1.6,2.3,1.6c1.9,0,1.9-0.8,1.9-1.7V149z"/>
		<path class="st12" d="M202.5,159.8c0,1.7-0.2,10.3-0.2,10.8c0,3.1,0.7,4.1,3.4,4.1c4.6,0,5.6-2.7,6.4-6.1l2.2,0.6
			c-0.5,2.3-1.6,7.6-8.3,7.6c-3,0-4.5-1-5.2-2.1c-0.8-1.3-0.8-3-0.8-6.6c0-1.8,0-4.5,0.1-8.4L202.5,159.8z"/>
		<path class="st12" d="M221.4,174.4c6.3,0,9.5-0.8,9.5-4.5c0-2-1.1-3.1-3.3-3.1c-1.9,0-6.3,0.9-8.4,1.4l-0.4-2.3
			c0.7-0.1,3.9-0.6,4.6-0.7c0.6-0.1,3-0.5,4.3-0.5c2.4,0,5.5,1.2,5.5,5.2c0,5.2-4.7,5.9-6.4,6.2c-1.4,0.2-3.2,0.3-5.1,0.3
			L221.4,174.4z"/>
		<path class="st12" d="M243.9,159.7c-0.1,0.9-0.2,1.7-0.4,3.6h2.4c4.1,0,4.3,3.6,4.3,5.6c0,0.8-0.1,3.9-1,6c-0.9,2-2.9,2-3.6,2
			c-1.1,0-2.4-0.2-3-0.2l-0.1-2.2c0.6,0.1,1.5,0.3,2.7,0.3c1.3,0,1.9-0.3,2.3-1.6c0.3-1,0.6-3.5,0.6-4.8c0-2.1-0.6-3-2.4-3l-2.5,0
			c-1.3,7.1-3,10.2-3.6,11.3l-2.3-0.9c2.3-3.7,3.2-8.4,3.6-10.4l-3.1,0v-2.2h3.4c0.2-1.5,0.3-2.6,0.4-3.7L243.9,159.7z M253.2,170.8
			c-0.5-5.5-2.2-7.5-3-8.3l1.7-1.1c1.1,1.1,3,3.2,3.6,9.1L253.2,170.8z"/>
		<path class="st12" d="M263.3,159.7c-0.4,1.5-0.5,2.6-0.8,4.5c1.3-1.8,3.1-2.9,5.2-2.9c2.7,0,5.3,2.3,5.3,7c0,5.7-2.8,8.6-11.2,8.6
			l-0.4-2.1c4.6-0.1,9.4-0.3,9.4-6.3c0-4.3-2-5-3.1-5c-0.7,0-3.8,0.3-5.4,5.4c0,1.7,0.1,2.2,0.2,2.9l-2.2,0.2c-0.1-1-0.2-1.6-0.2-3
			c0-0.9,0-5.3,0.8-9.4L263.3,159.7z"/>
		<path class="st12" d="M294.5,169.6c-0.4-0.6-0.7-1-1.7-1.9c-0.7,0.1-1.9,0.2-2.5,0.3v7c0,0.3,0.3,0.3,0.6,0.3h2.1
			c0.5,0,0.7,0,0.9-0.7c0.1-0.3,0.3-1.1,0.3-2.9l2.1,0.5c-0.3,3.7-0.7,5-2.8,5h-3c-0.9,0-2.2-0.1-2.2-1.4v-7.8
			c-1.5,0.1-1.6,0.1-3.2,0.2c-0.3,5.6-2.2,8.1-6.7,9.5l-1.1-2c4.6-1.3,5.4-3.5,5.7-7.4c-1.7,0.1-4.3,0.2-5.1,0.2l-0.1-2.1
			c0.4,0,2.3,0,2.8,0c0.2-0.3,1.8-2.6,2.4-3.8h-5.8v-2h8.4v-1.9h2.1v1.9h8.4v2h-10.6c-0.7,1.2-1.9,3.1-2.4,3.7
			c3.6-0.1,4.2-0.1,7.6-0.4c-0.5-0.4-1-0.7-2-1.4l1.5-1.5c2.5,1.5,4.1,2.7,5.9,4.7L294.5,169.6z"/>
		<path class="st12" d="M298.8,159.5h16.2v1.7h-7.2v0.8h8v4.3h-2.1v-2.9h-5.9v4h-1.9v-4H300v2.9h-2.1V162h7.9v-0.8h-7V159.5z
			 M316.5,174.5c-0.1,1.9-0.4,3.1-1.8,3.1h-7c-1,0-2-0.1-2-1.4v-1.8h-4.9v1.2h-2v-7.9h15.8v6.2L316.5,174.5z M300.9,171.7v1.2h4.9
			v-1.2H300.9z M301,169.3v1.1h4.8v-1.1H301z M301,164.2h4v1h-4V164.2z M301,166h4v1.1h-4V166z M307.8,169.3v1.1h4.9v-1.1H307.8z
			 M307.8,171.7v1.2h4.9v-1.2H307.8z M307.8,174.5v0.7c0,0.4,0,0.6,0.5,0.6h5.4c0.6,0,0.7-0.1,0.8-1.3H307.8z M308.7,164.2h4v1h-4
			V164.2z M308.7,166h4v1.1h-4V166z"/>
	</g>
</g>
<path class="st3" d="M168.9,149.2c-19.6-59.6-44.7-73.2-61.7-73.6c-14-0.3-40.1,6.5-50.2,28.8v-0.5c8.2-18,26.3-36.7,50.2-36.2
	c35.5,0.8,59.8,43.1,69.6,78.4L168.9,149.2z"/>
<polygon class="st3" points="176,154.7 182.3,132.4 156.2,142.8 "/>
<polygon class="st3" points="400.6,110.6 402.6,87.6 378.8,102.6 "/>
<path class="st3" d="M392.3,103.4c-19.3-30.9-52.7-33.5-70.5-32c-28.4,2.3-55,14.5-61.2,26.8h-0.3c8.3-16.7,32.4-33,60.8-35.3
	c19.5-1.6,56.2,1.3,77.8,35.5L392.3,103.4z"/>
<g>
	<rect x="242" y="49.4" class="st9" width="4.4" height="2.1"/>
	<rect x="270.5" y="49.4" class="st9" width="4.4" height="2.1"/>
	<polygon class="st9" points="243.6,57.8 244.7,59.6 248.5,57.3 247.5,55.5 	"/>
	<polygon class="st9" points="273.3,43.1 272.2,41.3 268.4,43.5 269.4,45.3 	"/>
	<polygon class="st9" points="249.3,64.2 251.1,65.2 253.3,61.4 251.5,60.3 	"/>
	<polygon class="st9" points="267.6,36.6 265.8,35.6 263.6,39.4 265.4,40.5 	"/>
	<rect x="257.4" y="62.5" class="st9" width="2.1" height="4.4"/>
	<rect x="257.4" y="33.9" class="st9" width="2.1" height="4.4"/>
	<polygon class="st9" points="263.6,61.4 265.8,65.2 267.6,64.2 265.4,60.3 	"/>
	<polygon class="st9" points="253.3,39.4 251.1,35.6 249.3,36.6 251.5,40.5 	"/>
	<polygon class="st9" points="268.4,57.3 272.2,59.6 273.3,57.8 269.4,55.5 	"/>
	<polygon class="st9" points="248.5,43.5 244.7,41.3 243.6,43.1 247.5,45.3 	"/>
	<path class="st9" d="M258.5,40.3c-5.6,0-10.1,4.5-10.1,10.1s4.5,10.1,10.1,10.1c5.6,0,10.1-4.5,10.1-10.1
		C268.5,44.9,264,40.3,258.5,40.3z"/>
</g>
<g>
	<path class="st8" d="M35.1,56.5c-6.7,0-12.1-5.4-12.1-12.1c0-3.2,1.3-6.1,3.3-8.3C19.9,37.1,15,42.6,15,49.3
		c0,7.3,5.9,13.3,13.3,13.3c5.1,0,9.5-2.9,11.7-7.1C38.5,56.1,36.8,56.5,35.1,56.5z"/>
	<path class="st8" d="M32.3,45.4c0.1,0.1,0.1,0.1,0.1,0.2l-0.4,2.6c0,0.1,0,0.2,0.1,0.2c0.1,0.1,0.2,0.1,0.2,0l2.3-1.2
		c0.1,0,0.1,0,0.2,0l2.3,1.2c0.1,0,0.2,0,0.2,0c0.1-0.1,0.1-0.1,0.1-0.2L37,45.6c0-0.1,0-0.1,0.1-0.2l1.9-1.8
		c0.1-0.1,0.1-0.2,0.1-0.2c0-0.1-0.1-0.1-0.2-0.2l-2.6-0.4c-0.1,0-0.1-0.1-0.2-0.1l-1.2-2.3c0-0.1-0.1-0.1-0.2-0.1
		c-0.1,0-0.2,0-0.2,0.1l-1.2,2.3c0,0.1-0.1,0.1-0.2,0.1l-2.6,0.4c-0.1,0-0.2,0.1-0.2,0.2s0,0.2,0.1,0.2L32.3,45.4z"/>
</g>
<g>
	<path class="st8" d="M500.8,56.5c-6.7,0-12.1-5.4-12.1-12.1c0-3.2,1.3-6.1,3.3-8.3c-6.4,0.9-11.4,6.4-11.4,13.1
		c0,7.3,5.9,13.3,13.3,13.3c5.1,0,9.5-2.9,11.7-7.1C504.2,56.1,502.5,56.5,500.8,56.5z"/>
	<path class="st8" d="M498,45.4c0.1,0.1,0.1,0.1,0.1,0.2l-0.4,2.6c0,0.1,0,0.2,0.1,0.2c0.1,0.1,0.2,0.1,0.2,0l2.3-1.2
		c0.1,0,0.1,0,0.2,0l2.3,1.2c0.1,0,0.2,0,0.2,0c0.1-0.1,0.1-0.1,0.1-0.2l-0.4-2.6c0-0.1,0-0.1,0.1-0.2l1.9-1.8
		c0.1-0.1,0.1-0.2,0.1-0.2c0-0.1-0.1-0.1-0.2-0.2l-2.6-0.4c-0.1,0-0.1-0.1-0.2-0.1l-1.2-2.3c0-0.1-0.1-0.1-0.2-0.1
		c-0.1,0-0.2,0-0.2,0.1l-1.2,2.3c0,0.1-0.1,0.1-0.2,0.1l-2.6,0.4c-0.1,0-0.2,0.1-0.2,0.2c0,0.1,0,0.2,0.1,0.2L498,45.4z"/>
</g>
</svg>
