<?xml version="1.0" encoding="utf-8"?>
<!-- Generator: Adobe Illustrator 21.0.0, SVG Export Plug-In . SVG Version: 6.00 Build 0)  -->
<svg version="1.1" id="レイヤー_1" xmlns="http://www.w3.org/2000/svg" xmlns:xlink="http://www.w3.org/1999/xlink" x="0px"
	 y="0px" viewBox="0 0 1015.4 609.6" style="enable-background:new 0 0 1015.4 609.6;" xml:space="preserve" width="700" height="418">
<style type="text/css">
	.st0{fill:#D8EFFC;}
	.st1{fill:#9FA0A0;}
	.st2{fill:#C9CACA;}
	.st3{fill:none;stroke:#9FA0A0;stroke-width:11.3386;stroke-miterlimit:10;}
	.st4{fill:#468CCB;}
	.st5{fill:#FFFFFF;}
	.st6{fill:none;stroke:#9FA0A0;stroke-width:8.5039;stroke-linecap:square;stroke-linejoin:round;}
	.st7{fill:none;stroke:#9FA0A0;stroke-width:8.5039;stroke-linecap:square;stroke-linejoin:round;stroke-dasharray:5.2897,15.8692;}
	.st8{fill:none;stroke:#468CCB;stroke-width:8.5039;stroke-linejoin:round;stroke-miterlimit:10;}
	.st9{fill:#F39800;}
	.st10{fill:#B5B5B6;}
	.st11{fill:#DCDDDD;}
	.st12{fill:#EFEFEF;}
	.st13{fill:#F39800;stroke:#F39800;stroke-width:2.8346;stroke-linejoin:round;stroke-miterlimit:10;}
</style>
<rect x="34.3" y="136.7" class="st0" width="731.5" height="472.9"/>
<rect x="902.8" y="44" class="st1" width="44.5" height="245.2"/>
<polygon class="st0" points="798.4,149.4 0,149.4 105.7,5.9 692.7,5.9 "/>
<polygon class="st2" points="163.9,23.3 279.6,23.3 270.7,50.8 146.7,50.8 "/>
<polygon class="st2" points="286.3,23.3 402,23.3 401.8,50.8 277.9,50.8 "/>
<polygon class="st2" points="408.8,23.3 524.5,23.3 532.9,50.8 409,50.8 "/>
<polygon class="st2" points="531.2,23.3 646.9,23.3 664,50.8 540.1,50.8 "/>
<polygon class="st2" points="145.4,53 269.9,53 259.5,85 125.4,85 "/>
<polygon class="st2" points="277.2,53 401.8,53 401.5,85 267.4,85 "/>
<polygon class="st2" points="409,53 533.6,53 543.4,85 409.3,85 "/>
<polygon class="st2" points="540.8,53 665.4,53 685.4,85 551.2,85 "/>
<polygon class="st2" points="123.8,87.6 258.7,87.6 246.4,125.3 100.2,125.3 "/>
<polygon class="st2" points="266.6,87.6 401.5,87.6 401.1,125.3 254.9,125.3 "/>
<polygon class="st2" points="409.3,87.6 544.2,87.6 555.8,125.3 409.6,125.3 "/>
<polygon class="st2" points="552.1,87.6 687,87.6 710.5,125.3 564.3,125.3 "/>
<g>
	<path d="M780.4,561.6h6.9V560h3.3v1.6h10.8V560h3.3v1.6h6.8v3h-6.8v1.7h-3.3v-1.7h-10.8v1.7h-3.3v-1.7h-6.9V561.6z M802.4,570.7
		c-2.2,2.3-4.8,4.4-5.3,4.8l8.1-0.3c-0.9-0.8-1.5-1.3-2.7-2.1l2.1-2.1c3,2,5.6,4.6,6.8,6l-2.6,2.2c-0.4-0.5-0.7-0.9-1.5-1.8
		c-17.3,0.8-18.1,0.9-26.1,0.9l-0.4-2.8c1.4,0,8.4,0,10,0c-3.4-1.7-4.5-2.1-5.7-2.4l2-2.7c0.6,0.2,0.9,0.3,2.1,0.9
		c0.4-0.5,0.5-0.6,1.5-1.7h-10.4v-2.7h13.8v-1.7h3.3v1.7h13.9v2.7h-10.8L802.4,570.7z M782.8,579.3h25.9v11.6h-3.3v-1H786v1h-3.2
		V579.3z M786,583.5h8.2v-1.8H786V583.5z M786,587.5h8.2v-2H786V587.5z M794.7,569.6c-1.3,1.3-2.3,2.3-3,3c1.7,1,1.9,1.1,2.8,1.5
		c1.6-1.4,3.1-2.9,4.5-4.5H794.7z M797.4,583.5h8.1v-1.8h-8.1V583.5z M797.4,587.5h8.1v-2h-8.1V587.5z"/>
	<path d="M815.6,561H842v2.7h-11.8v1.3h13.1v7.1h-3.5v-4.7h-9.6v6.5h-3.1v-6.5h-9.5v4.7h-3.4V565h12.9v-1.3h-11.5V561z M844.4,585.5
		c-0.2,3.2-0.7,5.1-2.9,5.1h-11.4c-1.7,0-3.2-0.1-3.2-2.2v-2.9h-8v2h-3.2v-12.9h25.8v10.1L844.4,585.5z M819,581v1.9h8V581H819z
		 M819.2,577v1.9h7.8V577H819.2z M819.2,568.7h6.5v1.7h-6.5V568.7z M819.2,571.7h6.5v1.7h-6.5V571.7z M830.3,577v1.9h8V577H830.3z
		 M830.3,581v1.9h8V581H830.3z M830.3,585.5v1.2c0,0.7,0,0.9,0.8,0.9h8.9c0.9,0,1.2-0.1,1.3-2.1H830.3z M831.8,568.7h6.6v1.7h-6.6
		V568.7z M831.8,571.7h6.6v1.7h-6.6V571.7z"/>
	<path d="M857.3,576.5c-4.3-2.1-4.4-2.2-9.2-3.8l1.7-3.3c1.6,0.4,5.7,1.5,9.2,3.6L857.3,576.5z M849.9,584.7
		c12.4-0.6,18.2-5.1,22.4-17.9l3.6,1.6c-4,11.3-9.6,19-25,20.2L849.9,584.7z M860.1,569.1c-4-2.2-8.5-3.5-9.5-3.8l1.7-3.3
		c1.1,0.3,5.3,1.3,9.5,3.7L860.1,569.1z"/>
	<path d="M880.2,586.2c7-2.6,15.3-9.7,19-19.7h-17.1v-3.6h22.1c-0.5,2-1.6,7.2-6.3,13.7c3.9,3.1,7.6,6.3,11.1,9.8l-3.1,3.1
		c-3.7-4.4-8.8-8.8-10.3-10.1c-3.8,4.4-8,7.8-13.2,9.9L880.2,586.2z"/>
	<path d="M941.2,571.1v3.5h-10.9c-0.5,7.9-3,13.4-13.6,15.4l-1.7-3.1c9.9-1.6,11.2-6.1,11.6-12.3h-12.8v-3.5H941.2z M938.5,562.6
		v3.4h-22.1v-3.4H938.5z"/>
	<path d="M966.9,573.1c3.6,4.6,6.5,10.7,8.3,15l-3.8,1.7c-0.4-1.2-0.7-1.8-1.3-3.2c-12.7,1.2-14.1,1.3-23.3,1.8l-0.4-3.9
		c0.8,0,2.4,0,3.3,0c3.8-9.8,5.1-15.4,6.9-22.9l4.2,0.5c-2.1,8.1-5.3,17.4-7.3,22.3c5.1-0.2,6.2-0.2,15.2-0.8
		c-3.1-6.3-4.1-7.7-5-8.9L966.9,573.1z"/>
</g>
<g>
	<path d="M862.6,2H889v2.7h-11.8v1.3h13.1v7.1h-3.5V8.5h-9.6V15H874V8.5h-9.5v4.7h-3.4V6.1H874V4.7h-11.5V2z M891.4,26.5
		c-0.2,3.2-0.7,5.1-2.9,5.1h-11.4c-1.7,0-3.2-0.1-3.2-2.2v-2.9h-8v2h-3.2V15.6h25.8v10.1L891.4,26.5z M866,22V24h8V22H866z
		 M866.1,18v1.9h7.8V18H866.1z M866.2,9.8h6.5v1.7h-6.5V9.8z M866.2,12.7h6.5v1.7h-6.5V12.7z M877.2,18v1.9h8V18H877.2z M877.2,22
		V24h8V22H877.2z M877.2,26.5v1.2c0,0.7,0,0.9,0.8,0.9h8.9c0.9,0,1.2-0.1,1.3-2.1H877.2z M878.7,9.8h6.6v1.7h-6.6V9.8z M878.7,12.7
		h6.6v1.7h-6.6V12.7z"/>
	<path d="M893.1,28.4c10-5.5,10.8-12.1,11.5-17.2h-10.7V7.7h11c0-0.4,0.2-2.7,0.2-4.3V1h3.8v2.5c0,1.9-0.1,3.2-0.2,4.2h14.8
		c-0.1,11.1-0.8,17.3-1.3,19.6c-0.3,1.3-1.1,4.6-4.8,4.6h-6.1l-0.6-3.7h5.5c1.9,0,2.1-1.2,2.5-3.6c0.5-2.7,0.9-9.6,0.9-13.4h-11.2
		c-0.8,6.4-2.2,14.5-13.1,20.6L893.1,28.4z"/>
	<path d="M932.9,11.3c-2.5,1.6-4,2.2-5.4,2.8l-1.9-3.2c5.3-1.8,11.5-5.9,14.3-10.1h3.8c2.4,3.8,7.7,7.5,14.2,10l-2.1,3.3
		c-1.4-0.7-3.3-1.6-5.3-2.9v1.9h-17.5V11.3z M952.5,32.2c-0.4-0.7-0.6-1.1-1.3-2.2c-4.5,0.5-11.9,1-23.4,1.2l-0.5-3.4
		c0.7,0,3.7,0,4.7,0c0.9-1.6,2.5-5.2,3.2-7.7h-8.5v-3.2h29.7V20h-17.1c-1.1,2.7-2.4,5.5-3.5,7.6c6.2-0.1,6.8-0.2,13.4-0.5
		c-1.6-2.1-2.4-3.3-3.9-4.7l2.8-1.7c1,1,4.8,4.7,7.6,9.5L952.5,32.2z M948.5,9.9c-3.6-2.5-6.1-5.4-6.8-6.3c-1.3,1.6-3.1,3.6-6.8,6.3
		H948.5z"/>
	<path d="M967.5,31.9h-3.4V19.2c-2,1.8-3,2.4-4,3.1l-1.4-3.4c4.2-2.5,7.4-6,9-9.6h-8.5V6.1h5V1h3.4v5.1h3.9v3.2
		c-0.6,1.3-1.3,2.9-3.3,5.6c1.7,1.9,2.5,2.5,4.6,4l-1.6,3.1c-1.5-1.3-2.4-2.1-3.6-3.5V31.9z M978.7,1h3.5v9.3h7v3.5h-7v13.5h7.8v3.5
		h-19.6v-3.5h8.3V13.8h-6.9v-3.5h6.9V1z"/>
</g>
<g>
	<path d="M286,83c11.4-3.9,17.7-13.9,19.3-22.6h-18.6v-5h18.9V44.8h5.2v10.6h19.3v5h-18.4c3.4,16.1,15.5,21.2,19.3,22.8l-3.2,5
		c-1.9-0.9-5-2.3-8.6-5.4c-2.7-2.3-8.4-7.8-10.6-16.7c-5.7,15.9-16.3,20.4-20,22L286,83z M305.4,76.7c2.8,1.3,7.2,5.2,9.2,7.5
		l-3.9,4.1c-0.6-0.7-4-5-8.5-7.8L305.4,76.7z"/>
	<path d="M346.5,80.9c3.2-1.3,7.8-3.2,10.4-7.2h-2.7c-2,1.9-3.3,2.5-4.5,3.1l-1.8-2.4c-0.8,4-2.2,5.2-6,5.2h-1.5l-0.5-4.7h1.2
		c1.8,0,2.7-0.2,2.7-3.1c0-2.1-0.4-6.2-4-9.7c1.8-3.9,2.8-7.4,3.5-11.4h-4.5v37.8h-4.4V46.6h13.2v4.1c-0.6,2.8-1.5,6.8-3.4,10.9
		c3.3,3.4,4.1,8.9,3.8,11.8c0.5-0.2,4.1-2,6.4-5.8h-6.3v-3.7h28.6v3.7h-18.2c-0.3,0.7-0.6,1.3-1.4,2.5h18.2c0,1.7-0.3,9.7-0.5,11.6
		c-0.7,6.8-2.5,6.8-5.8,6.8h-4.2l-0.8-4.5h3.3c0.3,0,1.9,0,2.4-0.6c0.4-0.4,0.8-0.9,1.1-9.7h-2.9c-1.1,3.7-5.2,11.1-13.6,15.2
		l-2.7-3.4c1.9-0.9,9-4.2,12.4-11.8h-2.5c-3.4,6.3-7.8,8.5-12.9,10.6L346.5,80.9z M373.9,46.6v15h-23.6v-15H373.9z M354.7,50v2.7
		h14.7V50H354.7z M354.7,55.6v2.8h14.7v-2.8H354.7z"/>
	<path d="M379.5,61h19.2V45h4.8v16h19.6v4.7h-14.2v16.2c0,0.6,0.1,1.3,1.3,1.3h5.5c0.9,0,1.4-0.4,1.7-0.8c0.6-0.8,0.6-2.4,1.1-7.7
		l4.9,1.3c-0.9,10.5-2.2,12.1-6.6,12.1h-7.8c-2.8,0-4.7,0-4.7-3.2v-19h-6.6c-0.6,16.5-10.4,21-15.8,22.9l-2.6-4.5
		c8.7-1.8,13.5-9.6,13.5-18.3h-13.1V61z M389.6,59.4c-0.9-2.2-4.4-7.2-6.7-9.7l4.3-2.8c1.7,1.7,5.6,6.8,6.9,9.7L389.6,59.4z
		 M408.9,56.9c2.8-4,4.2-6.1,6.6-10.3l4.8,2c-1.6,3.4-5.2,8.7-7.5,11.1L408.9,56.9z"/>
	<path d="M469.1,50.9c-1,1.2-2.6,3.3-6.2,6.5c2.9,1.6,5.1,2.6,7.1,3.4l-1.9,4.4c-1.8-0.8-3.7-1.7-6.7-3.4v3.1h-6v5.2h12.7v4.4h-12.7
		v7.5c0,1,0.5,1.1,1.3,1.1h6c1.9,0,2-1.2,2.3-5.6l4.7,0.6c-0.7,7-1.2,9.5-5.1,9.5h-9.7c-1.4,0-4.1,0-4.1-3.2v-9.9h-7.2
		c-1.5,8.2-8,12.2-15.1,13.9l-2.3-4.7c7.2-0.8,12.1-4.9,12.8-9.2h-11.3v-4.4h11.8v-5.2H434v-2.8c-2.9,1.8-4.6,2.6-6.2,3.3l-2.3-4.4
		c1.5-0.5,4-1.4,8-3.8c-0.2-0.2-2.6-2.4-5.5-4.6l2.6-2.4h-0.4v-4h20.1c0.7,1.1,1.5,2.4,3.1,4.1c3.6-3.3,4-3.7,5.4-5.4l3.7,2.2
		c-1.8,2.1-3.9,4.1-6,6.1c0.9,0.7,1.5,1.1,2.7,1.9c3.7-3.5,4.5-4.3,6.3-6.4L469.1,50.9z M431.8,50.2c2.4,1.6,5.3,4.2,5.5,4.4
		c2.6-1.9,3.8-3.2,5-4.4H431.8z M459.1,60.4c-5.4-3.2-9.5-7.7-11.5-10c-1.6,1.9-4.5,5.5-11.1,10H459.1z M443.8,64.8v5.2h6.9v-5.2
		H443.8z"/>
	<path d="M475.4,46.3h37.2v3.9H496V52h18.4v10h-4.9v-6.6H496v9.2h-4.4v-9.2h-13.4V62h-4.8V52h18.2v-1.9h-16.2V46.3z M516.1,80.9
		c-0.3,4.5-0.9,7.1-4,7.1H496c-2.4,0-4.5-0.1-4.5-3.2v-4h-11.3v2.8h-4.5V65.5h36.4v14.2L516.1,80.9z M480.3,74.5v2.7h11.3v-2.7
		H480.3z M480.5,68.9v2.6h11v-2.6H480.5z M480.6,57.3h9.1v2.4h-9.1V57.3z M480.6,61.4h9.1v2.5h-9.1V61.4z M496.1,68.9v2.6h11.3v-2.6
		H496.1z M496.1,74.5v2.7h11.3v-2.7H496.1z M496.1,80.8v1.7c0,1,0,1.3,1.2,1.3h12.5c1.3,0,1.6-0.1,1.8-3H496.1z M498.3,57.3h9.3v2.4
		h-9.3V57.3z M498.3,61.4h9.3v2.5h-9.3V61.4z"/>
</g>
<line class="st3" x1="831.8" y1="96.8" x2="1015.4" y2="96.8"/>
<line class="st3" x1="831.8" y1="168.8" x2="1015.4" y2="168.8"/>
<line class="st3" x1="850.7" y1="69.7" x2="850.7" y2="95.3"/>
<line class="st3" x1="872.7" y1="69.7" x2="872.7" y2="95.3"/>
<line class="st3" x1="850.7" y1="142.2" x2="850.7" y2="167.8"/>
<line class="st3" x1="872.7" y1="142.2" x2="872.7" y2="167.8"/>
<line class="st3" x1="994.1" y1="69.4" x2="994.1" y2="95"/>
<line class="st3" x1="972.1" y1="69.4" x2="972.1" y2="95"/>
<rect x="966.6" y="121" class="st1" width="37.7" height="47.7"/>
<rect x="554.9" y="156.1" class="st1" width="165.8" height="112.8"/>
<rect x="304.9" y="288.5" class="st4" width="190" height="130.2"/>
<rect x="304.9" y="479" class="st4" width="316.5" height="102.1"/>
<rect x="76.9" y="479" class="st4" width="188.3" height="102.1"/>
<rect x="75.5" y="288.5" class="st1" width="190" height="130.2"/>
<g>
	<path class="st5" d="M595.7,210.1c-1.5,1.4-2.5,2.1-3.4,2.8l-2.4-3c4.2-2.3,8.4-7.2,9.9-12l3.4,0.9c-1.2,3.1-2.9,6.8-7.2,10.9h20.3
		c0,3.3-0.1,11.9-1.3,16.2c-0.9,3-3.1,3.1-4.5,3.1h-5l-0.7-3.5h5c1.9,0,2.2-1.6,2.4-3.1c0.3-1.5,0.7-4.6,0.7-9.4h-7.6
		c-0.9,8.9-5.4,13.1-12.2,16l-2-3.2c7.1-3,9.9-6,10.7-12.8h-6V210.1z M620,212.6c-2.7-1.8-8.4-7.6-10.7-13.7l3.4-1
		c1.7,4.1,5.2,9.2,9.6,11.8L620,212.6z"/>
	<path class="st5" d="M625.9,199h26.4v2.7h-11.8v1.3h13.1v7.1h-3.5v-4.7h-9.6v6.5h-3.1v-6.5h-9.5v4.7h-3.4V203h12.9v-1.3h-11.5V199z
		 M654.8,223.5c-0.2,3.2-0.7,5.1-2.9,5.1h-11.4c-1.7,0-3.2-0.1-3.2-2.2v-2.9h-8v2h-3.2v-12.9h25.8v10.1L654.8,223.5z M629.3,219v1.9
		h8V219H629.3z M629.5,215v1.9h7.8V215H629.5z M629.6,206.8h6.5v1.7h-6.5V206.8z M629.6,209.7h6.5v1.7h-6.5V209.7z M640.6,215v1.9h8
		V215H640.6z M640.6,219v1.9h8V219H640.6z M640.6,223.5v1.2c0,0.7,0,0.9,0.8,0.9h8.9c0.9,0,1.2-0.1,1.3-2.1H640.6z M642.1,206.8h6.6
		v1.7h-6.6V206.8z M642.1,209.7h6.6v1.7h-6.6V209.7z"/>
	<path class="st5" d="M665,213.3h-2.2v-3.8l-1.6,0.1c-0.3,4.3-1,6.2-2.7,8.4l-2.3-2.6c1.5-2,1.9-3.3,2.1-5.6c-0.7,0-0.8,0.1-1.7,0.1
		v-2.7c1.3,0,1.5,0,1.8,0v-7.1h3.8c0.2-0.7,0.4-1.5,0.5-2.1h3.5c-0.4,1.3-0.5,1.4-0.8,2.1h4.4v6.2c0.3,0,0.4,0,1.1-0.1v2.6
		c-0.7,0.1-0.8,0.1-1.1,0.2v6c0,1.9-1.3,2.4-2.6,2.4h-3l-0.7-3h2.6c0.8,0,0.9-0.2,0.9-0.9v-4.2c-1.3,0.1-1.8,0.2-2.2,0.2V213.3z
		 M687.5,224.9v3h-30.9v-3h2.4v-6.4h25.9v6.4H687.5z M661.2,207c1.4-0.1,2.1-0.1,2.8-0.2c-0.2-0.4-1.2-1.8-2-2.7l2.1-1.4h-3V207z
		 M662.2,221.3v3.6h4.6v-3.6H662.2z M667.2,206.5v-3.9h-3c0.8,1,1.6,2.1,1.9,2.6l-2,1.5L667.2,206.5z M669.9,221.3v3.6h4.2v-3.6
		H669.9z M674.6,209.1H672v-2.5h13.9v2.5c-0.6,0.8-1.5,2.2-4.1,4.1c2.3,0.8,4.2,1.1,6.1,1.3l-1.4,3.1c-1.2-0.3-4.5-1.1-7.6-2.6
		c-3.5,1.7-5.7,2.2-7,2.5l-1.5-2.9c1.4-0.2,3.2-0.3,5.6-1.3c-1.5-1.2-2.3-2-3-2.8L674.6,209.1z M683.5,198.7v3.3
		c0,0.5,0.1,0.8,0.5,0.8c0.8,0,0.9,0,1.1-2.4l2.5,0.5c-0.2,1.8-0.4,4.3-2.4,4.3H682c-0.5,0-1.6,0-1.6-1.5v-2.4h-3.9
		c-0.5,2.5-1.4,3.3-3.9,4.5l-1.6-2.1c2.2-1.2,2.3-2,2.3-5H683.5z M675.5,209.1c1.3,1.4,2.4,2.2,3.3,2.7c1.8-1.1,2.6-1.9,3.4-2.7
		H675.5z M677.2,221.3v3.6h4.5v-3.6H677.2z"/>
</g>
<g>
	<path class="st5" d="M139.4,334.3h30.8v3.5h-30.8V334.3z"/>
	<path class="st5" d="M178.6,337.9c-1,0.1-1.3,0.2-1.7,0.2c-0.1,3.9-0.8,9.5-3,13.6l-2.1-2.6c2-4.2,2.2-7.8,2.2-10.8
		c-0.3,0-1.5,0.1-1.7,0.2l-0.3-3.2c0.9,0,1.3,0,2-0.1v-11.1h3.3c0.3-0.8,0.5-1.3,0.9-3.2l3.5,0.4c-0.2,0.5-0.8,1.9-1.1,2.8h4.7v9.9
		c0.4-0.1,0.7-0.1,1.1-0.2v2.8c-0.5,0.1-0.7,0.2-1.1,0.2v11.6c0,2.7-1.4,3.4-3.2,3.4h-2.9l-0.7-3.4h3.1c0.7,0,0.9-0.1,0.9-0.8v-10.4
		c-0.4,0-0.6,0.1-1.6,0.2v8.3h-2.4V337.9z M182.5,327.2h-5.7v7.9c3.9-0.4,4.4-0.4,5.7-0.6V327.2z M180.2,328.2
		c0.3,0.8,1.2,3.4,1.5,5.1l-2.7,0.8c-0.1-0.8-0.3-2.1-1.3-5.2L180.2,328.2z M191.4,338.2h-4.3V335h14.1v3.1c-0.8,1.7-2,4.4-4.2,7.2
		c2.3,1.9,4.5,2.8,6.1,3.4l-1.6,3.2c-2-0.9-4.5-2.1-6.8-4.1c-2.9,2.5-5.4,3.6-6.9,4.1l-1.8-2.9c1.4-0.5,3.8-1.4,6.4-3.6
		c-2.1-2.6-3-4.8-3.6-6.2L191.4,338.2z M188.5,322h9.7v6.8c0,0.5,0.3,0.9,0.8,0.9h0.7c0.5,0,0.8-0.3,0.9-0.9
		c0.1-0.4,0.2-2.1,0.2-2.6l2.6,0.8c-0.1,3.9-0.7,5.7-3.3,5.7H198c-1.3,0-2.7-0.3-2.7-2.8V325h-3.8c-0.6,6.1-1.9,7.7-3.5,9.2
		l-1.8-2.6c0.6-0.6,1.4-1.5,1.7-3c0.3-1.2,0.6-3.3,0.6-4.6V322z M191.9,338.2c1.1,2.6,2.3,4.2,2.8,4.9c1.5-1.9,2.3-3.7,2.8-4.9
		H191.9z"/>
	<path class="st5" d="M117,368.1v22.8H93.2v-3.6h19.9v-15.7H93.3v-3.6H117z"/>
	<path class="st5" d="M135,374.8c-2.5-1.8-6.5-3.8-9.9-4.8l1.8-3.2c2.9,0.8,5.8,1.8,10.2,4.5L135,374.8z M125.4,388.3
		c12.3-0.9,19.5-5.6,24-19.6l3.7,1.7c-4.8,14.1-11.9,20.3-26.5,22.1L125.4,388.3z"/>
	<path class="st5" d="M185.3,370.7c-1.2,7.6-3.8,11.1-9.7,14.4l-2.4-3c5.4-2.2,6.7-5.3,7.4-7.6l-12.6,1.1v10.2c0,3,0.3,3.4,4.2,3.4
		h6.8c1.9,0,4-0.2,5.8-0.7v3.9c-1.3,0.3-4.2,0.4-5.6,0.4h-7.7c-6.1,0-7.2-2.3-7.2-6.7v-10.2l-6.9,0.6l-0.3-3.6l7.2-0.5V365h3.8v6.9
		L185.3,370.7z"/>
	<path class="st5" d="M200.8,374.8c-2.5-1.8-6.5-3.8-9.9-4.8l1.8-3.2c2.9,0.8,5.8,1.8,10.2,4.5L200.8,374.8z M191.2,388.3
		c12.3-0.9,19.5-5.6,24-19.6l3.7,1.7c-4.8,14.1-11.9,20.3-26.5,22.1L191.2,388.3z"/>
	<path class="st5" d="M234.9,364.6v8.4c8,2.3,14.3,5.9,16.5,7.1l-1.8,3.8c-3.7-2.2-10.2-5.9-14.7-7v16.7H231v-29.1H234.9z"/>
</g>
<g>
	<path class="st5" d="M318.5,340c1.4,0,3.1,0,9.4-0.6c0.2-0.9,0.4-2.1,0.4-2.7v-1.5h-8.6v-3.3h8.6v-4.4h-9.1v-3.3h9.1v-3.8h3.5v16
		c0,1.3-0.1,2-0.2,2.6c0.9-0.1,1.4-0.2,3-0.6v3.1c-1.5,0.3-2.5,0.5-3.9,0.7c-1.3,3.1-3.4,5.8-9.5,9.2l-2.2-3.3
		c4.6-2,6.6-4.3,7.4-5.3c-1.3,0.2-3.4,0.4-7.4,0.7L318.5,340z M340,320.3v3.8h9.6v3.3H340v4.9h8.8v3.3H340v5.4h9.9v3.3H340v7.1h-3.5
		v-31H340z"/>
	<path class="st5" d="M359.6,320.4c0.8,1.2,1.9,3.6,2.3,4.3h3.8v-4.3h3.3v4.3h4.1c0.8-1.5,1.9-3.6,2.3-4.4l3.2,1.4
		c-0.5,1.2-1.3,2.7-1.5,3h5.2v8.2H379v-5.3H356v5.3h-3.4v-8.2h5.5c-0.4-0.8-1.1-2-1.6-3L359.6,320.4z M377,342.7h-8v8.7h-3.4v-8.7
		h-7.9v7.3h-3.4v-10.3h11.3v-2.1h-7.9v-8.4H377v8.4H369v2.1h11.5v7c0,1.6,0,3.2-2.4,3.2h-4.4l-0.8-3.2h2.9c1.2,0,1.2-0.5,1.2-1
		V342.7z M361.1,332.1v2.9h12.6v-2.9H361.1z"/>
	<path class="st5" d="M385.6,321.7h10.3v25h-7.1v2.5h-3.2V321.7z M388.8,325.1v7.4h4v-7.4H388.8z M388.8,335.6v8h4v-8H388.8z
		 M414.7,326.4h-6.8v3.8h7.8v3.2h-3.4v3.3h3.1v3.2h-3.1v8.1c0,1,0,3.4-3.1,3.4H404l-0.7-3.4h4.9c0.2,0,0.7,0,0.7-0.5v-7.5h-11.8
		v-3.2H409v-3.3h-12.1v-3.2h7.7v-3.8h-6.5v-3.2h6.5v-2.8h3.3v2.8h6.8V326.4z M400.2,340.4c2.1,2,3.1,3.2,4.4,5.3l-2.9,2.2
		c-1.8-2.9-2.3-3.5-4.2-5.6L400.2,340.4z"/>
	<path class="st5" d="M417.3,347.4c3.1-1.4,6-3.4,8.3-5.9h-5.5v-2.6h7.8v-2.4h-10.1v-2.8h10.1v-2.2h-7.8v-2.6h7.8v-2h-10.1v-2.9h8.2
		c-0.6-1.3-0.9-1.8-1.5-2.9l3.7-0.6c0.7,1.2,1.2,2.3,1.6,3.6h6.9c0.4-0.5,0.9-1.3,1.6-3.5l3.7,0.6c-0.4,1.3-1,2.3-1.3,2.9h8.1v2.9
		h-10.3v2h7.3v4.8h3v2.8h-3v5h-5c2.9,3.2,5.7,4.7,8.4,5.9l-2,3.2c-4-2.3-5.9-3.9-8.6-7.3v8.1h-3.2v-9.9h-4.1v9.9h-3.2v-8.1
		c-3,3.9-6.6,6-8.6,7.2L417.3,347.4z M431.1,326.7v2h4.1v-2H431.1z M431.1,331.4v2.2h4.1v-2.2H431.1z M431.1,336.4v2.4h4.1v-2.4
		H431.1z M438.5,331.4v2.2h4.1v-2.2H438.5z M438.5,336.4v2.4h4.1v-2.4H438.5z"/>
	<path class="st5" d="M476.3,341.4h-8v9.7H465v-9.7h-7.8c-0.4,3.2-1.1,6.3-3.9,9.8l-2.7-3c0.7-0.8,1.7-2,2.4-3.8
		c1.1-2.8,1.3-6,1.3-6.8v-15.7h25.5v26.7c0,1-0.3,2.8-2.8,2.8h-4.4l-0.4-3.4h3.4c0.3,0,0.8-0.1,0.8-0.8V341.4z M457.6,333.3v3.8
		c0,0.2,0,1,0,1.1h7.5v-4.8H457.6z M457.6,325.2v4.8h7.4v-4.8H457.6z M468.3,325.2v4.8h8v-4.8H468.3z M468.3,333.3v4.8h8v-4.8H468.3
		z"/>
	<path class="st5" d="M346.1,367.5v22.8h-23.8v-3.6h19.9v-15.7h-19.8v-3.6H346.1z"/>
	<path class="st5" d="M364.1,374.2c-2.5-1.8-6.5-3.8-9.9-4.8l1.8-3.2c2.9,0.8,5.8,1.8,10.2,4.5L364.1,374.2z M354.5,387.8
		c12.3-0.9,19.5-5.6,24-19.6l3.7,1.7c-4.8,14.1-11.9,20.3-26.5,22.1L354.5,387.8z"/>
	<path class="st5" d="M414.4,370.1c-1.2,7.6-3.8,11.1-9.7,14.3l-2.4-3c5.4-2.2,6.7-5.3,7.4-7.6l-12.6,1.1v10.2c0,3,0.3,3.4,4.2,3.4
		h6.8c1.9,0,4-0.2,5.8-0.7v3.9c-1.3,0.3-4.2,0.4-5.6,0.4h-7.7c-6.1,0-7.2-2.3-7.2-6.7v-10.2l-6.9,0.6l-0.3-3.6l7.2-0.5v-7.2h3.8v6.9
		L414.4,370.1z"/>
	<path class="st5" d="M429.9,374.2c-2.5-1.8-6.5-3.8-9.9-4.8l1.8-3.2c2.9,0.8,5.8,1.8,10.2,4.5L429.9,374.2z M420.3,387.8
		c12.3-0.9,19.5-5.6,24-19.6l3.7,1.7c-4.8,14.1-11.9,20.3-26.5,22.1L420.3,387.8z"/>
	<path class="st5" d="M464.1,364.1v8.4c8,2.3,14.3,5.9,16.5,7.1l-1.8,3.8c-3.7-2.2-10.2-5.9-14.7-7v16.7h-3.9v-29.1H464.1z"/>
</g>
<g>
	<path class="st5" d="M332.7,517.4h-3.3V502h3.3V517.4z M347,512.2c0,11.3-6.7,12.6-15.1,13.5l-1-3.1c4.1-0.3,6.8-0.7,9.3-2
		c3.3-1.7,3.5-5.8,3.5-6.9v-12.3h3.3V512.2z"/>
	<path class="st5" d="M359.8,502.1v8.4c5.5-1.1,9.6-2.8,13.3-4.8l1.8,2.9c-6,3-11.1,4.2-15.1,5.1v6.1c0,1.3,0.5,1.6,2.3,1.6h9.5
		c3,0,4.6-0.3,5.6-0.5l0.1,3.4c-1.2,0.1-2.4,0.3-6,0.3h-9.7c-3.8,0-5.1-1.2-5.1-3.9v-18.6H359.8z M374.5,505.7
		c-0.8-2.1-1.1-2.8-2-4.6l2.1-0.8c0.9,1.5,1.5,2.9,2.1,4.5L374.5,505.7z M378.3,505c-0.9-2.4-1.4-3.3-2-4.5l2.1-0.8
		c0.7,1.3,1.5,2.8,2,4.3L378.3,505z"/>
	<path class="st5" d="M392.1,509.5c-2.1-1.6-5.6-3.3-8.6-4.2l1.5-2.8c2.5,0.7,5,1.5,8.8,3.9L392.1,509.5z M383.8,521.2
		c10.6-0.8,16.8-4.8,20.7-16.9l3.2,1.4c-4.2,12.1-10.3,17.5-22.9,19L383.8,521.2z"/>
	<path class="st5" d="M411.1,511.5c6.4-3.3,8.1-8.9,8.7-10.7l3.5,0.6c-0.3,1-0.8,2-1.6,3.6h12.2c-2.4,17.4-15.1,19.6-19.9,20.4
		l-1.4-2.9c9.2-1.3,14.7-4.9,17.4-14.5h-10.1c-2.4,3.2-4.4,4.6-6.7,6L411.1,511.5z M430.1,504.2c-0.7-2.3-0.8-2.8-1.4-4.2l2.2-0.5
		c0.3,0.6,0.8,1.6,1.5,4.2L430.1,504.2z M434.3,504c-0.6-2.2-1.2-3.3-1.5-4l2.3-0.5c0.5,1,1,2.1,1.6,4L434.3,504z"/>
	<path class="st5" d="M444.2,519.6c-1,3.1-2,5-3.7,6.8l-2.2-2.2c1.6-1.6,2.5-2.9,3.3-5.3L444.2,519.6z M439.3,500.9h8.8v16.9h-8.8
		V500.9z M441.9,503.4v4.6h3.8v-4.6H441.9z M441.9,510.4v4.8h3.8v-4.8H441.9z M449.2,519.8c0.3,1.7,0.5,4.6,0.4,6.1h-3
		c0.1-0.6,0.1-1.1,0.1-2.3c0-0.5-0.1-3.1-0.1-3.7H449.2z M449.5,500.7h14.7c-0.1,1.7-0.3,6.2-1,7.3c-0.6,0.8-1.4,1.3-2.4,1.3h-3.1
		l-0.5-2.7h3c0.9,0,1.1-0.3,1.2-3.2h-4.2c-1.5,3.7-3.9,5.5-6.8,6.9l-1.4-2.2c2.6-0.9,4-2,5.2-4.6h-4.6V500.7z M460.9,518.8h-10.6
		v-8.3h13v8.3H460.9c1.7,1.9,3.5,4.7,4.1,6l-2.6,1.5c-1.2-2.6-3.7-5.8-4.1-6.4L460.9,518.8z M455.1,519.5c0.4,1,1,2.8,1.7,6.2
		l-2.9,0.2c-0.1-0.7-0.4-3.2-1.3-6.1L455.1,519.5z M453,512.9v3.5h7.7v-3.5H453z"/>
	<path class="st5" d="M477,501v19.1H470v2.3h-2.8V501H477z M470,503.8v5.2h4.3v-5.2H470z M470,511.7v5.6h4.3v-5.6H470z M489.6,517.3
		h-7.4c-0.6,3.1-1.9,6.5-6.6,9.2l-2-2.5c3.8-1.8,6-4.2,6-11.7v-11.8h12.9V524c0,2.2-2,2.5-2.6,2.5h-3.8l-0.6-2.9h3.2
		c0.7,0,0.9-0.1,0.9-1V517.3z M482.4,503.2v4.3h7.1v-4.3H482.4z M482.4,510.1v4.4h7.1v-4.4H482.4z"/>
	<path class="st5" d="M511.2,513.1c0,1.6-1.3,2.9-2.9,2.9c-1.6,0-3-1.3-2.9-2.9c0-1.6,1.3-2.9,2.9-2.9
		C509.9,510.2,511.2,511.5,511.2,513.1z"/>
	<path class="st5" d="M529.6,515.7c-0.9,2.7-2.6,7-4.4,9.8l-2.5-2.7c1.7-2,3.5-6.2,4.3-9L529.6,515.7z M524.7,501
		c1.7,0.9,3.7,2.4,4.8,3.5l-2,2.4c-0.9-0.9-2.4-2.4-4.7-3.7L524.7,501z M549,511.1c-0.9-0.4-2.2-1.1-4.1-2.5v2.3h-12.4v-2.2
		c-1.4,1-2.1,1.4-2.9,1.9l-1.8-2.7c3.4-1.8,7.4-5,9.1-8.1h3.2c1.9,2.6,5.1,6,10.4,8.1L549,511.1z M547.9,513.6v8.8
		c0,2.1-1.7,2.1-1.8,2.1h-3.6l-0.5-2.8h2.5c0.5,0,0.5-0.5,0.5-0.7v-4.8h-6.5v10h-2.9v-10h-4.7v-2.7H547.9z M544.3,508.3
		c-0.8-0.6-3.9-3.1-5.7-6c-1.5,2.2-2.9,3.8-5.5,6H544.3z"/>
	<path class="st5" d="M571.4,505.5c0,0.5,0,1,0,1.2h2.8c-0.6-0.7-1.3-1.4-1.8-1.9l1.6-1.1h-2.4v1.3h-2.8v-1.3h-7.4v2h-2.9v-2h-6.7
		v-2.6h6.7v-1.4h2.9v1.4h7.4v-1.4h2.8v1.4h6.8v2.6h-3.8c0.8,0.6,1.5,1.3,2.3,2.2l-1,0.7h2.3v2.4h-6.7c0.1,2,0.3,4.8,0.9,7.5
		c1.1-2.8,1.4-4.6,1.6-5.7l2.7,0.9c-0.7,2.9-1.7,5.8-3.2,8.4c0.5,1,1.4,2.9,2.1,2.9c0.3,0,0.4-0.2,0.5-1.1c0.1-1.1,0.1-1.9,0.1-2.4
		l2.6,1.1c-0.4,4.1-1,5.7-2.8,5.7c-2.3,0-3.8-2.7-4.3-3.6c-1.3,1.8-2.3,2.8-3.3,3.8l-2.1-1.8l0,0H557v-14.3h10.7v2.1h-3.4v1.7h2.9
		v6.4h-2.9v1.8h2.9v1.4c0.5-0.5,1.8-1.7,3.3-4c-1.2-3.4-1.6-7.1-1.8-10.8H556v7.5c0,1.8-0.3,3.8-0.6,5.6c-0.4,2.1-1.3,3.4-2,4.3
		l-2.2-2.5c1-1.4,1.9-2.7,1.9-7.8v-9.4h15.6c0-0.4,0-0.9,0-1.2H571.4z M559.5,512.6v1.7h2.6v-1.7H559.5z M559.5,516.4v2.2h5.2v-2.2
		H559.5z M559.5,520.7v1.8h2.6v-1.8H559.5z"/>
	<path class="st5" d="M581.9,501.9h10.2v-2h2.9v2h11.4v2.6h-21.8v10.3c0,0.7-0.1,3.1-0.7,6.4c-0.5,2.5-1.1,3.5-2,5l-2.4-2.2
		c0.7-1,2.4-3.8,2.4-9.2V501.9z M606.3,523.3h-9.4v3h-2.7v-3h-9.5v-2.4h9.5v-1.7h-7.5v-9.1h7.5v-1.5h-9v-2.4h9v-1.3h2.7v1.3h9.2v2.4
		h-9.2v1.5h7.7v9.1h-7.7v1.7h9.4V523.3z M589.5,512v1.8h4.8V512H589.5z M589.5,515.6v1.8h4.8v-1.8H589.5z M596.9,512v1.8h5V512
		H596.9z M596.9,515.6v1.8h5v-1.8H596.9z"/>
	<path class="st5" d="M325,559.7c4.4-4.8,5.8-12.5,6.2-20.3l3.2,0.3c-0.9,12.9-3.5,18.1-6.8,22.3L325,559.7z M344,539.3
		c0.6,6.5,2.2,14.2,7,20.4l-2.9,2.2c-4.7-6-6.6-14.5-7.2-22.3L344,539.3z M351.9,539.4c0,1.6-1.3,2.9-2.9,2.9
		c-1.6,0-2.9-1.3-2.9-2.9s1.3-2.9,2.9-2.9C350.5,536.4,351.9,537.7,351.9,539.4z M347.6,539.4c0,0.8,0.6,1.4,1.4,1.4
		c0.7,0,1.4-0.6,1.4-1.4s-0.6-1.4-1.4-1.4C348.2,538,347.6,538.6,347.6,539.4z"/>
	<path class="st5" d="M360.2,549.1c-0.4-0.8-2.3-4.7-4.8-7.7l2.8-1.6c2.3,2.5,3.4,4.1,5.2,7.5L360.2,549.1z M357.8,559
		c5.8-1.4,14.3-4.2,16.6-19.9l3.7,0.7c-2.5,11-6,18.6-18.5,22L357.8,559z"/>
	<path class="st5" d="M404.9,540.6v19.6h-20.5v-3.1h17.2v-13.5h-17v-3.1H404.9z"/>
	<path class="st5" d="M420.4,546.3c-2.1-1.6-5.6-3.3-8.6-4.2l1.5-2.8c2.5,0.7,5,1.5,8.8,3.9L420.4,546.3z M412.1,558
		c10.6-0.8,16.8-4.8,20.7-16.9l3.2,1.4c-4.2,12.1-10.3,17.5-22.9,19L412.1,558z"/>
	<path class="st5" d="M454.5,550c0,1.6-1.3,2.9-2.9,2.9c-1.6,0-3-1.3-2.9-2.9c0-1.6,1.3-2.9,2.9-2.9
		C453.2,547,454.5,548.3,454.5,550z"/>
	<path class="st5" d="M491.8,546.2v3h-9.4c-0.4,6.8-2.6,11.5-11.7,13.3l-1.5-2.7c8.5-1.4,9.6-5.2,10-10.6h-11.1v-3H491.8z
		 M489.4,538.9v2.9h-19.1v-2.9H489.4z"/>
	<path class="st5" d="M502.3,558.3c10.7-1,14-8.6,15.6-13.7l3,1.3c-2,5.5-5.7,15.5-21.9,16v-23.6h3.3V558.3z"/>
	<path class="st5" d="M529.9,539v8.4c5.5-1.1,9.6-2.8,13.3-4.8l1.8,2.9c-6,3-11.1,4.2-15.1,5.1v6.1c0,1.3,0.5,1.6,2.3,1.6h9.5
		c3,0,4.6-0.3,5.6-0.5l0.1,3.4c-1.2,0.1-2.4,0.3-6,0.3h-9.7c-3.8,0-5.1-1.2-5.1-3.9V539H529.9z M544.6,542.6c-0.8-2.1-1.1-2.8-2-4.6
		l2.1-0.8c0.9,1.5,1.5,2.9,2.1,4.5L544.6,542.6z M548.4,541.8c-0.9-2.4-1.4-3.3-2-4.5l2.1-0.8c0.7,1.3,1.5,2.8,2,4.3L548.4,541.8z"
		/>
	<path class="st5" d="M556.5,540.9c-1.2,1.6-2.4,2.7-3.2,3.3l-2-2c2.6-1.7,3.8-3.7,4.5-5.7l2.7,0.5c-0.1,0.5-0.3,0.9-0.5,1.5h6.5
		v2.5h-4.2c0.6,1.1,0.8,1.5,0.9,1.8l-2.8,1.1c-0.2-0.7-0.7-2.2-1.1-2.9H556.5z M565.2,543.4l-1.7-1.3c1.7-1.4,2.8-2.8,4-5.6l2.6,0.4
		c-0.2,0.5-0.3,0.8-0.6,1.5h8.8v2.5h-5.6c0.6,1,0.7,1.2,1.1,1.9l-2.7,1.1c-0.5-1.3-1.2-2.8-1.4-3h-1.6c-0.5,0.7-1,1.6-2,2.5h0.2v1.4
		h10.1v2.6h-10.1v1.8h11.9v2.6h-5.1v1.9h4.9v2.5h-4.9v3.7c0,1.6,0,3.3-2.4,3.3h-5.3l-0.5-2.8h4.3c0.5,0,0.9-0.1,0.9-1v-3.1h-12.3
		c0.6,0.4,2.9,2.4,4.1,4.2l-2.3,2c-0.4-0.5-2.2-2.9-4.1-4.4l1.9-1.7h-5.5v-2.5h18.1v-1.9h-18.4v-2.6h11.8v-1.8h-9.9v-2.6h9.9v-1.4
		H565.2z"/>
</g>
<g>
	<path class="st5" d="M137,501.9v3.1h-8.7v13.8h10.2v3.1h-23.9v-3.1H125V505h-8.8v-3.1H137z"/>
	<path class="st5" d="M167.3,500.4c-1.2,7.7-5.5,10.6-8.5,12.2l-2.1-2.6c1.9-0.9,4.7-2.4,6.2-6.6h-20v-3H167.3z M144,521.1
		c5-2,8.5-5,8.5-15.1l3.5,0.1c-0.3,10.2-3.9,14.6-10,17.5L144,521.1z"/>
	<path class="st5" d="M193.4,502.2v19.6h-20.5v-3.1h17.2v-13.5h-17v-3.1H193.4z"/>
	<path class="st5" d="M208.9,508c-2.1-1.6-5.6-3.3-8.6-4.2l1.5-2.8c2.5,0.7,5,1.5,8.8,3.9L208.9,508z M200.6,519.7
		c10.6-0.8,16.8-4.8,20.7-16.9l3.2,1.4c-4.2,12.1-10.3,17.5-22.9,19L200.6,519.7z"/>
	<path class="st5" d="M113,549.8c0.9-0.2,2.4-0.7,3.2-0.9v-6.1h-2.9v-2.6h2.9v-4.9h2.9v4.9h2.5v2.6h-2.5v5.2
		c0.4-0.1,1.1-0.4,1.7-0.6v2.8c-0.4,0.2-1.2,0.5-1.7,0.7v8.3c0,2.6-2,2.6-2.4,2.6h-3.4l-0.2-3h2.3c0.4,0,0.8,0,0.8-0.7v-6.1
		c-0.9,0.3-1.6,0.5-2.9,0.9L113,549.8z M137.9,551.4v6.3c0,2-1.7,2-2.7,2h-2.1l-0.5-2.6h2c0.7,0,0.7-0.2,0.7-0.6v-3.9h-3.4v9.2h-2.8
		v-9.2h-3.2v7.1h-2.6v-8.3h-1.8V546h18.4v5.4H137.9z M138.4,536.2v8.8h-15.8V543h13.1v-1.4h-12.4v-1.8h12.4v-1.3h-13.1v-2.2H138.4z
		 M124.2,548.2v1.8h4.9v-1.8H124.2z M137.1,548.2h-5.2v1.8h5.2V548.2z"/>
	<path class="st5" d="M149.8,542.3c-0.7,1.9-0.9,2.3-1.1,3c1.5,1.8,2.2,4.4,2.2,6.7c0,4.3-2.5,4.3-3.4,4.3H146l-0.4-2.8h1.4
		c0.9,0,1.1-0.3,1.1-1.4c0-2.5-0.6-4.9-2.2-6.7c0.9-2.2,1.6-4.2,2.2-6.9h-3v23.2h-2.8v-25.6h8.6v2.5c-0.2,0.8-0.3,1.3-1,3.4
		c2.5-1.3,5.9-3.8,7.7-6.8h2.9c2.6,3.3,4.5,4.9,8.2,6.9l-1.6,2.6c-0.7-0.4-1.4-0.8-2.4-1.6v1.8h-4.3v3.2h7.7v2.6h-7.7v8.5
		c0,1-0.1,2.6-2.8,2.6h-3.7l-0.5-2.6h3.5c0.8,0,0.8-0.1,0.8-0.7v-7.9h-6.6V548h6.6v-3.2h-4.2v-1.7c-1,0.8-1.7,1.1-2.5,1.6
		L149.8,542.3z M155.9,553.3c-1.4,3.5-3.1,5.4-4.6,7l-2.1-1.9c0.9-0.8,2.7-2.5,4.3-6.2L155.9,553.3z M164,542.3
		c-2-1.6-3.4-3.2-4.6-5c-1.7,2.6-4.2,4.6-4.7,5H164z M166.8,560.3c-2.2-2.2-3.3-4.2-4.5-7.2l2.4-0.9c1,2.4,2,4.2,3.9,6L166.8,560.3z
		"/>
	<path class="st5" d="M184.4,557.8c-1.1-1.3-2.7-2.1-3.1-2.4c-0.5,3.4-1.4,4.9-2.4,6.3l-2-2.1c1.7-2.3,2-3.9,2-8.2h-0.9v-2l-1,1.8
		c-0.4-0.7-0.9-1.5-1.3-2.9v13.3h-2.7v-11.2c-0.4,1.9-0.7,2.9-1.7,5l-1.4-3.8c1.5-2.6,2.5-5.7,2.9-8.7h-2.6v-2.8h2.8v-5.1h2.7v5.1
		h1.8v2.8h-1.8v1c0.3,0.8,0.9,2.5,2.7,4.8h7.7c-0.5-3.3-0.9-8.4-0.9-13.7h2.8c0,1.3,0,2,0.1,3.7l1.4-1.6c0.3,0.3,0.3,0.3,0.5,0.4
		c0.6-0.9,1-1.6,1.6-2.7l2.1,0.7c-0.4,0.7-1,1.7-2.3,3.3c0.3,0.4,0.6,0.7,1,1.1c1.1-1.5,1.6-2.2,1.9-2.7l1.9,0.9
		c-1.9,2.8-2.2,3.1-4.6,5.9c1.6-0.1,2.1-0.1,2.9-0.2c-0.3-0.6-0.4-0.9-0.6-1.4l1.9-0.7c1.1,2.2,1.4,3.7,1.6,4.4l-2,0.8
		c-0.2-0.8-0.3-1-0.3-1.3c-0.7,0.1-1.6,0.2-2.2,0.2c0.6,0.4,0.7,0.5,2,1.4l-1.1,1.3h3.4v2.6h-7.5c0.3,1.4,0.7,2.8,1,3.5
		c1.4-1.4,1.9-2.2,2.4-3l2.5,1c-0.5,1-1.6,2.7-3.8,4.6c0.3,0.6,1,1.5,1.7,1.5c0.7,0,1.4-2.1,1.8-3.3l2.1,1.9c-1,3.3-2,4.1-3.8,4.1
		c-2,0-3.1-0.9-4.1-2.5c-2.6,1.6-4.3,2.1-5.5,2.4l-1.1-2.5c1.1-0.3,2.9-0.7,5.4-2.4c-0.4-1-1-2.9-1.6-5.4h-4.8c0,0.7,0,1,0,1.6
		c2.2,0.8,3.5,1.7,4.5,2.4L184.4,557.8z M177.4,544.8c0.5-0.6,1.2-1.3,2.3-2.6c-0.4-0.5-1.5-1.8-3.1-3.2l1.6-1.7
		c0.3,0.2,0.5,0.3,0.6,0.5c0.7-0.9,1.1-1.5,1.7-2.7l2.1,0.8c-0.5,0.9-1.1,2-2.4,3.3c0.3,0.3,0.6,0.7,1,1.1c1-1.3,1.4-1.9,1.9-2.6
		l1.8,1.1c-1.7,2.5-4.6,5.8-4.9,6c0.7,0,1.8-0.1,2.5-0.1c-0.2-0.5-0.3-0.9-0.5-1.3l1.9-0.7c0.8,1.6,1.2,3,1.4,4.3l-2.1,0.7
		c-0.1-0.4-0.1-0.7-0.2-1.2c-0.1,0-5.4,0.5-5.8,0.5l-0.3-2.2H177.4z M190.7,541.9c-0.9-1.2-1.8-2-2.8-2.9c0,1.3,0.2,3.8,0.3,5.3h0.4
		C189.8,543,190.4,542.4,190.7,541.9z M191.1,546.2c-0.3,0-2.6,0.2-2.7,0.2c0.1,1,0.3,2.1,0.3,2.5h3.8c-1-0.7-1.4-1-2.3-1.5
		L191.1,546.2z"/>
	<path class="st5" d="M203.3,539.4c-1.2,1.6-2.4,2.7-3.2,3.3l-2-2c2.6-1.7,3.8-3.7,4.5-5.7l2.7,0.5c-0.1,0.5-0.3,0.9-0.5,1.5h6.5
		v2.5h-4.2c0.6,1.1,0.8,1.5,0.9,1.8l-2.8,1.1c-0.2-0.7-0.7-2.2-1.1-2.9H203.3z M212,541.9l-1.7-1.3c1.7-1.4,2.8-2.8,4-5.6l2.6,0.4
		c-0.2,0.5-0.3,0.8-0.6,1.5h8.8v2.5h-5.6c0.6,1,0.7,1.2,1.1,1.9l-2.7,1.1c-0.5-1.3-1.2-2.8-1.4-3H215c-0.5,0.7-1,1.6-2,2.5h0.2v1.4
		h10.1v2.6h-10.1v1.8H225v2.6h-5.1v1.9h4.9v2.5h-4.9v3.7c0,1.6,0,3.3-2.4,3.3h-5.3l-0.5-2.8h4.3c0.5,0,0.9-0.1,0.9-1v-3.1h-12.3
		c0.6,0.4,2.9,2.4,4.1,4.2l-2.3,2c-0.4-0.5-2.2-2.9-4.1-4.4l1.9-1.7h-5.5v-2.5h18.1v-1.9h-18.4v-2.6h11.8v-1.8h-9.9v-2.6h9.9v-1.4
		H212z"/>
</g>
<g>
	<g>
		<line class="st6" x1="739.8" y1="205.7" x2="742.7" y2="205.7"/>
		<line class="st7" x1="758.5" y1="205.7" x2="856.4" y2="205.7"/>
		<line class="st6" x1="864.3" y1="205.7" x2="867.2" y2="205.7"/>
	</g>
</g>
<polyline class="st8" points="735.5,247.2 862.7,247.2 862.7,336.8 "/>
<polyline class="st8" points="473.7,136.6 473.7,184.2 532.6,184.2 "/>
<polyline class="st8" points="539.7,246.8 392.7,246.8 392.7,276.8 "/>
<polyline class="st8" points="539.7,224.3 173.7,224.3 173.7,273.8 "/>
<polygon class="st4" points="177.6,443.3 177.6,426.7 161.5,426.7 161.5,443.3 152.5,443.3 169.5,462.6 186.6,443.3 "/>
<polygon class="st4" points="408.9,443.3 408.9,426.7 392.8,426.7 392.8,443.3 383.8,443.3 400.9,462.6 417.9,443.3 "/>
<polygon class="st4" points="173.7,282.3 189.2,269.5 158.3,269.5 "/>
<polygon class="st4" points="394.2,282.3 409.7,269.5 378.8,269.5 "/>
<polygon class="st4" points="540.3,184.4 527.5,169 527.5,199.9 "/>
<polygon class="st4" points="862.4,348.6 877.9,335.8 846.9,335.8 "/>
<polygon class="st4" points="729,247.6 741.8,263 741.8,232.1 "/>
<polygon class="st1" points="728.7,205.7 741.5,221.2 741.5,190.3 "/>
<polygon class="st1" points="877.8,205.7 864.9,190.3 864.9,221.2 "/>
<path class="st9" d="M746.8,448.1H563.7c-5.2,0-9.4-4.3-9.4-9.4v-95.9c0-5.2,4.3-9.4,9.4-9.4h183.1c5.2,0,9.4,4.3,9.4,9.4v95.9
	C756.3,443.8,752,448.1,746.8,448.1z"/>
<g>
	<polygon class="st10" points="921.3,551.1 947.8,536.3 947.8,357.9 921.3,372.7 	"/>
	<g>
		<rect x="793" y="372.7" class="st11" width="128.3" height="178.4"/>
		<polygon class="st12" points="947.8,357.9 819.6,357.9 793,372.7 921.3,372.7 		"/>
		<rect x="805" y="383.7" class="st1" width="5.5" height="5.5"/>
		<rect x="812.8" y="383.7" class="st1" width="5.5" height="5.5"/>
		<rect x="820.6" y="383.7" class="st1" width="5.5" height="5.5"/>
		<rect x="828.4" y="383.7" class="st1" width="5.5" height="5.5"/>
		<rect x="836.1" y="383.7" class="st1" width="5.5" height="5.5"/>
		<rect x="843.9" y="383.7" class="st1" width="5.5" height="5.5"/>
	</g>
</g>
<polygon class="st13" points="776.2,390.7 744,372.1 744,409.3 "/>
<g>
	<path class="st5" d="M577.6,371.1c-2.4,1.3-3.8,1.8-4.8,2.1l-1.4-2.8c5.1-1.5,9.5-4.1,12.1-7.3h2.9c4.6,5,9.7,6.7,12.1,7.5
		l-1.5,2.7c-1-0.4-2.6-1-4.8-2.2v2.2h-5.9v2.9h10.9v2.7h-10.9v7.7c0,1.1,0,2.5-2.2,2.5h-5.1l-0.6-2.9h4c0.6,0,0.9-0.2,0.9-0.8v-6.5
		h-10.9v-2.7h10.9v-2.9h-5.9V371.1z M580.2,380.6c-1.5,2.8-4,5.3-6.3,6.9l-2-2.2c2.2-1.2,4.5-3.6,5.7-5.7L580.2,380.6z M591.6,370.6
		c-4-2.3-5.8-4.3-6.6-5.2c-2.1,2.4-5,4.3-6.6,5.2H591.6z M596.1,387.6c-2.7-1.7-4.7-3.6-6.8-6.9l2.6-1.2c1.3,2.1,3.9,4.5,6.1,5.9
		L596.1,387.6z"/>
	<path class="st5" d="M606.9,366.9c-2.5,0.2-4.4,0.3-6.3,0.3l-0.6-2.5c8.2-0.1,11.6-0.7,14.9-1.6l1,2.4c-0.8,0.2-2.5,0.8-6.4,1.2
		v1.8h6.5v2.3h-1.9v2.4h2.4v2.2h-2.4v2.5h1.9v2.2H611c1.8,2.5,3.5,3.8,5.5,4.9l-1.8,2.4c-1.2-0.9-3.5-2.7-5.5-6.3v7.7h-2.4v-7.5
		c-1.9,3-4.1,4.9-6.1,6.5l-1.4-2.5c1-0.7,3.3-2.2,5.7-5.4h-4.7v-2.2h1.9v-2.5h-2.3v-2.2h2.3v-2.4h-1.9v-2.3h6.5V366.9z M604.6,370.8
		v2.4h2.3v-2.4H604.6z M604.6,375.4v2.5h2.3v-2.5H604.6z M609.3,370.8v2.4h2.3v-2.4H609.3z M609.3,375.4v2.5h2.3v-2.5H609.3z
		 M617,364.7h2.8v17.7H617V364.7z M622,363.1h2.8v23.5c0,2.3-1.8,2.3-2.5,2.3h-3.8l-0.6-3h3.3c0.2,0,0.7,0,0.7-0.7V363.1z"/>
	<path class="st5" d="M629.2,363.9h22.2v2.3h-9.9v1.1h11v5.9h-2.9v-3.9h-8.1v5.5h-2.6v-5.5h-8v3.9H628v-5.9h10.8v-1.1h-9.6V363.9z
		 M653.4,384.5c-0.2,2.7-0.6,4.3-2.4,4.3h-9.6c-1.4,0-2.7-0.1-2.7-1.9v-2.4h-6.7v1.7h-2.7v-10.8H651v8.5L653.4,384.5z M632.1,380.7
		v1.6h6.7v-1.6H632.1z M632.2,377.4v1.6h6.6v-1.6H632.2z M632.2,370.5h5.4v1.4h-5.4V370.5z M632.2,372.9h5.4v1.5h-5.4V372.9z
		 M641.5,377.4v1.6h6.7v-1.6H641.5z M641.5,380.7v1.6h6.7v-1.6H641.5z M641.5,384.5v1c0,0.6,0,0.8,0.7,0.8h7.4c0.8,0,1-0.1,1.1-1.8
		H641.5z M642.8,370.5h5.5v1.4h-5.5V370.5z M642.8,372.9h5.5v1.5h-5.5V372.9z"/>
	<path class="st5" d="M654.8,386.1c8.4-4.6,9.1-10.1,9.6-14.5h-9v-2.9h9.2c0-0.3,0.1-2.3,0.1-3.6v-2h3.2v2.1c0,1.6-0.1,2.7-0.1,3.5
		h12.4c-0.1,9.3-0.7,14.5-1.1,16.4c-0.2,1-0.9,3.9-4.1,3.9H670l-0.5-3.1h4.6c1.6,0,1.8-1,2.1-3c0.4-2.3,0.7-8.1,0.7-11.2h-9.4
		c-0.6,5.4-1.9,12.2-11,17.3L654.8,386.1z"/>
	<path class="st5" d="M694.3,364.2c-0.1,0.6-0.2,1.2-0.4,2.5h11.2v2.8h-12c-0.3,1.1-0.7,1.8-0.9,2.4c1.1-0.5,1.8-0.8,3.2-0.8
		c2.4,0,3.6,1,4.4,3.2c2.7-1.1,5.1-1.8,6.6-2.2l0.7,3.1c-1.3,0.3-3.4,0.8-6.8,2c0.1,1.3,0.1,2.7,0.1,5.1h-3.1
		c0.1-0.7,0.1-1.1,0.1-2.1c0-0.8,0-1.3-0.1-1.8c-1.2,0.6-4.6,2.2-4.6,4.3c0,2.3,3.1,2.3,5.8,2.3c0.4,0,3.2,0,6.9-0.3v3
		c-2.1,0.1-4.4,0.1-6.5,0.1c-3,0-5.9-0.1-7.8-1.6c-0.5-0.4-1.7-1.6-1.7-3.5c0-2.8,2.7-4.8,7.5-7.3c-0.3-0.9-0.7-1.7-2.2-1.7
		c-2.5,0-4.9,2.2-5.7,3.5c-1.7,2.5-1.9,2.8-3.2,4.3l-2.3-2.3c2.8-2.7,5-6.1,6.2-9.8h-5.6v-2.8h6.4c0.2-1.3,0.3-1.9,0.4-2.7
		L694.3,364.2z"/>
	<path class="st5" d="M580.1,398.4c0,2.3-0.2,14.1-0.2,14.9c0,4.3,1,5.6,4.6,5.6c6.2,0,7.7-3.7,8.8-8.4l3,0.9
		c-0.7,3.1-2.2,10.5-11.4,10.5c-4.1,0-6.1-1.4-7.1-2.9c-1.2-1.8-1.2-4.1-1.2-9c0-2.5,0-6.1,0.1-11.5L580.1,398.4z"/>
	<path class="st5" d="M606.1,418.4c8.6,0,13-1.1,13-6.2c0-2.8-1.5-4.3-4.5-4.3c-2.7,0-8.6,1.3-11.5,1.9l-0.6-3.1
		c1-0.1,5.4-0.8,6.3-1c0.9-0.1,4.1-0.6,5.9-0.6c3.2,0,7.5,1.7,7.5,7.1c0,7.2-6.5,8.2-8.8,8.5c-1.9,0.2-4.4,0.5-7,0.4L606.1,418.4z"
		/>
	<path class="st5" d="M636.9,398.2c-0.1,1.2-0.2,2.3-0.6,4.9h3.3c5.6,0,5.9,5,5.9,7.7c0,1.1-0.2,5.4-1.4,8.2c-1.2,2.8-4,2.8-4.9,2.8
		c-1.5,0-3.3-0.2-4.2-0.3l-0.2-3c0.8,0.2,2.1,0.4,3.7,0.4c1.8,0,2.6-0.5,3.1-2.2c0.4-1.4,0.8-4.8,0.8-6.6c0-2.8-0.8-4.2-3.3-4.1
		l-3.5,0c-1.8,9.8-4.1,14-4.9,15.5l-3.1-1.2c3.1-5,4.4-11.6,4.9-14.3l-4.2,0.1v-3h4.7c0.3-2.1,0.4-3.6,0.5-5.1L636.9,398.2z
		 M649.7,413.4c-0.7-7.5-3.1-10.3-4.1-11.4l2.4-1.5c1.5,1.5,4.1,4.4,4.9,12.4L649.7,413.4z"/>
	<path class="st5" d="M663.5,398.3c-0.5,2-0.7,3.5-1.1,6.2c1.7-2.5,4.3-4,7.2-4c3.7,0,7.2,3.1,7.2,9.6c0,7.9-3.8,11.7-15.4,11.8
		l-0.6-2.9c6.2-0.1,12.8-0.4,12.8-8.7c0-5.9-2.7-6.9-4.2-6.9c-0.9,0-5.2,0.4-7.4,7.5c0,2.3,0.1,3,0.3,4l-3,0.3
		c-0.2-1.3-0.2-2.2-0.2-4.2c0-1.2,0-7.3,1.2-12.9L663.5,398.3z"/>
	<path class="st5" d="M706.2,411.8c-0.6-0.8-1-1.3-2.3-2.5c-0.9,0.1-2.6,0.3-3.5,0.4v9.6c0,0.5,0.4,0.5,0.8,0.5h2.9
		c0.7,0,1-0.1,1.3-0.9c0.1-0.4,0.4-1.5,0.4-4l2.8,0.7c-0.5,5.1-0.9,6.9-3.8,6.9h-4.2c-1.2,0-3-0.1-3-1.9v-10.7
		c-2,0.2-2.2,0.2-4.4,0.3c-0.5,7.7-3,11.1-9.1,13l-1.6-2.7c6.4-1.8,7.5-4.8,7.9-10.1c-2.3,0.1-5.9,0.3-6.9,0.3l-0.1-2.9
		c0.5,0,3.2-0.1,3.9-0.1c0.3-0.5,2.5-3.6,3.3-5.2h-8v-2.8H694v-2.6h2.9v2.6h11.6v2.8H694c-1,1.7-2.7,4.2-3.3,5.1
		c4.9-0.1,5.7-0.2,10.4-0.6c-0.7-0.6-1.4-1-2.7-2l2.1-2c3.5,2.1,5.6,3.7,8.1,6.5L706.2,411.8z"/>
	<path class="st5" d="M712.1,397.9h22.2v2.3h-9.9v1.1h11v5.9h-2.9v-3.9h-8.1v5.5h-2.6v-5.5h-8v3.9h-2.8v-5.9h10.8v-1.1h-9.6V397.9z
		 M736.3,418.5c-0.2,2.7-0.6,4.3-2.4,4.3h-9.6c-1.4,0-2.7-0.1-2.7-1.9v-2.4H715v1.7h-2.7v-10.8h21.7v8.5L736.3,418.5z M715,414.7
		v1.6h6.7v-1.6H715z M715.1,411.4v1.6h6.6v-1.6H715.1z M715.2,404.5h5.4v1.4h-5.4V404.5z M715.2,406.9h5.4v1.5h-5.4V406.9z
		 M724.4,411.4v1.6h6.7v-1.6H724.4z M724.4,414.7v1.6h6.7v-1.6H724.4z M724.4,418.5v1c0,0.6,0,0.8,0.7,0.8h7.4c0.8,0,1-0.1,1.1-1.8
		H724.4z M725.7,404.5h5.5v1.4h-5.5V404.5z M725.7,406.9h5.5v1.5h-5.5V406.9z"/>
</g>
</svg>
