<?xml version="1.0" encoding="utf-8"?>
<!-- Generator: Adobe Illustrator 21.0.0, SVG Export Plug-In . SVG Version: 6.00 Build 0)  -->
<svg version="1.1" id="レイヤー_1" xmlns="http://www.w3.org/2000/svg" xmlns:xlink="http://www.w3.org/1999/xlink" x="0px"
	 y="0px" viewBox="0 0 750 214" style="enable-background:new 0 0 750 214;" xml:space="preserve" width="750" height="214">
<style type="text/css">
	.st0{fill:#DCDDDD;stroke:#FFFFFF;stroke-width:2.2677;stroke-miterlimit:10;}
	.st1{fill:#F39800;stroke:#FFFFFF;stroke-width:2.2677;stroke-miterlimit:10;}
	.st2{fill:#D2ECFB;stroke:#FFFFFF;stroke-width:2.2677;stroke-miterlimit:10;}
	.st3{fill:#468CCB;stroke:#FFFFFF;stroke-width:2.2677;stroke-miterlimit:10;}
	.st4{fill:#FFFFFF;}
	.st5{fill:#595757;}
	.st6{fill:#6ABB65;}
	.st7{fill:#468CCB;}
</style>
<rect x="1" y="1.6" class="st0" width="121.8" height="34.9"/>
<rect x="122.7" y="1.6" class="st1" width="62.6" height="34.9"/>
<rect x="185.4" y="1.6" class="st2" width="62.6" height="34.9"/>
<rect x="248" y="1.6" class="st2" width="62.6" height="34.9"/>
<rect x="310.6" y="1.6" class="st2" width="62.6" height="34.9"/>
<rect x="373.2" y="1.6" class="st2" width="62.6" height="34.9"/>
<rect x="435.9" y="1.6" class="st2" width="62.6" height="34.9"/>
<rect x="498.5" y="1.6" class="st2" width="62.6" height="34.9"/>
<rect x="561.2" y="1.6" class="st2" width="62.6" height="34.9"/>
<rect x="623.8" y="1.6" class="st2" width="62.6" height="34.9"/>
<rect x="686.4" y="1.6" class="st2" width="62.6" height="34.9"/>
<rect x="1" y="36.6" class="st3" width="121.8" height="60.3"/>
<rect x="122.7" y="36.6" class="st1" width="62.6" height="60.3"/>
<rect x="185.4" y="36.6" class="st2" width="62.6" height="60.3"/>
<rect x="248" y="36.6" class="st2" width="62.6" height="60.3"/>
<rect x="310.6" y="36.6" class="st2" width="62.6" height="60.3"/>
<rect x="373.2" y="36.6" class="st2" width="62.6" height="60.3"/>
<rect x="435.9" y="36.6" class="st0" width="62.6" height="60.3"/>
<rect x="498.5" y="36.6" class="st0" width="62.6" height="60.3"/>
<rect x="561.2" y="36.6" class="st0" width="62.6" height="60.3"/>
<rect x="623.8" y="36.6" class="st0" width="62.6" height="60.3"/>
<rect x="686.4" y="36.6" class="st0" width="62.6" height="60.3"/>
<rect x="1" y="96.9" class="st3" width="121.8" height="60.3"/>
<rect x="122.7" y="96.9" class="st1" width="62.6" height="60.3"/>
<rect x="185.4" y="96.9" class="st2" width="62.6" height="60.3"/>
<rect x="248" y="96.9" class="st2" width="62.6" height="60.3"/>
<rect x="310.6" y="96.9" class="st2" width="62.6" height="60.3"/>
<rect x="373.2" y="96.9" class="st2" width="62.6" height="60.3"/>
<rect x="435.9" y="96.9" class="st2" width="62.6" height="60.3"/>
<rect x="498.5" y="96.9" class="st2" width="62.6" height="60.3"/>
<rect x="561.2" y="96.9" class="st2" width="62.6" height="60.3"/>
<rect x="623.8" y="96.9" class="st2" width="62.6" height="60.3"/>
<rect x="686.4" y="96.9" class="st2" width="62.6" height="60.3"/>
<g>
	<path class="st4" d="M17.3,69.1l1.7-15h16.5V59H23.7l-0.8,6.4c1.3-0.8,2.9-1.1,4.4-1.1c2.8,0,4.9,0.9,6.6,2.6
		c1.6,1.8,2.4,4.1,2.4,7.2c0,1.9-0.4,3.6-1.1,5c-0.8,1.5-1.9,2.7-3.4,3.4c-1.5,0.9-3.3,1.2-5.3,1.2c-1.8,0-3.4-0.4-4.9-1.1
		c-1.5-0.7-2.7-1.8-3.6-3s-1.3-2.8-1.4-4.5h5.6c0.1,1.2,0.5,2.2,1.2,2.9c0.8,0.7,1.7,1,2.9,1c1.3,0,2.4-0.5,3-1.4
		c0.7-1,1.1-2.3,1.1-4.1c0-1.7-0.4-3-1.2-3.8c-0.9-1-2-1.3-3.4-1.3c-1.3,0-2.6,0.4-3.4,1.1L22,70.3L17.3,69.1z"/>
	<path class="st4" d="M43.9,72.7c-0.8,0.9-1.1,1.1-1.6,1.5l-1.8-2.3c2.4-1.8,4-4.3,4.6-6.5l2.8,0.5c-0.2,0.5-0.3,0.8-0.6,1.6H60V70
		h-6.6v2.6h5.9v2.5h-5.9v3.4h7.4V81h-7.4v4.7h-2.7V81h-10v-2.6h3L43.9,72.7L43.9,72.7z M50.6,72.4v-2.6h-4.9c-0.5,0.8-1,1.5-1.9,2.6
		H50.6z M46.5,74.9v3.4h4.2v-3.4H46.5z"/>
	<path class="st4" d="M63.7,75.7c-0.5,0.6-0.7,0.8-1.1,1.2l-0.9-3.5c2.6-3.2,3.1-7,3.3-8.1l2.6,0.4c-0.2,1-0.4,2.9-1.3,5.2v14.6
		h-2.6C63.7,85.4,63.7,75.7,63.7,75.7z M66.8,82.2c1.1-0.6,3.4-1.9,5.4-4.9h-4.8v-2.4h5.9v-1.8h-4.8V66h12.2v7.1h-4.9v1.8h5.9v2.4
		H77c1.7,2.6,3.4,4,4.9,4.9l-1.5,2.4c-1-0.8-3-2.3-4.8-5.3v6h-2.6v-5.9c-2.3,3.3-4.2,4.5-5.1,5L66.8,82.2z M71.2,68.4V71h7v-2.6
		H71.2z"/>
	<path class="st4" d="M83.1,69.1h8.4v2.1h-8.4V69.1z M83.7,66.1h7.1v2h-7.1V66.1z M83.7,72.2h7.1v2.1h-7.1V72.2z M83.7,75.3h7.1v2.1
		h-7.1V75.3z M83.7,78.5h7.1v6.2h-4.7v0.9h-2.5L83.7,78.5L83.7,78.5z M86.2,80.5v2h2.4v-2H86.2z M97,68.5h-5.1v-2.5h11v2.5h-3.4v5h3
		V76h-3v6.3h3.7v2.6H91.5v-2.6h1V71.2H95v11.1H97L97,68.5L97,68.5z"/>
</g>
<g>
	<path class="st4" d="M139.9,29.6h-4V14.3l-4.8,1.4v-3.2l8.3-3h0.4V29.6z"/>
	<path class="st4" d="M147.4,19.8c-0.6,0.6-0.9,0.9-1.1,1.1l-1.3-1.8c1.8-1.3,3-3.3,3.4-4.9l2.1,0.4c-0.1,0.4-0.2,0.6-0.4,1.1h9.7
		v1.9h-5v2h4.5v1.9h-4.5v2.6h5.6v1.9h-5.6v3.5h-2v-3.5h-7.5v-2h2.4L147.4,19.8L147.4,19.8z M152.6,19.7v-1.9h-3.6
		c-0.4,0.6-0.8,1.1-1.4,1.9H152.6z M149.4,21.6v2.6h3.2v-2.6H149.4z"/>
	<path class="st4" d="M172.9,29.6v-0.8h-8.1v0.8h-2V15H175v14.7L172.9,29.6L172.9,29.6z M164.7,18.9h8.2v-2.1h-8.2V18.9z
		 M164.7,22.9h8.2v-2.2h-8.2V22.9z M164.7,27.1h8.2v-2.4h-8.2V27.1z"/>
</g>
<g>
	<path class="st5" d="M207.7,29.6H194v-2.7l6.5-7c1-1,1.5-1.9,1.9-2.6c0.4-0.8,0.7-1.4,0.7-2c0-1-0.3-1.6-0.7-2.1
		c-0.4-0.5-1.1-0.8-1.9-0.8c-1,0-1.6,0.4-2.1,1c-0.5,0.6-0.8,1.4-0.8,2.5h-4c0-1.1,0.3-2.4,0.9-3.4s1.4-1.8,2.5-2.4
		c1-0.6,2.3-0.9,3.6-0.9c2,0,3.6,0.5,4.9,1.5c1.1,1,1.7,2.4,1.7,4.2c0,1-0.3,2-0.8,3c-0.5,1-1.3,2.2-2.6,3.5l-4.6,4.9h8.6
		L207.7,29.6L207.7,29.6z"/>
	<path class="st5" d="M212.8,19.8c-0.6,0.6-0.9,0.9-1.1,1.1l-1.3-1.8c1.8-1.3,3-3.3,3.4-4.9l2.1,0.4c-0.1,0.4-0.2,0.6-0.4,1.1h9.7
		v1.9h-5v2h4.5v1.9h-4.5v2.6h5.6v1.9h-5.6v3.5h-2v-3.5h-7.5v-2h2.4L212.8,19.8L212.8,19.8z M218,19.7v-1.9h-3.6
		c-0.4,0.6-0.8,1.1-1.4,1.9H218z M214.9,21.6v2.6h3.2v-2.6H214.9z"/>
	<path class="st5" d="M238.3,29.6v-0.8h-8.2v0.8h-2V15h12.3v14.7L238.3,29.6L238.3,29.6z M230.2,18.9h8.2v-2.1h-8.2V18.9z
		 M230.2,22.9h8.2v-2.2h-8.2V22.9z M230.2,27.1h8.2v-2.4h-8.2V27.1z"/>
</g>
<g>
	<path class="st5" d="M259.4,17.8h2.1c1,0,1.8-0.3,2.3-0.8c0.5-0.5,0.8-1.1,0.8-2s-0.3-1.4-0.8-1.9c-0.5-0.4-1.1-0.7-2-0.7
		c-0.8,0-1.4,0.2-1.9,0.6s-0.8,1-0.8,1.6h-4c0-1,0.3-1.9,0.9-2.8s1.3-1.4,2.4-1.9s2.1-0.7,3.4-0.7c2.1,0,3.8,0.5,4.9,1.5
		s1.8,2.4,1.8,4.2c0,1-0.3,1.8-0.9,2.6c-0.6,0.8-1.2,1.3-2.2,1.8c1.1,0.4,1.9,1,2.6,1.8c0.6,0.9,0.9,1.8,0.9,2.9
		c0,1.8-0.7,3.2-1.9,4.3c-1.2,1.1-3,1.6-5.1,1.6c-2,0-3.6-0.5-4.9-1.6c-1.2-1-1.9-2.5-1.9-4.1h4c0,0.8,0.3,1.3,0.9,1.9
		c0.6,0.5,1.2,0.7,2.1,0.7c1,0,1.7-0.3,2.2-0.8c0.5-0.5,0.9-1.1,0.9-1.9c0-2-1.1-3-3.3-3h-2.2V17.8L259.4,17.8z"/>
	<path class="st5" d="M274.8,19.8c-0.6,0.6-0.9,0.9-1.1,1.1l-1.3-1.8c1.8-1.3,3-3.3,3.4-4.9l2.1,0.4c-0.1,0.4-0.2,0.6-0.4,1.1h9.7
		v1.9h-5v2h4.5v1.9h-4.5v2.6h5.6v1.9h-5.6v3.5h-2v-3.5h-7.5v-2h2.4L274.8,19.8L274.8,19.8z M280,19.7v-1.9h-3.6
		c-0.4,0.6-0.8,1.1-1.4,1.9H280z M276.8,21.6v2.6h3.2v-2.6H276.8z"/>
	<path class="st5" d="M300.4,29.6v-0.8h-8.2v0.8h-2V15h12.3v14.7L300.4,29.6L300.4,29.6z M292.1,18.9h8.2v-2.1h-8.2V18.9z
		 M292.1,22.9h8.2v-2.2h-8.2V22.9z M292.1,27.1h8.2v-2.4h-8.2V27.1z"/>
</g>
<g>
	<path class="st5" d="M328.7,22h2.3v3.2h-2.3v4.3h-4v-4.3h-8.2l-0.2-2.6l8.4-13.1h4V22L328.7,22z M320.3,22h4.4v-7l-0.3,0.4
		L320.3,22z"/>
	<path class="st5" d="M338.6,19.8c-0.6,0.6-0.9,0.9-1.1,1.1l-1.3-1.8c1.8-1.3,3-3.3,3.4-4.9l2.1,0.4c-0.1,0.4-0.2,0.6-0.4,1.1h9.7
		v1.9h-5v2h4.5v1.9h-4.5v2.6h5.6v1.9h-5.6v3.5h-2v-3.5h-7.6v-2h2.4L338.6,19.8L338.6,19.8z M343.8,19.7v-1.9h-3.6
		c-0.4,0.6-0.8,1.1-1.4,1.9H343.8z M340.5,21.6v2.6h3.2v-2.6H340.5z"/>
	<path class="st5" d="M364.1,29.6v-0.8h-8.2v0.8h-2V15h12.3v14.7L364.1,29.6L364.1,29.6z M355.9,18.9h8.2v-2.1h-8.2V18.9z
		 M355.9,22.9h8.2v-2.2h-8.2V22.9z M355.9,27.1h8.2v-2.4h-8.2V27.1z"/>
</g>
<g>
	<path class="st5" d="M380.7,19.7l1.1-10.1h11.2v3.3h-7.9l-0.5,4.3c1-0.5,1.9-0.8,3-0.8c1.9,0,3.4,0.6,4.5,1.8
		c1.1,1.1,1.6,2.9,1.6,4.9c0,1.2-0.3,2.5-0.9,3.4c-0.5,1-1.3,1.8-2.4,2.4s-2.2,0.9-3.6,0.9c-1.1,0-2.4-0.3-3.4-0.8
		c-1-0.5-1.9-1.1-2.5-2c-0.6-0.9-1-1.9-1-3h4c0.1,0.9,0.4,1.5,0.9,1.9c0.5,0.4,1.1,0.7,1.9,0.7c1,0,1.6-0.4,2.1-1
		c0.5-0.7,0.8-1.5,0.8-2.7c0-1.1-0.3-2-0.9-2.6c-0.6-0.6-1.3-1-2.4-1c-1,0-1.7,0.3-2.3,0.8l-0.4,0.4L380.7,19.7z"/>
	<path class="st5" d="M399.5,19.8c-0.6,0.6-0.9,0.9-1.1,1.1l-1.3-1.8c1.8-1.3,3-3.3,3.4-4.9l2.1,0.4c-0.1,0.4-0.2,0.6-0.4,1.1h9.7
		v1.9h-5.1v2h4.5v1.9h-4.5v2.6h5.6v1.9h-5.6v3.5h-2v-3.5h-7.5v-2h2.4L399.5,19.8L399.5,19.8z M404.7,19.7v-1.9h-3.6
		c-0.4,0.6-0.8,1.1-1.4,1.9H404.7z M401.6,21.6v2.6h3.2v-2.6H401.6z"/>
	<path class="st5" d="M425.1,29.6v-0.8h-8.2v0.8h-2V15h12.3v14.7L425.1,29.6L425.1,29.6z M416.9,18.9h8.2v-2.1h-8.2V18.9z
		 M416.9,22.9h8.2v-2.2h-8.2V22.9z M416.9,27.1h8.2v-2.4h-8.2V27.1z"/>
</g>
<g>
	<path class="st5" d="M453.4,9.4v3.3h-0.4c-1.8,0-3.2,0.5-4.3,1.4c-1.1,1-1.8,2.2-1.9,3.8c1.1-1.1,2.4-1.6,4.1-1.6
		c1.8,0,3.1,0.6,4.1,1.9c1.1,1.2,1.5,2.9,1.5,4.9c0,1.2-0.3,2.5-0.9,3.5c-0.6,1-1.3,1.9-2.4,2.5c-1.1,0.6-2.2,0.9-3.4,0.9
		c-2.1,0-3.8-0.8-5-2.2c-1.2-1.4-1.9-3.4-1.9-5.8v-1.4c0-2.2,0.4-4.1,1.2-5.7c0.9-1.7,2-3,3.5-3.9c1.5-0.9,3.3-1.3,5.3-1.3
		L453.4,9.4L453.4,9.4z M449.5,19.5c-0.7,0-1.1,0.2-1.8,0.5c-0.5,0.4-1,0.8-1.1,1.3v1.1c0,1.3,0.3,2.4,0.8,3.1
		c0.5,0.8,1.2,1.1,2.2,1.1c0.9,0,1.5-0.4,2-1c0.5-0.7,0.8-1.5,0.8-2.6c0-1.1-0.3-1.9-0.8-2.6C451.1,19.6,450.4,19.5,449.5,19.5z"/>
	<path class="st5" d="M462,19.8c-0.6,0.6-0.9,0.9-1.1,1.1l-1.3-1.8c1.8-1.3,3-3.3,3.4-4.9l2.1,0.4c-0.1,0.4-0.2,0.6-0.4,1.1h9.7v1.9
		h-5v2h4.5v1.9h-4.5v2.6h5.6v1.9h-5.6v3.5h-2.1v-3.5h-7.5v-2h2.4L462,19.8L462,19.8z M467.2,19.7v-1.9h-3.6
		c-0.4,0.6-0.8,1.1-1.4,1.9H467.2z M463.9,21.6v2.6h3.2v-2.6H463.9z"/>
	<path class="st5" d="M487.5,29.6v-0.8h-8.2v0.8h-2V15h12.3v14.7L487.5,29.6L487.5,29.6z M479.3,18.9h8.2v-2.1h-8.2V18.9z
		 M479.3,22.9h8.2v-2.2h-8.2V22.9z M479.3,27.1h8.2v-2.4h-8.2V27.1z"/>
</g>
<g>
	<path class="st5" d="M519.8,11.8L512,29.6h-4.2l7.8-16.9h-10V9.6h14.1L519.8,11.8L519.8,11.8z"/>
	<path class="st5" d="M524.9,19.8c-0.6,0.6-0.9,0.9-1.1,1.1l-1.3-1.8c1.8-1.3,3-3.3,3.4-4.9l2.1,0.4c-0.1,0.4-0.2,0.6-0.4,1.1h9.7
		v1.9h-5v2h4.5v1.9h-4.5v2.6h5.6v1.9h-5.6v3.5h-2v-3.5h-7.5v-2h2.4L524.9,19.8L524.9,19.8z M530.2,19.7v-1.9h-3.6
		c-0.4,0.6-0.8,1.1-1.4,1.9H530.2z M526.9,21.6v2.6h3.2v-2.6H526.9z"/>
	<path class="st5" d="M550.5,29.6v-0.8h-8.1v0.8h-2V15h12.3v14.7L550.5,29.6L550.5,29.6z M542.4,18.9h8.2v-2.1h-8.2V18.9z
		 M542.4,22.9h8.2v-2.2h-8.2V22.9z M542.4,27.1h8.2v-2.4h-8.2V27.1z"/>
</g>
<g>
	<path class="st5" d="M581.3,14.9c0,1-0.3,1.9-0.8,2.6s-1.1,1.3-2,1.8c1,0.5,1.8,1.1,2.3,1.9c0.6,0.9,0.9,1.8,0.9,2.9
		c0,1.8-0.6,3.2-1.8,4.2c-1.1,1-2.9,1.5-4.9,1.5s-3.7-0.5-4.9-1.5c-1.1-1-1.9-2.5-1.9-4.2c0-1.1,0.3-2.1,0.9-2.9
		c0.6-0.9,1.3-1.4,2.3-1.9c-0.9-0.4-1.5-1-2-1.8c-0.5-0.8-0.8-1.6-0.8-2.6c0-1.7,0.6-3,1.7-4.1c1.1-1,2.7-1.5,4.7-1.5
		c1.9,0,3.4,0.5,4.7,1.5C580.7,11.8,581.3,13.2,581.3,14.9z M577.8,23.8c0-0.9-0.3-1.6-0.8-2.1c-0.5-0.5-1.1-0.8-2-0.8
		c-0.9,0-1.5,0.3-2,0.8c-0.5,0.5-0.8,1.1-0.8,2.1c0,0.9,0.3,1.5,0.8,2c0.5,0.5,1.1,0.8,2,0.8c0.9,0,1.5-0.3,2-0.8
		C577.5,25.4,577.8,24.7,577.8,23.8z M577.3,15.1c0-0.8-0.2-1.4-0.6-1.9c-0.4-0.5-1-0.7-1.8-0.7s-1.3,0.3-1.7,0.7
		c-0.4,0.4-0.6,1.1-0.6,1.9c0,0.8,0.2,1.4,0.6,1.9c0.4,0.5,1,0.8,1.8,0.8s1.3-0.3,1.8-0.8C577.1,16.6,577.3,15.9,577.3,15.1z"/>
	<path class="st5" d="M587,19.8c-0.6,0.6-0.9,0.9-1.1,1.1l-1.3-1.8c1.8-1.3,3-3.3,3.4-4.9l2.1,0.4c-0.1,0.4-0.2,0.6-0.4,1.1h9.7v1.9
		h-5v2h4.5v1.9h-4.5v2.6h5.6v1.9h-5.6v3.5h-2v-3.5h-7.5v-2h2.4L587,19.8L587,19.8z M592.2,19.7v-1.9h-3.6c-0.4,0.6-0.8,1.1-1.4,1.9
		H592.2z M589.1,21.6v2.6h3.2v-2.6H589.1z"/>
	<path class="st5" d="M612.5,29.6v-0.8h-8.2v0.8h-2V15h12.3v14.7L612.5,29.6L612.5,29.6z M604.4,18.9h8.2v-2.1h-8.2V18.9z
		 M604.4,22.9h8.2v-2.2h-8.2V22.9z M604.4,27.1h8.2v-2.4h-8.2V27.1z"/>
</g>
<g>
	<path class="st5" d="M640.1,21.7c-1,1-2.3,1.5-3.6,1.5c-1.8,0-3.2-0.6-4.2-1.9c-1.1-1.2-1.6-2.9-1.6-4.9c0-1.3,0.3-2.6,0.9-3.6
		s1.3-1.9,2.4-2.6c1-0.6,2.2-1,3.4-1c1.3,0,2.5,0.4,3.5,1c1,0.7,1.9,1.6,2.4,2.9c0.5,1.2,0.9,2.6,0.9,4.2v1.4c0,3.3-0.9,5.9-2.5,7.9
		c-1.7,1.9-4,3-7,3h-1v-3.3h0.9C637.9,26.3,639.9,24.7,640.1,21.7z M637.5,20.1c0.7,0,1.1-0.2,1.7-0.5c0.4-0.4,0.9-0.8,1-1.1v-1.7
		c0-1.3-0.3-2.4-0.8-3.1c-0.5-0.8-1.1-1.1-2-1.1c-0.8,0-1.4,0.4-1.9,1.1c-0.5,0.8-0.8,1.6-0.8,2.7c0,1.1,0.3,1.9,0.8,2.7
		C635.9,19.7,636.5,20.1,637.5,20.1z"/>
	<path class="st5" d="M649.1,19.8c-0.6,0.6-0.9,0.9-1.1,1.1l-1.3-1.8c1.8-1.3,3-3.3,3.4-4.9l2.1,0.4c-0.1,0.4-0.2,0.6-0.4,1.1h9.7
		v1.9h-5v2h4.5v1.9h-4.5v2.6h5.6v1.9h-5.6v3.5h-2v-3.5h-7.6v-2h2.4L649.1,19.8L649.1,19.8z M654.3,19.7v-1.9h-3.6
		c-0.4,0.6-0.8,1.1-1.4,1.9H654.3z M651.1,21.6v2.6h3.2v-2.6H651.1z"/>
	<path class="st5" d="M674.6,29.6v-0.8h-8.2v0.8h-2V15h12.4v14.7L674.6,29.6L674.6,29.6z M666.4,18.9h8.2v-2.1h-8.2V18.9z
		 M666.4,22.9h8.2v-2.2h-8.2V22.9z M666.4,27.1h8.2v-2.4h-8.2V27.1z"/>
</g>
<g>
	<path class="st5" d="M697.9,29.8h-3.6v-14l-4.3,1.3v-3l7.6-2.7h0.4L697.9,29.8L697.9,29.8z"/>
	<path class="st5" d="M713.2,22.2c0,2.6-0.5,4.5-1.6,5.8c-1.1,1.3-2.6,2-4.6,2c-2,0-3.5-0.7-4.6-1.9c-1-1.3-1.6-3.2-1.6-5.6v-3.4
		c0-2.6,0.5-4.5,1.6-5.8s2.6-2,4.6-2c1.9,0,3.5,0.7,4.6,1.9s1.6,3.2,1.6,5.6V22.2z M709.5,18.5c0-1.5-0.2-2.6-0.6-3.3
		c-0.4-0.7-1.1-1-1.9-1c-0.9,0-1.5,0.4-1.9,1c-0.4,0.7-0.6,1.7-0.7,3.1v4.5c0,1.5,0.2,2.6,0.6,3.3c0.4,0.8,1.1,1.1,1.9,1.1
		c1,0,1.5-0.4,1.9-1c0.4-0.7,0.6-1.8,0.6-3.2L709.5,18.5L709.5,18.5z"/>
	<path class="st5" d="M718.7,20.7c-0.6,0.6-0.8,0.8-1.1,1l-1.2-1.6c1.7-1.2,2.8-3,3.2-4.6l1.9,0.4c-0.1,0.4-0.2,0.5-0.4,1.1h8.9v1.8
		h-4.7v1.8h4.1v1.8h-4.1v2.4h5.2v1.8h-5.2v3.3h-1.9v-3.3h-7v-1.8h2.2V20.7L718.7,20.7z M723.4,20.5v-1.8h-3.4
		c-0.4,0.5-0.7,1-1.2,1.8H723.4z M720.5,22.3v2.4h3v-2.4H720.5z"/>
	<path class="st5" d="M742.2,29.7V29h-7.6v0.7h-1.9V16.1h11.4v13.6H742.2z M734.7,19.8h7.6v-1.9h-7.6V19.8z M734.7,23.5h7.6v-2h-7.6
		V23.5z M734.7,27.3h7.6v-2.2h-7.6V27.3z"/>
</g>
<g>
	<path class="st4" d="M21.7,143.3h-5.8v-22.5l-7,2.2v-4.8l12.2-4.4h0.6C21.7,113.8,21.7,143.3,21.7,143.3z"/>
	<path class="st4" d="M45.2,131.2c0,4.1-0.9,7.1-2.6,9.3c-1.7,2.1-4.1,3.2-7.4,3.2c-3.2,0-5.6-1.1-7.3-3.2c-1.7-2.1-2.6-5.1-2.6-9.1
		V126c0-4.1,0.9-7.2,2.6-9.4c1.7-2.1,4.1-3.2,7.3-3.2s5.6,1,7.3,3.1c1.7,2.1,2.6,5.1,2.6,9L45.2,131.2L45.2,131.2z M39.4,125.2
		c0-2.5-0.4-4.2-1-5.3c-0.7-1.1-1.7-1.7-3.1-1.7c-1.3,0-2.4,0.5-3,1.6c-0.7,1.1-1,2.7-1,4.9v7.1c0,2.4,0.4,4.2,1,5.3
		c0.7,1.1,1.7,1.8,3.1,1.8c1.4,0,2.5-0.6,3.1-1.7c0.6-1.1,1-2.9,1-5.1L39.4,125.2L39.4,125.2z"/>
	<path class="st4" d="M52.1,132.5c-0.8,0.9-1.1,1.1-1.6,1.5l-1.8-2.3c2.4-1.8,4-4.3,4.6-6.5l2.8,0.5c-0.2,0.5-0.3,0.8-0.6,1.6h12.7
		v2.6h-6.6v2.6h5.9v2.5h-5.9v3.4H69v2.6h-7.4v4.7h-2.7v-4.7h-10v-2.6h3L52.1,132.5L52.1,132.5z M58.8,132.2v-2.6H54
		c-0.5,0.8-1,1.5-1.9,2.6H58.8z M54.6,134.7v3.4h4.2v-3.4H54.6z"/>
	<path class="st4" d="M71.9,135.5c-0.5,0.6-0.7,0.8-1.1,1.2l-1-3.5c2.6-3.2,3.1-7,3.3-8.1l2.6,0.4c-0.2,1-0.4,2.9-1.3,5.2v14.6h-2.6
		L71.9,135.5L71.9,135.5z M75,142.1c1.1-0.6,3.4-1.9,5.4-4.9h-4.8v-2.4h5.9V133h-4.8v-7.1h12.2v7.1H84v1.8h5.9v2.4h-4.7
		c1.7,2.6,3.4,4,4.9,4.9l-1.5,2.4c-1-0.8-3-2.3-4.8-5.3v6h-2.6v-5.9c-2.3,3.3-4.2,4.5-5.1,5L75,142.1z M79.5,128.2v2.6h7v-2.6H79.5z
		"/>
	<path class="st4" d="M91.3,128.9h8.4v2.1h-8.4V128.9z M91.9,125.9H99v2h-7.1V125.9z M91.9,132.1H99v2.1h-7.1V132.1z M91.9,135.1H99
		v2.1h-7.1V135.1z M91.9,138.3H99v6.2h-4.7v0.9h-2.5L91.9,138.3L91.9,138.3z M94.3,140.4v2h2.4v-2H94.3z M105.2,128.4h-5.1V126h11
		v2.5h-3.4v5h3v2.5h-3v6.3h3.7v2.6H99.7v-2.6h1v-11.1h2.6v11.1h1.9V128.4z"/>
</g>
<polygon class="st6" points="420,87.9 124,87.9 124,46.9 420,46.9 434.1,66.9 "/>
<polygon class="st6" points="733.1,147.9 123.9,147.9 123.9,107 733.1,107 747.2,126.9 "/>
<g>
	<path class="st4" d="M187.1,63.1c-0.8,0.6-1,0.8-1.5,1l-1.4-1.9c2.7-1.4,3.4-2.9,3.8-3.6l2.3,0.4c-0.2,0.4-0.3,0.6-0.7,1.2H202v2.1
		h-1.7v2.4h2.2v2.1h-2.2v2.4h1.7v2.1h-17v-2.1h2v-2.4h-2.6v-2.1h2.6L187.1,63.1L187.1,63.1z M188.7,72.5c-1,2.9-1.6,3.9-2.3,4.6
		l-2-1.4c0.6-0.6,1.4-1.5,2.2-3.7L188.7,72.5z M189.1,62.4v2.4h1.7v-2.4H189.1z M189.1,66.9v2.4h1.7v-2.4H189.1z M192.1,72.2
		c0.3,1.2,0.4,3.4,0.4,4.4h-2.4c0-0.6,0.1-1.3,0.1-2.5c0-0.9,0-1.4-0.1-1.9L192.1,72.2z M192.8,62.4v2.4h1.8v-2.4H192.8z
		 M192.8,66.9v2.4h1.8v-2.4H192.8z M196,72.1c0.2,0.4,1.1,2.8,1.2,4.5l-2.4,0.2c-0.3-2-0.5-3-1-4.5L196,72.1z M196.4,62.4v2.4h1.8
		v-2.4H196.4z M196.4,66.9v2.4h1.8v-2.4H196.4z M199.9,71.7c1,1.3,1.7,2.4,2.6,4.1l-2.2,1.1c-0.3-0.6-0.7-1.8-2.5-4.4L199.9,71.7z"
		/>
	<path class="st4" d="M205.1,68.1c-0.4,0.5-0.4,0.7-0.8,1.1l-1-3.2c1.4-2.1,2.1-4.9,2.3-7.2l2.3,0.3c-0.1,0.9-0.3,1.9-0.7,3.4v14.5
		H205L205.1,68.1L205.1,68.1z M207.6,74.9c1.1-0.1,2.6-0.4,3.7-0.8h-2.7v-7.1h12v7.1h-2.6c1.8,0.7,3.2,0.9,3.9,0.9l-0.8,1.9
		c-2-0.4-3.5-0.8-4.9-1.6l1-1.1h-4.6l0.8,1.1c-2,1-4.1,1.4-4.8,1.5L207.6,74.9z M209.7,64.4h-1.7v-3.9h2c-0.2-0.4-0.4-1-0.6-1.2
		l2.1-0.4c0.2,0.4,0.6,1.2,0.9,1.8h1v-1.8h2.3v1.8h1c0.4-0.5,0.7-1.6,0.8-1.8l2.2,0.4c-0.2,0.4-0.4,1-0.6,1.2h2.1v3.9h-1.7v1.9h-9.9
		L209.7,64.4L209.7,64.4z M219.3,63v-1h-8.9v1H219.3z M211,68.3v0.8h7.5v-0.8H211z M211,70.1v0.7h7.5V70L211,70.1L211,70.1z M211,72
		v0.8h7.5V72H211z M211.9,64.2v1h5.6v-1H211.9z"/>
	<path class="st4" d="M224.3,68.4c-0.3,0.4-0.5,0.6-1,1.1l-0.9-3c1.5-2.1,2.5-4.9,2.8-7.7l2.4,0.3c-0.3,1.2-0.6,3-1.2,4.9v13h-2.2
		L224.3,68.4L224.3,68.4z M240.2,68.8c-1-0.3-2.7-0.7-4.9-1.9c-2.2,1.1-4,1.5-4.9,1.7l-0.8-1.6v7.5h-2.1V61.6h2.1v1.1
		c0.4-0.3,1.9-1.5,2.8-4l2.3,0.4c-0.2,0.4-0.3,0.8-0.5,1.1h6.6v2h-1.1c-0.4,0.9-1,2-2.4,3.2c1.5,0.7,2.8,1,3.9,1.1L240.2,68.8z
		 M229.6,63.5v3.1c1-0.1,2.3-0.4,3.9-1.1c-1-1-1.3-1.4-1.7-1.9c-0.5,0.5-0.9,0.8-1.1,1L229.6,63.5z M241.1,72.8
		c-1,1-3.7,3.6-10.4,4.1l-0.8-1.9c5.7-0.5,8.2-2.3,9.5-3.5L241.1,72.8z M236.9,68.9c-1.3,1-3.7,1.8-6.1,2.2l-0.7-1.6
		c1.3-0.3,3.4-0.7,5.3-1.8L236.9,68.9z M238.9,70.8c-2.8,2.3-6.1,2.9-7.9,3.2l-0.7-1.8c2.8-0.4,5.3-1.2,7.1-2.6L238.9,70.8z
		 M233.1,62.3c0.3,0.4,0.9,1.1,2.3,2.1c1-0.8,1.5-1.4,2-2.1H233.1z"/>
	<path class="st4" d="M241.7,73.1c0.8-0.2,1.3-0.4,2.4-0.6v-4.9h-1.9v-2.3h1.9v-3.5h-2v-2.3h6.3v2.3h-1.9v3.5h1.7v2.3h-1.7v4.1
		c1-0.4,1.3-0.4,1.9-0.7v2.3c-1.7,0.8-4.8,1.8-6.2,2.1L241.7,73.1z M248.8,59.3h10.8v9.4h-4.2v1.6h4.4v2h-4.4v1.9h4.8v2.2h-12.4
		v-2.2h5.4v-1.9h-4.3v-2h4.3v-1.6h-4.2L248.8,59.3L248.8,59.3z M251,61.4v1.7h2.1v-1.7H251z M251,64.8v1.9h2.1v-1.9H251z
		 M255.2,61.4v1.7h2v-1.7H255.2z M255.2,64.8v1.9h2v-1.9H255.2z"/>
	<path class="st4" d="M265.3,72.9c-0.6,1.4-1.9,3-3,4l-1.6-1.7c1-0.9,2.1-2.4,2.6-3.3L265.3,72.9z M262.4,58.8h2.2v1.5h3.1v-1.5h2.2
		v1.5h1.2v2.1h-1.2v7.3h1.1v2H261v-2h1.2v-7.3h-1v-2.1h1L262.4,58.8L262.4,58.8z M264.6,62.4v1.1h3.1v-1.1H264.6z M264.6,65.4v1.2
		h3.1v-1.2H264.6z M264.6,68.4v1.3h3.1v-1.3H264.6z M268,72c0.6,0.5,1.3,1.3,2,2.5l-1.6,1.4c-0.4-0.8-1.1-1.8-1.9-2.7L268,72z
		 M278.6,59.3v15.9c0,1.6-1,1.6-1.7,1.6h-2.6l-0.4-2.3h1.8c0.5,0,0.6-0.3,0.6-0.6V71h-2.9c-0.4,3.6-1.5,5.1-1.9,5.7l-1.9-1.6
		c1.3-1.9,1.9-3.7,1.9-9.1v-6.7L278.6,59.3L278.6,59.3z M273.7,66.3c0,1,0,1.5,0,2.7h2.7v-2.7H273.7z M273.7,61.6v2.7h2.6v-2.7
		H273.7z"/>
	<path class="st4" d="M280.9,59.4h7.5v7.1h-5.3v10.1h-2.3L280.9,59.4L280.9,59.4z M283.1,61.2v1.1h3v-1.1H283.1z M283.1,63.8v1.1h3
		v-1.1L283.1,63.8L283.1,63.8z M293.6,74.6h1.2c0.4,0,0.5-0.3,0.5-0.6v-7.3h-5.5v-7.1h7.8V75c0,0.7-0.2,1.9-1.4,1.9h-3.4l-0.4-1.9
		h-7.8v-7.2h8.8V74.6L293.6,74.6z M287,69.4v1.1h4.5v-1.1H287z M287,72v1.1h4.5V72H287z M292.1,61.2v1.1h3.3v-1.1H292.1z
		 M292.1,63.8v1.1h3.3v-1.1L292.1,63.8L292.1,63.8z"/>
</g>
<g>
	<path class="st4" d="M319.3,67.7l1.6-13.9h15.4v4.6h-10.9l-0.7,5.9c1.2-0.7,2.7-1,4.1-1c2.6,0,4.7,0.9,6.2,2.5
		c1.5,1.6,2.2,3.9,2.2,6.9c0,1.8-0.4,3.4-1.1,4.8c-0.8,1.4-1.9,2.5-3.2,3.3c-1.4,0.8-3,1.1-4.9,1.1c-1.7,0-3.2-0.4-4.7-1
		c-1.4-0.7-2.6-1.6-3.4-2.9c-0.8-1.3-1.2-2.6-1.3-4.1h5.4c0.1,1.1,0.5,2,1.1,2.7c0.7,0.7,1.6,1,2.7,1c1.2,0,2.2-0.4,2.9-1.3
		s1-2.1,1-3.8c0-1.5-0.4-2.8-1.1-3.5c-0.8-0.9-1.9-1.2-3.3-1.2c-1.2,0-2.4,0.4-3.1,1l-0.5,0.5L319.3,67.7z"/>
	<path class="st4" d="M344.1,68.8c-0.8,0.8-1,1-1.4,1.3l-1.6-2.1c2.2-1.7,3.7-4,4.2-6.1l2.6,0.4c-0.1,0.4-0.2,0.7-0.5,1.4h11.7v2.4
		h-6.2v2.4h5.5v2.3h-5.5V74h7v2.4h-7v4.3h-2.6v-4.3h-9.2V74h2.9V68.8z M350.4,68.5v-2.4h-4.5c-0.4,0.7-1,1.3-1.7,2.4H350.4z
		 M346.5,70.8V74h3.9v-3.2H346.5z"/>
</g>
<g>
	<path class="st4" d="M310.5,122.8c-0.8,0.6-1,0.8-1.5,1l-1.4-1.9c2.7-1.4,3.4-2.9,3.8-3.6l2.3,0.4c-0.2,0.4-0.3,0.6-0.7,1.2h12.4
		v2.1h-1.7v2.4h2.2v2.1h-2.2v2.4h1.7v2.1h-17V129h2v-2.4h-2.6v-2.1h2.6L310.5,122.8L310.5,122.8L310.5,122.8z M312.1,132.1
		c-1,2.9-1.6,3.9-2.3,4.6l-2-1.4c0.6-0.6,1.4-1.5,2.2-3.7L312.1,132.1z M312.4,122.1v2.4h1.7v-2.4H312.4z M312.4,126.6v2.4h1.7v-2.4
		H312.4z M315.4,131.9c0.3,1.2,0.4,3.4,0.4,4.4h-2.4c0-0.6,0.1-1.3,0.1-2.5c0-0.9,0-1.4-0.1-1.9L315.4,131.9z M316.1,122.1v2.4h1.8
		v-2.4H316.1z M316.1,126.6v2.4h1.8v-2.4H316.1z M319.3,131.7c0.2,0.4,1.1,2.8,1.2,4.5l-2.4,0.2c-0.3-2-0.5-3-1-4.5L319.3,131.7z
		 M319.8,122.1v2.4h1.8v-2.4H319.8z M319.8,126.6v2.4h1.8v-2.4H319.8z M323.3,131.3c1,1.3,1.7,2.4,2.6,4.1l-2.2,1.1
		c-0.3-0.6-0.7-1.8-2.5-4.4L323.3,131.3z"/>
	<path class="st4" d="M328.4,127.6c-0.4,0.5-0.4,0.7-0.8,1.1l-1-3.2c1.4-2.1,2.1-4.9,2.3-7.2l2.3,0.3c-0.1,0.9-0.3,1.9-0.7,3.4v14.5
		h-2.2L328.4,127.6L328.4,127.6z M331,134.6c1.1-0.1,2.6-0.4,3.7-0.8h-2.7v-7.1h11.9v7.1h-2.6c1.8,0.7,3.2,0.9,3.9,0.9l-0.8,1.9
		c-2-0.4-3.5-0.8-4.9-1.6l1-1.1h-4.6l0.8,1.1c-2,1-4.1,1.4-4.8,1.5L331,134.6z M333.1,124h-1.7v-3.9h2c-0.2-0.4-0.4-1-0.6-1.2
		l2.1-0.4c0.2,0.4,0.6,1.2,0.9,1.8h1v-1.8h2.3v1.8h1c0.4-0.5,0.7-1.6,0.8-1.8l2.2,0.4c-0.2,0.4-0.4,1-0.6,1.2h2.1v3.9h-1.7v1.9H333
		L333.1,124L333.1,124z M342.5,122.7v-1h-8.9v1H342.5z M334.3,127.8v0.8h7.5v-0.8H334.3z M334.3,129.7v0.8h7.5v-0.8H334.3z
		 M334.3,131.6v0.8h7.5v-0.8H334.3z M335.2,123.9v1h5.6v-1H335.2z"/>
	<path class="st4" d="M347.6,128.1c-0.3,0.4-0.5,0.6-1,1.1l-0.9-3c1.5-2.1,2.5-4.9,2.8-7.7l2.4,0.3c-0.3,1.2-0.6,3-1.2,4.9v13h-2.2
		L347.6,128.1L347.6,128.1z M363.5,128.4c-1-0.3-2.7-0.7-4.9-1.9c-2.2,1.1-4,1.5-4.9,1.7l-0.8-1.6v7.5h-2.1v-12.9h2.1v1.1
		c0.4-0.3,1.9-1.5,2.8-4l2.3,0.4c-0.2,0.4-0.3,0.8-0.5,1.1h6.6v2h-1.1c-0.4,0.9-1,2-2.4,3.2c1.5,0.7,2.8,1,3.9,1.1L363.5,128.4z
		 M352.9,123.1v3.1c1-0.1,2.3-0.4,3.9-1.1c-1-1-1.3-1.4-1.7-1.9c-0.5,0.5-0.9,0.8-1.1,1L352.9,123.1z M364.3,132.4
		c-1,1-3.7,3.6-10.4,4.1l-0.8-1.9c5.7-0.5,8.2-2.3,9.5-3.5L364.3,132.4z M360.2,128.6c-1.3,1-3.7,1.8-6.1,2.2l-0.7-1.6
		c1.3-0.3,3.4-0.7,5.3-1.8L360.2,128.6z M362.1,130.4c-2.8,2.3-6.1,2.9-7.9,3.2l-0.7-1.8c2.8-0.4,5.3-1.2,7.1-2.6L362.1,130.4z
		 M356.5,121.9c0.3,0.4,0.9,1.1,2.3,2.1c1-0.8,1.5-1.4,2-2.1H356.5z"/>
	<path class="st4" d="M365,132.8c0.8-0.2,1.3-0.4,2.4-0.6v-4.9h-1.9V125h1.9v-3.5h-2v-2.3h6.3v2.3h-1.9v3.5h1.7v2.3h-1.7v4.1
		c1-0.4,1.3-0.4,1.9-0.7v2.3c-1.7,0.8-4.8,1.8-6.2,2.1L365,132.8z M372.1,118.9h10.8v9.3h-4.2v1.6h4.4v2h-4.4v1.9h4.8v2.2H371v-2.2
		h5.4v-1.9h-4.3v-1.9h4.3v-1.7h-4.2L372.1,118.9L372.1,118.9z M374.3,121v1.7h2.1V121H374.3z M374.3,124.5v1.9h2.1v-1.9H374.3z
		 M378.5,121v1.7h2V121H378.5z M378.5,124.5v1.9h2v-1.9H378.5z"/>
	<path class="st4" d="M388.7,132.6c-0.6,1.4-1.9,3-3,4l-1.6-1.7c1-0.9,2.1-2.4,2.6-3.3L388.7,132.6z M385.8,118.5h2.2v1.5h3.1v-1.5
		h2.2v1.5h1.2v2.1h-1.2v7.3h1.1v2h-10.1v-2h1.2v-7.3h-1V120h1L385.8,118.5L385.8,118.5z M387.9,122.1v1.1h3.1v-1.1H387.9z
		 M387.9,125v1.2h3.1V125H387.9z M387.9,128v1.3h3.1V128H387.9z M391.3,131.6c0.6,0.5,1.3,1.3,2,2.5l-1.6,1.4
		c-0.4-0.8-1.1-1.8-1.9-2.7L391.3,131.6z M401.8,118.9v15.9c0,1.6-1,1.6-1.7,1.6h-2.6l-0.4-2.3h1.8c0.5,0,0.6-0.3,0.6-0.6v-2.6h-2.9
		c-0.4,3.6-1.5,5.1-1.9,5.7l-1.9-1.6c1.3-1.9,1.9-3.7,1.9-9.1v-6.8L401.8,118.9L401.8,118.9z M397.1,126c0,1,0,1.5,0,2.7h2.7V126
		H397.1z M397.1,121.1v2.7h2.6v-2.7H397.1z"/>
	<path class="st4" d="M404.2,119.1h7.5v7.1h-5.3v10.1h-2.3L404.2,119.1L404.2,119.1z M406.5,120.9v1.1h3v-1.1H406.5z M406.5,123.4
		v1.1h3v-1.1H406.5z M417,134.3h1.2c0.4,0,0.5-0.3,0.5-0.6v-7.3h-5.5v-7.1h7.8v15.4c0,0.7-0.2,1.9-1.4,1.9h-3.3l-0.4-1.9h-7.8v-7.2
		h8.8L417,134.3L417,134.3z M410.4,129.1v1.1h4.5v-1.1H410.4z M410.4,131.6v1.1h4.5v-1.1H410.4z M415.5,120.9v1.1h3.3v-1.1H415.5z
		 M415.5,123.4v1.1h3.3v-1.1H415.5z"/>
</g>
<g>
	<path class="st4" d="M455.6,141h-5.5v-21l-6.5,2v-4.4l11.4-4.1h0.6V141z"/>
	<path class="st4" d="M479.2,129.6c0,3.8-0.8,6.7-2.4,8.7c-1.6,2-3.9,3-7,3c-3,0-5.2-1-6.9-3c-1.7-2-2.4-4.9-2.5-8.5v-5
		c0-3.8,0.8-6.8,2.4-8.7c1.6-2,3.9-3,6.9-3c3,0,5.2,1,6.9,3c1.6,1.9,2.4,4.9,2.5,8.5L479.2,129.6L479.2,129.6z M473.7,124.1
		c0-2.3-0.4-4-1-4.9c-0.6-1-1.6-1.5-2.9-1.5s-2.2,0.5-2.9,1.5c-0.7,1-1,2.6-1,4.7v6.7c0,2.3,0.4,3.9,1,4.9c0.6,1.1,1.6,1.6,3,1.6
		c1.4,0,2.3-0.5,2.9-1.6c0.6-1,1-2.6,1-4.9L473.7,124.1L473.7,124.1z"/>
	<path class="st4" d="M486.3,128.4c-0.8,0.8-1,1-1.4,1.3l-1.6-2.1c2.2-1.7,3.7-4,4.2-6.1l2.6,0.4c-0.1,0.4-0.2,0.7-0.5,1.4h11.8v2.4
		h-6.2v2.4h5.5v2.3h-5.5v3.2h7v2.4h-7v4.3h-2.6V136h-9.2v-2.4h2.9L486.3,128.4L486.3,128.4z M492.7,128.3v-2.4h-4.5
		c-0.4,0.7-1,1.3-1.7,2.4H492.7z M488.7,130.6v3.2h3.9v-3.2H488.7z"/>
</g>
<path class="st7" d="M119.4,213.3H24.7c-12.5,0-22.9-10.2-22.9-22.9l0,0c0-12.5,10.2-22.9,22.9-22.9h94.7
	c12.5,0,22.9,10.2,22.9,22.9l0,0C142.1,203,131.9,213.3,119.4,213.3z"/>
<path class="st7" d="M270.4,213.3h-94.7c-12.5,0-22.9-10.2-22.9-22.9l0,0c0-12.5,10.2-22.9,22.9-22.9h94.7
	c12.5,0,22.9,10.2,22.9,22.9l0,0C293.2,203,283,213.3,270.4,213.3z"/>
<path class="st7" d="M421.6,213.3h-94.8c-12.5,0-22.9-10.2-22.9-22.9l0,0c0-12.5,10.2-22.9,22.9-22.9h94.7
	c12.5,0,22.9,10.2,22.9,22.9l0,0C444.4,203,434,213.3,421.6,213.3z"/>
<path class="st7" d="M572.6,213.3h-94.7c-12.5,0-22.9-10.2-22.9-22.9l0,0c0-12.5,10.2-22.9,22.9-22.9h94.7
	c12.5,0,22.9,10.2,22.9,22.9l0,0C595.4,203,585.2,213.3,572.6,213.3z"/>
<path class="st7" d="M723.6,213.3H629c-12.5,0-22.9-10.2-22.9-22.9l0,0c0-12.5,10.2-22.9,22.9-22.9h94.7c12.5,0,22.9,10.2,22.9,22.9
	l0,0C746.5,203,736.2,213.3,723.6,213.3z"/>
<g>
	<path class="st4" d="M58.1,182.1h2.6v5.1c0,3.9,2,6.4,2.5,6.9c1.7,2.1,4.3,3.1,5.6,3.7l-1.5,2.4c-5.3-2.5-6.9-5.4-7.6-8.1
		c-0.4,1.4-1.3,5.3-7.5,8.1l-1.5-2.3c3.3-1.3,7.7-3.9,7.7-10.5L58.1,182.1L58.1,182.1z M53.5,191.4c-0.5-1.9-1.4-4.3-2.6-5.9l2.2-1
		c1.1,1.4,2.3,3.9,2.9,6L53.5,191.4z M63.1,190.4c1.3-1.9,2.2-4.9,2.4-6.1l2.6,0.9c-0.7,2.6-1.1,3.8-2.7,6.3L63.1,190.4z"/>
	<path class="st4" d="M69.4,197.7c3.4-0.5,8-1.8,7.9-8.2h2.4c-0.1,6.1,3.9,7.6,8,8.3l-1.1,2.5c-5.3-1.4-7.1-3.7-8-5.7
		c-1.3,3.3-4.9,4.9-8,5.7L69.4,197.7z M73,189.7c-0.5-1-1.4-2.3-3-3.9c1.5-1.7,2-2.2,3-3.7l2.2,1.1c-0.7,1-1,1.3-2.2,2.6
		c1,1,1.1,1.1,2.2,2.6L73,189.7z M72.8,195c-0.4-0.6-1-1.8-2.5-3.7l1.9-1.2c1,1.1,1.8,2.1,2.6,3.6L72.8,195z M79,189.5
		c-1-1.5-2.2-2.9-3.2-3.8c0.4-0.4,2.2-2.3,3-3.8L81,183c-0.9,1.1-1.5,1.9-2.2,2.6c0.6,0.5,1.6,1.5,2.5,2.5L79,189.5z M85.1,189.9
		c-1-1.5-1.9-2.8-3.2-4c1.6-1.7,1.9-2,3.1-3.9l2.2,1.1c-0.5,0.7-1.5,1.9-2.4,2.6c0.6,0.6,1.5,1.5,2.4,2.6L85.1,189.9z M82.2,193.6
		c1.1-1.2,1.7-2.2,2.4-3.5l2.3,1.1c-0.2,0.4-1.1,2.2-2.6,3.7L82.2,193.6z"/>
</g>
<g>
	<path class="st4" d="M196.4,186.4h6.9v2.4c-0.4,2.7-1.7,7-5.8,9.6l-1.3-2.3c3-1.9,4.3-4.1,4.9-7.3h-4.6L196.4,186.4L196.4,186.4z
		 M206.6,184.3c0,0.1,0,0.3,0,0.4c0,0.3,1.1,4,1.2,4.1c2.6-2,3.9-3.6,4.4-4.3l2.1,1.6c-1.6,1.9-3.4,3.4-5.5,4.9
		c0.9,1.3,2.3,3.4,5.7,5.5l-1.4,2.4c-3-2-5.6-4.9-6.6-7.9v7.2c0,1.8-1,2.1-1.9,2.1h-3.4l-0.5-2.5h2.9c0.4,0,0.6-0.2,0.6-0.5v-15h2.5
		L206.6,184.3L206.6,184.3z"/>
	<path class="st4" d="M219.4,193.1c-0.3,1.4-1.7,5.3-2.6,6.8l-1.8-2c0.4-0.6,1.1-1.9,2.4-5.8L219.4,193.1z M216.4,187.2
		c0.3,0.1,1.9,0.9,3,1.9l-1.4,1.9c-0.6-0.5-1.9-1.4-2.9-1.9L216.4,187.2z M220.1,184l-1.4,1.9c-0.8-0.7-2-1.4-3-1.9l1.3-1.9
		C217.5,182.4,218.9,182.9,220.1,184v-1.3H233v4.6h-10.7v1h11.2v1.8h-4.9v1h4.4v7.7c0,0.9-0.2,1.5-1.3,1.5h-2.3l-0.4-2h1.4
		c0.4,0,0.4,0,0.4-0.4v-1.1l-0.7,1c-0.9-0.8-1.4-1.1-1.7-1.2v3.8h-1.8V197l-0.8,1c-0.4-0.4-0.9-0.8-1.6-1.2v3.5h-1.9v-9.2h4.2v-1.1
		h-4.4v0.5c0,2.4-0.3,6.9-2.1,9.7l-1.9-1.6c1.5-2.7,1.9-5.7,1.9-8.3L220.1,184L220.1,184z M222.4,184.4v1.1h8.4v-1.1H222.4z
		 M224.4,194.1l0.8-1c0.6,0.4,1.1,0.7,1.6,1.1v-1.7h-2.4V194.1z M224.4,196.3l0.7-1c0.4,0.2,1,0.6,1.7,1.1V194l-0.9,1
		c-0.6-0.5-0.9-0.7-1.5-1.1V196.3z M228.5,193.8l0.7-1c0.8,0.4,1.4,1,1.6,1.1v-1.5h-2.4L228.5,193.8L228.5,193.8z M228.5,196.2
		l0.8-1c0.4,0.3,1.4,1,1.6,1.1v-2.2l-0.8,1c-0.3-0.3-0.8-0.6-1.6-1.2V196.2z"/>
	<path class="st4" d="M241.2,182.8c0,0.4-0.1,2.6-0.1,3.9c1.1-1,3.1-2.6,5.5-2.6c1.2,0,2.3,0.6,2.7,1.4c0.4,0.6,0.5,1.5,0.4,3
		l-0.2,5c0,1.6-0.1,2.7,2.7,2.6l-0.6,2.6c-3.2-0.3-4.9-0.8-4.9-4.9l0.2-4.9c0-1.1,0-2.3-1.1-2.3c-1,0-3,0.9-4.9,3.4
		c0,1.7-0.1,2.5-0.1,3.9c0,2.5,0.1,4.5,0.1,5.5h-2.6c0-1,0-4.9,0.1-5.6c-1.1,1.7-1.9,2.5-2.4,3l-1.4-2.5c0.7-0.7,2.4-2.3,3.7-4.8
		V188h-3.1v-2.4h3.2c0-0.3,0-2.8,0-2.8L241.2,182.8L241.2,182.8z"/>
</g>
<g>
	<path class="st4" d="M358.4,189.9c1.2,0.7,1.9,1.1,2.9,2.1l-1.4,1.9c-1-1.1-2.1-1.9-2.7-2.2L358.4,189.9z M362.3,195.3
		c-1.3,2.5-3.1,4.3-3.7,4.9l-1.3-2c1.1-1,2.2-2.2,3.7-4.6L362.3,195.3z M361.5,182.1h2.3v1h5.4v-1h2.3v1h3.9v2.1h-3.9v1.1h-2.3v-1.1
		h-5.4v1.1h-2.3v-1.1h-4v-2.1h4V182.1L361.5,182.1z M359.2,185.9c1,0.5,2,1.2,2.9,2.1l-1.5,1.9c-0.8-1-1.5-1.6-2.8-2.3L359.2,185.9z
		 M361.8,189.3c1.9-0.9,3.3-1.9,4.7-3.5l2.4,0.2c-0.2,0.4-0.3,0.4-0.4,0.8h5.6v1.6c-0.5,0.7-1.2,1.9-3,3.1c1.9,0.8,3.8,1,4.9,1
		l-0.9,2.3c-0.6-0.1-0.7-0.2-0.9-0.2v5.6h-2.3v-0.8h-6.2v0.8h-2.3v-5.6c-0.1,0-0.2,0-0.6,0.1l-1-2.1c1.1-0.2,2.8-0.4,4.9-1.2
		c-0.4-0.3-0.9-0.7-1.5-1.5c-0.9,0.6-1.5,1-2,1.1L361.8,189.3z M372.7,194.3c-1.8-0.5-3.1-1-4.1-1.5c-0.8,0.4-1.9,1-3.9,1.5H372.7z
		 M365.6,196.1v1.5h6.2v-1.5H365.6z M366.7,188.4c-0.1,0.1-0.1,0.1-0.2,0.2c0.5,0.6,1.1,1.1,2,1.8c1.1-0.8,1.9-1.4,2.4-1.9H366.7z"
		/>
	<path class="st4" d="M393.3,184.4h-6.6v0.9h7.4v4.6h-2.3v-2.9h-5.1v4.3h-2.3v-4.3h-5v2.9H377v-4.6h7.3v-0.9h-6.5v-1.8h15.4
		L393.3,184.4L393.3,184.4z M377.7,191.7h15.7v8.5h-2.3v-0.6H380v0.6h-2.3V191.7L377.7,191.7z M379.9,193.5v1.2h4.4v-1.2H379.9z
		 M379.9,196.3v1.3h4.4v-1.3H379.9z M380.1,187.6h3.5v1.1h-3.5V187.6z M380.1,189.7h3.5v1.1h-3.5V189.7z M386.6,193.5v1.2h4.6v-1.2
		H386.6z M386.6,196.3v1.3h4.6v-1.3H386.6z M387.4,187.6h3.6v1.1h-3.6V187.6z M387.4,189.7h3.6v1.1h-3.6V189.7z"/>
</g>
<g>
	<path class="st4" d="M654.3,193.4c-0.8,1.9-2.4,4.9-3.9,6.7l-1.4-2.4c1.2-1.5,2.6-3.7,3.4-5.6L654.3,193.4z M650.1,187.1
		c0.6,0.3,1.9,0.9,3.3,1.9l-1.3,2.1c-1.6-1.2-2.6-1.7-3.1-1.9L650.1,187.1z M650.9,182c0.4,0.2,2,1,3.3,1.9l-1.4,2
		c-1.1-0.9-2.2-1.5-3.2-2L650.9,182z M656.8,182.2c0.6,0.9,1.4,2.3,1.9,3.8l-2.3,0.8c-0.1-0.4-0.9-2.4-1.8-3.7L656.8,182.2z
		 M659.6,186.9V182h2.4v4.9h4.5v11.6c0,1.1-0.7,1.6-1.7,1.6h-3.3l-0.4-2.3h2.6c0.4,0,0.4-0.1,0.4-0.5v-1.6h-6.6v4.4h-2.4v-13.1
		H659.6L659.6,186.9z M657.5,189v1.4h6.6V189H657.5z M657.5,192.3v1.4h6.6v-1.4H657.5z M667.1,182.9c-0.4,1-1.1,2.6-2.1,3.9l-2-1
		c0.9-1.1,1.5-2.4,2-3.7L667.1,182.9z"/>
	<path class="st4" d="M667.9,195.9c1.9-1.6,3-3.5,3.1-3.8h-2.8v-2h3v-1.2h-2.4v-1.9h2.6v-1.1h-2.9v-2h2.9v-1.6h2.2v1.6h2.6v2h-2.6
		v1.2h2.3v1.9h-2.3v1.2h3v2h-2.9c1.2,1.9,2.4,2.6,2.9,3l-1.1,2.1c-0.4-0.4-1.1-1.1-1.9-2.6v5.3h-2.2v-4.9c-1.1,2.1-2,3-2.6,3.4
		L667.9,195.9z M679.6,185.2c-1,0.1-1.6,0.2-2.6,0.2l-0.5-2.2c5.6-0.3,7.5-0.9,8.5-1.1l1,1.9c-0.5,0.2-1.6,0.6-4.1,1v2.3l4.1-0.4
		l0.2,2.2l-4.2,0.4v2.4l4.2-0.4l0.1,2.2l-4.4,0.4v3.1c0,0.4,0,0.6,0.5,0.6h1.2c0.4,0,0.5-0.3,0.5-0.4c0.1-0.2,0.2-1.6,0.2-2l2.1,0.6
		c-0.1,3.2-0.4,4.2-1.8,4.2h-3.4c-0.4,0-1.7,0-1.7-1.4v-4.5l-2.8,0.3l-0.2-2.2l3-0.3v-2.4l-2.8,0.3l-0.2-2.2l3-0.3L679.6,185.2
		L679.6,185.2L679.6,185.2z"/>
	<path class="st4" d="M688.1,190.9h7.6v9.1h-2.2v-0.9h-3.1v0.9h-2.2L688.1,190.9L688.1,190.9z M689.8,182.6h13.2v7h-13.2V182.6z
		 M690.3,197.1h3.1V193h-3.1V197.1z M692.1,187.6h8.6v-2.8h-8.6V187.6z M702.6,200.2v-0.9h-3.4v0.9H697v-9.1h7.9v9.1H702.6z
		 M699.3,197.1h3.4V193h-3.4V197.1z"/>
</g>
<g>
	<path class="st4" d="M470.3,190.9c-0.5-1-1.7-3.2-3.2-4.9l2.1-1.1c1.3,1.5,2.3,2.7,3.4,4.8L470.3,190.9z M468.6,196.9
		c3.4-0.9,8.9-2.4,10.6-12.6l2.7,0.5c-1.9,7.9-4.5,12.2-12,14.1L468.6,196.9z"/>
	<path class="st4" d="M498.4,184.8c-0.4,4.6-1.3,12.3-11.9,14.3l-1-2.3c8.5-1.3,9.5-6.4,10.1-9.7h-11.5v-2.3L498.4,184.8
		L498.4,184.8z"/>
	<path class="st4" d="M505.1,183.7v4.5c3.1,0.9,6.1,2.2,8.9,3.8l-1.1,2.6c-1.6-1.1-5.5-3.2-7.6-3.8v8.9h-2.6v-15.9L505.1,183.7
		L505.1,183.7z"/>
	<path class="st4" d="M521.6,191.5c0,1.1-1,2.2-2.2,2.2c-1.1,0-2.2-1-2.2-2.2s1-2.2,2.2-2.2S521.6,190.3,521.6,191.5z"/>
	<path class="st4" d="M534.2,183.7v2.6h5.9v1.4c-0.3,8.6-5.1,11-11.5,11.6l-0.8-2.3c3.3-0.3,7.5-1.1,8.9-4.6
		c0.1-0.3,0.9-2.2,0.9-4.1h-9.2v4.1h-2.4v-6.3h5.7v-2.6L534.2,183.7L534.2,183.7z"/>
	<path class="st4" d="M550.5,199.6h-2.2v-6.2c-2.3,1.4-3.8,1.9-5.1,2.4l-1-1.9c6.2-2,9.4-5.6,10.6-7.1l1.9,1.4
		c-0.5,0.6-1.9,2.1-4.1,3.8L550.5,199.6L550.5,199.6z"/>
	<path class="st4" d="M560.6,188.9c0,2.1-0.2,4-0.6,5.7c-0.4,2.1-1.3,3.8-2.8,5.1l-1.9-1.7c1-1,2.9-2.8,2.9-8.8v-4.9h2.5
		L560.6,188.9L560.6,188.9z M565.4,196.3c1.1-0.4,2.2-1,3.2-2.6c0.4-0.7,1.1-1.9,1.4-4.1l2.2,1c-1,4.9-4.3,8.5-9.3,8.6v-15.3h2.4
		L565.4,196.3L565.4,196.3z"/>
	<path class="st4" d="M571.8,197.4c4.1-1.5,8.1-5.1,10.1-10.4h-9.1v-2.3H585c-0.3,1.1-0.8,3.9-3.3,7.4c2.2,1.7,4.1,3.4,6,5.1l-2,2
		c-1.7-1.9-3.4-3.7-5.4-5.4c-2,2.3-4.4,4.2-7.1,5.4L571.8,197.4z"/>
</g>
</svg>
